%TF.GenerationSoftware,KiCad,Pcbnew,5.1.10-88a1d61d58~90~ubuntu20.04.1*%
%TF.CreationDate,2021-10-19T17:00:37+01:00*%
%TF.ProjectId,L6235-breakout,4c363233-352d-4627-9265-616b6f75742e,rev?*%
%TF.SameCoordinates,Original*%
%TF.FileFunction,Copper,L2,Bot*%
%TF.FilePolarity,Positive*%
%FSLAX46Y46*%
G04 Gerber Fmt 4.6, Leading zero omitted, Abs format (unit mm)*
G04 Created by KiCad (PCBNEW 5.1.10-88a1d61d58~90~ubuntu20.04.1) date 2021-10-19 17:00:37*
%MOMM*%
%LPD*%
G01*
G04 APERTURE LIST*
%TA.AperFunction,ComponentPad*%
%ADD10C,1.600000*%
%TD*%
%TA.AperFunction,ComponentPad*%
%ADD11O,1.700000X1.700000*%
%TD*%
%TA.AperFunction,ComponentPad*%
%ADD12R,1.700000X1.700000*%
%TD*%
%TA.AperFunction,ViaPad*%
%ADD13C,0.800000*%
%TD*%
%TA.AperFunction,Conductor*%
%ADD14C,1.000000*%
%TD*%
%TA.AperFunction,Conductor*%
%ADD15C,0.300000*%
%TD*%
%TA.AperFunction,Conductor*%
%ADD16C,0.254000*%
%TD*%
%TA.AperFunction,Conductor*%
%ADD17C,0.100000*%
%TD*%
G04 APERTURE END LIST*
D10*
%TO.P,C3,1*%
%TO.N,VSS*%
X36461700Y-157734000D03*
%TO.P,C3,2*%
%TO.N,GND*%
X36461700Y-154234000D03*
%TD*%
D11*
%TO.P,J1,5*%
%TO.N,TACHO*%
X48793400Y-175869600D03*
%TO.P,J1,4*%
%TO.N,BRAKE*%
X48793400Y-173329600D03*
%TO.P,J1,3*%
%TO.N,F-R*%
X48793400Y-170789600D03*
%TO.P,J1,2*%
%TO.N,Net-(J1-Pad2)*%
X48793400Y-168249600D03*
D12*
%TO.P,J1,1*%
%TO.N,Net-(J1-Pad1)*%
X48793400Y-165709600D03*
%TD*%
%TO.P,J2,1*%
%TO.N,+5V*%
X15633700Y-167246300D03*
D11*
%TO.P,J2,2*%
%TO.N,HALL1*%
X15633700Y-169786300D03*
%TO.P,J2,3*%
%TO.N,HALL2*%
X15633700Y-172326300D03*
%TO.P,J2,4*%
%TO.N,HALL3*%
X15633700Y-174866300D03*
%TO.P,J2,5*%
%TO.N,GND*%
X15633700Y-177406300D03*
%TD*%
D12*
%TO.P,J3,1*%
%TO.N,PHASE1*%
X28194000Y-182194200D03*
D11*
%TO.P,J3,2*%
%TO.N,PHASE2*%
X30734000Y-182194200D03*
%TO.P,J3,3*%
%TO.N,PHASE3*%
X33274000Y-182194200D03*
%TD*%
D12*
%TO.P,J5,1*%
%TO.N,VSS*%
X30086300Y-157607000D03*
D11*
%TO.P,J5,2*%
%TO.N,GND*%
X30086300Y-155067000D03*
%TD*%
D10*
%TO.P,C9,1*%
%TO.N,+5V*%
X15250000Y-160750000D03*
%TO.P,C9,2*%
%TO.N,GND*%
X11750000Y-160750000D03*
%TD*%
D13*
%TO.N,GND*%
X46723300Y-162128200D03*
X37907100Y-164132400D03*
X45570100Y-174647900D03*
X37907100Y-177873800D03*
X24975900Y-177424000D03*
X46800000Y-169400000D03*
%TO.N,VSS*%
X17220000Y-154530000D03*
%TO.N,+5V*%
X10388600Y-169291000D03*
X19333200Y-173287700D03*
X40260900Y-178610900D03*
%TO.N,BRAKE*%
X32829500Y-161607500D03*
%TO.N,PHASE2*%
X27025600Y-161988500D03*
%TD*%
D14*
%TO.N,VSS*%
X20297000Y-157607000D02*
X17220000Y-154530000D01*
X30086300Y-157607000D02*
X20297000Y-157607000D01*
D15*
%TO.N,+5V*%
X12433300Y-167246300D02*
X10388600Y-169291000D01*
X15633700Y-167246300D02*
X12433300Y-167246300D01*
X19333200Y-170945800D02*
X15633700Y-167246300D01*
X19333200Y-173287700D02*
X19333200Y-170945800D01*
X40260900Y-178610900D02*
X40260900Y-179944400D01*
X40260900Y-179944400D02*
X35306000Y-184899300D01*
X35306000Y-184899300D02*
X21615400Y-184899300D01*
X19333200Y-182617100D02*
X19333200Y-173287700D01*
X21615400Y-184899300D02*
X19333200Y-182617100D01*
%TO.N,BRAKE*%
X37071300Y-161607500D02*
X48793400Y-173329600D01*
X32829500Y-161607500D02*
X37071300Y-161607500D01*
D14*
%TO.N,PHASE2*%
X27025600Y-178485800D02*
X27025600Y-161988500D01*
X30734000Y-180992119D02*
X29777081Y-180035200D01*
X30734000Y-182194200D02*
X30734000Y-180992119D01*
X28575000Y-180035200D02*
X27025600Y-178485800D01*
X29777081Y-180035200D02*
X28575000Y-180035200D01*
%TD*%
D16*
%TO.N,GND*%
X55340001Y-189340000D02*
X1660000Y-189340000D01*
X1660000Y-185779872D01*
X2765000Y-185779872D01*
X2765000Y-186220128D01*
X2850890Y-186651925D01*
X3019369Y-187058669D01*
X3263962Y-187424729D01*
X3575271Y-187736038D01*
X3941331Y-187980631D01*
X4348075Y-188149110D01*
X4779872Y-188235000D01*
X5220128Y-188235000D01*
X5651925Y-188149110D01*
X6058669Y-187980631D01*
X6424729Y-187736038D01*
X6736038Y-187424729D01*
X6980631Y-187058669D01*
X7149110Y-186651925D01*
X7235000Y-186220128D01*
X7235000Y-185779872D01*
X49765000Y-185779872D01*
X49765000Y-186220128D01*
X49850890Y-186651925D01*
X50019369Y-187058669D01*
X50263962Y-187424729D01*
X50575271Y-187736038D01*
X50941331Y-187980631D01*
X51348075Y-188149110D01*
X51779872Y-188235000D01*
X52220128Y-188235000D01*
X52651925Y-188149110D01*
X53058669Y-187980631D01*
X53424729Y-187736038D01*
X53736038Y-187424729D01*
X53980631Y-187058669D01*
X54149110Y-186651925D01*
X54235000Y-186220128D01*
X54235000Y-185779872D01*
X54149110Y-185348075D01*
X53980631Y-184941331D01*
X53736038Y-184575271D01*
X53424729Y-184263962D01*
X53058669Y-184019369D01*
X52651925Y-183850890D01*
X52220128Y-183765000D01*
X51779872Y-183765000D01*
X51348075Y-183850890D01*
X50941331Y-184019369D01*
X50575271Y-184263962D01*
X50263962Y-184575271D01*
X50019369Y-184941331D01*
X49850890Y-185348075D01*
X49765000Y-185779872D01*
X7235000Y-185779872D01*
X7149110Y-185348075D01*
X6980631Y-184941331D01*
X6736038Y-184575271D01*
X6424729Y-184263962D01*
X6058669Y-184019369D01*
X5651925Y-183850890D01*
X5220128Y-183765000D01*
X4779872Y-183765000D01*
X4348075Y-183850890D01*
X3941331Y-184019369D01*
X3575271Y-184263962D01*
X3263962Y-184575271D01*
X3019369Y-184941331D01*
X2850890Y-185348075D01*
X2765000Y-185779872D01*
X1660000Y-185779872D01*
X1660000Y-177763190D01*
X14192224Y-177763190D01*
X14236875Y-177910399D01*
X14362059Y-178173220D01*
X14536112Y-178406569D01*
X14752345Y-178601478D01*
X15002448Y-178750457D01*
X15276809Y-178847781D01*
X15506700Y-178727114D01*
X15506700Y-177533300D01*
X15760700Y-177533300D01*
X15760700Y-178727114D01*
X15990591Y-178847781D01*
X16264952Y-178750457D01*
X16515055Y-178601478D01*
X16731288Y-178406569D01*
X16905341Y-178173220D01*
X17030525Y-177910399D01*
X17075176Y-177763190D01*
X16953855Y-177533300D01*
X15760700Y-177533300D01*
X15506700Y-177533300D01*
X14313545Y-177533300D01*
X14192224Y-177763190D01*
X1660000Y-177763190D01*
X1660000Y-169189061D01*
X9353600Y-169189061D01*
X9353600Y-169392939D01*
X9393374Y-169592898D01*
X9471395Y-169781256D01*
X9584663Y-169950774D01*
X9728826Y-170094937D01*
X9898344Y-170208205D01*
X10086702Y-170286226D01*
X10286661Y-170326000D01*
X10490539Y-170326000D01*
X10690498Y-170286226D01*
X10878856Y-170208205D01*
X11048374Y-170094937D01*
X11192537Y-169950774D01*
X11305805Y-169781256D01*
X11383826Y-169592898D01*
X11423600Y-169392939D01*
X11423600Y-169366157D01*
X12758458Y-168031300D01*
X14145628Y-168031300D01*
X14145628Y-168096300D01*
X14157888Y-168220782D01*
X14194198Y-168340480D01*
X14253163Y-168450794D01*
X14332515Y-168547485D01*
X14429206Y-168626837D01*
X14539520Y-168685802D01*
X14612080Y-168707813D01*
X14480225Y-168839668D01*
X14317710Y-169082889D01*
X14205768Y-169353142D01*
X14148700Y-169640040D01*
X14148700Y-169932560D01*
X14205768Y-170219458D01*
X14317710Y-170489711D01*
X14480225Y-170732932D01*
X14687068Y-170939775D01*
X14861460Y-171056300D01*
X14687068Y-171172825D01*
X14480225Y-171379668D01*
X14317710Y-171622889D01*
X14205768Y-171893142D01*
X14148700Y-172180040D01*
X14148700Y-172472560D01*
X14205768Y-172759458D01*
X14317710Y-173029711D01*
X14480225Y-173272932D01*
X14687068Y-173479775D01*
X14861460Y-173596300D01*
X14687068Y-173712825D01*
X14480225Y-173919668D01*
X14317710Y-174162889D01*
X14205768Y-174433142D01*
X14148700Y-174720040D01*
X14148700Y-175012560D01*
X14205768Y-175299458D01*
X14317710Y-175569711D01*
X14480225Y-175812932D01*
X14687068Y-176019775D01*
X14869234Y-176141495D01*
X14752345Y-176211122D01*
X14536112Y-176406031D01*
X14362059Y-176639380D01*
X14236875Y-176902201D01*
X14192224Y-177049410D01*
X14313545Y-177279300D01*
X15506700Y-177279300D01*
X15506700Y-177259300D01*
X15760700Y-177259300D01*
X15760700Y-177279300D01*
X16953855Y-177279300D01*
X17075176Y-177049410D01*
X17030525Y-176902201D01*
X16905341Y-176639380D01*
X16731288Y-176406031D01*
X16515055Y-176211122D01*
X16398166Y-176141495D01*
X16580332Y-176019775D01*
X16787175Y-175812932D01*
X16949690Y-175569711D01*
X17061632Y-175299458D01*
X17118700Y-175012560D01*
X17118700Y-174720040D01*
X17061632Y-174433142D01*
X16949690Y-174162889D01*
X16787175Y-173919668D01*
X16580332Y-173712825D01*
X16405940Y-173596300D01*
X16580332Y-173479775D01*
X16787175Y-173272932D01*
X16949690Y-173029711D01*
X17061632Y-172759458D01*
X17118700Y-172472560D01*
X17118700Y-172180040D01*
X17061632Y-171893142D01*
X16949690Y-171622889D01*
X16787175Y-171379668D01*
X16580332Y-171172825D01*
X16405940Y-171056300D01*
X16580332Y-170939775D01*
X16787175Y-170732932D01*
X16949690Y-170489711D01*
X17061632Y-170219458D01*
X17118700Y-169932560D01*
X17118700Y-169841458D01*
X18548201Y-171270959D01*
X18548200Y-172608989D01*
X18529263Y-172627926D01*
X18415995Y-172797444D01*
X18337974Y-172985802D01*
X18298200Y-173185761D01*
X18298200Y-173389639D01*
X18337974Y-173589598D01*
X18415995Y-173777956D01*
X18529263Y-173947474D01*
X18548201Y-173966412D01*
X18548200Y-182578547D01*
X18544403Y-182617100D01*
X18548200Y-182655653D01*
X18548200Y-182655660D01*
X18559559Y-182770986D01*
X18604446Y-182918959D01*
X18677338Y-183055332D01*
X18775436Y-183174864D01*
X18805390Y-183199447D01*
X21033058Y-185427116D01*
X21057636Y-185457064D01*
X21087584Y-185481642D01*
X21087587Y-185481645D01*
X21116959Y-185505750D01*
X21177167Y-185555162D01*
X21313540Y-185628054D01*
X21461512Y-185672941D01*
X21475890Y-185674357D01*
X21576839Y-185684300D01*
X21576846Y-185684300D01*
X21615399Y-185688097D01*
X21653952Y-185684300D01*
X35267447Y-185684300D01*
X35306000Y-185688097D01*
X35344553Y-185684300D01*
X35344561Y-185684300D01*
X35459887Y-185672941D01*
X35607860Y-185628054D01*
X35744233Y-185555162D01*
X35863764Y-185457064D01*
X35888347Y-185427110D01*
X40788710Y-180526747D01*
X40818664Y-180502164D01*
X40916762Y-180382633D01*
X40989654Y-180246260D01*
X41008034Y-180185670D01*
X41034542Y-180098287D01*
X41041920Y-180023374D01*
X41045900Y-179982961D01*
X41045900Y-179982956D01*
X41049697Y-179944400D01*
X41045900Y-179905844D01*
X41045900Y-179289611D01*
X41064837Y-179270674D01*
X41178105Y-179101156D01*
X41256126Y-178912798D01*
X41295900Y-178712839D01*
X41295900Y-178508961D01*
X41256126Y-178309002D01*
X41178105Y-178120644D01*
X41064837Y-177951126D01*
X40920674Y-177806963D01*
X40751156Y-177693695D01*
X40562798Y-177615674D01*
X40362839Y-177575900D01*
X40158961Y-177575900D01*
X39959002Y-177615674D01*
X39770644Y-177693695D01*
X39601126Y-177806963D01*
X39456963Y-177951126D01*
X39343695Y-178120644D01*
X39265674Y-178309002D01*
X39225900Y-178508961D01*
X39225900Y-178712839D01*
X39265674Y-178912798D01*
X39343695Y-179101156D01*
X39456963Y-179270674D01*
X39475901Y-179289612D01*
X39475901Y-179619242D01*
X34980843Y-184114300D01*
X21940558Y-184114300D01*
X20118200Y-182291943D01*
X20118200Y-178485800D01*
X25885109Y-178485800D01*
X25890600Y-178541551D01*
X25907023Y-178708298D01*
X25971924Y-178922246D01*
X26077316Y-179119423D01*
X26219151Y-179292249D01*
X26262465Y-179327796D01*
X27640796Y-180706128D01*
X27344000Y-180706128D01*
X27219518Y-180718388D01*
X27099820Y-180754698D01*
X26989506Y-180813663D01*
X26892815Y-180893015D01*
X26813463Y-180989706D01*
X26754498Y-181100020D01*
X26718188Y-181219718D01*
X26705928Y-181344200D01*
X26705928Y-183044200D01*
X26718188Y-183168682D01*
X26754498Y-183288380D01*
X26813463Y-183398694D01*
X26892815Y-183495385D01*
X26989506Y-183574737D01*
X27099820Y-183633702D01*
X27219518Y-183670012D01*
X27344000Y-183682272D01*
X29044000Y-183682272D01*
X29168482Y-183670012D01*
X29288180Y-183633702D01*
X29398494Y-183574737D01*
X29495185Y-183495385D01*
X29574537Y-183398694D01*
X29633502Y-183288380D01*
X29655513Y-183215820D01*
X29787368Y-183347675D01*
X30030589Y-183510190D01*
X30300842Y-183622132D01*
X30587740Y-183679200D01*
X30880260Y-183679200D01*
X31167158Y-183622132D01*
X31437411Y-183510190D01*
X31680632Y-183347675D01*
X31887475Y-183140832D01*
X32004000Y-182966440D01*
X32120525Y-183140832D01*
X32327368Y-183347675D01*
X32570589Y-183510190D01*
X32840842Y-183622132D01*
X33127740Y-183679200D01*
X33420260Y-183679200D01*
X33707158Y-183622132D01*
X33977411Y-183510190D01*
X34220632Y-183347675D01*
X34427475Y-183140832D01*
X34589990Y-182897611D01*
X34701932Y-182627358D01*
X34759000Y-182340460D01*
X34759000Y-182047940D01*
X34701932Y-181761042D01*
X34589990Y-181490789D01*
X34427475Y-181247568D01*
X34220632Y-181040725D01*
X33977411Y-180878210D01*
X33707158Y-180766268D01*
X33420260Y-180709200D01*
X33127740Y-180709200D01*
X32840842Y-180766268D01*
X32570589Y-180878210D01*
X32327368Y-181040725D01*
X32120525Y-181247568D01*
X32004000Y-181421960D01*
X31887475Y-181247568D01*
X31869000Y-181229093D01*
X31869000Y-181047871D01*
X31874491Y-180992119D01*
X31852577Y-180769620D01*
X31787676Y-180555672D01*
X31682284Y-180358496D01*
X31540449Y-180185670D01*
X31497140Y-180150127D01*
X30619077Y-179272064D01*
X30583530Y-179228751D01*
X30410704Y-179086916D01*
X30213528Y-178981524D01*
X29999580Y-178916623D01*
X29832833Y-178900200D01*
X29832832Y-178900200D01*
X29777081Y-178894709D01*
X29721330Y-178900200D01*
X29045132Y-178900200D01*
X28160600Y-178015669D01*
X28160600Y-161932748D01*
X28144177Y-161766001D01*
X28079276Y-161552053D01*
X28054426Y-161505561D01*
X31794500Y-161505561D01*
X31794500Y-161709439D01*
X31834274Y-161909398D01*
X31912295Y-162097756D01*
X32025563Y-162267274D01*
X32169726Y-162411437D01*
X32339244Y-162524705D01*
X32527602Y-162602726D01*
X32727561Y-162642500D01*
X32931439Y-162642500D01*
X33131398Y-162602726D01*
X33319756Y-162524705D01*
X33489274Y-162411437D01*
X33508211Y-162392500D01*
X36746143Y-162392500D01*
X47346325Y-172992682D01*
X47308400Y-173183340D01*
X47308400Y-173475860D01*
X47365468Y-173762758D01*
X47477410Y-174033011D01*
X47639925Y-174276232D01*
X47846768Y-174483075D01*
X48021160Y-174599600D01*
X47846768Y-174716125D01*
X47639925Y-174922968D01*
X47477410Y-175166189D01*
X47365468Y-175436442D01*
X47308400Y-175723340D01*
X47308400Y-176015860D01*
X47365468Y-176302758D01*
X47477410Y-176573011D01*
X47639925Y-176816232D01*
X47846768Y-177023075D01*
X48089989Y-177185590D01*
X48360242Y-177297532D01*
X48647140Y-177354600D01*
X48939660Y-177354600D01*
X49226558Y-177297532D01*
X49496811Y-177185590D01*
X49740032Y-177023075D01*
X49946875Y-176816232D01*
X50109390Y-176573011D01*
X50221332Y-176302758D01*
X50278400Y-176015860D01*
X50278400Y-175723340D01*
X50221332Y-175436442D01*
X50109390Y-175166189D01*
X49946875Y-174922968D01*
X49740032Y-174716125D01*
X49565640Y-174599600D01*
X49740032Y-174483075D01*
X49946875Y-174276232D01*
X50109390Y-174033011D01*
X50221332Y-173762758D01*
X50278400Y-173475860D01*
X50278400Y-173183340D01*
X50221332Y-172896442D01*
X50109390Y-172626189D01*
X49946875Y-172382968D01*
X49740032Y-172176125D01*
X49565640Y-172059600D01*
X49740032Y-171943075D01*
X49946875Y-171736232D01*
X50109390Y-171493011D01*
X50221332Y-171222758D01*
X50278400Y-170935860D01*
X50278400Y-170643340D01*
X50221332Y-170356442D01*
X50109390Y-170086189D01*
X49946875Y-169842968D01*
X49740032Y-169636125D01*
X49565640Y-169519600D01*
X49740032Y-169403075D01*
X49946875Y-169196232D01*
X50109390Y-168953011D01*
X50221332Y-168682758D01*
X50278400Y-168395860D01*
X50278400Y-168103340D01*
X50221332Y-167816442D01*
X50109390Y-167546189D01*
X49946875Y-167302968D01*
X49815020Y-167171113D01*
X49887580Y-167149102D01*
X49997894Y-167090137D01*
X50094585Y-167010785D01*
X50173937Y-166914094D01*
X50232902Y-166803780D01*
X50269212Y-166684082D01*
X50281472Y-166559600D01*
X50281472Y-164859600D01*
X50269212Y-164735118D01*
X50232902Y-164615420D01*
X50173937Y-164505106D01*
X50094585Y-164408415D01*
X49997894Y-164329063D01*
X49887580Y-164270098D01*
X49767882Y-164233788D01*
X49643400Y-164221528D01*
X47943400Y-164221528D01*
X47818918Y-164233788D01*
X47699220Y-164270098D01*
X47588906Y-164329063D01*
X47492215Y-164408415D01*
X47412863Y-164505106D01*
X47353898Y-164615420D01*
X47317588Y-164735118D01*
X47305328Y-164859600D01*
X47305328Y-166559600D01*
X47317588Y-166684082D01*
X47353898Y-166803780D01*
X47412863Y-166914094D01*
X47492215Y-167010785D01*
X47588906Y-167090137D01*
X47699220Y-167149102D01*
X47771780Y-167171113D01*
X47639925Y-167302968D01*
X47477410Y-167546189D01*
X47365468Y-167816442D01*
X47308400Y-168103340D01*
X47308400Y-168395860D01*
X47365468Y-168682758D01*
X47477410Y-168953011D01*
X47639925Y-169196232D01*
X47846768Y-169403075D01*
X48021160Y-169519600D01*
X47846768Y-169636125D01*
X47639925Y-169842968D01*
X47477410Y-170086189D01*
X47365468Y-170356442D01*
X47308400Y-170643340D01*
X47308400Y-170734443D01*
X37653647Y-161079690D01*
X37629064Y-161049736D01*
X37509533Y-160951638D01*
X37373160Y-160878746D01*
X37225187Y-160833859D01*
X37109861Y-160822500D01*
X37109853Y-160822500D01*
X37071300Y-160818703D01*
X37032747Y-160822500D01*
X33508211Y-160822500D01*
X33489274Y-160803563D01*
X33319756Y-160690295D01*
X33131398Y-160612274D01*
X32931439Y-160572500D01*
X32727561Y-160572500D01*
X32527602Y-160612274D01*
X32339244Y-160690295D01*
X32169726Y-160803563D01*
X32025563Y-160947726D01*
X31912295Y-161117244D01*
X31834274Y-161305602D01*
X31794500Y-161505561D01*
X28054426Y-161505561D01*
X27973884Y-161354877D01*
X27832049Y-161182051D01*
X27659223Y-161040216D01*
X27462047Y-160934824D01*
X27248099Y-160869923D01*
X27025600Y-160848009D01*
X26803102Y-160869923D01*
X26589154Y-160934824D01*
X26391978Y-161040216D01*
X26219152Y-161182051D01*
X26077317Y-161354877D01*
X25971925Y-161552053D01*
X25907024Y-161766001D01*
X25890601Y-161932748D01*
X25890600Y-178430049D01*
X25885109Y-178485800D01*
X20118200Y-178485800D01*
X20118200Y-173966411D01*
X20137137Y-173947474D01*
X20250405Y-173777956D01*
X20328426Y-173589598D01*
X20368200Y-173389639D01*
X20368200Y-173185761D01*
X20328426Y-172985802D01*
X20250405Y-172797444D01*
X20137137Y-172627926D01*
X20118200Y-172608989D01*
X20118200Y-170984352D01*
X20121997Y-170945799D01*
X20118200Y-170907246D01*
X20118200Y-170907239D01*
X20106841Y-170791913D01*
X20061954Y-170643940D01*
X19989062Y-170507567D01*
X19890964Y-170388036D01*
X19861016Y-170363458D01*
X17121772Y-167624215D01*
X17121772Y-166396300D01*
X17109512Y-166271818D01*
X17073202Y-166152120D01*
X17014237Y-166041806D01*
X16934885Y-165945115D01*
X16838194Y-165865763D01*
X16727880Y-165806798D01*
X16608182Y-165770488D01*
X16483700Y-165758228D01*
X14783700Y-165758228D01*
X14659218Y-165770488D01*
X14539520Y-165806798D01*
X14429206Y-165865763D01*
X14332515Y-165945115D01*
X14253163Y-166041806D01*
X14194198Y-166152120D01*
X14157888Y-166271818D01*
X14145628Y-166396300D01*
X14145628Y-166461300D01*
X12471852Y-166461300D01*
X12433299Y-166457503D01*
X12394746Y-166461300D01*
X12394739Y-166461300D01*
X12293790Y-166471243D01*
X12279412Y-166472659D01*
X12244972Y-166483106D01*
X12131440Y-166517546D01*
X11995067Y-166590438D01*
X11934859Y-166639850D01*
X11905487Y-166663955D01*
X11905484Y-166663958D01*
X11875536Y-166688536D01*
X11850958Y-166718484D01*
X10313443Y-168256000D01*
X10286661Y-168256000D01*
X10086702Y-168295774D01*
X9898344Y-168373795D01*
X9728826Y-168487063D01*
X9584663Y-168631226D01*
X9471395Y-168800744D01*
X9393374Y-168989102D01*
X9353600Y-169189061D01*
X1660000Y-169189061D01*
X1660000Y-162779872D01*
X2765000Y-162779872D01*
X2765000Y-163220128D01*
X2850890Y-163651925D01*
X3019369Y-164058669D01*
X3263962Y-164424729D01*
X3575271Y-164736038D01*
X3941331Y-164980631D01*
X4348075Y-165149110D01*
X4779872Y-165235000D01*
X5220128Y-165235000D01*
X5651925Y-165149110D01*
X6058669Y-164980631D01*
X6424729Y-164736038D01*
X6736038Y-164424729D01*
X6980631Y-164058669D01*
X7149110Y-163651925D01*
X7235000Y-163220128D01*
X7235000Y-162779872D01*
X7149110Y-162348075D01*
X6980631Y-161941331D01*
X6847912Y-161742702D01*
X10936903Y-161742702D01*
X11008486Y-161986671D01*
X11263996Y-162107571D01*
X11538184Y-162176300D01*
X11820512Y-162190217D01*
X12100130Y-162148787D01*
X12366292Y-162053603D01*
X12491514Y-161986671D01*
X12563097Y-161742702D01*
X11750000Y-160929605D01*
X10936903Y-161742702D01*
X6847912Y-161742702D01*
X6736038Y-161575271D01*
X6424729Y-161263962D01*
X6058669Y-161019369D01*
X5651925Y-160850890D01*
X5499205Y-160820512D01*
X10309783Y-160820512D01*
X10351213Y-161100130D01*
X10446397Y-161366292D01*
X10513329Y-161491514D01*
X10757298Y-161563097D01*
X11570395Y-160750000D01*
X11929605Y-160750000D01*
X12742702Y-161563097D01*
X12986671Y-161491514D01*
X13107571Y-161236004D01*
X13176300Y-160961816D01*
X13190217Y-160679488D01*
X13179724Y-160608665D01*
X13815000Y-160608665D01*
X13815000Y-160891335D01*
X13870147Y-161168574D01*
X13978320Y-161429727D01*
X14135363Y-161664759D01*
X14335241Y-161864637D01*
X14570273Y-162021680D01*
X14831426Y-162129853D01*
X15108665Y-162185000D01*
X15391335Y-162185000D01*
X15668574Y-162129853D01*
X15929727Y-162021680D01*
X16164759Y-161864637D01*
X16364637Y-161664759D01*
X16521680Y-161429727D01*
X16629853Y-161168574D01*
X16685000Y-160891335D01*
X16685000Y-160608665D01*
X16629853Y-160331426D01*
X16521680Y-160070273D01*
X16364637Y-159835241D01*
X16164759Y-159635363D01*
X15929727Y-159478320D01*
X15668574Y-159370147D01*
X15391335Y-159315000D01*
X15108665Y-159315000D01*
X14831426Y-159370147D01*
X14570273Y-159478320D01*
X14335241Y-159635363D01*
X14135363Y-159835241D01*
X13978320Y-160070273D01*
X13870147Y-160331426D01*
X13815000Y-160608665D01*
X13179724Y-160608665D01*
X13148787Y-160399870D01*
X13053603Y-160133708D01*
X12986671Y-160008486D01*
X12742702Y-159936903D01*
X11929605Y-160750000D01*
X11570395Y-160750000D01*
X10757298Y-159936903D01*
X10513329Y-160008486D01*
X10392429Y-160263996D01*
X10323700Y-160538184D01*
X10309783Y-160820512D01*
X5499205Y-160820512D01*
X5220128Y-160765000D01*
X4779872Y-160765000D01*
X4348075Y-160850890D01*
X3941331Y-161019369D01*
X3575271Y-161263962D01*
X3263962Y-161575271D01*
X3019369Y-161941331D01*
X2850890Y-162348075D01*
X2765000Y-162779872D01*
X1660000Y-162779872D01*
X1660000Y-159757298D01*
X10936903Y-159757298D01*
X11750000Y-160570395D01*
X12563097Y-159757298D01*
X12491514Y-159513329D01*
X12236004Y-159392429D01*
X11961816Y-159323700D01*
X11679488Y-159309783D01*
X11399870Y-159351213D01*
X11133708Y-159446397D01*
X11008486Y-159513329D01*
X10936903Y-159757298D01*
X1660000Y-159757298D01*
X1660000Y-154530000D01*
X16079509Y-154530000D01*
X16101423Y-154752498D01*
X16166324Y-154966446D01*
X16271717Y-155163622D01*
X16378012Y-155293143D01*
X19455009Y-158370141D01*
X19490551Y-158413449D01*
X19663377Y-158555284D01*
X19860553Y-158660676D01*
X19994076Y-158701180D01*
X20074500Y-158725577D01*
X20296999Y-158747491D01*
X20352751Y-158742000D01*
X28668617Y-158742000D01*
X28705763Y-158811494D01*
X28785115Y-158908185D01*
X28881806Y-158987537D01*
X28992120Y-159046502D01*
X29111818Y-159082812D01*
X29236300Y-159095072D01*
X30936300Y-159095072D01*
X31060782Y-159082812D01*
X31180480Y-159046502D01*
X31290794Y-158987537D01*
X31387485Y-158908185D01*
X31466837Y-158811494D01*
X31525802Y-158701180D01*
X31562112Y-158581482D01*
X31574372Y-158457000D01*
X31574372Y-157592665D01*
X35026700Y-157592665D01*
X35026700Y-157875335D01*
X35081847Y-158152574D01*
X35190020Y-158413727D01*
X35347063Y-158648759D01*
X35546941Y-158848637D01*
X35781973Y-159005680D01*
X36043126Y-159113853D01*
X36320365Y-159169000D01*
X36603035Y-159169000D01*
X36880274Y-159113853D01*
X37141427Y-159005680D01*
X37376459Y-158848637D01*
X37576337Y-158648759D01*
X37733380Y-158413727D01*
X37841553Y-158152574D01*
X37896700Y-157875335D01*
X37896700Y-157592665D01*
X37841553Y-157315426D01*
X37733380Y-157054273D01*
X37576337Y-156819241D01*
X37376459Y-156619363D01*
X37141427Y-156462320D01*
X36880274Y-156354147D01*
X36603035Y-156299000D01*
X36320365Y-156299000D01*
X36043126Y-156354147D01*
X35781973Y-156462320D01*
X35546941Y-156619363D01*
X35347063Y-156819241D01*
X35190020Y-157054273D01*
X35081847Y-157315426D01*
X35026700Y-157592665D01*
X31574372Y-157592665D01*
X31574372Y-156757000D01*
X31562112Y-156632518D01*
X31525802Y-156512820D01*
X31466837Y-156402506D01*
X31387485Y-156305815D01*
X31290794Y-156226463D01*
X31180480Y-156167498D01*
X31099834Y-156143034D01*
X31183888Y-156067269D01*
X31357941Y-155833920D01*
X31483125Y-155571099D01*
X31527776Y-155423890D01*
X31423713Y-155226702D01*
X35648603Y-155226702D01*
X35720186Y-155470671D01*
X35975696Y-155591571D01*
X36249884Y-155660300D01*
X36532212Y-155674217D01*
X36811830Y-155632787D01*
X37077992Y-155537603D01*
X37203214Y-155470671D01*
X37274797Y-155226702D01*
X36461700Y-154413605D01*
X35648603Y-155226702D01*
X31423713Y-155226702D01*
X31406455Y-155194000D01*
X30213300Y-155194000D01*
X30213300Y-155214000D01*
X29959300Y-155214000D01*
X29959300Y-155194000D01*
X28766145Y-155194000D01*
X28644824Y-155423890D01*
X28689475Y-155571099D01*
X28814659Y-155833920D01*
X28988712Y-156067269D01*
X29072766Y-156143034D01*
X28992120Y-156167498D01*
X28881806Y-156226463D01*
X28785115Y-156305815D01*
X28705763Y-156402506D01*
X28668617Y-156472000D01*
X20767132Y-156472000D01*
X19005242Y-154710110D01*
X28644824Y-154710110D01*
X28766145Y-154940000D01*
X29959300Y-154940000D01*
X29959300Y-153746186D01*
X30213300Y-153746186D01*
X30213300Y-154940000D01*
X31406455Y-154940000D01*
X31527776Y-154710110D01*
X31483125Y-154562901D01*
X31360053Y-154304512D01*
X35021483Y-154304512D01*
X35062913Y-154584130D01*
X35158097Y-154850292D01*
X35225029Y-154975514D01*
X35468998Y-155047097D01*
X36282095Y-154234000D01*
X36641305Y-154234000D01*
X37454402Y-155047097D01*
X37698371Y-154975514D01*
X37819271Y-154720004D01*
X37888000Y-154445816D01*
X37901917Y-154163488D01*
X37860487Y-153883870D01*
X37765303Y-153617708D01*
X37698371Y-153492486D01*
X37454402Y-153420903D01*
X36641305Y-154234000D01*
X36282095Y-154234000D01*
X35468998Y-153420903D01*
X35225029Y-153492486D01*
X35104129Y-153747996D01*
X35035400Y-154022184D01*
X35021483Y-154304512D01*
X31360053Y-154304512D01*
X31357941Y-154300080D01*
X31183888Y-154066731D01*
X30967655Y-153871822D01*
X30717552Y-153722843D01*
X30443191Y-153625519D01*
X30213300Y-153746186D01*
X29959300Y-153746186D01*
X29729409Y-153625519D01*
X29455048Y-153722843D01*
X29204945Y-153871822D01*
X28988712Y-154066731D01*
X28814659Y-154300080D01*
X28689475Y-154562901D01*
X28644824Y-154710110D01*
X19005242Y-154710110D01*
X17983143Y-153688012D01*
X17853622Y-153581717D01*
X17656446Y-153476324D01*
X17442498Y-153411423D01*
X17220000Y-153389509D01*
X16997502Y-153411423D01*
X16783554Y-153476324D01*
X16586378Y-153581717D01*
X16413552Y-153723552D01*
X16271717Y-153896378D01*
X16166324Y-154093554D01*
X16101423Y-154307502D01*
X16079509Y-154530000D01*
X1660000Y-154530000D01*
X1660000Y-153241298D01*
X35648603Y-153241298D01*
X36461700Y-154054395D01*
X37274797Y-153241298D01*
X37203214Y-152997329D01*
X36947704Y-152876429D01*
X36673516Y-152807700D01*
X36391188Y-152793783D01*
X36111570Y-152835213D01*
X35845408Y-152930397D01*
X35720186Y-152997329D01*
X35648603Y-153241298D01*
X1660000Y-153241298D01*
X1660000Y-150779872D01*
X49765000Y-150779872D01*
X49765000Y-151220128D01*
X49850890Y-151651925D01*
X50019369Y-152058669D01*
X50263962Y-152424729D01*
X50575271Y-152736038D01*
X50941331Y-152980631D01*
X51348075Y-153149110D01*
X51779872Y-153235000D01*
X52220128Y-153235000D01*
X52651925Y-153149110D01*
X53058669Y-152980631D01*
X53424729Y-152736038D01*
X53736038Y-152424729D01*
X53980631Y-152058669D01*
X54149110Y-151651925D01*
X54235000Y-151220128D01*
X54235000Y-150779872D01*
X54149110Y-150348075D01*
X53980631Y-149941331D01*
X53736038Y-149575271D01*
X53424729Y-149263962D01*
X53058669Y-149019369D01*
X52651925Y-148850890D01*
X52220128Y-148765000D01*
X51779872Y-148765000D01*
X51348075Y-148850890D01*
X50941331Y-149019369D01*
X50575271Y-149263962D01*
X50263962Y-149575271D01*
X50019369Y-149941331D01*
X49850890Y-150348075D01*
X49765000Y-150779872D01*
X1660000Y-150779872D01*
X1660000Y-147660000D01*
X55340000Y-147660000D01*
X55340001Y-189340000D01*
%TA.AperFunction,Conductor*%
D17*
G36*
X55340001Y-189340000D02*
G01*
X1660000Y-189340000D01*
X1660000Y-185779872D01*
X2765000Y-185779872D01*
X2765000Y-186220128D01*
X2850890Y-186651925D01*
X3019369Y-187058669D01*
X3263962Y-187424729D01*
X3575271Y-187736038D01*
X3941331Y-187980631D01*
X4348075Y-188149110D01*
X4779872Y-188235000D01*
X5220128Y-188235000D01*
X5651925Y-188149110D01*
X6058669Y-187980631D01*
X6424729Y-187736038D01*
X6736038Y-187424729D01*
X6980631Y-187058669D01*
X7149110Y-186651925D01*
X7235000Y-186220128D01*
X7235000Y-185779872D01*
X49765000Y-185779872D01*
X49765000Y-186220128D01*
X49850890Y-186651925D01*
X50019369Y-187058669D01*
X50263962Y-187424729D01*
X50575271Y-187736038D01*
X50941331Y-187980631D01*
X51348075Y-188149110D01*
X51779872Y-188235000D01*
X52220128Y-188235000D01*
X52651925Y-188149110D01*
X53058669Y-187980631D01*
X53424729Y-187736038D01*
X53736038Y-187424729D01*
X53980631Y-187058669D01*
X54149110Y-186651925D01*
X54235000Y-186220128D01*
X54235000Y-185779872D01*
X54149110Y-185348075D01*
X53980631Y-184941331D01*
X53736038Y-184575271D01*
X53424729Y-184263962D01*
X53058669Y-184019369D01*
X52651925Y-183850890D01*
X52220128Y-183765000D01*
X51779872Y-183765000D01*
X51348075Y-183850890D01*
X50941331Y-184019369D01*
X50575271Y-184263962D01*
X50263962Y-184575271D01*
X50019369Y-184941331D01*
X49850890Y-185348075D01*
X49765000Y-185779872D01*
X7235000Y-185779872D01*
X7149110Y-185348075D01*
X6980631Y-184941331D01*
X6736038Y-184575271D01*
X6424729Y-184263962D01*
X6058669Y-184019369D01*
X5651925Y-183850890D01*
X5220128Y-183765000D01*
X4779872Y-183765000D01*
X4348075Y-183850890D01*
X3941331Y-184019369D01*
X3575271Y-184263962D01*
X3263962Y-184575271D01*
X3019369Y-184941331D01*
X2850890Y-185348075D01*
X2765000Y-185779872D01*
X1660000Y-185779872D01*
X1660000Y-177763190D01*
X14192224Y-177763190D01*
X14236875Y-177910399D01*
X14362059Y-178173220D01*
X14536112Y-178406569D01*
X14752345Y-178601478D01*
X15002448Y-178750457D01*
X15276809Y-178847781D01*
X15506700Y-178727114D01*
X15506700Y-177533300D01*
X15760700Y-177533300D01*
X15760700Y-178727114D01*
X15990591Y-178847781D01*
X16264952Y-178750457D01*
X16515055Y-178601478D01*
X16731288Y-178406569D01*
X16905341Y-178173220D01*
X17030525Y-177910399D01*
X17075176Y-177763190D01*
X16953855Y-177533300D01*
X15760700Y-177533300D01*
X15506700Y-177533300D01*
X14313545Y-177533300D01*
X14192224Y-177763190D01*
X1660000Y-177763190D01*
X1660000Y-169189061D01*
X9353600Y-169189061D01*
X9353600Y-169392939D01*
X9393374Y-169592898D01*
X9471395Y-169781256D01*
X9584663Y-169950774D01*
X9728826Y-170094937D01*
X9898344Y-170208205D01*
X10086702Y-170286226D01*
X10286661Y-170326000D01*
X10490539Y-170326000D01*
X10690498Y-170286226D01*
X10878856Y-170208205D01*
X11048374Y-170094937D01*
X11192537Y-169950774D01*
X11305805Y-169781256D01*
X11383826Y-169592898D01*
X11423600Y-169392939D01*
X11423600Y-169366157D01*
X12758458Y-168031300D01*
X14145628Y-168031300D01*
X14145628Y-168096300D01*
X14157888Y-168220782D01*
X14194198Y-168340480D01*
X14253163Y-168450794D01*
X14332515Y-168547485D01*
X14429206Y-168626837D01*
X14539520Y-168685802D01*
X14612080Y-168707813D01*
X14480225Y-168839668D01*
X14317710Y-169082889D01*
X14205768Y-169353142D01*
X14148700Y-169640040D01*
X14148700Y-169932560D01*
X14205768Y-170219458D01*
X14317710Y-170489711D01*
X14480225Y-170732932D01*
X14687068Y-170939775D01*
X14861460Y-171056300D01*
X14687068Y-171172825D01*
X14480225Y-171379668D01*
X14317710Y-171622889D01*
X14205768Y-171893142D01*
X14148700Y-172180040D01*
X14148700Y-172472560D01*
X14205768Y-172759458D01*
X14317710Y-173029711D01*
X14480225Y-173272932D01*
X14687068Y-173479775D01*
X14861460Y-173596300D01*
X14687068Y-173712825D01*
X14480225Y-173919668D01*
X14317710Y-174162889D01*
X14205768Y-174433142D01*
X14148700Y-174720040D01*
X14148700Y-175012560D01*
X14205768Y-175299458D01*
X14317710Y-175569711D01*
X14480225Y-175812932D01*
X14687068Y-176019775D01*
X14869234Y-176141495D01*
X14752345Y-176211122D01*
X14536112Y-176406031D01*
X14362059Y-176639380D01*
X14236875Y-176902201D01*
X14192224Y-177049410D01*
X14313545Y-177279300D01*
X15506700Y-177279300D01*
X15506700Y-177259300D01*
X15760700Y-177259300D01*
X15760700Y-177279300D01*
X16953855Y-177279300D01*
X17075176Y-177049410D01*
X17030525Y-176902201D01*
X16905341Y-176639380D01*
X16731288Y-176406031D01*
X16515055Y-176211122D01*
X16398166Y-176141495D01*
X16580332Y-176019775D01*
X16787175Y-175812932D01*
X16949690Y-175569711D01*
X17061632Y-175299458D01*
X17118700Y-175012560D01*
X17118700Y-174720040D01*
X17061632Y-174433142D01*
X16949690Y-174162889D01*
X16787175Y-173919668D01*
X16580332Y-173712825D01*
X16405940Y-173596300D01*
X16580332Y-173479775D01*
X16787175Y-173272932D01*
X16949690Y-173029711D01*
X17061632Y-172759458D01*
X17118700Y-172472560D01*
X17118700Y-172180040D01*
X17061632Y-171893142D01*
X16949690Y-171622889D01*
X16787175Y-171379668D01*
X16580332Y-171172825D01*
X16405940Y-171056300D01*
X16580332Y-170939775D01*
X16787175Y-170732932D01*
X16949690Y-170489711D01*
X17061632Y-170219458D01*
X17118700Y-169932560D01*
X17118700Y-169841458D01*
X18548201Y-171270959D01*
X18548200Y-172608989D01*
X18529263Y-172627926D01*
X18415995Y-172797444D01*
X18337974Y-172985802D01*
X18298200Y-173185761D01*
X18298200Y-173389639D01*
X18337974Y-173589598D01*
X18415995Y-173777956D01*
X18529263Y-173947474D01*
X18548201Y-173966412D01*
X18548200Y-182578547D01*
X18544403Y-182617100D01*
X18548200Y-182655653D01*
X18548200Y-182655660D01*
X18559559Y-182770986D01*
X18604446Y-182918959D01*
X18677338Y-183055332D01*
X18775436Y-183174864D01*
X18805390Y-183199447D01*
X21033058Y-185427116D01*
X21057636Y-185457064D01*
X21087584Y-185481642D01*
X21087587Y-185481645D01*
X21116959Y-185505750D01*
X21177167Y-185555162D01*
X21313540Y-185628054D01*
X21461512Y-185672941D01*
X21475890Y-185674357D01*
X21576839Y-185684300D01*
X21576846Y-185684300D01*
X21615399Y-185688097D01*
X21653952Y-185684300D01*
X35267447Y-185684300D01*
X35306000Y-185688097D01*
X35344553Y-185684300D01*
X35344561Y-185684300D01*
X35459887Y-185672941D01*
X35607860Y-185628054D01*
X35744233Y-185555162D01*
X35863764Y-185457064D01*
X35888347Y-185427110D01*
X40788710Y-180526747D01*
X40818664Y-180502164D01*
X40916762Y-180382633D01*
X40989654Y-180246260D01*
X41008034Y-180185670D01*
X41034542Y-180098287D01*
X41041920Y-180023374D01*
X41045900Y-179982961D01*
X41045900Y-179982956D01*
X41049697Y-179944400D01*
X41045900Y-179905844D01*
X41045900Y-179289611D01*
X41064837Y-179270674D01*
X41178105Y-179101156D01*
X41256126Y-178912798D01*
X41295900Y-178712839D01*
X41295900Y-178508961D01*
X41256126Y-178309002D01*
X41178105Y-178120644D01*
X41064837Y-177951126D01*
X40920674Y-177806963D01*
X40751156Y-177693695D01*
X40562798Y-177615674D01*
X40362839Y-177575900D01*
X40158961Y-177575900D01*
X39959002Y-177615674D01*
X39770644Y-177693695D01*
X39601126Y-177806963D01*
X39456963Y-177951126D01*
X39343695Y-178120644D01*
X39265674Y-178309002D01*
X39225900Y-178508961D01*
X39225900Y-178712839D01*
X39265674Y-178912798D01*
X39343695Y-179101156D01*
X39456963Y-179270674D01*
X39475901Y-179289612D01*
X39475901Y-179619242D01*
X34980843Y-184114300D01*
X21940558Y-184114300D01*
X20118200Y-182291943D01*
X20118200Y-178485800D01*
X25885109Y-178485800D01*
X25890600Y-178541551D01*
X25907023Y-178708298D01*
X25971924Y-178922246D01*
X26077316Y-179119423D01*
X26219151Y-179292249D01*
X26262465Y-179327796D01*
X27640796Y-180706128D01*
X27344000Y-180706128D01*
X27219518Y-180718388D01*
X27099820Y-180754698D01*
X26989506Y-180813663D01*
X26892815Y-180893015D01*
X26813463Y-180989706D01*
X26754498Y-181100020D01*
X26718188Y-181219718D01*
X26705928Y-181344200D01*
X26705928Y-183044200D01*
X26718188Y-183168682D01*
X26754498Y-183288380D01*
X26813463Y-183398694D01*
X26892815Y-183495385D01*
X26989506Y-183574737D01*
X27099820Y-183633702D01*
X27219518Y-183670012D01*
X27344000Y-183682272D01*
X29044000Y-183682272D01*
X29168482Y-183670012D01*
X29288180Y-183633702D01*
X29398494Y-183574737D01*
X29495185Y-183495385D01*
X29574537Y-183398694D01*
X29633502Y-183288380D01*
X29655513Y-183215820D01*
X29787368Y-183347675D01*
X30030589Y-183510190D01*
X30300842Y-183622132D01*
X30587740Y-183679200D01*
X30880260Y-183679200D01*
X31167158Y-183622132D01*
X31437411Y-183510190D01*
X31680632Y-183347675D01*
X31887475Y-183140832D01*
X32004000Y-182966440D01*
X32120525Y-183140832D01*
X32327368Y-183347675D01*
X32570589Y-183510190D01*
X32840842Y-183622132D01*
X33127740Y-183679200D01*
X33420260Y-183679200D01*
X33707158Y-183622132D01*
X33977411Y-183510190D01*
X34220632Y-183347675D01*
X34427475Y-183140832D01*
X34589990Y-182897611D01*
X34701932Y-182627358D01*
X34759000Y-182340460D01*
X34759000Y-182047940D01*
X34701932Y-181761042D01*
X34589990Y-181490789D01*
X34427475Y-181247568D01*
X34220632Y-181040725D01*
X33977411Y-180878210D01*
X33707158Y-180766268D01*
X33420260Y-180709200D01*
X33127740Y-180709200D01*
X32840842Y-180766268D01*
X32570589Y-180878210D01*
X32327368Y-181040725D01*
X32120525Y-181247568D01*
X32004000Y-181421960D01*
X31887475Y-181247568D01*
X31869000Y-181229093D01*
X31869000Y-181047871D01*
X31874491Y-180992119D01*
X31852577Y-180769620D01*
X31787676Y-180555672D01*
X31682284Y-180358496D01*
X31540449Y-180185670D01*
X31497140Y-180150127D01*
X30619077Y-179272064D01*
X30583530Y-179228751D01*
X30410704Y-179086916D01*
X30213528Y-178981524D01*
X29999580Y-178916623D01*
X29832833Y-178900200D01*
X29832832Y-178900200D01*
X29777081Y-178894709D01*
X29721330Y-178900200D01*
X29045132Y-178900200D01*
X28160600Y-178015669D01*
X28160600Y-161932748D01*
X28144177Y-161766001D01*
X28079276Y-161552053D01*
X28054426Y-161505561D01*
X31794500Y-161505561D01*
X31794500Y-161709439D01*
X31834274Y-161909398D01*
X31912295Y-162097756D01*
X32025563Y-162267274D01*
X32169726Y-162411437D01*
X32339244Y-162524705D01*
X32527602Y-162602726D01*
X32727561Y-162642500D01*
X32931439Y-162642500D01*
X33131398Y-162602726D01*
X33319756Y-162524705D01*
X33489274Y-162411437D01*
X33508211Y-162392500D01*
X36746143Y-162392500D01*
X47346325Y-172992682D01*
X47308400Y-173183340D01*
X47308400Y-173475860D01*
X47365468Y-173762758D01*
X47477410Y-174033011D01*
X47639925Y-174276232D01*
X47846768Y-174483075D01*
X48021160Y-174599600D01*
X47846768Y-174716125D01*
X47639925Y-174922968D01*
X47477410Y-175166189D01*
X47365468Y-175436442D01*
X47308400Y-175723340D01*
X47308400Y-176015860D01*
X47365468Y-176302758D01*
X47477410Y-176573011D01*
X47639925Y-176816232D01*
X47846768Y-177023075D01*
X48089989Y-177185590D01*
X48360242Y-177297532D01*
X48647140Y-177354600D01*
X48939660Y-177354600D01*
X49226558Y-177297532D01*
X49496811Y-177185590D01*
X49740032Y-177023075D01*
X49946875Y-176816232D01*
X50109390Y-176573011D01*
X50221332Y-176302758D01*
X50278400Y-176015860D01*
X50278400Y-175723340D01*
X50221332Y-175436442D01*
X50109390Y-175166189D01*
X49946875Y-174922968D01*
X49740032Y-174716125D01*
X49565640Y-174599600D01*
X49740032Y-174483075D01*
X49946875Y-174276232D01*
X50109390Y-174033011D01*
X50221332Y-173762758D01*
X50278400Y-173475860D01*
X50278400Y-173183340D01*
X50221332Y-172896442D01*
X50109390Y-172626189D01*
X49946875Y-172382968D01*
X49740032Y-172176125D01*
X49565640Y-172059600D01*
X49740032Y-171943075D01*
X49946875Y-171736232D01*
X50109390Y-171493011D01*
X50221332Y-171222758D01*
X50278400Y-170935860D01*
X50278400Y-170643340D01*
X50221332Y-170356442D01*
X50109390Y-170086189D01*
X49946875Y-169842968D01*
X49740032Y-169636125D01*
X49565640Y-169519600D01*
X49740032Y-169403075D01*
X49946875Y-169196232D01*
X50109390Y-168953011D01*
X50221332Y-168682758D01*
X50278400Y-168395860D01*
X50278400Y-168103340D01*
X50221332Y-167816442D01*
X50109390Y-167546189D01*
X49946875Y-167302968D01*
X49815020Y-167171113D01*
X49887580Y-167149102D01*
X49997894Y-167090137D01*
X50094585Y-167010785D01*
X50173937Y-166914094D01*
X50232902Y-166803780D01*
X50269212Y-166684082D01*
X50281472Y-166559600D01*
X50281472Y-164859600D01*
X50269212Y-164735118D01*
X50232902Y-164615420D01*
X50173937Y-164505106D01*
X50094585Y-164408415D01*
X49997894Y-164329063D01*
X49887580Y-164270098D01*
X49767882Y-164233788D01*
X49643400Y-164221528D01*
X47943400Y-164221528D01*
X47818918Y-164233788D01*
X47699220Y-164270098D01*
X47588906Y-164329063D01*
X47492215Y-164408415D01*
X47412863Y-164505106D01*
X47353898Y-164615420D01*
X47317588Y-164735118D01*
X47305328Y-164859600D01*
X47305328Y-166559600D01*
X47317588Y-166684082D01*
X47353898Y-166803780D01*
X47412863Y-166914094D01*
X47492215Y-167010785D01*
X47588906Y-167090137D01*
X47699220Y-167149102D01*
X47771780Y-167171113D01*
X47639925Y-167302968D01*
X47477410Y-167546189D01*
X47365468Y-167816442D01*
X47308400Y-168103340D01*
X47308400Y-168395860D01*
X47365468Y-168682758D01*
X47477410Y-168953011D01*
X47639925Y-169196232D01*
X47846768Y-169403075D01*
X48021160Y-169519600D01*
X47846768Y-169636125D01*
X47639925Y-169842968D01*
X47477410Y-170086189D01*
X47365468Y-170356442D01*
X47308400Y-170643340D01*
X47308400Y-170734443D01*
X37653647Y-161079690D01*
X37629064Y-161049736D01*
X37509533Y-160951638D01*
X37373160Y-160878746D01*
X37225187Y-160833859D01*
X37109861Y-160822500D01*
X37109853Y-160822500D01*
X37071300Y-160818703D01*
X37032747Y-160822500D01*
X33508211Y-160822500D01*
X33489274Y-160803563D01*
X33319756Y-160690295D01*
X33131398Y-160612274D01*
X32931439Y-160572500D01*
X32727561Y-160572500D01*
X32527602Y-160612274D01*
X32339244Y-160690295D01*
X32169726Y-160803563D01*
X32025563Y-160947726D01*
X31912295Y-161117244D01*
X31834274Y-161305602D01*
X31794500Y-161505561D01*
X28054426Y-161505561D01*
X27973884Y-161354877D01*
X27832049Y-161182051D01*
X27659223Y-161040216D01*
X27462047Y-160934824D01*
X27248099Y-160869923D01*
X27025600Y-160848009D01*
X26803102Y-160869923D01*
X26589154Y-160934824D01*
X26391978Y-161040216D01*
X26219152Y-161182051D01*
X26077317Y-161354877D01*
X25971925Y-161552053D01*
X25907024Y-161766001D01*
X25890601Y-161932748D01*
X25890600Y-178430049D01*
X25885109Y-178485800D01*
X20118200Y-178485800D01*
X20118200Y-173966411D01*
X20137137Y-173947474D01*
X20250405Y-173777956D01*
X20328426Y-173589598D01*
X20368200Y-173389639D01*
X20368200Y-173185761D01*
X20328426Y-172985802D01*
X20250405Y-172797444D01*
X20137137Y-172627926D01*
X20118200Y-172608989D01*
X20118200Y-170984352D01*
X20121997Y-170945799D01*
X20118200Y-170907246D01*
X20118200Y-170907239D01*
X20106841Y-170791913D01*
X20061954Y-170643940D01*
X19989062Y-170507567D01*
X19890964Y-170388036D01*
X19861016Y-170363458D01*
X17121772Y-167624215D01*
X17121772Y-166396300D01*
X17109512Y-166271818D01*
X17073202Y-166152120D01*
X17014237Y-166041806D01*
X16934885Y-165945115D01*
X16838194Y-165865763D01*
X16727880Y-165806798D01*
X16608182Y-165770488D01*
X16483700Y-165758228D01*
X14783700Y-165758228D01*
X14659218Y-165770488D01*
X14539520Y-165806798D01*
X14429206Y-165865763D01*
X14332515Y-165945115D01*
X14253163Y-166041806D01*
X14194198Y-166152120D01*
X14157888Y-166271818D01*
X14145628Y-166396300D01*
X14145628Y-166461300D01*
X12471852Y-166461300D01*
X12433299Y-166457503D01*
X12394746Y-166461300D01*
X12394739Y-166461300D01*
X12293790Y-166471243D01*
X12279412Y-166472659D01*
X12244972Y-166483106D01*
X12131440Y-166517546D01*
X11995067Y-166590438D01*
X11934859Y-166639850D01*
X11905487Y-166663955D01*
X11905484Y-166663958D01*
X11875536Y-166688536D01*
X11850958Y-166718484D01*
X10313443Y-168256000D01*
X10286661Y-168256000D01*
X10086702Y-168295774D01*
X9898344Y-168373795D01*
X9728826Y-168487063D01*
X9584663Y-168631226D01*
X9471395Y-168800744D01*
X9393374Y-168989102D01*
X9353600Y-169189061D01*
X1660000Y-169189061D01*
X1660000Y-162779872D01*
X2765000Y-162779872D01*
X2765000Y-163220128D01*
X2850890Y-163651925D01*
X3019369Y-164058669D01*
X3263962Y-164424729D01*
X3575271Y-164736038D01*
X3941331Y-164980631D01*
X4348075Y-165149110D01*
X4779872Y-165235000D01*
X5220128Y-165235000D01*
X5651925Y-165149110D01*
X6058669Y-164980631D01*
X6424729Y-164736038D01*
X6736038Y-164424729D01*
X6980631Y-164058669D01*
X7149110Y-163651925D01*
X7235000Y-163220128D01*
X7235000Y-162779872D01*
X7149110Y-162348075D01*
X6980631Y-161941331D01*
X6847912Y-161742702D01*
X10936903Y-161742702D01*
X11008486Y-161986671D01*
X11263996Y-162107571D01*
X11538184Y-162176300D01*
X11820512Y-162190217D01*
X12100130Y-162148787D01*
X12366292Y-162053603D01*
X12491514Y-161986671D01*
X12563097Y-161742702D01*
X11750000Y-160929605D01*
X10936903Y-161742702D01*
X6847912Y-161742702D01*
X6736038Y-161575271D01*
X6424729Y-161263962D01*
X6058669Y-161019369D01*
X5651925Y-160850890D01*
X5499205Y-160820512D01*
X10309783Y-160820512D01*
X10351213Y-161100130D01*
X10446397Y-161366292D01*
X10513329Y-161491514D01*
X10757298Y-161563097D01*
X11570395Y-160750000D01*
X11929605Y-160750000D01*
X12742702Y-161563097D01*
X12986671Y-161491514D01*
X13107571Y-161236004D01*
X13176300Y-160961816D01*
X13190217Y-160679488D01*
X13179724Y-160608665D01*
X13815000Y-160608665D01*
X13815000Y-160891335D01*
X13870147Y-161168574D01*
X13978320Y-161429727D01*
X14135363Y-161664759D01*
X14335241Y-161864637D01*
X14570273Y-162021680D01*
X14831426Y-162129853D01*
X15108665Y-162185000D01*
X15391335Y-162185000D01*
X15668574Y-162129853D01*
X15929727Y-162021680D01*
X16164759Y-161864637D01*
X16364637Y-161664759D01*
X16521680Y-161429727D01*
X16629853Y-161168574D01*
X16685000Y-160891335D01*
X16685000Y-160608665D01*
X16629853Y-160331426D01*
X16521680Y-160070273D01*
X16364637Y-159835241D01*
X16164759Y-159635363D01*
X15929727Y-159478320D01*
X15668574Y-159370147D01*
X15391335Y-159315000D01*
X15108665Y-159315000D01*
X14831426Y-159370147D01*
X14570273Y-159478320D01*
X14335241Y-159635363D01*
X14135363Y-159835241D01*
X13978320Y-160070273D01*
X13870147Y-160331426D01*
X13815000Y-160608665D01*
X13179724Y-160608665D01*
X13148787Y-160399870D01*
X13053603Y-160133708D01*
X12986671Y-160008486D01*
X12742702Y-159936903D01*
X11929605Y-160750000D01*
X11570395Y-160750000D01*
X10757298Y-159936903D01*
X10513329Y-160008486D01*
X10392429Y-160263996D01*
X10323700Y-160538184D01*
X10309783Y-160820512D01*
X5499205Y-160820512D01*
X5220128Y-160765000D01*
X4779872Y-160765000D01*
X4348075Y-160850890D01*
X3941331Y-161019369D01*
X3575271Y-161263962D01*
X3263962Y-161575271D01*
X3019369Y-161941331D01*
X2850890Y-162348075D01*
X2765000Y-162779872D01*
X1660000Y-162779872D01*
X1660000Y-159757298D01*
X10936903Y-159757298D01*
X11750000Y-160570395D01*
X12563097Y-159757298D01*
X12491514Y-159513329D01*
X12236004Y-159392429D01*
X11961816Y-159323700D01*
X11679488Y-159309783D01*
X11399870Y-159351213D01*
X11133708Y-159446397D01*
X11008486Y-159513329D01*
X10936903Y-159757298D01*
X1660000Y-159757298D01*
X1660000Y-154530000D01*
X16079509Y-154530000D01*
X16101423Y-154752498D01*
X16166324Y-154966446D01*
X16271717Y-155163622D01*
X16378012Y-155293143D01*
X19455009Y-158370141D01*
X19490551Y-158413449D01*
X19663377Y-158555284D01*
X19860553Y-158660676D01*
X19994076Y-158701180D01*
X20074500Y-158725577D01*
X20296999Y-158747491D01*
X20352751Y-158742000D01*
X28668617Y-158742000D01*
X28705763Y-158811494D01*
X28785115Y-158908185D01*
X28881806Y-158987537D01*
X28992120Y-159046502D01*
X29111818Y-159082812D01*
X29236300Y-159095072D01*
X30936300Y-159095072D01*
X31060782Y-159082812D01*
X31180480Y-159046502D01*
X31290794Y-158987537D01*
X31387485Y-158908185D01*
X31466837Y-158811494D01*
X31525802Y-158701180D01*
X31562112Y-158581482D01*
X31574372Y-158457000D01*
X31574372Y-157592665D01*
X35026700Y-157592665D01*
X35026700Y-157875335D01*
X35081847Y-158152574D01*
X35190020Y-158413727D01*
X35347063Y-158648759D01*
X35546941Y-158848637D01*
X35781973Y-159005680D01*
X36043126Y-159113853D01*
X36320365Y-159169000D01*
X36603035Y-159169000D01*
X36880274Y-159113853D01*
X37141427Y-159005680D01*
X37376459Y-158848637D01*
X37576337Y-158648759D01*
X37733380Y-158413727D01*
X37841553Y-158152574D01*
X37896700Y-157875335D01*
X37896700Y-157592665D01*
X37841553Y-157315426D01*
X37733380Y-157054273D01*
X37576337Y-156819241D01*
X37376459Y-156619363D01*
X37141427Y-156462320D01*
X36880274Y-156354147D01*
X36603035Y-156299000D01*
X36320365Y-156299000D01*
X36043126Y-156354147D01*
X35781973Y-156462320D01*
X35546941Y-156619363D01*
X35347063Y-156819241D01*
X35190020Y-157054273D01*
X35081847Y-157315426D01*
X35026700Y-157592665D01*
X31574372Y-157592665D01*
X31574372Y-156757000D01*
X31562112Y-156632518D01*
X31525802Y-156512820D01*
X31466837Y-156402506D01*
X31387485Y-156305815D01*
X31290794Y-156226463D01*
X31180480Y-156167498D01*
X31099834Y-156143034D01*
X31183888Y-156067269D01*
X31357941Y-155833920D01*
X31483125Y-155571099D01*
X31527776Y-155423890D01*
X31423713Y-155226702D01*
X35648603Y-155226702D01*
X35720186Y-155470671D01*
X35975696Y-155591571D01*
X36249884Y-155660300D01*
X36532212Y-155674217D01*
X36811830Y-155632787D01*
X37077992Y-155537603D01*
X37203214Y-155470671D01*
X37274797Y-155226702D01*
X36461700Y-154413605D01*
X35648603Y-155226702D01*
X31423713Y-155226702D01*
X31406455Y-155194000D01*
X30213300Y-155194000D01*
X30213300Y-155214000D01*
X29959300Y-155214000D01*
X29959300Y-155194000D01*
X28766145Y-155194000D01*
X28644824Y-155423890D01*
X28689475Y-155571099D01*
X28814659Y-155833920D01*
X28988712Y-156067269D01*
X29072766Y-156143034D01*
X28992120Y-156167498D01*
X28881806Y-156226463D01*
X28785115Y-156305815D01*
X28705763Y-156402506D01*
X28668617Y-156472000D01*
X20767132Y-156472000D01*
X19005242Y-154710110D01*
X28644824Y-154710110D01*
X28766145Y-154940000D01*
X29959300Y-154940000D01*
X29959300Y-153746186D01*
X30213300Y-153746186D01*
X30213300Y-154940000D01*
X31406455Y-154940000D01*
X31527776Y-154710110D01*
X31483125Y-154562901D01*
X31360053Y-154304512D01*
X35021483Y-154304512D01*
X35062913Y-154584130D01*
X35158097Y-154850292D01*
X35225029Y-154975514D01*
X35468998Y-155047097D01*
X36282095Y-154234000D01*
X36641305Y-154234000D01*
X37454402Y-155047097D01*
X37698371Y-154975514D01*
X37819271Y-154720004D01*
X37888000Y-154445816D01*
X37901917Y-154163488D01*
X37860487Y-153883870D01*
X37765303Y-153617708D01*
X37698371Y-153492486D01*
X37454402Y-153420903D01*
X36641305Y-154234000D01*
X36282095Y-154234000D01*
X35468998Y-153420903D01*
X35225029Y-153492486D01*
X35104129Y-153747996D01*
X35035400Y-154022184D01*
X35021483Y-154304512D01*
X31360053Y-154304512D01*
X31357941Y-154300080D01*
X31183888Y-154066731D01*
X30967655Y-153871822D01*
X30717552Y-153722843D01*
X30443191Y-153625519D01*
X30213300Y-153746186D01*
X29959300Y-153746186D01*
X29729409Y-153625519D01*
X29455048Y-153722843D01*
X29204945Y-153871822D01*
X28988712Y-154066731D01*
X28814659Y-154300080D01*
X28689475Y-154562901D01*
X28644824Y-154710110D01*
X19005242Y-154710110D01*
X17983143Y-153688012D01*
X17853622Y-153581717D01*
X17656446Y-153476324D01*
X17442498Y-153411423D01*
X17220000Y-153389509D01*
X16997502Y-153411423D01*
X16783554Y-153476324D01*
X16586378Y-153581717D01*
X16413552Y-153723552D01*
X16271717Y-153896378D01*
X16166324Y-154093554D01*
X16101423Y-154307502D01*
X16079509Y-154530000D01*
X1660000Y-154530000D01*
X1660000Y-153241298D01*
X35648603Y-153241298D01*
X36461700Y-154054395D01*
X37274797Y-153241298D01*
X37203214Y-152997329D01*
X36947704Y-152876429D01*
X36673516Y-152807700D01*
X36391188Y-152793783D01*
X36111570Y-152835213D01*
X35845408Y-152930397D01*
X35720186Y-152997329D01*
X35648603Y-153241298D01*
X1660000Y-153241298D01*
X1660000Y-150779872D01*
X49765000Y-150779872D01*
X49765000Y-151220128D01*
X49850890Y-151651925D01*
X50019369Y-152058669D01*
X50263962Y-152424729D01*
X50575271Y-152736038D01*
X50941331Y-152980631D01*
X51348075Y-153149110D01*
X51779872Y-153235000D01*
X52220128Y-153235000D01*
X52651925Y-153149110D01*
X53058669Y-152980631D01*
X53424729Y-152736038D01*
X53736038Y-152424729D01*
X53980631Y-152058669D01*
X54149110Y-151651925D01*
X54235000Y-151220128D01*
X54235000Y-150779872D01*
X54149110Y-150348075D01*
X53980631Y-149941331D01*
X53736038Y-149575271D01*
X53424729Y-149263962D01*
X53058669Y-149019369D01*
X52651925Y-148850890D01*
X52220128Y-148765000D01*
X51779872Y-148765000D01*
X51348075Y-148850890D01*
X50941331Y-149019369D01*
X50575271Y-149263962D01*
X50263962Y-149575271D01*
X50019369Y-149941331D01*
X49850890Y-150348075D01*
X49765000Y-150779872D01*
X1660000Y-150779872D01*
X1660000Y-147660000D01*
X55340000Y-147660000D01*
X55340001Y-189340000D01*
G37*
%TD.AperFunction*%
%TD*%
M02*
