M48
; DRILL file {KiCad 5.1.10-88a1d61d58~90~ubuntu20.04.1} date Tue Oct 19 17:00:26 2021
; FORMAT={-:-/ absolute / inch / decimal}
; #@! TF.CreationDate,2021-10-19T17:00:26+01:00
; #@! TF.GenerationSoftware,Kicad,Pcbnew,5.1.10-88a1d61d58~90~ubuntu20.04.1
; #@! TF.FileFunction,Plated,1,2,PTH
FMAT,2
INCH
T1C0.0157
T2C0.0315
T3C0.0394
%
G90
G05
T1
X0.409Y-6.665
X0.678Y-6.0839
X0.7611Y-6.8224
X0.9833Y-6.9852
X1.064Y-6.3775
X1.2925Y-6.3625
X1.4924Y-6.4619
X1.4924Y-7.0029
X1.5851Y-7.0319
X1.7941Y-6.8759
X1.8395Y-6.383
X1.8425Y-6.6693
T2
X0.4626Y-6.3287
X0.6004Y-6.3287
X1.4355Y-6.0722
X1.4355Y-6.21
T3
X0.6155Y-6.5845
X0.6155Y-6.6845
X0.6155Y-6.7845
X0.6155Y-6.8845
X0.6155Y-6.9845
X1.11Y-7.173
X1.1845Y-6.105
X1.1845Y-6.205
X1.21Y-7.173
X1.31Y-7.173
X1.921Y-6.524
X1.921Y-6.624
X1.921Y-6.724
X1.921Y-6.824
X1.921Y-6.924
T0
M30
