%TF.GenerationSoftware,KiCad,Pcbnew,5.1.10-88a1d61d58~90~ubuntu20.04.1*%
%TF.CreationDate,2021-10-19T17:00:37+01:00*%
%TF.ProjectId,L6235-breakout,4c363233-352d-4627-9265-616b6f75742e,rev?*%
%TF.SameCoordinates,Original*%
%TF.FileFunction,Copper,L1,Top*%
%TF.FilePolarity,Positive*%
%FSLAX46Y46*%
G04 Gerber Fmt 4.6, Leading zero omitted, Abs format (unit mm)*
G04 Created by KiCad (PCBNEW 5.1.10-88a1d61d58~90~ubuntu20.04.1) date 2021-10-19 17:00:37*
%MOMM*%
%LPD*%
G01*
G04 APERTURE LIST*
%TA.AperFunction,ComponentPad*%
%ADD10C,1.600000*%
%TD*%
%TA.AperFunction,ComponentPad*%
%ADD11O,1.700000X1.700000*%
%TD*%
%TA.AperFunction,ComponentPad*%
%ADD12R,1.700000X1.700000*%
%TD*%
%TA.AperFunction,SMDPad,CuDef*%
%ADD13C,0.100000*%
%TD*%
%TA.AperFunction,SMDPad,CuDef*%
%ADD14R,2.200000X1.200000*%
%TD*%
%TA.AperFunction,SMDPad,CuDef*%
%ADD15R,6.400000X5.800000*%
%TD*%
%TA.AperFunction,ViaPad*%
%ADD16C,0.800000*%
%TD*%
%TA.AperFunction,Conductor*%
%ADD17C,0.300000*%
%TD*%
%TA.AperFunction,Conductor*%
%ADD18C,1.000000*%
%TD*%
%TA.AperFunction,Conductor*%
%ADD19C,0.254000*%
%TD*%
%TA.AperFunction,Conductor*%
%ADD20C,0.100000*%
%TD*%
G04 APERTURE END LIST*
%TO.P,C1,2*%
%TO.N,GND*%
%TA.AperFunction,SMDPad,CuDef*%
G36*
G01*
X44224400Y-170985200D02*
X44224400Y-170035200D01*
G75*
G02*
X44474400Y-169785200I250000J0D01*
G01*
X44974400Y-169785200D01*
G75*
G02*
X45224400Y-170035200I0J-250000D01*
G01*
X45224400Y-170985200D01*
G75*
G02*
X44974400Y-171235200I-250000J0D01*
G01*
X44474400Y-171235200D01*
G75*
G02*
X44224400Y-170985200I0J250000D01*
G01*
G37*
%TD.AperFunction*%
%TO.P,C1,1*%
%TO.N,ENABLE*%
%TA.AperFunction,SMDPad,CuDef*%
G36*
G01*
X42324400Y-170985200D02*
X42324400Y-170035200D01*
G75*
G02*
X42574400Y-169785200I250000J0D01*
G01*
X43074400Y-169785200D01*
G75*
G02*
X43324400Y-170035200I0J-250000D01*
G01*
X43324400Y-170985200D01*
G75*
G02*
X43074400Y-171235200I-250000J0D01*
G01*
X42574400Y-171235200D01*
G75*
G02*
X42324400Y-170985200I0J250000D01*
G01*
G37*
%TD.AperFunction*%
%TD*%
%TO.P,C2,2*%
%TO.N,GND*%
%TA.AperFunction,SMDPad,CuDef*%
G36*
G01*
X27360900Y-156321300D02*
X26410900Y-156321300D01*
G75*
G02*
X26160900Y-156071300I0J250000D01*
G01*
X26160900Y-155571300D01*
G75*
G02*
X26410900Y-155321300I250000J0D01*
G01*
X27360900Y-155321300D01*
G75*
G02*
X27610900Y-155571300I0J-250000D01*
G01*
X27610900Y-156071300D01*
G75*
G02*
X27360900Y-156321300I-250000J0D01*
G01*
G37*
%TD.AperFunction*%
%TO.P,C2,1*%
%TO.N,VSS*%
%TA.AperFunction,SMDPad,CuDef*%
G36*
G01*
X27360900Y-158221300D02*
X26410900Y-158221300D01*
G75*
G02*
X26160900Y-157971300I0J250000D01*
G01*
X26160900Y-157471300D01*
G75*
G02*
X26410900Y-157221300I250000J0D01*
G01*
X27360900Y-157221300D01*
G75*
G02*
X27610900Y-157471300I0J-250000D01*
G01*
X27610900Y-157971300D01*
G75*
G02*
X27360900Y-158221300I-250000J0D01*
G01*
G37*
%TD.AperFunction*%
%TD*%
D10*
%TO.P,C3,1*%
%TO.N,VSS*%
X36461700Y-157734000D03*
%TO.P,C3,2*%
%TO.N,GND*%
X36461700Y-154234000D03*
%TD*%
%TO.P,C5,1*%
%TO.N,VREF*%
%TA.AperFunction,SMDPad,CuDef*%
G36*
G01*
X42311700Y-161574500D02*
X42311700Y-160624500D01*
G75*
G02*
X42561700Y-160374500I250000J0D01*
G01*
X43061700Y-160374500D01*
G75*
G02*
X43311700Y-160624500I0J-250000D01*
G01*
X43311700Y-161574500D01*
G75*
G02*
X43061700Y-161824500I-250000J0D01*
G01*
X42561700Y-161824500D01*
G75*
G02*
X42311700Y-161574500I0J250000D01*
G01*
G37*
%TD.AperFunction*%
%TO.P,C5,2*%
%TO.N,GND*%
%TA.AperFunction,SMDPad,CuDef*%
G36*
G01*
X44211700Y-161574500D02*
X44211700Y-160624500D01*
G75*
G02*
X44461700Y-160374500I250000J0D01*
G01*
X44961700Y-160374500D01*
G75*
G02*
X45211700Y-160624500I0J-250000D01*
G01*
X45211700Y-161574500D01*
G75*
G02*
X44961700Y-161824500I-250000J0D01*
G01*
X44461700Y-161824500D01*
G75*
G02*
X44211700Y-161574500I0J250000D01*
G01*
G37*
%TD.AperFunction*%
%TD*%
%TO.P,C6,2*%
%TO.N,GND*%
%TA.AperFunction,SMDPad,CuDef*%
G36*
G01*
X24475900Y-180688000D02*
X24475900Y-179738000D01*
G75*
G02*
X24725900Y-179488000I250000J0D01*
G01*
X25225900Y-179488000D01*
G75*
G02*
X25475900Y-179738000I0J-250000D01*
G01*
X25475900Y-180688000D01*
G75*
G02*
X25225900Y-180938000I-250000J0D01*
G01*
X24725900Y-180938000D01*
G75*
G02*
X24475900Y-180688000I0J250000D01*
G01*
G37*
%TD.AperFunction*%
%TO.P,C6,1*%
%TO.N,Net-(C6-Pad1)*%
%TA.AperFunction,SMDPad,CuDef*%
G36*
G01*
X22575900Y-180688000D02*
X22575900Y-179738000D01*
G75*
G02*
X22825900Y-179488000I250000J0D01*
G01*
X23325900Y-179488000D01*
G75*
G02*
X23575900Y-179738000I0J-250000D01*
G01*
X23575900Y-180688000D01*
G75*
G02*
X23325900Y-180938000I-250000J0D01*
G01*
X22825900Y-180938000D01*
G75*
G02*
X22575900Y-180688000I0J250000D01*
G01*
G37*
%TD.AperFunction*%
%TD*%
%TO.P,C7,1*%
%TO.N,VSS*%
%TA.AperFunction,SMDPad,CuDef*%
G36*
G01*
X25211700Y-151645600D02*
X25211700Y-152595600D01*
G75*
G02*
X24961700Y-152845600I-250000J0D01*
G01*
X24461700Y-152845600D01*
G75*
G02*
X24211700Y-152595600I0J250000D01*
G01*
X24211700Y-151645600D01*
G75*
G02*
X24461700Y-151395600I250000J0D01*
G01*
X24961700Y-151395600D01*
G75*
G02*
X25211700Y-151645600I0J-250000D01*
G01*
G37*
%TD.AperFunction*%
%TO.P,C7,2*%
%TO.N,Net-(C7-Pad2)*%
%TA.AperFunction,SMDPad,CuDef*%
G36*
G01*
X23311700Y-151645600D02*
X23311700Y-152595600D01*
G75*
G02*
X23061700Y-152845600I-250000J0D01*
G01*
X22561700Y-152845600D01*
G75*
G02*
X22311700Y-152595600I0J250000D01*
G01*
X22311700Y-151645600D01*
G75*
G02*
X22561700Y-151395600I250000J0D01*
G01*
X23061700Y-151395600D01*
G75*
G02*
X23311700Y-151645600I0J-250000D01*
G01*
G37*
%TD.AperFunction*%
%TD*%
%TO.P,C8,1*%
%TO.N,Net-(C8-Pad1)*%
%TA.AperFunction,SMDPad,CuDef*%
G36*
G01*
X17894600Y-168203900D02*
X17894600Y-167253900D01*
G75*
G02*
X18144600Y-167003900I250000J0D01*
G01*
X18644600Y-167003900D01*
G75*
G02*
X18894600Y-167253900I0J-250000D01*
G01*
X18894600Y-168203900D01*
G75*
G02*
X18644600Y-168453900I-250000J0D01*
G01*
X18144600Y-168453900D01*
G75*
G02*
X17894600Y-168203900I0J250000D01*
G01*
G37*
%TD.AperFunction*%
%TO.P,C8,2*%
%TO.N,Net-(C8-Pad2)*%
%TA.AperFunction,SMDPad,CuDef*%
G36*
G01*
X19794600Y-168203900D02*
X19794600Y-167253900D01*
G75*
G02*
X20044600Y-167003900I250000J0D01*
G01*
X20544600Y-167003900D01*
G75*
G02*
X20794600Y-167253900I0J-250000D01*
G01*
X20794600Y-168203900D01*
G75*
G02*
X20544600Y-168453900I-250000J0D01*
G01*
X20044600Y-168453900D01*
G75*
G02*
X19794600Y-168203900I0J250000D01*
G01*
G37*
%TD.AperFunction*%
%TD*%
%TO.P,C10,2*%
%TO.N,GND*%
%TA.AperFunction,SMDPad,CuDef*%
G36*
G01*
X43413700Y-174147900D02*
X44363700Y-174147900D01*
G75*
G02*
X44613700Y-174397900I0J-250000D01*
G01*
X44613700Y-174897900D01*
G75*
G02*
X44363700Y-175147900I-250000J0D01*
G01*
X43413700Y-175147900D01*
G75*
G02*
X43163700Y-174897900I0J250000D01*
G01*
X43163700Y-174397900D01*
G75*
G02*
X43413700Y-174147900I250000J0D01*
G01*
G37*
%TD.AperFunction*%
%TO.P,C10,1*%
%TO.N,Net-(C10-Pad1)*%
%TA.AperFunction,SMDPad,CuDef*%
G36*
G01*
X43413700Y-172247900D02*
X44363700Y-172247900D01*
G75*
G02*
X44613700Y-172497900I0J-250000D01*
G01*
X44613700Y-172997900D01*
G75*
G02*
X44363700Y-173247900I-250000J0D01*
G01*
X43413700Y-173247900D01*
G75*
G02*
X43163700Y-172997900I0J250000D01*
G01*
X43163700Y-172497900D01*
G75*
G02*
X43413700Y-172247900I250000J0D01*
G01*
G37*
%TD.AperFunction*%
%TD*%
%TO.P,D1,2*%
%TO.N,VSS*%
%TA.AperFunction,SMDPad,CuDef*%
G36*
G01*
X20882000Y-157301250D02*
X20882000Y-156388750D01*
G75*
G02*
X21125750Y-156145000I243750J0D01*
G01*
X21613250Y-156145000D01*
G75*
G02*
X21857000Y-156388750I0J-243750D01*
G01*
X21857000Y-157301250D01*
G75*
G02*
X21613250Y-157545000I-243750J0D01*
G01*
X21125750Y-157545000D01*
G75*
G02*
X20882000Y-157301250I0J243750D01*
G01*
G37*
%TD.AperFunction*%
%TO.P,D1,1*%
%TO.N,Net-(D1-Pad1)*%
%TA.AperFunction,SMDPad,CuDef*%
G36*
G01*
X19007000Y-157301250D02*
X19007000Y-156388750D01*
G75*
G02*
X19250750Y-156145000I243750J0D01*
G01*
X19738250Y-156145000D01*
G75*
G02*
X19982000Y-156388750I0J-243750D01*
G01*
X19982000Y-157301250D01*
G75*
G02*
X19738250Y-157545000I-243750J0D01*
G01*
X19250750Y-157545000D01*
G75*
G02*
X19007000Y-157301250I0J243750D01*
G01*
G37*
%TD.AperFunction*%
%TD*%
%TO.P,D2,1*%
%TO.N,Net-(C7-Pad2)*%
%TA.AperFunction,SMDPad,CuDef*%
G36*
G01*
X20016150Y-151302900D02*
X20928650Y-151302900D01*
G75*
G02*
X21172400Y-151546650I0J-243750D01*
G01*
X21172400Y-152034150D01*
G75*
G02*
X20928650Y-152277900I-243750J0D01*
G01*
X20016150Y-152277900D01*
G75*
G02*
X19772400Y-152034150I0J243750D01*
G01*
X19772400Y-151546650D01*
G75*
G02*
X20016150Y-151302900I243750J0D01*
G01*
G37*
%TD.AperFunction*%
%TO.P,D2,2*%
%TO.N,Net-(D1-Pad1)*%
%TA.AperFunction,SMDPad,CuDef*%
G36*
G01*
X20016150Y-153177900D02*
X20928650Y-153177900D01*
G75*
G02*
X21172400Y-153421650I0J-243750D01*
G01*
X21172400Y-153909150D01*
G75*
G02*
X20928650Y-154152900I-243750J0D01*
G01*
X20016150Y-154152900D01*
G75*
G02*
X19772400Y-153909150I0J243750D01*
G01*
X19772400Y-153421650D01*
G75*
G02*
X20016150Y-153177900I243750J0D01*
G01*
G37*
%TD.AperFunction*%
%TD*%
D11*
%TO.P,J1,5*%
%TO.N,TACHO*%
X48793400Y-175869600D03*
%TO.P,J1,4*%
%TO.N,BRAKE*%
X48793400Y-173329600D03*
%TO.P,J1,3*%
%TO.N,F-R*%
X48793400Y-170789600D03*
%TO.P,J1,2*%
%TO.N,Net-(J1-Pad2)*%
X48793400Y-168249600D03*
D12*
%TO.P,J1,1*%
%TO.N,Net-(J1-Pad1)*%
X48793400Y-165709600D03*
%TD*%
%TO.P,J2,1*%
%TO.N,+5V*%
X15633700Y-167246300D03*
D11*
%TO.P,J2,2*%
%TO.N,HALL1*%
X15633700Y-169786300D03*
%TO.P,J2,3*%
%TO.N,HALL2*%
X15633700Y-172326300D03*
%TO.P,J2,4*%
%TO.N,HALL3*%
X15633700Y-174866300D03*
%TO.P,J2,5*%
%TO.N,GND*%
X15633700Y-177406300D03*
%TD*%
D12*
%TO.P,J3,1*%
%TO.N,PHASE1*%
X28194000Y-182194200D03*
D11*
%TO.P,J3,2*%
%TO.N,PHASE2*%
X30734000Y-182194200D03*
%TO.P,J3,3*%
%TO.N,PHASE3*%
X33274000Y-182194200D03*
%TD*%
D12*
%TO.P,J5,1*%
%TO.N,VSS*%
X30086300Y-157607000D03*
D11*
%TO.P,J5,2*%
%TO.N,GND*%
X30086300Y-155067000D03*
%TD*%
%TO.P,R1,1*%
%TO.N,ENABLE*%
%TA.AperFunction,SMDPad,CuDef*%
G36*
G01*
X42350000Y-168852001D02*
X42350000Y-167951999D01*
G75*
G02*
X42599999Y-167702000I249999J0D01*
G01*
X43125001Y-167702000D01*
G75*
G02*
X43375000Y-167951999I0J-249999D01*
G01*
X43375000Y-168852001D01*
G75*
G02*
X43125001Y-169102000I-249999J0D01*
G01*
X42599999Y-169102000D01*
G75*
G02*
X42350000Y-168852001I0J249999D01*
G01*
G37*
%TD.AperFunction*%
%TO.P,R1,2*%
%TO.N,Net-(J1-Pad2)*%
%TA.AperFunction,SMDPad,CuDef*%
G36*
G01*
X44175000Y-168852001D02*
X44175000Y-167951999D01*
G75*
G02*
X44424999Y-167702000I249999J0D01*
G01*
X44950001Y-167702000D01*
G75*
G02*
X45200000Y-167951999I0J-249999D01*
G01*
X45200000Y-168852001D01*
G75*
G02*
X44950001Y-169102000I-249999J0D01*
G01*
X44424999Y-169102000D01*
G75*
G02*
X44175000Y-168852001I0J249999D01*
G01*
G37*
%TD.AperFunction*%
%TD*%
%TO.P,R2,2*%
%TO.N,Net-(J1-Pad1)*%
%TA.AperFunction,SMDPad,CuDef*%
G36*
G01*
X44162300Y-165613501D02*
X44162300Y-164713499D01*
G75*
G02*
X44412299Y-164463500I249999J0D01*
G01*
X44937301Y-164463500D01*
G75*
G02*
X45187300Y-164713499I0J-249999D01*
G01*
X45187300Y-165613501D01*
G75*
G02*
X44937301Y-165863500I-249999J0D01*
G01*
X44412299Y-165863500D01*
G75*
G02*
X44162300Y-165613501I0J249999D01*
G01*
G37*
%TD.AperFunction*%
%TO.P,R2,1*%
%TO.N,VREF*%
%TA.AperFunction,SMDPad,CuDef*%
G36*
G01*
X42337300Y-165613501D02*
X42337300Y-164713499D01*
G75*
G02*
X42587299Y-164463500I249999J0D01*
G01*
X43112301Y-164463500D01*
G75*
G02*
X43362300Y-164713499I0J-249999D01*
G01*
X43362300Y-165613501D01*
G75*
G02*
X43112301Y-165863500I-249999J0D01*
G01*
X42587299Y-165863500D01*
G75*
G02*
X42337300Y-165613501I0J249999D01*
G01*
G37*
%TD.AperFunction*%
%TD*%
%TO.P,R3,1*%
%TO.N,GND*%
%TA.AperFunction,SMDPad,CuDef*%
G36*
G01*
X45187300Y-162744999D02*
X45187300Y-163645001D01*
G75*
G02*
X44937301Y-163895000I-249999J0D01*
G01*
X44412299Y-163895000D01*
G75*
G02*
X44162300Y-163645001I0J249999D01*
G01*
X44162300Y-162744999D01*
G75*
G02*
X44412299Y-162495000I249999J0D01*
G01*
X44937301Y-162495000D01*
G75*
G02*
X45187300Y-162744999I0J-249999D01*
G01*
G37*
%TD.AperFunction*%
%TO.P,R3,2*%
%TO.N,VREF*%
%TA.AperFunction,SMDPad,CuDef*%
G36*
G01*
X43362300Y-162744999D02*
X43362300Y-163645001D01*
G75*
G02*
X43112301Y-163895000I-249999J0D01*
G01*
X42587299Y-163895000D01*
G75*
G02*
X42337300Y-163645001I0J249999D01*
G01*
X42337300Y-162744999D01*
G75*
G02*
X42587299Y-162495000I249999J0D01*
G01*
X43112301Y-162495000D01*
G75*
G02*
X43362300Y-162744999I0J-249999D01*
G01*
G37*
%TD.AperFunction*%
%TD*%
%TO.P,R4,1*%
%TO.N,Net-(C6-Pad1)*%
%TA.AperFunction,SMDPad,CuDef*%
G36*
G01*
X22614200Y-182758501D02*
X22614200Y-181858499D01*
G75*
G02*
X22864199Y-181608500I249999J0D01*
G01*
X23389201Y-181608500D01*
G75*
G02*
X23639200Y-181858499I0J-249999D01*
G01*
X23639200Y-182758501D01*
G75*
G02*
X23389201Y-183008500I-249999J0D01*
G01*
X22864199Y-183008500D01*
G75*
G02*
X22614200Y-182758501I0J249999D01*
G01*
G37*
%TD.AperFunction*%
%TO.P,R4,2*%
%TO.N,GND*%
%TA.AperFunction,SMDPad,CuDef*%
G36*
G01*
X24439200Y-182758501D02*
X24439200Y-181858499D01*
G75*
G02*
X24689199Y-181608500I249999J0D01*
G01*
X25214201Y-181608500D01*
G75*
G02*
X25464200Y-181858499I0J-249999D01*
G01*
X25464200Y-182758501D01*
G75*
G02*
X25214201Y-183008500I-249999J0D01*
G01*
X24689199Y-183008500D01*
G75*
G02*
X24439200Y-182758501I0J249999D01*
G01*
G37*
%TD.AperFunction*%
%TD*%
%TO.P,R5,1*%
%TO.N,GND*%
%TA.AperFunction,SMDPad,CuDef*%
G36*
G01*
X18795300Y-180828101D02*
X18795300Y-179928099D01*
G75*
G02*
X19045299Y-179678100I249999J0D01*
G01*
X19570301Y-179678100D01*
G75*
G02*
X19820300Y-179928099I0J-249999D01*
G01*
X19820300Y-180828101D01*
G75*
G02*
X19570301Y-181078100I-249999J0D01*
G01*
X19045299Y-181078100D01*
G75*
G02*
X18795300Y-180828101I0J249999D01*
G01*
G37*
%TD.AperFunction*%
%TO.P,R5,2*%
%TO.N,Net-(R13-Pad2)*%
%TA.AperFunction,SMDPad,CuDef*%
G36*
G01*
X20620300Y-180828101D02*
X20620300Y-179928099D01*
G75*
G02*
X20870299Y-179678100I249999J0D01*
G01*
X21395301Y-179678100D01*
G75*
G02*
X21645300Y-179928099I0J-249999D01*
G01*
X21645300Y-180828101D01*
G75*
G02*
X21395301Y-181078100I-249999J0D01*
G01*
X20870299Y-181078100D01*
G75*
G02*
X20620300Y-180828101I0J249999D01*
G01*
G37*
%TD.AperFunction*%
%TD*%
%TO.P,R6,2*%
%TO.N,Net-(D1-Pad1)*%
%TA.AperFunction,SMDPad,CuDef*%
G36*
G01*
X18982100Y-165157999D02*
X18982100Y-166058001D01*
G75*
G02*
X18732101Y-166308000I-249999J0D01*
G01*
X18207099Y-166308000D01*
G75*
G02*
X17957100Y-166058001I0J249999D01*
G01*
X17957100Y-165157999D01*
G75*
G02*
X18207099Y-164908000I249999J0D01*
G01*
X18732101Y-164908000D01*
G75*
G02*
X18982100Y-165157999I0J-249999D01*
G01*
G37*
%TD.AperFunction*%
%TO.P,R6,1*%
%TO.N,Net-(C8-Pad2)*%
%TA.AperFunction,SMDPad,CuDef*%
G36*
G01*
X20807100Y-165157999D02*
X20807100Y-166058001D01*
G75*
G02*
X20557101Y-166308000I-249999J0D01*
G01*
X20032099Y-166308000D01*
G75*
G02*
X19782100Y-166058001I0J249999D01*
G01*
X19782100Y-165157999D01*
G75*
G02*
X20032099Y-164908000I249999J0D01*
G01*
X20557101Y-164908000D01*
G75*
G02*
X20807100Y-165157999I0J-249999D01*
G01*
G37*
%TD.AperFunction*%
%TD*%
%TO.P,R7,1*%
%TO.N,GND*%
%TA.AperFunction,SMDPad,CuDef*%
G36*
G01*
X18757200Y-178719901D02*
X18757200Y-177819899D01*
G75*
G02*
X19007199Y-177569900I249999J0D01*
G01*
X19532201Y-177569900D01*
G75*
G02*
X19782200Y-177819899I0J-249999D01*
G01*
X19782200Y-178719901D01*
G75*
G02*
X19532201Y-178969900I-249999J0D01*
G01*
X19007199Y-178969900D01*
G75*
G02*
X18757200Y-178719901I0J249999D01*
G01*
G37*
%TD.AperFunction*%
%TO.P,R7,2*%
%TO.N,Net-(R13-Pad2)*%
%TA.AperFunction,SMDPad,CuDef*%
G36*
G01*
X20582200Y-178719901D02*
X20582200Y-177819899D01*
G75*
G02*
X20832199Y-177569900I249999J0D01*
G01*
X21357201Y-177569900D01*
G75*
G02*
X21607200Y-177819899I0J-249999D01*
G01*
X21607200Y-178719901D01*
G75*
G02*
X21357201Y-178969900I-249999J0D01*
G01*
X20832199Y-178969900D01*
G75*
G02*
X20582200Y-178719901I0J249999D01*
G01*
G37*
%TD.AperFunction*%
%TD*%
%TO.P,R8,2*%
%TO.N,TACHO*%
%TA.AperFunction,SMDPad,CuDef*%
G36*
G01*
X43198201Y-177298400D02*
X42298199Y-177298400D01*
G75*
G02*
X42048200Y-177048401I0J249999D01*
G01*
X42048200Y-176523399D01*
G75*
G02*
X42298199Y-176273400I249999J0D01*
G01*
X43198201Y-176273400D01*
G75*
G02*
X43448200Y-176523399I0J-249999D01*
G01*
X43448200Y-177048401D01*
G75*
G02*
X43198201Y-177298400I-249999J0D01*
G01*
G37*
%TD.AperFunction*%
%TO.P,R8,1*%
%TO.N,+5V*%
%TA.AperFunction,SMDPad,CuDef*%
G36*
G01*
X43198201Y-179123400D02*
X42298199Y-179123400D01*
G75*
G02*
X42048200Y-178873401I0J249999D01*
G01*
X42048200Y-178348399D01*
G75*
G02*
X42298199Y-178098400I249999J0D01*
G01*
X43198201Y-178098400D01*
G75*
G02*
X43448200Y-178348399I0J-249999D01*
G01*
X43448200Y-178873401D01*
G75*
G02*
X43198201Y-179123400I-249999J0D01*
G01*
G37*
%TD.AperFunction*%
%TD*%
%TO.P,R9,1*%
%TO.N,Net-(C10-Pad1)*%
%TA.AperFunction,SMDPad,CuDef*%
G36*
G01*
X41345699Y-172222100D02*
X42245701Y-172222100D01*
G75*
G02*
X42495700Y-172472099I0J-249999D01*
G01*
X42495700Y-172997101D01*
G75*
G02*
X42245701Y-173247100I-249999J0D01*
G01*
X41345699Y-173247100D01*
G75*
G02*
X41095700Y-172997101I0J249999D01*
G01*
X41095700Y-172472099D01*
G75*
G02*
X41345699Y-172222100I249999J0D01*
G01*
G37*
%TD.AperFunction*%
%TO.P,R9,2*%
%TO.N,GND*%
%TA.AperFunction,SMDPad,CuDef*%
G36*
G01*
X41345699Y-174047100D02*
X42245701Y-174047100D01*
G75*
G02*
X42495700Y-174297099I0J-249999D01*
G01*
X42495700Y-174822101D01*
G75*
G02*
X42245701Y-175072100I-249999J0D01*
G01*
X41345699Y-175072100D01*
G75*
G02*
X41095700Y-174822101I0J249999D01*
G01*
X41095700Y-174297099D01*
G75*
G02*
X41345699Y-174047100I249999J0D01*
G01*
G37*
%TD.AperFunction*%
%TD*%
%TO.P,R10,2*%
%TO.N,HALL1*%
%TA.AperFunction,SMDPad,CuDef*%
G36*
G01*
X20645700Y-175837001D02*
X20645700Y-174936999D01*
G75*
G02*
X20895699Y-174687000I249999J0D01*
G01*
X21420701Y-174687000D01*
G75*
G02*
X21670700Y-174936999I0J-249999D01*
G01*
X21670700Y-175837001D01*
G75*
G02*
X21420701Y-176087000I-249999J0D01*
G01*
X20895699Y-176087000D01*
G75*
G02*
X20645700Y-175837001I0J249999D01*
G01*
G37*
%TD.AperFunction*%
%TO.P,R10,1*%
%TO.N,+5V*%
%TA.AperFunction,SMDPad,CuDef*%
G36*
G01*
X18820700Y-175837001D02*
X18820700Y-174936999D01*
G75*
G02*
X19070699Y-174687000I249999J0D01*
G01*
X19595701Y-174687000D01*
G75*
G02*
X19845700Y-174936999I0J-249999D01*
G01*
X19845700Y-175837001D01*
G75*
G02*
X19595701Y-176087000I-249999J0D01*
G01*
X19070699Y-176087000D01*
G75*
G02*
X18820700Y-175837001I0J249999D01*
G01*
G37*
%TD.AperFunction*%
%TD*%
%TO.P,R11,1*%
%TO.N,+5V*%
%TA.AperFunction,SMDPad,CuDef*%
G36*
G01*
X9876100Y-171607901D02*
X9876100Y-170707899D01*
G75*
G02*
X10126099Y-170457900I249999J0D01*
G01*
X10651101Y-170457900D01*
G75*
G02*
X10901100Y-170707899I0J-249999D01*
G01*
X10901100Y-171607901D01*
G75*
G02*
X10651101Y-171857900I-249999J0D01*
G01*
X10126099Y-171857900D01*
G75*
G02*
X9876100Y-171607901I0J249999D01*
G01*
G37*
%TD.AperFunction*%
%TO.P,R11,2*%
%TO.N,HALL2*%
%TA.AperFunction,SMDPad,CuDef*%
G36*
G01*
X11701100Y-171607901D02*
X11701100Y-170707899D01*
G75*
G02*
X11951099Y-170457900I249999J0D01*
G01*
X12476101Y-170457900D01*
G75*
G02*
X12726100Y-170707899I0J-249999D01*
G01*
X12726100Y-171607901D01*
G75*
G02*
X12476101Y-171857900I-249999J0D01*
G01*
X11951099Y-171857900D01*
G75*
G02*
X11701100Y-171607901I0J249999D01*
G01*
G37*
%TD.AperFunction*%
%TD*%
%TO.P,R12,2*%
%TO.N,HALL3*%
%TA.AperFunction,SMDPad,CuDef*%
G36*
G01*
X12056700Y-175100401D02*
X12056700Y-174200399D01*
G75*
G02*
X12306699Y-173950400I249999J0D01*
G01*
X12831701Y-173950400D01*
G75*
G02*
X13081700Y-174200399I0J-249999D01*
G01*
X13081700Y-175100401D01*
G75*
G02*
X12831701Y-175350400I-249999J0D01*
G01*
X12306699Y-175350400D01*
G75*
G02*
X12056700Y-175100401I0J249999D01*
G01*
G37*
%TD.AperFunction*%
%TO.P,R12,1*%
%TO.N,+5V*%
%TA.AperFunction,SMDPad,CuDef*%
G36*
G01*
X10231700Y-175100401D02*
X10231700Y-174200399D01*
G75*
G02*
X10481699Y-173950400I249999J0D01*
G01*
X11006701Y-173950400D01*
G75*
G02*
X11256700Y-174200399I0J-249999D01*
G01*
X11256700Y-175100401D01*
G75*
G02*
X11006701Y-175350400I-249999J0D01*
G01*
X10481699Y-175350400D01*
G75*
G02*
X10231700Y-175100401I0J249999D01*
G01*
G37*
%TD.AperFunction*%
%TD*%
%TO.P,R13,2*%
%TO.N,Net-(R13-Pad2)*%
%TA.AperFunction,SMDPad,CuDef*%
G36*
G01*
X20645700Y-182936301D02*
X20645700Y-182036299D01*
G75*
G02*
X20895699Y-181786300I249999J0D01*
G01*
X21420701Y-181786300D01*
G75*
G02*
X21670700Y-182036299I0J-249999D01*
G01*
X21670700Y-182936301D01*
G75*
G02*
X21420701Y-183186300I-249999J0D01*
G01*
X20895699Y-183186300D01*
G75*
G02*
X20645700Y-182936301I0J249999D01*
G01*
G37*
%TD.AperFunction*%
%TO.P,R13,1*%
%TO.N,GND*%
%TA.AperFunction,SMDPad,CuDef*%
G36*
G01*
X18820700Y-182936301D02*
X18820700Y-182036299D01*
G75*
G02*
X19070699Y-181786300I249999J0D01*
G01*
X19595701Y-181786300D01*
G75*
G02*
X19845700Y-182036299I0J-249999D01*
G01*
X19845700Y-182936301D01*
G75*
G02*
X19595701Y-183186300I-249999J0D01*
G01*
X19070699Y-183186300D01*
G75*
G02*
X18820700Y-182936301I0J249999D01*
G01*
G37*
%TD.AperFunction*%
%TD*%
%TO.P,U1,1*%
%TO.N,GND*%
%TA.AperFunction,SMDPad,CuDef*%
G36*
G01*
X23657100Y-165225100D02*
X23657100Y-165035100D01*
G75*
G02*
X23752100Y-164940100I95000J0D01*
G01*
X26062100Y-164940100D01*
G75*
G02*
X26157100Y-165035100I0J-95000D01*
G01*
X26157100Y-165225100D01*
G75*
G02*
X26062100Y-165320100I-95000J0D01*
G01*
X23752100Y-165320100D01*
G75*
G02*
X23657100Y-165225100I0J95000D01*
G01*
G37*
%TD.AperFunction*%
%TO.P,U1,2*%
%TO.N,Net-(U1-Pad2)*%
%TA.AperFunction,SMDPad,CuDef*%
G36*
G01*
X23657100Y-165875100D02*
X23657100Y-165685100D01*
G75*
G02*
X23752100Y-165590100I95000J0D01*
G01*
X26062100Y-165590100D01*
G75*
G02*
X26157100Y-165685100I0J-95000D01*
G01*
X26157100Y-165875100D01*
G75*
G02*
X26062100Y-165970100I-95000J0D01*
G01*
X23752100Y-165970100D01*
G75*
G02*
X23657100Y-165875100I0J95000D01*
G01*
G37*
%TD.AperFunction*%
%TO.P,U1,3*%
%TO.N,Net-(U1-Pad3)*%
%TA.AperFunction,SMDPad,CuDef*%
G36*
G01*
X23657100Y-166525100D02*
X23657100Y-166335100D01*
G75*
G02*
X23752100Y-166240100I95000J0D01*
G01*
X26062100Y-166240100D01*
G75*
G02*
X26157100Y-166335100I0J-95000D01*
G01*
X26157100Y-166525100D01*
G75*
G02*
X26062100Y-166620100I-95000J0D01*
G01*
X23752100Y-166620100D01*
G75*
G02*
X23657100Y-166525100I0J95000D01*
G01*
G37*
%TD.AperFunction*%
%TO.P,U1,4*%
%TO.N,VSS*%
%TA.AperFunction,SMDPad,CuDef*%
G36*
G01*
X23657100Y-167175100D02*
X23657100Y-166985100D01*
G75*
G02*
X23752100Y-166890100I95000J0D01*
G01*
X26062100Y-166890100D01*
G75*
G02*
X26157100Y-166985100I0J-95000D01*
G01*
X26157100Y-167175100D01*
G75*
G02*
X26062100Y-167270100I-95000J0D01*
G01*
X23752100Y-167270100D01*
G75*
G02*
X23657100Y-167175100I0J95000D01*
G01*
G37*
%TD.AperFunction*%
%TO.P,U1,5*%
%TO.N,PHASE2*%
%TA.AperFunction,SMDPad,CuDef*%
G36*
G01*
X23657100Y-167825100D02*
X23657100Y-167635100D01*
G75*
G02*
X23752100Y-167540100I95000J0D01*
G01*
X26062100Y-167540100D01*
G75*
G02*
X26157100Y-167635100I0J-95000D01*
G01*
X26157100Y-167825100D01*
G75*
G02*
X26062100Y-167920100I-95000J0D01*
G01*
X23752100Y-167920100D01*
G75*
G02*
X23657100Y-167825100I0J95000D01*
G01*
G37*
%TD.AperFunction*%
%TO.P,U1,6*%
%TO.N,Net-(U1-Pad6)*%
%TA.AperFunction,SMDPad,CuDef*%
G36*
G01*
X23657100Y-168475100D02*
X23657100Y-168285100D01*
G75*
G02*
X23752100Y-168190100I95000J0D01*
G01*
X26062100Y-168190100D01*
G75*
G02*
X26157100Y-168285100I0J-95000D01*
G01*
X26157100Y-168475100D01*
G75*
G02*
X26062100Y-168570100I-95000J0D01*
G01*
X23752100Y-168570100D01*
G75*
G02*
X23657100Y-168475100I0J95000D01*
G01*
G37*
%TD.AperFunction*%
%TO.P,U1,7*%
%TO.N,Net-(C8-Pad1)*%
%TA.AperFunction,SMDPad,CuDef*%
G36*
G01*
X23657100Y-169125100D02*
X23657100Y-168935100D01*
G75*
G02*
X23752100Y-168840100I95000J0D01*
G01*
X26062100Y-168840100D01*
G75*
G02*
X26157100Y-168935100I0J-95000D01*
G01*
X26157100Y-169125100D01*
G75*
G02*
X26062100Y-169220100I-95000J0D01*
G01*
X23752100Y-169220100D01*
G75*
G02*
X23657100Y-169125100I0J95000D01*
G01*
G37*
%TD.AperFunction*%
%TO.P,U1,8*%
%TO.N,HALL2*%
%TA.AperFunction,SMDPad,CuDef*%
G36*
G01*
X23657100Y-169775100D02*
X23657100Y-169585100D01*
G75*
G02*
X23752100Y-169490100I95000J0D01*
G01*
X26062100Y-169490100D01*
G75*
G02*
X26157100Y-169585100I0J-95000D01*
G01*
X26157100Y-169775100D01*
G75*
G02*
X26062100Y-169870100I-95000J0D01*
G01*
X23752100Y-169870100D01*
G75*
G02*
X23657100Y-169775100I0J95000D01*
G01*
G37*
%TD.AperFunction*%
%TO.P,U1,9*%
%TO.N,HALL3*%
%TA.AperFunction,SMDPad,CuDef*%
G36*
G01*
X23657100Y-170425100D02*
X23657100Y-170235100D01*
G75*
G02*
X23752100Y-170140100I95000J0D01*
G01*
X26062100Y-170140100D01*
G75*
G02*
X26157100Y-170235100I0J-95000D01*
G01*
X26157100Y-170425100D01*
G75*
G02*
X26062100Y-170520100I-95000J0D01*
G01*
X23752100Y-170520100D01*
G75*
G02*
X23657100Y-170425100I0J95000D01*
G01*
G37*
%TD.AperFunction*%
%TO.P,U1,10*%
%TO.N,HALL1*%
%TA.AperFunction,SMDPad,CuDef*%
G36*
G01*
X23657100Y-171075100D02*
X23657100Y-170885100D01*
G75*
G02*
X23752100Y-170790100I95000J0D01*
G01*
X26062100Y-170790100D01*
G75*
G02*
X26157100Y-170885100I0J-95000D01*
G01*
X26157100Y-171075100D01*
G75*
G02*
X26062100Y-171170100I-95000J0D01*
G01*
X23752100Y-171170100D01*
G75*
G02*
X23657100Y-171075100I0J95000D01*
G01*
G37*
%TD.AperFunction*%
%TO.P,U1,11*%
%TO.N,ENABLE*%
%TA.AperFunction,SMDPad,CuDef*%
G36*
G01*
X23657100Y-171725100D02*
X23657100Y-171535100D01*
G75*
G02*
X23752100Y-171440100I95000J0D01*
G01*
X26062100Y-171440100D01*
G75*
G02*
X26157100Y-171535100I0J-95000D01*
G01*
X26157100Y-171725100D01*
G75*
G02*
X26062100Y-171820100I-95000J0D01*
G01*
X23752100Y-171820100D01*
G75*
G02*
X23657100Y-171725100I0J95000D01*
G01*
G37*
%TD.AperFunction*%
%TO.P,U1,12*%
%TO.N,Net-(R13-Pad2)*%
%TA.AperFunction,SMDPad,CuDef*%
G36*
G01*
X23657100Y-172375100D02*
X23657100Y-172185100D01*
G75*
G02*
X23752100Y-172090100I95000J0D01*
G01*
X26062100Y-172090100D01*
G75*
G02*
X26157100Y-172185100I0J-95000D01*
G01*
X26157100Y-172375100D01*
G75*
G02*
X26062100Y-172470100I-95000J0D01*
G01*
X23752100Y-172470100D01*
G75*
G02*
X23657100Y-172375100I0J95000D01*
G01*
G37*
%TD.AperFunction*%
%TO.P,U1,13*%
%TO.N,Net-(C6-Pad1)*%
%TA.AperFunction,SMDPad,CuDef*%
G36*
G01*
X23657100Y-173025100D02*
X23657100Y-172835100D01*
G75*
G02*
X23752100Y-172740100I95000J0D01*
G01*
X26062100Y-172740100D01*
G75*
G02*
X26157100Y-172835100I0J-95000D01*
G01*
X26157100Y-173025100D01*
G75*
G02*
X26062100Y-173120100I-95000J0D01*
G01*
X23752100Y-173120100D01*
G75*
G02*
X23657100Y-173025100I0J95000D01*
G01*
G37*
%TD.AperFunction*%
%TO.P,U1,14*%
%TO.N,Net-(U1-Pad14)*%
%TA.AperFunction,SMDPad,CuDef*%
G36*
G01*
X23657100Y-173675100D02*
X23657100Y-173485100D01*
G75*
G02*
X23752100Y-173390100I95000J0D01*
G01*
X26062100Y-173390100D01*
G75*
G02*
X26157100Y-173485100I0J-95000D01*
G01*
X26157100Y-173675100D01*
G75*
G02*
X26062100Y-173770100I-95000J0D01*
G01*
X23752100Y-173770100D01*
G75*
G02*
X23657100Y-173675100I0J95000D01*
G01*
G37*
%TD.AperFunction*%
%TO.P,U1,15*%
%TO.N,PHASE1*%
%TA.AperFunction,SMDPad,CuDef*%
G36*
G01*
X23657100Y-174325100D02*
X23657100Y-174135100D01*
G75*
G02*
X23752100Y-174040100I95000J0D01*
G01*
X26062100Y-174040100D01*
G75*
G02*
X26157100Y-174135100I0J-95000D01*
G01*
X26157100Y-174325100D01*
G75*
G02*
X26062100Y-174420100I-95000J0D01*
G01*
X23752100Y-174420100D01*
G75*
G02*
X23657100Y-174325100I0J95000D01*
G01*
G37*
%TD.AperFunction*%
%TO.P,U1,16*%
%TO.N,Net-(U1-Pad16)*%
%TA.AperFunction,SMDPad,CuDef*%
G36*
G01*
X23657100Y-174975100D02*
X23657100Y-174785100D01*
G75*
G02*
X23752100Y-174690100I95000J0D01*
G01*
X26062100Y-174690100D01*
G75*
G02*
X26157100Y-174785100I0J-95000D01*
G01*
X26157100Y-174975100D01*
G75*
G02*
X26062100Y-175070100I-95000J0D01*
G01*
X23752100Y-175070100D01*
G75*
G02*
X23657100Y-174975100I0J95000D01*
G01*
G37*
%TD.AperFunction*%
%TO.P,U1,17*%
%TO.N,Net-(U1-Pad17)*%
%TA.AperFunction,SMDPad,CuDef*%
G36*
G01*
X23657100Y-175625100D02*
X23657100Y-175435100D01*
G75*
G02*
X23752100Y-175340100I95000J0D01*
G01*
X26062100Y-175340100D01*
G75*
G02*
X26157100Y-175435100I0J-95000D01*
G01*
X26157100Y-175625100D01*
G75*
G02*
X26062100Y-175720100I-95000J0D01*
G01*
X23752100Y-175720100D01*
G75*
G02*
X23657100Y-175625100I0J95000D01*
G01*
G37*
%TD.AperFunction*%
%TO.P,U1,18*%
%TO.N,GND*%
%TA.AperFunction,SMDPad,CuDef*%
G36*
G01*
X23657100Y-176275100D02*
X23657100Y-176085100D01*
G75*
G02*
X23752100Y-175990100I95000J0D01*
G01*
X26062100Y-175990100D01*
G75*
G02*
X26157100Y-176085100I0J-95000D01*
G01*
X26157100Y-176275100D01*
G75*
G02*
X26062100Y-176370100I-95000J0D01*
G01*
X23752100Y-176370100D01*
G75*
G02*
X23657100Y-176275100I0J95000D01*
G01*
G37*
%TD.AperFunction*%
%TO.P,U1,19*%
%TA.AperFunction,SMDPad,CuDef*%
G36*
G01*
X36657100Y-176275100D02*
X36657100Y-176085100D01*
G75*
G02*
X36752100Y-175990100I95000J0D01*
G01*
X39062100Y-175990100D01*
G75*
G02*
X39157100Y-176085100I0J-95000D01*
G01*
X39157100Y-176275100D01*
G75*
G02*
X39062100Y-176370100I-95000J0D01*
G01*
X36752100Y-176370100D01*
G75*
G02*
X36657100Y-176275100I0J95000D01*
G01*
G37*
%TD.AperFunction*%
%TO.P,U1,20*%
%TO.N,Net-(U1-Pad20)*%
%TA.AperFunction,SMDPad,CuDef*%
G36*
G01*
X36657100Y-175625100D02*
X36657100Y-175435100D01*
G75*
G02*
X36752100Y-175340100I95000J0D01*
G01*
X39062100Y-175340100D01*
G75*
G02*
X39157100Y-175435100I0J-95000D01*
G01*
X39157100Y-175625100D01*
G75*
G02*
X39062100Y-175720100I-95000J0D01*
G01*
X36752100Y-175720100D01*
G75*
G02*
X36657100Y-175625100I0J95000D01*
G01*
G37*
%TD.AperFunction*%
%TO.P,U1,21*%
%TO.N,Net-(U1-Pad21)*%
%TA.AperFunction,SMDPad,CuDef*%
G36*
G01*
X36657100Y-174975100D02*
X36657100Y-174785100D01*
G75*
G02*
X36752100Y-174690100I95000J0D01*
G01*
X39062100Y-174690100D01*
G75*
G02*
X39157100Y-174785100I0J-95000D01*
G01*
X39157100Y-174975100D01*
G75*
G02*
X39062100Y-175070100I-95000J0D01*
G01*
X36752100Y-175070100D01*
G75*
G02*
X36657100Y-174975100I0J95000D01*
G01*
G37*
%TD.AperFunction*%
%TO.P,U1,22*%
%TO.N,TACHO*%
%TA.AperFunction,SMDPad,CuDef*%
G36*
G01*
X36657100Y-174325100D02*
X36657100Y-174135100D01*
G75*
G02*
X36752100Y-174040100I95000J0D01*
G01*
X39062100Y-174040100D01*
G75*
G02*
X39157100Y-174135100I0J-95000D01*
G01*
X39157100Y-174325100D01*
G75*
G02*
X39062100Y-174420100I-95000J0D01*
G01*
X36752100Y-174420100D01*
G75*
G02*
X36657100Y-174325100I0J95000D01*
G01*
G37*
%TD.AperFunction*%
%TO.P,U1,23*%
%TO.N,Net-(U1-Pad23)*%
%TA.AperFunction,SMDPad,CuDef*%
G36*
G01*
X36657100Y-173675100D02*
X36657100Y-173485100D01*
G75*
G02*
X36752100Y-173390100I95000J0D01*
G01*
X39062100Y-173390100D01*
G75*
G02*
X39157100Y-173485100I0J-95000D01*
G01*
X39157100Y-173675100D01*
G75*
G02*
X39062100Y-173770100I-95000J0D01*
G01*
X36752100Y-173770100D01*
G75*
G02*
X36657100Y-173675100I0J95000D01*
G01*
G37*
%TD.AperFunction*%
%TO.P,U1,24*%
%TO.N,Net-(C10-Pad1)*%
%TA.AperFunction,SMDPad,CuDef*%
G36*
G01*
X36657100Y-173025100D02*
X36657100Y-172835100D01*
G75*
G02*
X36752100Y-172740100I95000J0D01*
G01*
X39062100Y-172740100D01*
G75*
G02*
X39157100Y-172835100I0J-95000D01*
G01*
X39157100Y-173025100D01*
G75*
G02*
X39062100Y-173120100I-95000J0D01*
G01*
X36752100Y-173120100D01*
G75*
G02*
X36657100Y-173025100I0J95000D01*
G01*
G37*
%TD.AperFunction*%
%TO.P,U1,25*%
%TO.N,Net-(U1-Pad25)*%
%TA.AperFunction,SMDPad,CuDef*%
G36*
G01*
X36657100Y-172375100D02*
X36657100Y-172185100D01*
G75*
G02*
X36752100Y-172090100I95000J0D01*
G01*
X39062100Y-172090100D01*
G75*
G02*
X39157100Y-172185100I0J-95000D01*
G01*
X39157100Y-172375100D01*
G75*
G02*
X39062100Y-172470100I-95000J0D01*
G01*
X36752100Y-172470100D01*
G75*
G02*
X36657100Y-172375100I0J95000D01*
G01*
G37*
%TD.AperFunction*%
%TO.P,U1,26*%
%TO.N,F-R*%
%TA.AperFunction,SMDPad,CuDef*%
G36*
G01*
X36657100Y-171725100D02*
X36657100Y-171535100D01*
G75*
G02*
X36752100Y-171440100I95000J0D01*
G01*
X39062100Y-171440100D01*
G75*
G02*
X39157100Y-171535100I0J-95000D01*
G01*
X39157100Y-171725100D01*
G75*
G02*
X39062100Y-171820100I-95000J0D01*
G01*
X36752100Y-171820100D01*
G75*
G02*
X36657100Y-171725100I0J95000D01*
G01*
G37*
%TD.AperFunction*%
%TO.P,U1,27*%
%TO.N,ENABLE*%
%TA.AperFunction,SMDPad,CuDef*%
G36*
G01*
X36657100Y-171075100D02*
X36657100Y-170885100D01*
G75*
G02*
X36752100Y-170790100I95000J0D01*
G01*
X39062100Y-170790100D01*
G75*
G02*
X39157100Y-170885100I0J-95000D01*
G01*
X39157100Y-171075100D01*
G75*
G02*
X39062100Y-171170100I-95000J0D01*
G01*
X36752100Y-171170100D01*
G75*
G02*
X36657100Y-171075100I0J95000D01*
G01*
G37*
%TD.AperFunction*%
%TO.P,U1,28*%
%TO.N,VREF*%
%TA.AperFunction,SMDPad,CuDef*%
G36*
G01*
X36657100Y-170425100D02*
X36657100Y-170235100D01*
G75*
G02*
X36752100Y-170140100I95000J0D01*
G01*
X39062100Y-170140100D01*
G75*
G02*
X39157100Y-170235100I0J-95000D01*
G01*
X39157100Y-170425100D01*
G75*
G02*
X39062100Y-170520100I-95000J0D01*
G01*
X36752100Y-170520100D01*
G75*
G02*
X36657100Y-170425100I0J95000D01*
G01*
G37*
%TD.AperFunction*%
%TO.P,U1,29*%
%TO.N,BRAKE*%
%TA.AperFunction,SMDPad,CuDef*%
G36*
G01*
X36657100Y-169775100D02*
X36657100Y-169585100D01*
G75*
G02*
X36752100Y-169490100I95000J0D01*
G01*
X39062100Y-169490100D01*
G75*
G02*
X39157100Y-169585100I0J-95000D01*
G01*
X39157100Y-169775100D01*
G75*
G02*
X39062100Y-169870100I-95000J0D01*
G01*
X36752100Y-169870100D01*
G75*
G02*
X36657100Y-169775100I0J95000D01*
G01*
G37*
%TD.AperFunction*%
%TO.P,U1,30*%
%TO.N,Net-(C7-Pad2)*%
%TA.AperFunction,SMDPad,CuDef*%
G36*
G01*
X36657100Y-169125100D02*
X36657100Y-168935100D01*
G75*
G02*
X36752100Y-168840100I95000J0D01*
G01*
X39062100Y-168840100D01*
G75*
G02*
X39157100Y-168935100I0J-95000D01*
G01*
X39157100Y-169125100D01*
G75*
G02*
X39062100Y-169220100I-95000J0D01*
G01*
X36752100Y-169220100D01*
G75*
G02*
X36657100Y-169125100I0J95000D01*
G01*
G37*
%TD.AperFunction*%
%TO.P,U1,31*%
%TO.N,Net-(U1-Pad31)*%
%TA.AperFunction,SMDPad,CuDef*%
G36*
G01*
X36657100Y-168475100D02*
X36657100Y-168285100D01*
G75*
G02*
X36752100Y-168190100I95000J0D01*
G01*
X39062100Y-168190100D01*
G75*
G02*
X39157100Y-168285100I0J-95000D01*
G01*
X39157100Y-168475100D01*
G75*
G02*
X39062100Y-168570100I-95000J0D01*
G01*
X36752100Y-168570100D01*
G75*
G02*
X36657100Y-168475100I0J95000D01*
G01*
G37*
%TD.AperFunction*%
%TO.P,U1,32*%
%TO.N,PHASE3*%
%TA.AperFunction,SMDPad,CuDef*%
G36*
G01*
X36657100Y-167825100D02*
X36657100Y-167635100D01*
G75*
G02*
X36752100Y-167540100I95000J0D01*
G01*
X39062100Y-167540100D01*
G75*
G02*
X39157100Y-167635100I0J-95000D01*
G01*
X39157100Y-167825100D01*
G75*
G02*
X39062100Y-167920100I-95000J0D01*
G01*
X36752100Y-167920100D01*
G75*
G02*
X36657100Y-167825100I0J95000D01*
G01*
G37*
%TD.AperFunction*%
%TO.P,U1,33*%
%TO.N,Net-(U1-Pad33)*%
%TA.AperFunction,SMDPad,CuDef*%
G36*
G01*
X36657100Y-167175100D02*
X36657100Y-166985100D01*
G75*
G02*
X36752100Y-166890100I95000J0D01*
G01*
X39062100Y-166890100D01*
G75*
G02*
X39157100Y-166985100I0J-95000D01*
G01*
X39157100Y-167175100D01*
G75*
G02*
X39062100Y-167270100I-95000J0D01*
G01*
X36752100Y-167270100D01*
G75*
G02*
X36657100Y-167175100I0J95000D01*
G01*
G37*
%TD.AperFunction*%
%TO.P,U1,34*%
%TO.N,Net-(U1-Pad34)*%
%TA.AperFunction,SMDPad,CuDef*%
G36*
G01*
X36657100Y-166525100D02*
X36657100Y-166335100D01*
G75*
G02*
X36752100Y-166240100I95000J0D01*
G01*
X39062100Y-166240100D01*
G75*
G02*
X39157100Y-166335100I0J-95000D01*
G01*
X39157100Y-166525100D01*
G75*
G02*
X39062100Y-166620100I-95000J0D01*
G01*
X36752100Y-166620100D01*
G75*
G02*
X36657100Y-166525100I0J95000D01*
G01*
G37*
%TD.AperFunction*%
%TO.P,U1,35*%
%TO.N,Net-(U1-Pad35)*%
%TA.AperFunction,SMDPad,CuDef*%
G36*
G01*
X36657100Y-165875100D02*
X36657100Y-165685100D01*
G75*
G02*
X36752100Y-165590100I95000J0D01*
G01*
X39062100Y-165590100D01*
G75*
G02*
X39157100Y-165685100I0J-95000D01*
G01*
X39157100Y-165875100D01*
G75*
G02*
X39062100Y-165970100I-95000J0D01*
G01*
X36752100Y-165970100D01*
G75*
G02*
X36657100Y-165875100I0J95000D01*
G01*
G37*
%TD.AperFunction*%
%TO.P,U1,36*%
%TO.N,GND*%
%TA.AperFunction,SMDPad,CuDef*%
G36*
G01*
X36657100Y-165225100D02*
X36657100Y-165035100D01*
G75*
G02*
X36752100Y-164940100I95000J0D01*
G01*
X39062100Y-164940100D01*
G75*
G02*
X39157100Y-165035100I0J-95000D01*
G01*
X39157100Y-165225100D01*
G75*
G02*
X39062100Y-165320100I-95000J0D01*
G01*
X36752100Y-165320100D01*
G75*
G02*
X36657100Y-165225100I0J95000D01*
G01*
G37*
%TD.AperFunction*%
%TA.AperFunction,SMDPad,CuDef*%
D13*
%TO.P,U1,37*%
G36*
X32666855Y-162931061D02*
G01*
X32676234Y-162933906D01*
X32684879Y-162938527D01*
X32692455Y-162944745D01*
X32698673Y-162952321D01*
X32703294Y-162960966D01*
X32706139Y-162970345D01*
X32707100Y-162980100D01*
X32707100Y-165930100D01*
X34407100Y-165930100D01*
X34416855Y-165931061D01*
X34426234Y-165933906D01*
X34434879Y-165938527D01*
X34442455Y-165944745D01*
X34448673Y-165952321D01*
X34453294Y-165960966D01*
X34456139Y-165970345D01*
X34457100Y-165980100D01*
X34457100Y-175980100D01*
X34456139Y-175989855D01*
X34453294Y-175999234D01*
X34448673Y-176007879D01*
X34442455Y-176015455D01*
X34434879Y-176021673D01*
X34426234Y-176026294D01*
X34416855Y-176029139D01*
X34407100Y-176030100D01*
X32707100Y-176030100D01*
X32707100Y-178980100D01*
X32706139Y-178989855D01*
X32703294Y-178999234D01*
X32698673Y-179007879D01*
X32692455Y-179015455D01*
X32684879Y-179021673D01*
X32676234Y-179026294D01*
X32666855Y-179029139D01*
X32657100Y-179030100D01*
X30157100Y-179030100D01*
X30147345Y-179029139D01*
X30137966Y-179026294D01*
X30129321Y-179021673D01*
X30121745Y-179015455D01*
X30115527Y-179007879D01*
X30110906Y-178999234D01*
X30108061Y-178989855D01*
X30107100Y-178980100D01*
X30107100Y-176030100D01*
X28407100Y-176030100D01*
X28397345Y-176029139D01*
X28387966Y-176026294D01*
X28379321Y-176021673D01*
X28371745Y-176015455D01*
X28365527Y-176007879D01*
X28360906Y-175999234D01*
X28358061Y-175989855D01*
X28357100Y-175980100D01*
X28357100Y-165980100D01*
X28358061Y-165970345D01*
X28360906Y-165960966D01*
X28365527Y-165952321D01*
X28371745Y-165944745D01*
X28379321Y-165938527D01*
X28387966Y-165933906D01*
X28397345Y-165931061D01*
X28407100Y-165930100D01*
X30107100Y-165930100D01*
X30107100Y-162980100D01*
X30108061Y-162970345D01*
X30110906Y-162960966D01*
X30115527Y-162952321D01*
X30121745Y-162944745D01*
X30129321Y-162938527D01*
X30137966Y-162933906D01*
X30147345Y-162931061D01*
X30157100Y-162930100D01*
X32657100Y-162930100D01*
X32666855Y-162931061D01*
G37*
%TD.AperFunction*%
%TD*%
D10*
%TO.P,C9,1*%
%TO.N,+5V*%
X15250000Y-160750000D03*
%TO.P,C9,2*%
%TO.N,GND*%
X11750000Y-160750000D03*
%TD*%
D14*
%TO.P,IC1,1*%
%TO.N,VSS*%
X15200000Y-154530000D03*
%TO.P,IC1,3*%
%TO.N,GND*%
X15200000Y-149970000D03*
D15*
%TO.P,IC1,2*%
%TO.N,+5V*%
X8900000Y-152250000D03*
%TD*%
%TO.P,C4,1*%
%TO.N,+5V*%
%TA.AperFunction,SMDPad,CuDef*%
G36*
G01*
X5550000Y-157475000D02*
X5550000Y-156525000D01*
G75*
G02*
X5800000Y-156275000I250000J0D01*
G01*
X6300000Y-156275000D01*
G75*
G02*
X6550000Y-156525000I0J-250000D01*
G01*
X6550000Y-157475000D01*
G75*
G02*
X6300000Y-157725000I-250000J0D01*
G01*
X5800000Y-157725000D01*
G75*
G02*
X5550000Y-157475000I0J250000D01*
G01*
G37*
%TD.AperFunction*%
%TO.P,C4,2*%
%TO.N,GND*%
%TA.AperFunction,SMDPad,CuDef*%
G36*
G01*
X7450000Y-157475000D02*
X7450000Y-156525000D01*
G75*
G02*
X7700000Y-156275000I250000J0D01*
G01*
X8200000Y-156275000D01*
G75*
G02*
X8450000Y-156525000I0J-250000D01*
G01*
X8450000Y-157475000D01*
G75*
G02*
X8200000Y-157725000I-250000J0D01*
G01*
X7700000Y-157725000D01*
G75*
G02*
X7450000Y-157475000I0J250000D01*
G01*
G37*
%TD.AperFunction*%
%TD*%
D16*
%TO.N,GND*%
X46723300Y-162128200D03*
X37907100Y-164132400D03*
X45570100Y-174647900D03*
X37907100Y-177873800D03*
X24975900Y-177424000D03*
X46800000Y-169400000D03*
%TO.N,VSS*%
X17220000Y-154530000D03*
%TO.N,+5V*%
X10388600Y-169291000D03*
X19333200Y-173287700D03*
X40260900Y-178610900D03*
%TO.N,BRAKE*%
X32829500Y-161607500D03*
%TO.N,PHASE2*%
X27025600Y-161988500D03*
%TD*%
D17*
%TO.N,GND*%
X44711700Y-161099500D02*
X45694600Y-161099500D01*
X45694600Y-161099500D02*
X46723300Y-162128200D01*
X46723300Y-162128200D02*
X46723300Y-162128200D01*
X37907100Y-165130100D02*
X37907100Y-164132400D01*
X37907100Y-164132400D02*
X37907100Y-164132400D01*
X45656500Y-163195000D02*
X46723300Y-162128200D01*
X44674800Y-163195000D02*
X45656500Y-163195000D01*
X43800400Y-174559600D02*
X43888700Y-174647900D01*
X41795700Y-174559600D02*
X43800400Y-174559600D01*
X43888700Y-174647900D02*
X45570100Y-174647900D01*
X45570100Y-174647900D02*
X45570100Y-174647900D01*
X37907100Y-176180100D02*
X37907100Y-177873800D01*
X37907100Y-177873800D02*
X37907100Y-177873800D01*
X24975900Y-176248900D02*
X24907100Y-176180100D01*
X24975900Y-180213000D02*
X24975900Y-177424000D01*
X24951700Y-180237200D02*
X24975900Y-180213000D01*
X24951700Y-182308500D02*
X24951700Y-180237200D01*
X24975900Y-177424000D02*
X24975900Y-176248900D01*
X24907100Y-162278200D02*
X24907100Y-165130100D01*
X26708100Y-160477200D02*
X24907100Y-162278200D01*
X29248100Y-160477200D02*
X26708100Y-160477200D01*
X31407100Y-162636200D02*
X29248100Y-160477200D01*
X31407100Y-170980100D02*
X31407100Y-162636200D01*
%TO.N,ENABLE*%
X42354500Y-170980100D02*
X37907100Y-170980100D01*
X42824400Y-170510200D02*
X42354500Y-170980100D01*
X42862500Y-170472100D02*
X42824400Y-170510200D01*
X42862500Y-168402000D02*
X42862500Y-170472100D01*
X27378900Y-171630100D02*
X24907100Y-171630100D01*
X27679650Y-171930850D02*
X27378900Y-171630100D01*
X28206700Y-179933600D02*
X27679650Y-179406550D01*
X27679650Y-179406550D02*
X27679650Y-171930850D01*
X35026600Y-179933600D02*
X28206700Y-179933600D01*
X35826700Y-179133500D02*
X35026600Y-179933600D01*
X36639660Y-171018200D02*
X35826700Y-171018200D01*
X36677760Y-170980100D02*
X36639660Y-171018200D01*
X35826700Y-171018200D02*
X35826700Y-179133500D01*
X37907100Y-170980100D02*
X36677760Y-170980100D01*
%TO.N,VSS*%
X22782700Y-167080100D02*
X22783800Y-167079000D01*
X24907100Y-167080100D02*
X22782700Y-167080100D01*
X24711700Y-153502800D02*
X21369500Y-156845000D01*
X24711700Y-152120600D02*
X24711700Y-153502800D01*
X26009600Y-156845000D02*
X26885900Y-157721300D01*
X21369500Y-156845000D02*
X26009600Y-156845000D01*
D18*
X29972000Y-157721300D02*
X30086300Y-157607000D01*
X26885900Y-157721300D02*
X29972000Y-157721300D01*
X36334700Y-157607000D02*
X36461700Y-157734000D01*
X30086300Y-157607000D02*
X36334700Y-157607000D01*
X26885900Y-157721300D02*
X26885900Y-158465600D01*
X22072600Y-166207100D02*
X22782700Y-166917200D01*
X22072600Y-163207700D02*
X22072600Y-166207100D01*
D17*
X22782700Y-167080100D02*
X22782700Y-166917200D01*
D18*
X22143800Y-163207700D02*
X26885900Y-158465600D01*
X22072600Y-163207700D02*
X22143800Y-163207700D01*
X15200000Y-154530000D02*
X17220000Y-154530000D01*
X17220000Y-154530000D02*
X17220000Y-154530000D01*
D17*
%TO.N,+5V*%
X10388600Y-174294800D02*
X10744200Y-174650400D01*
X10388600Y-171157900D02*
X10388600Y-174294800D01*
X10655300Y-174739300D02*
X10744200Y-174650400D01*
X15494000Y-167106600D02*
X15633700Y-167246300D01*
X10388600Y-171157900D02*
X10388600Y-169291000D01*
X10388600Y-169291000D02*
X10388600Y-169291000D01*
X19333200Y-175387000D02*
X19333200Y-173287700D01*
X19333200Y-173287700D02*
X19333200Y-173287700D01*
X42748200Y-178610900D02*
X40260900Y-178610900D01*
X40260900Y-178610900D02*
X40260900Y-178610900D01*
D18*
X15633700Y-161133700D02*
X15250000Y-160750000D01*
X15633700Y-167246300D02*
X15633700Y-161133700D01*
X15250000Y-158600000D02*
X8900000Y-152250000D01*
X15250000Y-160750000D02*
X15250000Y-158600000D01*
D17*
X6050000Y-155100000D02*
X8900000Y-152250000D01*
X6050000Y-157000000D02*
X6050000Y-155100000D01*
%TO.N,VREF*%
X42849800Y-165163500D02*
X42849800Y-163195000D01*
X37907100Y-170330100D02*
X40413700Y-170330100D01*
X40413700Y-170330100D02*
X41224200Y-169519600D01*
X41224200Y-166789100D02*
X42849800Y-165163500D01*
X41224200Y-169519600D02*
X41224200Y-166789100D01*
X42849800Y-161137600D02*
X42811700Y-161099500D01*
X42849800Y-163195000D02*
X42849800Y-161137600D01*
%TO.N,Net-(C6-Pad1)*%
X22853100Y-172930100D02*
X22853100Y-178683200D01*
X24907100Y-172930100D02*
X22853100Y-172930100D01*
X23126700Y-180263800D02*
X23075900Y-180213000D01*
X23126700Y-182308500D02*
X23126700Y-180263800D01*
X23075900Y-178906000D02*
X22853100Y-178683200D01*
X23075900Y-180213000D02*
X23075900Y-178906000D01*
%TO.N,Net-(C7-Pad2)*%
X36271200Y-163169600D02*
X42811700Y-156629100D01*
X36271200Y-169029010D02*
X36271200Y-163169600D01*
X42811700Y-152730200D02*
X40106600Y-150025100D01*
X36270110Y-169030100D02*
X36271200Y-169029010D01*
X42811700Y-156629100D02*
X42811700Y-152730200D01*
X37907100Y-169030100D02*
X36270110Y-169030100D01*
X22481500Y-151790400D02*
X22811700Y-152120600D01*
X20472400Y-151790400D02*
X22481500Y-151790400D01*
X22811700Y-150606800D02*
X23393400Y-150025100D01*
X22811700Y-152120600D02*
X22811700Y-150606800D01*
X40106600Y-150025100D02*
X23393400Y-150025100D01*
%TO.N,Net-(C8-Pad1)*%
X19695800Y-169030100D02*
X18394600Y-167728900D01*
X24907100Y-169030100D02*
X19695800Y-169030100D01*
%TO.N,Net-(C8-Pad2)*%
X20294600Y-167728900D02*
X20294600Y-165608000D01*
%TO.N,Net-(C10-Pad1)*%
X41809000Y-172747900D02*
X41795700Y-172734600D01*
X43888700Y-172747900D02*
X41809000Y-172747900D01*
X41795700Y-172734600D02*
X40231700Y-172734600D01*
X40036200Y-172930100D02*
X37907100Y-172930100D01*
X40231700Y-172734600D02*
X40036200Y-172930100D01*
%TO.N,Net-(D1-Pad1)*%
X19599900Y-156950400D02*
X19494500Y-156845000D01*
X19494500Y-154643300D02*
X20472400Y-153665400D01*
X19494500Y-156845000D02*
X19494500Y-154643300D01*
X18469600Y-157869900D02*
X19494500Y-156845000D01*
X18469600Y-165608000D02*
X18469600Y-157869900D01*
%TO.N,TACHO*%
X39789100Y-174244000D02*
X42331000Y-176785900D01*
X42331000Y-176785900D02*
X42748200Y-176785900D01*
X38608000Y-174244000D02*
X39789100Y-174244000D01*
X38594100Y-174230100D02*
X38608000Y-174244000D01*
X37907100Y-174230100D02*
X38594100Y-174230100D01*
X47877100Y-176785900D02*
X48793400Y-175869600D01*
X42748200Y-176785900D02*
X47877100Y-176785900D01*
%TO.N,BRAKE*%
X37907100Y-169680100D02*
X35831300Y-169680100D01*
X35831300Y-169680100D02*
X35725100Y-169573900D01*
X35725100Y-169573900D02*
X35725100Y-165432760D01*
X35725100Y-165432760D02*
X35725100Y-164503100D01*
X35725100Y-164503100D02*
X32829500Y-161607500D01*
X32829500Y-161607500D02*
X32829500Y-161607500D01*
%TO.N,F-R*%
X37916599Y-171639599D02*
X37907100Y-171630100D01*
X47943401Y-171639599D02*
X37916599Y-171639599D01*
X48793400Y-170789600D02*
X47943401Y-171639599D01*
%TO.N,Net-(J1-Pad2)*%
X44839900Y-168249600D02*
X44687500Y-168402000D01*
X48793400Y-168249600D02*
X44839900Y-168249600D01*
%TO.N,Net-(J1-Pad1)*%
X45220900Y-165709600D02*
X44674800Y-165163500D01*
X48793400Y-165709600D02*
X45220900Y-165709600D01*
%TO.N,HALL1*%
X24362910Y-171090090D02*
X22826210Y-171090090D01*
X24472900Y-170980100D02*
X24362910Y-171090090D01*
X24907100Y-170980100D02*
X24472900Y-170980100D01*
X22826210Y-171090090D02*
X22383750Y-171532550D01*
X21158200Y-172377100D02*
X22002750Y-171532550D01*
X21158200Y-175387000D02*
X21158200Y-172377100D01*
X22002750Y-171532550D02*
X22383750Y-171532550D01*
X14389100Y-169786300D02*
X15633700Y-169786300D01*
X13398500Y-168795700D02*
X14389100Y-169786300D01*
X12115800Y-166039800D02*
X13398500Y-167322500D01*
X13398500Y-167322500D02*
X13398500Y-168795700D01*
X9118600Y-166039800D02*
X12115800Y-166039800D01*
X8915400Y-166243000D02*
X9118600Y-166039800D01*
X8915400Y-179362100D02*
X8915400Y-166243000D01*
X17716500Y-180162200D02*
X9715500Y-180162200D01*
X17970500Y-179908200D02*
X17716500Y-180162200D01*
X17970500Y-172559754D02*
X17970500Y-179908200D01*
X9715500Y-180162200D02*
X8915400Y-179362100D01*
X18997704Y-171532550D02*
X17970500Y-172559754D01*
X22002750Y-171532550D02*
X18997704Y-171532550D01*
%TO.N,HALL2*%
X18279900Y-169680100D02*
X15633700Y-172326300D01*
X24907100Y-169680100D02*
X18279900Y-169680100D01*
X14465300Y-171157900D02*
X15633700Y-172326300D01*
X12213600Y-171157900D02*
X14465300Y-171157900D01*
%TO.N,HALL3*%
X20200154Y-170330100D02*
X20189754Y-170319700D01*
X24907100Y-170330100D02*
X20200154Y-170330100D01*
X20189754Y-170319700D02*
X19126200Y-170319700D01*
X19126200Y-170319700D02*
X17462500Y-171983400D01*
X17462500Y-173037500D02*
X15633700Y-174866300D01*
X17462500Y-171983400D02*
X17462500Y-173037500D01*
X15417800Y-174650400D02*
X15633700Y-174866300D01*
X12569200Y-174650400D02*
X15417800Y-174650400D01*
D18*
%TO.N,PHASE1*%
X28194000Y-182194200D02*
X26829642Y-180829842D01*
X26829642Y-180829842D02*
X26829642Y-179758636D01*
X26829642Y-179758636D02*
X26829642Y-177781842D01*
D17*
X24907100Y-174230100D02*
X26922800Y-174230100D01*
X26829642Y-174323258D02*
X26829642Y-177781842D01*
X26922800Y-174230100D02*
X26829642Y-174323258D01*
%TO.N,PHASE2*%
X26136440Y-167730100D02*
X26150340Y-167716200D01*
X24907100Y-167730100D02*
X26136440Y-167730100D01*
X26150340Y-167716200D02*
X26847800Y-167716200D01*
X26847800Y-167716200D02*
X27025600Y-167538400D01*
X27025600Y-167538400D02*
X27025600Y-161988500D01*
X27025600Y-161988500D02*
X27025600Y-161988500D01*
%TO.N,PHASE3*%
X39902200Y-167730100D02*
X37907100Y-167730100D01*
X40043100Y-167589200D02*
X39902200Y-167730100D01*
D18*
X46710600Y-182194200D02*
X51549300Y-177355500D01*
X33274000Y-182194200D02*
X46710600Y-182194200D01*
X51549300Y-177355500D02*
X51549300Y-162369500D01*
X48793400Y-162369500D02*
X44729400Y-158305500D01*
X51549300Y-162369500D02*
X48793400Y-162369500D01*
X44729400Y-158305500D02*
X42938700Y-158305500D01*
X42938700Y-158305500D02*
X40176450Y-161067750D01*
X40176450Y-166147750D02*
X40043100Y-166281100D01*
X40176450Y-161067750D02*
X40176450Y-166147750D01*
D17*
X40043100Y-166281100D02*
X40043100Y-167589200D01*
%TO.N,Net-(R13-Pad2)*%
X24907100Y-172280100D02*
X22614100Y-172280100D01*
X22614100Y-172280100D02*
X22294850Y-172599350D01*
X21607200Y-178269900D02*
X22237700Y-177639400D01*
X21094700Y-178269900D02*
X21607200Y-178269900D01*
X22237700Y-172656500D02*
X22294850Y-172599350D01*
X22237700Y-174193200D02*
X22237700Y-172656500D01*
X22237700Y-177639400D02*
X22237700Y-174193200D01*
X22237700Y-174193200D02*
X22237700Y-173418500D01*
X21094700Y-180340000D02*
X21132800Y-180378100D01*
X21094700Y-178269900D02*
X21094700Y-180340000D01*
X21158200Y-180403500D02*
X21132800Y-180378100D01*
X21158200Y-182486300D02*
X21158200Y-180403500D01*
%TD*%
D19*
%TO.N,GND*%
X55340001Y-189340000D02*
X1660000Y-189340000D01*
X1660000Y-185779872D01*
X2765000Y-185779872D01*
X2765000Y-186220128D01*
X2850890Y-186651925D01*
X3019369Y-187058669D01*
X3263962Y-187424729D01*
X3575271Y-187736038D01*
X3941331Y-187980631D01*
X4348075Y-188149110D01*
X4779872Y-188235000D01*
X5220128Y-188235000D01*
X5651925Y-188149110D01*
X6058669Y-187980631D01*
X6424729Y-187736038D01*
X6736038Y-187424729D01*
X6980631Y-187058669D01*
X7149110Y-186651925D01*
X7235000Y-186220128D01*
X7235000Y-185779872D01*
X49765000Y-185779872D01*
X49765000Y-186220128D01*
X49850890Y-186651925D01*
X50019369Y-187058669D01*
X50263962Y-187424729D01*
X50575271Y-187736038D01*
X50941331Y-187980631D01*
X51348075Y-188149110D01*
X51779872Y-188235000D01*
X52220128Y-188235000D01*
X52651925Y-188149110D01*
X53058669Y-187980631D01*
X53424729Y-187736038D01*
X53736038Y-187424729D01*
X53980631Y-187058669D01*
X54149110Y-186651925D01*
X54235000Y-186220128D01*
X54235000Y-185779872D01*
X54149110Y-185348075D01*
X53980631Y-184941331D01*
X53736038Y-184575271D01*
X53424729Y-184263962D01*
X53058669Y-184019369D01*
X52651925Y-183850890D01*
X52220128Y-183765000D01*
X51779872Y-183765000D01*
X51348075Y-183850890D01*
X50941331Y-184019369D01*
X50575271Y-184263962D01*
X50263962Y-184575271D01*
X50019369Y-184941331D01*
X49850890Y-185348075D01*
X49765000Y-185779872D01*
X7235000Y-185779872D01*
X7149110Y-185348075D01*
X6980631Y-184941331D01*
X6736038Y-184575271D01*
X6424729Y-184263962D01*
X6058669Y-184019369D01*
X5651925Y-183850890D01*
X5220128Y-183765000D01*
X4779872Y-183765000D01*
X4348075Y-183850890D01*
X3941331Y-184019369D01*
X3575271Y-184263962D01*
X3263962Y-184575271D01*
X3019369Y-184941331D01*
X2850890Y-185348075D01*
X2765000Y-185779872D01*
X1660000Y-185779872D01*
X1660000Y-183186300D01*
X18182628Y-183186300D01*
X18194888Y-183310782D01*
X18231198Y-183430480D01*
X18290163Y-183540794D01*
X18369515Y-183637485D01*
X18466206Y-183716837D01*
X18576520Y-183775802D01*
X18696218Y-183812112D01*
X18820700Y-183824372D01*
X19047450Y-183821300D01*
X19206200Y-183662550D01*
X19206200Y-182613300D01*
X18344450Y-182613300D01*
X18185700Y-182772050D01*
X18182628Y-183186300D01*
X1660000Y-183186300D01*
X1660000Y-162779872D01*
X2765000Y-162779872D01*
X2765000Y-163220128D01*
X2850890Y-163651925D01*
X3019369Y-164058669D01*
X3263962Y-164424729D01*
X3575271Y-164736038D01*
X3941331Y-164980631D01*
X4348075Y-165149110D01*
X4779872Y-165235000D01*
X5220128Y-165235000D01*
X5651925Y-165149110D01*
X6058669Y-164980631D01*
X6424729Y-164736038D01*
X6736038Y-164424729D01*
X6980631Y-164058669D01*
X7149110Y-163651925D01*
X7235000Y-163220128D01*
X7235000Y-162779872D01*
X7149110Y-162348075D01*
X6980631Y-161941331D01*
X6847912Y-161742702D01*
X10936903Y-161742702D01*
X11008486Y-161986671D01*
X11263996Y-162107571D01*
X11538184Y-162176300D01*
X11820512Y-162190217D01*
X12100130Y-162148787D01*
X12366292Y-162053603D01*
X12491514Y-161986671D01*
X12563097Y-161742702D01*
X11750000Y-160929605D01*
X10936903Y-161742702D01*
X6847912Y-161742702D01*
X6736038Y-161575271D01*
X6424729Y-161263962D01*
X6058669Y-161019369D01*
X5651925Y-160850890D01*
X5499205Y-160820512D01*
X10309783Y-160820512D01*
X10351213Y-161100130D01*
X10446397Y-161366292D01*
X10513329Y-161491514D01*
X10757298Y-161563097D01*
X11570395Y-160750000D01*
X11929605Y-160750000D01*
X12742702Y-161563097D01*
X12986671Y-161491514D01*
X13107571Y-161236004D01*
X13176300Y-160961816D01*
X13190217Y-160679488D01*
X13148787Y-160399870D01*
X13053603Y-160133708D01*
X12986671Y-160008486D01*
X12742702Y-159936903D01*
X11929605Y-160750000D01*
X11570395Y-160750000D01*
X10757298Y-159936903D01*
X10513329Y-160008486D01*
X10392429Y-160263996D01*
X10323700Y-160538184D01*
X10309783Y-160820512D01*
X5499205Y-160820512D01*
X5220128Y-160765000D01*
X4779872Y-160765000D01*
X4348075Y-160850890D01*
X3941331Y-161019369D01*
X3575271Y-161263962D01*
X3263962Y-161575271D01*
X3019369Y-161941331D01*
X2850890Y-162348075D01*
X2765000Y-162779872D01*
X1660000Y-162779872D01*
X1660000Y-159757298D01*
X10936903Y-159757298D01*
X11750000Y-160570395D01*
X12563097Y-159757298D01*
X12491514Y-159513329D01*
X12236004Y-159392429D01*
X11961816Y-159323700D01*
X11679488Y-159309783D01*
X11399870Y-159351213D01*
X11133708Y-159446397D01*
X11008486Y-159513329D01*
X10936903Y-159757298D01*
X1660000Y-159757298D01*
X1660000Y-156525000D01*
X4911928Y-156525000D01*
X4911928Y-157475000D01*
X4928992Y-157648254D01*
X4979528Y-157814850D01*
X5061595Y-157968386D01*
X5172038Y-158102962D01*
X5306614Y-158213405D01*
X5460150Y-158295472D01*
X5626746Y-158346008D01*
X5800000Y-158363072D01*
X6300000Y-158363072D01*
X6473254Y-158346008D01*
X6639850Y-158295472D01*
X6793386Y-158213405D01*
X6927962Y-158102962D01*
X6933342Y-158096406D01*
X6998815Y-158176185D01*
X7095506Y-158255537D01*
X7205820Y-158314502D01*
X7325518Y-158350812D01*
X7450000Y-158363072D01*
X7664250Y-158360000D01*
X7823000Y-158201250D01*
X7823000Y-157127000D01*
X8077000Y-157127000D01*
X8077000Y-158201250D01*
X8235750Y-158360000D01*
X8450000Y-158363072D01*
X8574482Y-158350812D01*
X8694180Y-158314502D01*
X8804494Y-158255537D01*
X8901185Y-158176185D01*
X8980537Y-158079494D01*
X9039502Y-157969180D01*
X9075812Y-157849482D01*
X9088072Y-157725000D01*
X9085000Y-157285750D01*
X8926250Y-157127000D01*
X8077000Y-157127000D01*
X7823000Y-157127000D01*
X7803000Y-157127000D01*
X7803000Y-156873000D01*
X7823000Y-156873000D01*
X7823000Y-156853000D01*
X8077000Y-156853000D01*
X8077000Y-156873000D01*
X8926250Y-156873000D01*
X9085000Y-156714250D01*
X9088072Y-156275000D01*
X9075812Y-156150518D01*
X9039502Y-156030820D01*
X8980537Y-155920506D01*
X8901185Y-155823815D01*
X8857632Y-155788072D01*
X10832941Y-155788072D01*
X14115001Y-159070133D01*
X14115000Y-159865716D01*
X13978320Y-160070273D01*
X13870147Y-160331426D01*
X13815000Y-160608665D01*
X13815000Y-160891335D01*
X13870147Y-161168574D01*
X13978320Y-161429727D01*
X14135363Y-161664759D01*
X14335241Y-161864637D01*
X14498701Y-161973857D01*
X14498700Y-165828617D01*
X14429206Y-165865763D01*
X14332515Y-165945115D01*
X14253163Y-166041806D01*
X14194198Y-166152120D01*
X14157888Y-166271818D01*
X14145628Y-166396300D01*
X14145628Y-167081210D01*
X14127254Y-167020640D01*
X14054362Y-166884267D01*
X13956264Y-166764736D01*
X13926311Y-166740154D01*
X12698147Y-165511990D01*
X12673564Y-165482036D01*
X12554033Y-165383938D01*
X12417660Y-165311046D01*
X12269687Y-165266159D01*
X12154361Y-165254800D01*
X12154353Y-165254800D01*
X12115800Y-165251003D01*
X12077247Y-165254800D01*
X9157152Y-165254800D01*
X9118599Y-165251003D01*
X9080046Y-165254800D01*
X9080039Y-165254800D01*
X8979090Y-165264743D01*
X8964712Y-165266159D01*
X8922800Y-165278873D01*
X8816740Y-165311046D01*
X8680367Y-165383938D01*
X8560836Y-165482036D01*
X8536253Y-165511990D01*
X8387585Y-165660658D01*
X8357637Y-165685236D01*
X8333059Y-165715184D01*
X8333055Y-165715188D01*
X8317108Y-165734620D01*
X8259539Y-165804767D01*
X8228153Y-165863487D01*
X8186646Y-165941141D01*
X8141759Y-166089114D01*
X8126603Y-166243000D01*
X8130401Y-166281563D01*
X8130400Y-179323547D01*
X8126603Y-179362100D01*
X8130400Y-179400653D01*
X8130400Y-179400660D01*
X8141759Y-179515986D01*
X8186646Y-179663959D01*
X8259538Y-179800332D01*
X8357636Y-179919864D01*
X8387590Y-179944447D01*
X9133157Y-180690015D01*
X9157736Y-180719964D01*
X9187684Y-180744542D01*
X9187687Y-180744545D01*
X9200059Y-180754698D01*
X9277267Y-180818062D01*
X9413640Y-180890954D01*
X9508275Y-180919661D01*
X9561612Y-180935841D01*
X9575990Y-180937257D01*
X9676939Y-180947200D01*
X9676946Y-180947200D01*
X9715499Y-180950997D01*
X9754052Y-180947200D01*
X17677947Y-180947200D01*
X17716500Y-180950997D01*
X17755053Y-180947200D01*
X17755061Y-180947200D01*
X17870387Y-180935841D01*
X18018360Y-180890954D01*
X18154733Y-180818062D01*
X18159183Y-180814410D01*
X18157228Y-181078100D01*
X18169488Y-181202582D01*
X18205798Y-181322280D01*
X18264763Y-181432594D01*
X18279890Y-181451026D01*
X18231198Y-181542120D01*
X18194888Y-181661818D01*
X18182628Y-181786300D01*
X18185700Y-182200550D01*
X18344450Y-182359300D01*
X19206200Y-182359300D01*
X19206200Y-181310050D01*
X19180800Y-181284650D01*
X19180800Y-180505100D01*
X19160800Y-180505100D01*
X19160800Y-180251100D01*
X19180800Y-180251100D01*
X19180800Y-179201850D01*
X19142700Y-179163750D01*
X19142700Y-178396900D01*
X19122700Y-178396900D01*
X19122700Y-178142900D01*
X19142700Y-178142900D01*
X19142700Y-177093650D01*
X18983950Y-176934900D01*
X18757200Y-176931828D01*
X18755500Y-176931995D01*
X18755500Y-176664950D01*
X18897445Y-176708008D01*
X19070699Y-176725072D01*
X19595701Y-176725072D01*
X19768955Y-176708008D01*
X19935551Y-176657472D01*
X20089087Y-176575405D01*
X20223662Y-176464962D01*
X20245700Y-176438109D01*
X20267738Y-176464962D01*
X20402313Y-176575405D01*
X20555849Y-176657472D01*
X20722445Y-176708008D01*
X20895699Y-176725072D01*
X21420701Y-176725072D01*
X21452700Y-176721920D01*
X21452700Y-176941234D01*
X21357201Y-176931828D01*
X20832199Y-176931828D01*
X20658945Y-176948892D01*
X20492349Y-176999428D01*
X20338813Y-177081495D01*
X20257563Y-177148176D01*
X20233385Y-177118715D01*
X20136694Y-177039363D01*
X20026380Y-176980398D01*
X19906682Y-176944088D01*
X19782200Y-176931828D01*
X19555450Y-176934900D01*
X19396700Y-177093650D01*
X19396700Y-178142900D01*
X19416700Y-178142900D01*
X19416700Y-178396900D01*
X19396700Y-178396900D01*
X19396700Y-179446150D01*
X19434800Y-179484250D01*
X19434800Y-180251100D01*
X19454800Y-180251100D01*
X19454800Y-180505100D01*
X19434800Y-180505100D01*
X19434800Y-181554350D01*
X19460200Y-181579750D01*
X19460200Y-182359300D01*
X19480200Y-182359300D01*
X19480200Y-182613300D01*
X19460200Y-182613300D01*
X19460200Y-183662550D01*
X19618950Y-183821300D01*
X19845700Y-183824372D01*
X19970182Y-183812112D01*
X20089880Y-183775802D01*
X20200194Y-183716837D01*
X20296885Y-183637485D01*
X20321063Y-183608024D01*
X20402313Y-183674705D01*
X20555849Y-183756772D01*
X20722445Y-183807308D01*
X20895699Y-183824372D01*
X21420701Y-183824372D01*
X21593955Y-183807308D01*
X21760551Y-183756772D01*
X21914087Y-183674705D01*
X22048662Y-183564262D01*
X22159105Y-183429687D01*
X22203519Y-183346594D01*
X22236238Y-183386462D01*
X22370813Y-183496905D01*
X22524349Y-183578972D01*
X22690945Y-183629508D01*
X22864199Y-183646572D01*
X23389201Y-183646572D01*
X23562455Y-183629508D01*
X23729051Y-183578972D01*
X23882587Y-183496905D01*
X23963837Y-183430224D01*
X23988015Y-183459685D01*
X24084706Y-183539037D01*
X24195020Y-183598002D01*
X24314718Y-183634312D01*
X24439200Y-183646572D01*
X24665950Y-183643500D01*
X24824700Y-183484750D01*
X24824700Y-182435500D01*
X25078700Y-182435500D01*
X25078700Y-183484750D01*
X25237450Y-183643500D01*
X25464200Y-183646572D01*
X25588682Y-183634312D01*
X25708380Y-183598002D01*
X25818694Y-183539037D01*
X25915385Y-183459685D01*
X25994737Y-183362994D01*
X26053702Y-183252680D01*
X26090012Y-183132982D01*
X26102272Y-183008500D01*
X26099200Y-182594250D01*
X25940450Y-182435500D01*
X25078700Y-182435500D01*
X24824700Y-182435500D01*
X24804700Y-182435500D01*
X24804700Y-182181500D01*
X24824700Y-182181500D01*
X24824700Y-181438450D01*
X24848900Y-181414250D01*
X24848900Y-180340000D01*
X24828900Y-180340000D01*
X24828900Y-180086000D01*
X24848900Y-180086000D01*
X24848900Y-179011750D01*
X24690150Y-178853000D01*
X24475900Y-178849928D01*
X24351418Y-178862188D01*
X24231720Y-178898498D01*
X24121406Y-178957463D01*
X24024715Y-179036815D01*
X23959242Y-179116594D01*
X23953862Y-179110038D01*
X23860900Y-179033747D01*
X23860900Y-178944556D01*
X23864697Y-178906000D01*
X23860900Y-178867444D01*
X23860900Y-178867439D01*
X23852264Y-178779755D01*
X23849542Y-178752113D01*
X23815101Y-178638581D01*
X23804654Y-178604140D01*
X23731762Y-178467767D01*
X23638100Y-178353641D01*
X23638100Y-177005891D01*
X23663562Y-177008139D01*
X24621350Y-177005100D01*
X24780100Y-176846350D01*
X24780100Y-176358172D01*
X25034100Y-176358172D01*
X25034100Y-176846350D01*
X25192850Y-177005100D01*
X25996721Y-177007651D01*
X25881359Y-177148219D01*
X25775967Y-177345395D01*
X25711066Y-177559343D01*
X25694643Y-177726090D01*
X25694642Y-178890782D01*
X25600382Y-178862188D01*
X25475900Y-178849928D01*
X25261650Y-178853000D01*
X25102900Y-179011750D01*
X25102900Y-180086000D01*
X25122900Y-180086000D01*
X25122900Y-180340000D01*
X25102900Y-180340000D01*
X25102900Y-181108050D01*
X25078700Y-181132250D01*
X25078700Y-182181500D01*
X25940450Y-182181500D01*
X26099200Y-182022750D01*
X26101542Y-181706874D01*
X26705928Y-182311260D01*
X26705928Y-183044200D01*
X26718188Y-183168682D01*
X26754498Y-183288380D01*
X26813463Y-183398694D01*
X26892815Y-183495385D01*
X26989506Y-183574737D01*
X27099820Y-183633702D01*
X27219518Y-183670012D01*
X27344000Y-183682272D01*
X29044000Y-183682272D01*
X29168482Y-183670012D01*
X29288180Y-183633702D01*
X29398494Y-183574737D01*
X29495185Y-183495385D01*
X29574537Y-183398694D01*
X29633502Y-183288380D01*
X29655513Y-183215820D01*
X29787368Y-183347675D01*
X30030589Y-183510190D01*
X30300842Y-183622132D01*
X30587740Y-183679200D01*
X30880260Y-183679200D01*
X31167158Y-183622132D01*
X31437411Y-183510190D01*
X31680632Y-183347675D01*
X31887475Y-183140832D01*
X32004000Y-182966440D01*
X32120525Y-183140832D01*
X32327368Y-183347675D01*
X32570589Y-183510190D01*
X32840842Y-183622132D01*
X33127740Y-183679200D01*
X33420260Y-183679200D01*
X33707158Y-183622132D01*
X33977411Y-183510190D01*
X34220632Y-183347675D01*
X34239107Y-183329200D01*
X46654849Y-183329200D01*
X46710600Y-183334691D01*
X46766351Y-183329200D01*
X46766352Y-183329200D01*
X46933099Y-183312777D01*
X47147047Y-183247876D01*
X47344223Y-183142484D01*
X47517049Y-183000649D01*
X47552596Y-182957335D01*
X52312441Y-178197491D01*
X52355749Y-178161949D01*
X52497584Y-177989123D01*
X52602976Y-177791947D01*
X52667877Y-177577999D01*
X52684300Y-177411252D01*
X52684300Y-177411245D01*
X52689790Y-177355501D01*
X52684300Y-177299757D01*
X52684300Y-162425252D01*
X52689791Y-162369500D01*
X52681997Y-162290360D01*
X52667877Y-162147001D01*
X52602976Y-161933053D01*
X52497584Y-161735877D01*
X52355749Y-161563051D01*
X52182923Y-161421216D01*
X51985747Y-161315824D01*
X51771799Y-161250923D01*
X51605052Y-161234500D01*
X51549300Y-161229009D01*
X51493549Y-161234500D01*
X49263532Y-161234500D01*
X45571396Y-157542365D01*
X45535849Y-157499051D01*
X45363023Y-157357216D01*
X45165847Y-157251824D01*
X44951899Y-157186923D01*
X44785152Y-157170500D01*
X44785151Y-157170500D01*
X44729400Y-157165009D01*
X44673649Y-157170500D01*
X43382894Y-157170500D01*
X43467562Y-157067333D01*
X43540454Y-156930960D01*
X43546569Y-156910802D01*
X43585342Y-156782987D01*
X43595899Y-156675794D01*
X43596700Y-156667661D01*
X43596700Y-156667656D01*
X43600497Y-156629100D01*
X43596700Y-156590544D01*
X43596700Y-152768752D01*
X43600497Y-152730199D01*
X43596700Y-152691646D01*
X43596700Y-152691639D01*
X43585341Y-152576313D01*
X43581619Y-152564041D01*
X43540454Y-152428340D01*
X43510131Y-152371609D01*
X43467562Y-152291967D01*
X43415584Y-152228632D01*
X43394045Y-152202387D01*
X43394042Y-152202384D01*
X43369464Y-152172436D01*
X43339516Y-152147858D01*
X41971530Y-150779872D01*
X49765000Y-150779872D01*
X49765000Y-151220128D01*
X49850890Y-151651925D01*
X50019369Y-152058669D01*
X50263962Y-152424729D01*
X50575271Y-152736038D01*
X50941331Y-152980631D01*
X51348075Y-153149110D01*
X51779872Y-153235000D01*
X52220128Y-153235000D01*
X52651925Y-153149110D01*
X53058669Y-152980631D01*
X53424729Y-152736038D01*
X53736038Y-152424729D01*
X53980631Y-152058669D01*
X54149110Y-151651925D01*
X54235000Y-151220128D01*
X54235000Y-150779872D01*
X54149110Y-150348075D01*
X53980631Y-149941331D01*
X53736038Y-149575271D01*
X53424729Y-149263962D01*
X53058669Y-149019369D01*
X52651925Y-148850890D01*
X52220128Y-148765000D01*
X51779872Y-148765000D01*
X51348075Y-148850890D01*
X50941331Y-149019369D01*
X50575271Y-149263962D01*
X50263962Y-149575271D01*
X50019369Y-149941331D01*
X49850890Y-150348075D01*
X49765000Y-150779872D01*
X41971530Y-150779872D01*
X40688947Y-149497290D01*
X40664364Y-149467336D01*
X40544833Y-149369238D01*
X40408460Y-149296346D01*
X40260487Y-149251459D01*
X40145161Y-149240100D01*
X40145153Y-149240100D01*
X40106600Y-149236303D01*
X40068047Y-149240100D01*
X23431952Y-149240100D01*
X23393399Y-149236303D01*
X23354846Y-149240100D01*
X23354839Y-149240100D01*
X23239513Y-149251459D01*
X23091540Y-149296346D01*
X22955167Y-149369238D01*
X22894959Y-149418650D01*
X22865587Y-149442755D01*
X22865584Y-149442758D01*
X22835636Y-149467336D01*
X22811057Y-149497285D01*
X22283885Y-150024458D01*
X22253937Y-150049036D01*
X22229359Y-150078984D01*
X22229355Y-150078988D01*
X22214573Y-150097000D01*
X22155839Y-150168567D01*
X22116877Y-150241460D01*
X22082946Y-150304941D01*
X22038059Y-150452914D01*
X22022903Y-150606800D01*
X22026701Y-150645362D01*
X22026701Y-150941346D01*
X21948650Y-151005400D01*
X21619728Y-151005400D01*
X21552192Y-150923108D01*
X21418564Y-150813442D01*
X21266109Y-150731953D01*
X21100685Y-150681772D01*
X20928650Y-150664828D01*
X20016150Y-150664828D01*
X19844115Y-150681772D01*
X19678691Y-150731953D01*
X19526236Y-150813442D01*
X19392608Y-150923108D01*
X19282942Y-151056736D01*
X19201453Y-151209191D01*
X19151272Y-151374615D01*
X19134328Y-151546650D01*
X19134328Y-152034150D01*
X19151272Y-152206185D01*
X19201453Y-152371609D01*
X19282942Y-152524064D01*
X19392608Y-152657692D01*
X19478156Y-152727900D01*
X19392608Y-152798108D01*
X19282942Y-152931736D01*
X19201453Y-153084191D01*
X19151272Y-153249615D01*
X19134328Y-153421650D01*
X19134328Y-153893315D01*
X18966685Y-154060958D01*
X18936737Y-154085536D01*
X18912159Y-154115484D01*
X18912155Y-154115488D01*
X18879190Y-154155656D01*
X18838639Y-154205067D01*
X18826327Y-154228102D01*
X18765746Y-154341441D01*
X18720859Y-154489414D01*
X18705703Y-154643300D01*
X18709501Y-154681863D01*
X18709501Y-155697672D01*
X18627208Y-155765208D01*
X18517542Y-155898836D01*
X18436053Y-156051291D01*
X18385872Y-156216715D01*
X18368928Y-156388750D01*
X18368928Y-156860415D01*
X17941785Y-157287558D01*
X17911837Y-157312136D01*
X17887259Y-157342084D01*
X17887255Y-157342088D01*
X17862041Y-157372812D01*
X17813739Y-157431667D01*
X17776754Y-157500862D01*
X17740846Y-157568041D01*
X17695959Y-157716014D01*
X17680803Y-157869900D01*
X17684601Y-157908463D01*
X17684600Y-164443487D01*
X17579138Y-164530038D01*
X17468695Y-164664613D01*
X17386628Y-164818149D01*
X17336092Y-164984745D01*
X17319028Y-165157999D01*
X17319028Y-166058001D01*
X17336092Y-166231255D01*
X17386628Y-166397851D01*
X17468695Y-166551387D01*
X17524549Y-166619445D01*
X17516638Y-166625938D01*
X17406195Y-166760514D01*
X17324128Y-166914050D01*
X17273592Y-167080646D01*
X17256528Y-167253900D01*
X17256528Y-168203900D01*
X17273592Y-168377154D01*
X17324128Y-168543750D01*
X17406195Y-168697286D01*
X17516638Y-168831862D01*
X17651214Y-168942305D01*
X17804750Y-169024372D01*
X17831585Y-169032512D01*
X17781459Y-169073650D01*
X17752087Y-169097755D01*
X17752084Y-169097758D01*
X17722136Y-169122336D01*
X17697558Y-169152284D01*
X17118700Y-169731142D01*
X17118700Y-169640040D01*
X17061632Y-169353142D01*
X16949690Y-169082889D01*
X16787175Y-168839668D01*
X16655320Y-168707813D01*
X16727880Y-168685802D01*
X16838194Y-168626837D01*
X16934885Y-168547485D01*
X17014237Y-168450794D01*
X17073202Y-168340480D01*
X17109512Y-168220782D01*
X17121772Y-168096300D01*
X17121772Y-166396300D01*
X17109512Y-166271818D01*
X17073202Y-166152120D01*
X17014237Y-166041806D01*
X16934885Y-165945115D01*
X16838194Y-165865763D01*
X16768700Y-165828617D01*
X16768700Y-161189452D01*
X16774191Y-161133700D01*
X16752277Y-160911201D01*
X16728815Y-160833859D01*
X16687376Y-160697253D01*
X16685000Y-160692808D01*
X16685000Y-160608665D01*
X16629853Y-160331426D01*
X16521680Y-160070273D01*
X16385000Y-159865716D01*
X16385000Y-158655751D01*
X16390491Y-158599999D01*
X16368577Y-158377500D01*
X16346736Y-158305501D01*
X16303676Y-158163553D01*
X16198284Y-157966377D01*
X16056449Y-157793551D01*
X16013141Y-157758009D01*
X14014814Y-155759682D01*
X14100000Y-155768072D01*
X16300000Y-155768072D01*
X16424482Y-155755812D01*
X16544180Y-155719502D01*
X16646144Y-155665000D01*
X17275752Y-155665000D01*
X17442499Y-155648577D01*
X17656447Y-155583676D01*
X17853623Y-155478284D01*
X18026449Y-155336449D01*
X18168284Y-155163623D01*
X18273676Y-154966447D01*
X18338577Y-154752499D01*
X18360491Y-154530000D01*
X18338577Y-154307501D01*
X18273676Y-154093553D01*
X18168284Y-153896377D01*
X18026449Y-153723551D01*
X17853623Y-153581716D01*
X17656447Y-153476324D01*
X17442499Y-153411423D01*
X17275752Y-153395000D01*
X16646144Y-153395000D01*
X16544180Y-153340498D01*
X16424482Y-153304188D01*
X16300000Y-153291928D01*
X14100000Y-153291928D01*
X13975518Y-153304188D01*
X13855820Y-153340498D01*
X13745506Y-153399463D01*
X13648815Y-153478815D01*
X13569463Y-153575506D01*
X13510498Y-153685820D01*
X13474188Y-153805518D01*
X13461928Y-153930000D01*
X13461928Y-155130000D01*
X13470318Y-155215186D01*
X12738072Y-154482941D01*
X12738072Y-150570000D01*
X13461928Y-150570000D01*
X13474188Y-150694482D01*
X13510498Y-150814180D01*
X13569463Y-150924494D01*
X13648815Y-151021185D01*
X13745506Y-151100537D01*
X13855820Y-151159502D01*
X13975518Y-151195812D01*
X14100000Y-151208072D01*
X14914250Y-151205000D01*
X15073000Y-151046250D01*
X15073000Y-150097000D01*
X15327000Y-150097000D01*
X15327000Y-151046250D01*
X15485750Y-151205000D01*
X16300000Y-151208072D01*
X16424482Y-151195812D01*
X16544180Y-151159502D01*
X16654494Y-151100537D01*
X16751185Y-151021185D01*
X16830537Y-150924494D01*
X16889502Y-150814180D01*
X16925812Y-150694482D01*
X16938072Y-150570000D01*
X16935000Y-150255750D01*
X16776250Y-150097000D01*
X15327000Y-150097000D01*
X15073000Y-150097000D01*
X13623750Y-150097000D01*
X13465000Y-150255750D01*
X13461928Y-150570000D01*
X12738072Y-150570000D01*
X12738072Y-149370000D01*
X13461928Y-149370000D01*
X13465000Y-149684250D01*
X13623750Y-149843000D01*
X15073000Y-149843000D01*
X15073000Y-148893750D01*
X15327000Y-148893750D01*
X15327000Y-149843000D01*
X16776250Y-149843000D01*
X16935000Y-149684250D01*
X16938072Y-149370000D01*
X16925812Y-149245518D01*
X16889502Y-149125820D01*
X16830537Y-149015506D01*
X16751185Y-148918815D01*
X16654494Y-148839463D01*
X16544180Y-148780498D01*
X16424482Y-148744188D01*
X16300000Y-148731928D01*
X15485750Y-148735000D01*
X15327000Y-148893750D01*
X15073000Y-148893750D01*
X14914250Y-148735000D01*
X14100000Y-148731928D01*
X13975518Y-148744188D01*
X13855820Y-148780498D01*
X13745506Y-148839463D01*
X13648815Y-148918815D01*
X13569463Y-149015506D01*
X13510498Y-149125820D01*
X13474188Y-149245518D01*
X13461928Y-149370000D01*
X12738072Y-149370000D01*
X12738072Y-149350000D01*
X12725812Y-149225518D01*
X12689502Y-149105820D01*
X12630537Y-148995506D01*
X12551185Y-148898815D01*
X12454494Y-148819463D01*
X12344180Y-148760498D01*
X12224482Y-148724188D01*
X12100000Y-148711928D01*
X5700000Y-148711928D01*
X5575518Y-148724188D01*
X5455820Y-148760498D01*
X5345506Y-148819463D01*
X5248815Y-148898815D01*
X5169463Y-148995506D01*
X5110498Y-149105820D01*
X5074188Y-149225518D01*
X5061928Y-149350000D01*
X5061928Y-155150000D01*
X5074188Y-155274482D01*
X5110498Y-155394180D01*
X5169463Y-155504494D01*
X5248815Y-155601185D01*
X5265001Y-155614468D01*
X5265001Y-155820746D01*
X5172038Y-155897038D01*
X5061595Y-156031614D01*
X4979528Y-156185150D01*
X4928992Y-156351746D01*
X4911928Y-156525000D01*
X1660000Y-156525000D01*
X1660000Y-147660000D01*
X55340000Y-147660000D01*
X55340001Y-189340000D01*
%TA.AperFunction,Conductor*%
D20*
G36*
X55340001Y-189340000D02*
G01*
X1660000Y-189340000D01*
X1660000Y-185779872D01*
X2765000Y-185779872D01*
X2765000Y-186220128D01*
X2850890Y-186651925D01*
X3019369Y-187058669D01*
X3263962Y-187424729D01*
X3575271Y-187736038D01*
X3941331Y-187980631D01*
X4348075Y-188149110D01*
X4779872Y-188235000D01*
X5220128Y-188235000D01*
X5651925Y-188149110D01*
X6058669Y-187980631D01*
X6424729Y-187736038D01*
X6736038Y-187424729D01*
X6980631Y-187058669D01*
X7149110Y-186651925D01*
X7235000Y-186220128D01*
X7235000Y-185779872D01*
X49765000Y-185779872D01*
X49765000Y-186220128D01*
X49850890Y-186651925D01*
X50019369Y-187058669D01*
X50263962Y-187424729D01*
X50575271Y-187736038D01*
X50941331Y-187980631D01*
X51348075Y-188149110D01*
X51779872Y-188235000D01*
X52220128Y-188235000D01*
X52651925Y-188149110D01*
X53058669Y-187980631D01*
X53424729Y-187736038D01*
X53736038Y-187424729D01*
X53980631Y-187058669D01*
X54149110Y-186651925D01*
X54235000Y-186220128D01*
X54235000Y-185779872D01*
X54149110Y-185348075D01*
X53980631Y-184941331D01*
X53736038Y-184575271D01*
X53424729Y-184263962D01*
X53058669Y-184019369D01*
X52651925Y-183850890D01*
X52220128Y-183765000D01*
X51779872Y-183765000D01*
X51348075Y-183850890D01*
X50941331Y-184019369D01*
X50575271Y-184263962D01*
X50263962Y-184575271D01*
X50019369Y-184941331D01*
X49850890Y-185348075D01*
X49765000Y-185779872D01*
X7235000Y-185779872D01*
X7149110Y-185348075D01*
X6980631Y-184941331D01*
X6736038Y-184575271D01*
X6424729Y-184263962D01*
X6058669Y-184019369D01*
X5651925Y-183850890D01*
X5220128Y-183765000D01*
X4779872Y-183765000D01*
X4348075Y-183850890D01*
X3941331Y-184019369D01*
X3575271Y-184263962D01*
X3263962Y-184575271D01*
X3019369Y-184941331D01*
X2850890Y-185348075D01*
X2765000Y-185779872D01*
X1660000Y-185779872D01*
X1660000Y-183186300D01*
X18182628Y-183186300D01*
X18194888Y-183310782D01*
X18231198Y-183430480D01*
X18290163Y-183540794D01*
X18369515Y-183637485D01*
X18466206Y-183716837D01*
X18576520Y-183775802D01*
X18696218Y-183812112D01*
X18820700Y-183824372D01*
X19047450Y-183821300D01*
X19206200Y-183662550D01*
X19206200Y-182613300D01*
X18344450Y-182613300D01*
X18185700Y-182772050D01*
X18182628Y-183186300D01*
X1660000Y-183186300D01*
X1660000Y-162779872D01*
X2765000Y-162779872D01*
X2765000Y-163220128D01*
X2850890Y-163651925D01*
X3019369Y-164058669D01*
X3263962Y-164424729D01*
X3575271Y-164736038D01*
X3941331Y-164980631D01*
X4348075Y-165149110D01*
X4779872Y-165235000D01*
X5220128Y-165235000D01*
X5651925Y-165149110D01*
X6058669Y-164980631D01*
X6424729Y-164736038D01*
X6736038Y-164424729D01*
X6980631Y-164058669D01*
X7149110Y-163651925D01*
X7235000Y-163220128D01*
X7235000Y-162779872D01*
X7149110Y-162348075D01*
X6980631Y-161941331D01*
X6847912Y-161742702D01*
X10936903Y-161742702D01*
X11008486Y-161986671D01*
X11263996Y-162107571D01*
X11538184Y-162176300D01*
X11820512Y-162190217D01*
X12100130Y-162148787D01*
X12366292Y-162053603D01*
X12491514Y-161986671D01*
X12563097Y-161742702D01*
X11750000Y-160929605D01*
X10936903Y-161742702D01*
X6847912Y-161742702D01*
X6736038Y-161575271D01*
X6424729Y-161263962D01*
X6058669Y-161019369D01*
X5651925Y-160850890D01*
X5499205Y-160820512D01*
X10309783Y-160820512D01*
X10351213Y-161100130D01*
X10446397Y-161366292D01*
X10513329Y-161491514D01*
X10757298Y-161563097D01*
X11570395Y-160750000D01*
X11929605Y-160750000D01*
X12742702Y-161563097D01*
X12986671Y-161491514D01*
X13107571Y-161236004D01*
X13176300Y-160961816D01*
X13190217Y-160679488D01*
X13148787Y-160399870D01*
X13053603Y-160133708D01*
X12986671Y-160008486D01*
X12742702Y-159936903D01*
X11929605Y-160750000D01*
X11570395Y-160750000D01*
X10757298Y-159936903D01*
X10513329Y-160008486D01*
X10392429Y-160263996D01*
X10323700Y-160538184D01*
X10309783Y-160820512D01*
X5499205Y-160820512D01*
X5220128Y-160765000D01*
X4779872Y-160765000D01*
X4348075Y-160850890D01*
X3941331Y-161019369D01*
X3575271Y-161263962D01*
X3263962Y-161575271D01*
X3019369Y-161941331D01*
X2850890Y-162348075D01*
X2765000Y-162779872D01*
X1660000Y-162779872D01*
X1660000Y-159757298D01*
X10936903Y-159757298D01*
X11750000Y-160570395D01*
X12563097Y-159757298D01*
X12491514Y-159513329D01*
X12236004Y-159392429D01*
X11961816Y-159323700D01*
X11679488Y-159309783D01*
X11399870Y-159351213D01*
X11133708Y-159446397D01*
X11008486Y-159513329D01*
X10936903Y-159757298D01*
X1660000Y-159757298D01*
X1660000Y-156525000D01*
X4911928Y-156525000D01*
X4911928Y-157475000D01*
X4928992Y-157648254D01*
X4979528Y-157814850D01*
X5061595Y-157968386D01*
X5172038Y-158102962D01*
X5306614Y-158213405D01*
X5460150Y-158295472D01*
X5626746Y-158346008D01*
X5800000Y-158363072D01*
X6300000Y-158363072D01*
X6473254Y-158346008D01*
X6639850Y-158295472D01*
X6793386Y-158213405D01*
X6927962Y-158102962D01*
X6933342Y-158096406D01*
X6998815Y-158176185D01*
X7095506Y-158255537D01*
X7205820Y-158314502D01*
X7325518Y-158350812D01*
X7450000Y-158363072D01*
X7664250Y-158360000D01*
X7823000Y-158201250D01*
X7823000Y-157127000D01*
X8077000Y-157127000D01*
X8077000Y-158201250D01*
X8235750Y-158360000D01*
X8450000Y-158363072D01*
X8574482Y-158350812D01*
X8694180Y-158314502D01*
X8804494Y-158255537D01*
X8901185Y-158176185D01*
X8980537Y-158079494D01*
X9039502Y-157969180D01*
X9075812Y-157849482D01*
X9088072Y-157725000D01*
X9085000Y-157285750D01*
X8926250Y-157127000D01*
X8077000Y-157127000D01*
X7823000Y-157127000D01*
X7803000Y-157127000D01*
X7803000Y-156873000D01*
X7823000Y-156873000D01*
X7823000Y-156853000D01*
X8077000Y-156853000D01*
X8077000Y-156873000D01*
X8926250Y-156873000D01*
X9085000Y-156714250D01*
X9088072Y-156275000D01*
X9075812Y-156150518D01*
X9039502Y-156030820D01*
X8980537Y-155920506D01*
X8901185Y-155823815D01*
X8857632Y-155788072D01*
X10832941Y-155788072D01*
X14115001Y-159070133D01*
X14115000Y-159865716D01*
X13978320Y-160070273D01*
X13870147Y-160331426D01*
X13815000Y-160608665D01*
X13815000Y-160891335D01*
X13870147Y-161168574D01*
X13978320Y-161429727D01*
X14135363Y-161664759D01*
X14335241Y-161864637D01*
X14498701Y-161973857D01*
X14498700Y-165828617D01*
X14429206Y-165865763D01*
X14332515Y-165945115D01*
X14253163Y-166041806D01*
X14194198Y-166152120D01*
X14157888Y-166271818D01*
X14145628Y-166396300D01*
X14145628Y-167081210D01*
X14127254Y-167020640D01*
X14054362Y-166884267D01*
X13956264Y-166764736D01*
X13926311Y-166740154D01*
X12698147Y-165511990D01*
X12673564Y-165482036D01*
X12554033Y-165383938D01*
X12417660Y-165311046D01*
X12269687Y-165266159D01*
X12154361Y-165254800D01*
X12154353Y-165254800D01*
X12115800Y-165251003D01*
X12077247Y-165254800D01*
X9157152Y-165254800D01*
X9118599Y-165251003D01*
X9080046Y-165254800D01*
X9080039Y-165254800D01*
X8979090Y-165264743D01*
X8964712Y-165266159D01*
X8922800Y-165278873D01*
X8816740Y-165311046D01*
X8680367Y-165383938D01*
X8560836Y-165482036D01*
X8536253Y-165511990D01*
X8387585Y-165660658D01*
X8357637Y-165685236D01*
X8333059Y-165715184D01*
X8333055Y-165715188D01*
X8317108Y-165734620D01*
X8259539Y-165804767D01*
X8228153Y-165863487D01*
X8186646Y-165941141D01*
X8141759Y-166089114D01*
X8126603Y-166243000D01*
X8130401Y-166281563D01*
X8130400Y-179323547D01*
X8126603Y-179362100D01*
X8130400Y-179400653D01*
X8130400Y-179400660D01*
X8141759Y-179515986D01*
X8186646Y-179663959D01*
X8259538Y-179800332D01*
X8357636Y-179919864D01*
X8387590Y-179944447D01*
X9133157Y-180690015D01*
X9157736Y-180719964D01*
X9187684Y-180744542D01*
X9187687Y-180744545D01*
X9200059Y-180754698D01*
X9277267Y-180818062D01*
X9413640Y-180890954D01*
X9508275Y-180919661D01*
X9561612Y-180935841D01*
X9575990Y-180937257D01*
X9676939Y-180947200D01*
X9676946Y-180947200D01*
X9715499Y-180950997D01*
X9754052Y-180947200D01*
X17677947Y-180947200D01*
X17716500Y-180950997D01*
X17755053Y-180947200D01*
X17755061Y-180947200D01*
X17870387Y-180935841D01*
X18018360Y-180890954D01*
X18154733Y-180818062D01*
X18159183Y-180814410D01*
X18157228Y-181078100D01*
X18169488Y-181202582D01*
X18205798Y-181322280D01*
X18264763Y-181432594D01*
X18279890Y-181451026D01*
X18231198Y-181542120D01*
X18194888Y-181661818D01*
X18182628Y-181786300D01*
X18185700Y-182200550D01*
X18344450Y-182359300D01*
X19206200Y-182359300D01*
X19206200Y-181310050D01*
X19180800Y-181284650D01*
X19180800Y-180505100D01*
X19160800Y-180505100D01*
X19160800Y-180251100D01*
X19180800Y-180251100D01*
X19180800Y-179201850D01*
X19142700Y-179163750D01*
X19142700Y-178396900D01*
X19122700Y-178396900D01*
X19122700Y-178142900D01*
X19142700Y-178142900D01*
X19142700Y-177093650D01*
X18983950Y-176934900D01*
X18757200Y-176931828D01*
X18755500Y-176931995D01*
X18755500Y-176664950D01*
X18897445Y-176708008D01*
X19070699Y-176725072D01*
X19595701Y-176725072D01*
X19768955Y-176708008D01*
X19935551Y-176657472D01*
X20089087Y-176575405D01*
X20223662Y-176464962D01*
X20245700Y-176438109D01*
X20267738Y-176464962D01*
X20402313Y-176575405D01*
X20555849Y-176657472D01*
X20722445Y-176708008D01*
X20895699Y-176725072D01*
X21420701Y-176725072D01*
X21452700Y-176721920D01*
X21452700Y-176941234D01*
X21357201Y-176931828D01*
X20832199Y-176931828D01*
X20658945Y-176948892D01*
X20492349Y-176999428D01*
X20338813Y-177081495D01*
X20257563Y-177148176D01*
X20233385Y-177118715D01*
X20136694Y-177039363D01*
X20026380Y-176980398D01*
X19906682Y-176944088D01*
X19782200Y-176931828D01*
X19555450Y-176934900D01*
X19396700Y-177093650D01*
X19396700Y-178142900D01*
X19416700Y-178142900D01*
X19416700Y-178396900D01*
X19396700Y-178396900D01*
X19396700Y-179446150D01*
X19434800Y-179484250D01*
X19434800Y-180251100D01*
X19454800Y-180251100D01*
X19454800Y-180505100D01*
X19434800Y-180505100D01*
X19434800Y-181554350D01*
X19460200Y-181579750D01*
X19460200Y-182359300D01*
X19480200Y-182359300D01*
X19480200Y-182613300D01*
X19460200Y-182613300D01*
X19460200Y-183662550D01*
X19618950Y-183821300D01*
X19845700Y-183824372D01*
X19970182Y-183812112D01*
X20089880Y-183775802D01*
X20200194Y-183716837D01*
X20296885Y-183637485D01*
X20321063Y-183608024D01*
X20402313Y-183674705D01*
X20555849Y-183756772D01*
X20722445Y-183807308D01*
X20895699Y-183824372D01*
X21420701Y-183824372D01*
X21593955Y-183807308D01*
X21760551Y-183756772D01*
X21914087Y-183674705D01*
X22048662Y-183564262D01*
X22159105Y-183429687D01*
X22203519Y-183346594D01*
X22236238Y-183386462D01*
X22370813Y-183496905D01*
X22524349Y-183578972D01*
X22690945Y-183629508D01*
X22864199Y-183646572D01*
X23389201Y-183646572D01*
X23562455Y-183629508D01*
X23729051Y-183578972D01*
X23882587Y-183496905D01*
X23963837Y-183430224D01*
X23988015Y-183459685D01*
X24084706Y-183539037D01*
X24195020Y-183598002D01*
X24314718Y-183634312D01*
X24439200Y-183646572D01*
X24665950Y-183643500D01*
X24824700Y-183484750D01*
X24824700Y-182435500D01*
X25078700Y-182435500D01*
X25078700Y-183484750D01*
X25237450Y-183643500D01*
X25464200Y-183646572D01*
X25588682Y-183634312D01*
X25708380Y-183598002D01*
X25818694Y-183539037D01*
X25915385Y-183459685D01*
X25994737Y-183362994D01*
X26053702Y-183252680D01*
X26090012Y-183132982D01*
X26102272Y-183008500D01*
X26099200Y-182594250D01*
X25940450Y-182435500D01*
X25078700Y-182435500D01*
X24824700Y-182435500D01*
X24804700Y-182435500D01*
X24804700Y-182181500D01*
X24824700Y-182181500D01*
X24824700Y-181438450D01*
X24848900Y-181414250D01*
X24848900Y-180340000D01*
X24828900Y-180340000D01*
X24828900Y-180086000D01*
X24848900Y-180086000D01*
X24848900Y-179011750D01*
X24690150Y-178853000D01*
X24475900Y-178849928D01*
X24351418Y-178862188D01*
X24231720Y-178898498D01*
X24121406Y-178957463D01*
X24024715Y-179036815D01*
X23959242Y-179116594D01*
X23953862Y-179110038D01*
X23860900Y-179033747D01*
X23860900Y-178944556D01*
X23864697Y-178906000D01*
X23860900Y-178867444D01*
X23860900Y-178867439D01*
X23852264Y-178779755D01*
X23849542Y-178752113D01*
X23815101Y-178638581D01*
X23804654Y-178604140D01*
X23731762Y-178467767D01*
X23638100Y-178353641D01*
X23638100Y-177005891D01*
X23663562Y-177008139D01*
X24621350Y-177005100D01*
X24780100Y-176846350D01*
X24780100Y-176358172D01*
X25034100Y-176358172D01*
X25034100Y-176846350D01*
X25192850Y-177005100D01*
X25996721Y-177007651D01*
X25881359Y-177148219D01*
X25775967Y-177345395D01*
X25711066Y-177559343D01*
X25694643Y-177726090D01*
X25694642Y-178890782D01*
X25600382Y-178862188D01*
X25475900Y-178849928D01*
X25261650Y-178853000D01*
X25102900Y-179011750D01*
X25102900Y-180086000D01*
X25122900Y-180086000D01*
X25122900Y-180340000D01*
X25102900Y-180340000D01*
X25102900Y-181108050D01*
X25078700Y-181132250D01*
X25078700Y-182181500D01*
X25940450Y-182181500D01*
X26099200Y-182022750D01*
X26101542Y-181706874D01*
X26705928Y-182311260D01*
X26705928Y-183044200D01*
X26718188Y-183168682D01*
X26754498Y-183288380D01*
X26813463Y-183398694D01*
X26892815Y-183495385D01*
X26989506Y-183574737D01*
X27099820Y-183633702D01*
X27219518Y-183670012D01*
X27344000Y-183682272D01*
X29044000Y-183682272D01*
X29168482Y-183670012D01*
X29288180Y-183633702D01*
X29398494Y-183574737D01*
X29495185Y-183495385D01*
X29574537Y-183398694D01*
X29633502Y-183288380D01*
X29655513Y-183215820D01*
X29787368Y-183347675D01*
X30030589Y-183510190D01*
X30300842Y-183622132D01*
X30587740Y-183679200D01*
X30880260Y-183679200D01*
X31167158Y-183622132D01*
X31437411Y-183510190D01*
X31680632Y-183347675D01*
X31887475Y-183140832D01*
X32004000Y-182966440D01*
X32120525Y-183140832D01*
X32327368Y-183347675D01*
X32570589Y-183510190D01*
X32840842Y-183622132D01*
X33127740Y-183679200D01*
X33420260Y-183679200D01*
X33707158Y-183622132D01*
X33977411Y-183510190D01*
X34220632Y-183347675D01*
X34239107Y-183329200D01*
X46654849Y-183329200D01*
X46710600Y-183334691D01*
X46766351Y-183329200D01*
X46766352Y-183329200D01*
X46933099Y-183312777D01*
X47147047Y-183247876D01*
X47344223Y-183142484D01*
X47517049Y-183000649D01*
X47552596Y-182957335D01*
X52312441Y-178197491D01*
X52355749Y-178161949D01*
X52497584Y-177989123D01*
X52602976Y-177791947D01*
X52667877Y-177577999D01*
X52684300Y-177411252D01*
X52684300Y-177411245D01*
X52689790Y-177355501D01*
X52684300Y-177299757D01*
X52684300Y-162425252D01*
X52689791Y-162369500D01*
X52681997Y-162290360D01*
X52667877Y-162147001D01*
X52602976Y-161933053D01*
X52497584Y-161735877D01*
X52355749Y-161563051D01*
X52182923Y-161421216D01*
X51985747Y-161315824D01*
X51771799Y-161250923D01*
X51605052Y-161234500D01*
X51549300Y-161229009D01*
X51493549Y-161234500D01*
X49263532Y-161234500D01*
X45571396Y-157542365D01*
X45535849Y-157499051D01*
X45363023Y-157357216D01*
X45165847Y-157251824D01*
X44951899Y-157186923D01*
X44785152Y-157170500D01*
X44785151Y-157170500D01*
X44729400Y-157165009D01*
X44673649Y-157170500D01*
X43382894Y-157170500D01*
X43467562Y-157067333D01*
X43540454Y-156930960D01*
X43546569Y-156910802D01*
X43585342Y-156782987D01*
X43595899Y-156675794D01*
X43596700Y-156667661D01*
X43596700Y-156667656D01*
X43600497Y-156629100D01*
X43596700Y-156590544D01*
X43596700Y-152768752D01*
X43600497Y-152730199D01*
X43596700Y-152691646D01*
X43596700Y-152691639D01*
X43585341Y-152576313D01*
X43581619Y-152564041D01*
X43540454Y-152428340D01*
X43510131Y-152371609D01*
X43467562Y-152291967D01*
X43415584Y-152228632D01*
X43394045Y-152202387D01*
X43394042Y-152202384D01*
X43369464Y-152172436D01*
X43339516Y-152147858D01*
X41971530Y-150779872D01*
X49765000Y-150779872D01*
X49765000Y-151220128D01*
X49850890Y-151651925D01*
X50019369Y-152058669D01*
X50263962Y-152424729D01*
X50575271Y-152736038D01*
X50941331Y-152980631D01*
X51348075Y-153149110D01*
X51779872Y-153235000D01*
X52220128Y-153235000D01*
X52651925Y-153149110D01*
X53058669Y-152980631D01*
X53424729Y-152736038D01*
X53736038Y-152424729D01*
X53980631Y-152058669D01*
X54149110Y-151651925D01*
X54235000Y-151220128D01*
X54235000Y-150779872D01*
X54149110Y-150348075D01*
X53980631Y-149941331D01*
X53736038Y-149575271D01*
X53424729Y-149263962D01*
X53058669Y-149019369D01*
X52651925Y-148850890D01*
X52220128Y-148765000D01*
X51779872Y-148765000D01*
X51348075Y-148850890D01*
X50941331Y-149019369D01*
X50575271Y-149263962D01*
X50263962Y-149575271D01*
X50019369Y-149941331D01*
X49850890Y-150348075D01*
X49765000Y-150779872D01*
X41971530Y-150779872D01*
X40688947Y-149497290D01*
X40664364Y-149467336D01*
X40544833Y-149369238D01*
X40408460Y-149296346D01*
X40260487Y-149251459D01*
X40145161Y-149240100D01*
X40145153Y-149240100D01*
X40106600Y-149236303D01*
X40068047Y-149240100D01*
X23431952Y-149240100D01*
X23393399Y-149236303D01*
X23354846Y-149240100D01*
X23354839Y-149240100D01*
X23239513Y-149251459D01*
X23091540Y-149296346D01*
X22955167Y-149369238D01*
X22894959Y-149418650D01*
X22865587Y-149442755D01*
X22865584Y-149442758D01*
X22835636Y-149467336D01*
X22811057Y-149497285D01*
X22283885Y-150024458D01*
X22253937Y-150049036D01*
X22229359Y-150078984D01*
X22229355Y-150078988D01*
X22214573Y-150097000D01*
X22155839Y-150168567D01*
X22116877Y-150241460D01*
X22082946Y-150304941D01*
X22038059Y-150452914D01*
X22022903Y-150606800D01*
X22026701Y-150645362D01*
X22026701Y-150941346D01*
X21948650Y-151005400D01*
X21619728Y-151005400D01*
X21552192Y-150923108D01*
X21418564Y-150813442D01*
X21266109Y-150731953D01*
X21100685Y-150681772D01*
X20928650Y-150664828D01*
X20016150Y-150664828D01*
X19844115Y-150681772D01*
X19678691Y-150731953D01*
X19526236Y-150813442D01*
X19392608Y-150923108D01*
X19282942Y-151056736D01*
X19201453Y-151209191D01*
X19151272Y-151374615D01*
X19134328Y-151546650D01*
X19134328Y-152034150D01*
X19151272Y-152206185D01*
X19201453Y-152371609D01*
X19282942Y-152524064D01*
X19392608Y-152657692D01*
X19478156Y-152727900D01*
X19392608Y-152798108D01*
X19282942Y-152931736D01*
X19201453Y-153084191D01*
X19151272Y-153249615D01*
X19134328Y-153421650D01*
X19134328Y-153893315D01*
X18966685Y-154060958D01*
X18936737Y-154085536D01*
X18912159Y-154115484D01*
X18912155Y-154115488D01*
X18879190Y-154155656D01*
X18838639Y-154205067D01*
X18826327Y-154228102D01*
X18765746Y-154341441D01*
X18720859Y-154489414D01*
X18705703Y-154643300D01*
X18709501Y-154681863D01*
X18709501Y-155697672D01*
X18627208Y-155765208D01*
X18517542Y-155898836D01*
X18436053Y-156051291D01*
X18385872Y-156216715D01*
X18368928Y-156388750D01*
X18368928Y-156860415D01*
X17941785Y-157287558D01*
X17911837Y-157312136D01*
X17887259Y-157342084D01*
X17887255Y-157342088D01*
X17862041Y-157372812D01*
X17813739Y-157431667D01*
X17776754Y-157500862D01*
X17740846Y-157568041D01*
X17695959Y-157716014D01*
X17680803Y-157869900D01*
X17684601Y-157908463D01*
X17684600Y-164443487D01*
X17579138Y-164530038D01*
X17468695Y-164664613D01*
X17386628Y-164818149D01*
X17336092Y-164984745D01*
X17319028Y-165157999D01*
X17319028Y-166058001D01*
X17336092Y-166231255D01*
X17386628Y-166397851D01*
X17468695Y-166551387D01*
X17524549Y-166619445D01*
X17516638Y-166625938D01*
X17406195Y-166760514D01*
X17324128Y-166914050D01*
X17273592Y-167080646D01*
X17256528Y-167253900D01*
X17256528Y-168203900D01*
X17273592Y-168377154D01*
X17324128Y-168543750D01*
X17406195Y-168697286D01*
X17516638Y-168831862D01*
X17651214Y-168942305D01*
X17804750Y-169024372D01*
X17831585Y-169032512D01*
X17781459Y-169073650D01*
X17752087Y-169097755D01*
X17752084Y-169097758D01*
X17722136Y-169122336D01*
X17697558Y-169152284D01*
X17118700Y-169731142D01*
X17118700Y-169640040D01*
X17061632Y-169353142D01*
X16949690Y-169082889D01*
X16787175Y-168839668D01*
X16655320Y-168707813D01*
X16727880Y-168685802D01*
X16838194Y-168626837D01*
X16934885Y-168547485D01*
X17014237Y-168450794D01*
X17073202Y-168340480D01*
X17109512Y-168220782D01*
X17121772Y-168096300D01*
X17121772Y-166396300D01*
X17109512Y-166271818D01*
X17073202Y-166152120D01*
X17014237Y-166041806D01*
X16934885Y-165945115D01*
X16838194Y-165865763D01*
X16768700Y-165828617D01*
X16768700Y-161189452D01*
X16774191Y-161133700D01*
X16752277Y-160911201D01*
X16728815Y-160833859D01*
X16687376Y-160697253D01*
X16685000Y-160692808D01*
X16685000Y-160608665D01*
X16629853Y-160331426D01*
X16521680Y-160070273D01*
X16385000Y-159865716D01*
X16385000Y-158655751D01*
X16390491Y-158599999D01*
X16368577Y-158377500D01*
X16346736Y-158305501D01*
X16303676Y-158163553D01*
X16198284Y-157966377D01*
X16056449Y-157793551D01*
X16013141Y-157758009D01*
X14014814Y-155759682D01*
X14100000Y-155768072D01*
X16300000Y-155768072D01*
X16424482Y-155755812D01*
X16544180Y-155719502D01*
X16646144Y-155665000D01*
X17275752Y-155665000D01*
X17442499Y-155648577D01*
X17656447Y-155583676D01*
X17853623Y-155478284D01*
X18026449Y-155336449D01*
X18168284Y-155163623D01*
X18273676Y-154966447D01*
X18338577Y-154752499D01*
X18360491Y-154530000D01*
X18338577Y-154307501D01*
X18273676Y-154093553D01*
X18168284Y-153896377D01*
X18026449Y-153723551D01*
X17853623Y-153581716D01*
X17656447Y-153476324D01*
X17442499Y-153411423D01*
X17275752Y-153395000D01*
X16646144Y-153395000D01*
X16544180Y-153340498D01*
X16424482Y-153304188D01*
X16300000Y-153291928D01*
X14100000Y-153291928D01*
X13975518Y-153304188D01*
X13855820Y-153340498D01*
X13745506Y-153399463D01*
X13648815Y-153478815D01*
X13569463Y-153575506D01*
X13510498Y-153685820D01*
X13474188Y-153805518D01*
X13461928Y-153930000D01*
X13461928Y-155130000D01*
X13470318Y-155215186D01*
X12738072Y-154482941D01*
X12738072Y-150570000D01*
X13461928Y-150570000D01*
X13474188Y-150694482D01*
X13510498Y-150814180D01*
X13569463Y-150924494D01*
X13648815Y-151021185D01*
X13745506Y-151100537D01*
X13855820Y-151159502D01*
X13975518Y-151195812D01*
X14100000Y-151208072D01*
X14914250Y-151205000D01*
X15073000Y-151046250D01*
X15073000Y-150097000D01*
X15327000Y-150097000D01*
X15327000Y-151046250D01*
X15485750Y-151205000D01*
X16300000Y-151208072D01*
X16424482Y-151195812D01*
X16544180Y-151159502D01*
X16654494Y-151100537D01*
X16751185Y-151021185D01*
X16830537Y-150924494D01*
X16889502Y-150814180D01*
X16925812Y-150694482D01*
X16938072Y-150570000D01*
X16935000Y-150255750D01*
X16776250Y-150097000D01*
X15327000Y-150097000D01*
X15073000Y-150097000D01*
X13623750Y-150097000D01*
X13465000Y-150255750D01*
X13461928Y-150570000D01*
X12738072Y-150570000D01*
X12738072Y-149370000D01*
X13461928Y-149370000D01*
X13465000Y-149684250D01*
X13623750Y-149843000D01*
X15073000Y-149843000D01*
X15073000Y-148893750D01*
X15327000Y-148893750D01*
X15327000Y-149843000D01*
X16776250Y-149843000D01*
X16935000Y-149684250D01*
X16938072Y-149370000D01*
X16925812Y-149245518D01*
X16889502Y-149125820D01*
X16830537Y-149015506D01*
X16751185Y-148918815D01*
X16654494Y-148839463D01*
X16544180Y-148780498D01*
X16424482Y-148744188D01*
X16300000Y-148731928D01*
X15485750Y-148735000D01*
X15327000Y-148893750D01*
X15073000Y-148893750D01*
X14914250Y-148735000D01*
X14100000Y-148731928D01*
X13975518Y-148744188D01*
X13855820Y-148780498D01*
X13745506Y-148839463D01*
X13648815Y-148918815D01*
X13569463Y-149015506D01*
X13510498Y-149125820D01*
X13474188Y-149245518D01*
X13461928Y-149370000D01*
X12738072Y-149370000D01*
X12738072Y-149350000D01*
X12725812Y-149225518D01*
X12689502Y-149105820D01*
X12630537Y-148995506D01*
X12551185Y-148898815D01*
X12454494Y-148819463D01*
X12344180Y-148760498D01*
X12224482Y-148724188D01*
X12100000Y-148711928D01*
X5700000Y-148711928D01*
X5575518Y-148724188D01*
X5455820Y-148760498D01*
X5345506Y-148819463D01*
X5248815Y-148898815D01*
X5169463Y-148995506D01*
X5110498Y-149105820D01*
X5074188Y-149225518D01*
X5061928Y-149350000D01*
X5061928Y-155150000D01*
X5074188Y-155274482D01*
X5110498Y-155394180D01*
X5169463Y-155504494D01*
X5248815Y-155601185D01*
X5265001Y-155614468D01*
X5265001Y-155820746D01*
X5172038Y-155897038D01*
X5061595Y-156031614D01*
X4979528Y-156185150D01*
X4928992Y-156351746D01*
X4911928Y-156525000D01*
X1660000Y-156525000D01*
X1660000Y-147660000D01*
X55340000Y-147660000D01*
X55340001Y-189340000D01*
G37*
%TD.AperFunction*%
D19*
X47951409Y-163132641D02*
X47986951Y-163175949D01*
X48159777Y-163317784D01*
X48356953Y-163423176D01*
X48570901Y-163488077D01*
X48793400Y-163509991D01*
X48849151Y-163504500D01*
X50414301Y-163504500D01*
X50414300Y-176885368D01*
X46240469Y-181059200D01*
X34239107Y-181059200D01*
X34220632Y-181040725D01*
X33977411Y-180878210D01*
X33707158Y-180766268D01*
X33467517Y-180718600D01*
X34988047Y-180718600D01*
X35026600Y-180722397D01*
X35065153Y-180718600D01*
X35065161Y-180718600D01*
X35180487Y-180707241D01*
X35328460Y-180662354D01*
X35464833Y-180589462D01*
X35584364Y-180491364D01*
X35608947Y-180461410D01*
X36354515Y-179715843D01*
X36384464Y-179691264D01*
X36482562Y-179571733D01*
X36555454Y-179435360D01*
X36600341Y-179287387D01*
X36611700Y-179172061D01*
X36611700Y-179172054D01*
X36615497Y-179133501D01*
X36611700Y-179094948D01*
X36611700Y-177003561D01*
X36663562Y-177008139D01*
X37621350Y-177005100D01*
X37780100Y-176846350D01*
X37780100Y-176358172D01*
X38034100Y-176358172D01*
X38034100Y-176846350D01*
X38192850Y-177005100D01*
X39150638Y-177008139D01*
X39275238Y-176997140D01*
X39395297Y-176962044D01*
X39506203Y-176904200D01*
X39603693Y-176825831D01*
X39684020Y-176729948D01*
X39744099Y-176620237D01*
X39781619Y-176500913D01*
X39792100Y-176401850D01*
X39633350Y-176243100D01*
X39453521Y-176243100D01*
X39469373Y-176234627D01*
X39580460Y-176143460D01*
X39602093Y-176117100D01*
X39633350Y-176117100D01*
X39792100Y-175958350D01*
X39781619Y-175859287D01*
X39767271Y-175813657D01*
X39781086Y-175768115D01*
X39795172Y-175625100D01*
X39795172Y-175435100D01*
X39786992Y-175352049D01*
X41410128Y-176975186D01*
X41410128Y-177048401D01*
X41427192Y-177221655D01*
X41477728Y-177388251D01*
X41559795Y-177541787D01*
X41670238Y-177676362D01*
X41697091Y-177698400D01*
X41670238Y-177720438D01*
X41583687Y-177825900D01*
X40939611Y-177825900D01*
X40920674Y-177806963D01*
X40751156Y-177693695D01*
X40562798Y-177615674D01*
X40362839Y-177575900D01*
X40158961Y-177575900D01*
X39959002Y-177615674D01*
X39770644Y-177693695D01*
X39601126Y-177806963D01*
X39456963Y-177951126D01*
X39343695Y-178120644D01*
X39265674Y-178309002D01*
X39225900Y-178508961D01*
X39225900Y-178712839D01*
X39265674Y-178912798D01*
X39343695Y-179101156D01*
X39456963Y-179270674D01*
X39601126Y-179414837D01*
X39770644Y-179528105D01*
X39959002Y-179606126D01*
X40158961Y-179645900D01*
X40362839Y-179645900D01*
X40562798Y-179606126D01*
X40751156Y-179528105D01*
X40920674Y-179414837D01*
X40939611Y-179395900D01*
X41583687Y-179395900D01*
X41670238Y-179501362D01*
X41804813Y-179611805D01*
X41958349Y-179693872D01*
X42124945Y-179744408D01*
X42298199Y-179761472D01*
X43198201Y-179761472D01*
X43371455Y-179744408D01*
X43538051Y-179693872D01*
X43691587Y-179611805D01*
X43826162Y-179501362D01*
X43936605Y-179366787D01*
X44018672Y-179213251D01*
X44069208Y-179046655D01*
X44086272Y-178873401D01*
X44086272Y-178348399D01*
X44069208Y-178175145D01*
X44018672Y-178008549D01*
X43936605Y-177855013D01*
X43826162Y-177720438D01*
X43799309Y-177698400D01*
X43826162Y-177676362D01*
X43912713Y-177570900D01*
X47838547Y-177570900D01*
X47877100Y-177574697D01*
X47915653Y-177570900D01*
X47915661Y-177570900D01*
X48030987Y-177559541D01*
X48178960Y-177514654D01*
X48315333Y-177441762D01*
X48434864Y-177343664D01*
X48456939Y-177316766D01*
X48647140Y-177354600D01*
X48939660Y-177354600D01*
X49226558Y-177297532D01*
X49496811Y-177185590D01*
X49740032Y-177023075D01*
X49946875Y-176816232D01*
X50109390Y-176573011D01*
X50221332Y-176302758D01*
X50278400Y-176015860D01*
X50278400Y-175723340D01*
X50221332Y-175436442D01*
X50109390Y-175166189D01*
X49946875Y-174922968D01*
X49740032Y-174716125D01*
X49565640Y-174599600D01*
X49740032Y-174483075D01*
X49946875Y-174276232D01*
X50109390Y-174033011D01*
X50221332Y-173762758D01*
X50278400Y-173475860D01*
X50278400Y-173183340D01*
X50221332Y-172896442D01*
X50109390Y-172626189D01*
X49946875Y-172382968D01*
X49740032Y-172176125D01*
X49565640Y-172059600D01*
X49740032Y-171943075D01*
X49946875Y-171736232D01*
X50109390Y-171493011D01*
X50221332Y-171222758D01*
X50278400Y-170935860D01*
X50278400Y-170643340D01*
X50221332Y-170356442D01*
X50109390Y-170086189D01*
X49946875Y-169842968D01*
X49740032Y-169636125D01*
X49565640Y-169519600D01*
X49740032Y-169403075D01*
X49946875Y-169196232D01*
X50109390Y-168953011D01*
X50221332Y-168682758D01*
X50278400Y-168395860D01*
X50278400Y-168103340D01*
X50221332Y-167816442D01*
X50109390Y-167546189D01*
X49946875Y-167302968D01*
X49815020Y-167171113D01*
X49887580Y-167149102D01*
X49997894Y-167090137D01*
X50094585Y-167010785D01*
X50173937Y-166914094D01*
X50232902Y-166803780D01*
X50269212Y-166684082D01*
X50281472Y-166559600D01*
X50281472Y-164859600D01*
X50269212Y-164735118D01*
X50232902Y-164615420D01*
X50173937Y-164505106D01*
X50094585Y-164408415D01*
X49997894Y-164329063D01*
X49887580Y-164270098D01*
X49767882Y-164233788D01*
X49643400Y-164221528D01*
X47943400Y-164221528D01*
X47818918Y-164233788D01*
X47699220Y-164270098D01*
X47588906Y-164329063D01*
X47492215Y-164408415D01*
X47412863Y-164505106D01*
X47353898Y-164615420D01*
X47317588Y-164735118D01*
X47305328Y-164859600D01*
X47305328Y-164924600D01*
X45825372Y-164924600D01*
X45825372Y-164713499D01*
X45808308Y-164540245D01*
X45757772Y-164373649D01*
X45701833Y-164268995D01*
X45717837Y-164249494D01*
X45776802Y-164139180D01*
X45813112Y-164019482D01*
X45825372Y-163895000D01*
X45822300Y-163480750D01*
X45663550Y-163322000D01*
X44801800Y-163322000D01*
X44801800Y-163342000D01*
X44547800Y-163342000D01*
X44547800Y-163322000D01*
X44527800Y-163322000D01*
X44527800Y-163068000D01*
X44547800Y-163068000D01*
X44547800Y-162337650D01*
X44584700Y-162300750D01*
X44584700Y-162018750D01*
X44801800Y-162018750D01*
X44801800Y-163068000D01*
X45663550Y-163068000D01*
X45822300Y-162909250D01*
X45825372Y-162495000D01*
X45813112Y-162370518D01*
X45776802Y-162250820D01*
X45739919Y-162181818D01*
X45742237Y-162178994D01*
X45801202Y-162068680D01*
X45837512Y-161948982D01*
X45849772Y-161824500D01*
X45846700Y-161385250D01*
X45687950Y-161226500D01*
X44838700Y-161226500D01*
X44838700Y-161981850D01*
X44801800Y-162018750D01*
X44584700Y-162018750D01*
X44584700Y-161226500D01*
X44564700Y-161226500D01*
X44564700Y-160972500D01*
X44584700Y-160972500D01*
X44584700Y-160952500D01*
X44838700Y-160952500D01*
X44838700Y-160972500D01*
X45687950Y-160972500D01*
X45739609Y-160920841D01*
X47951409Y-163132641D01*
%TA.AperFunction,Conductor*%
D20*
G36*
X47951409Y-163132641D02*
G01*
X47986951Y-163175949D01*
X48159777Y-163317784D01*
X48356953Y-163423176D01*
X48570901Y-163488077D01*
X48793400Y-163509991D01*
X48849151Y-163504500D01*
X50414301Y-163504500D01*
X50414300Y-176885368D01*
X46240469Y-181059200D01*
X34239107Y-181059200D01*
X34220632Y-181040725D01*
X33977411Y-180878210D01*
X33707158Y-180766268D01*
X33467517Y-180718600D01*
X34988047Y-180718600D01*
X35026600Y-180722397D01*
X35065153Y-180718600D01*
X35065161Y-180718600D01*
X35180487Y-180707241D01*
X35328460Y-180662354D01*
X35464833Y-180589462D01*
X35584364Y-180491364D01*
X35608947Y-180461410D01*
X36354515Y-179715843D01*
X36384464Y-179691264D01*
X36482562Y-179571733D01*
X36555454Y-179435360D01*
X36600341Y-179287387D01*
X36611700Y-179172061D01*
X36611700Y-179172054D01*
X36615497Y-179133501D01*
X36611700Y-179094948D01*
X36611700Y-177003561D01*
X36663562Y-177008139D01*
X37621350Y-177005100D01*
X37780100Y-176846350D01*
X37780100Y-176358172D01*
X38034100Y-176358172D01*
X38034100Y-176846350D01*
X38192850Y-177005100D01*
X39150638Y-177008139D01*
X39275238Y-176997140D01*
X39395297Y-176962044D01*
X39506203Y-176904200D01*
X39603693Y-176825831D01*
X39684020Y-176729948D01*
X39744099Y-176620237D01*
X39781619Y-176500913D01*
X39792100Y-176401850D01*
X39633350Y-176243100D01*
X39453521Y-176243100D01*
X39469373Y-176234627D01*
X39580460Y-176143460D01*
X39602093Y-176117100D01*
X39633350Y-176117100D01*
X39792100Y-175958350D01*
X39781619Y-175859287D01*
X39767271Y-175813657D01*
X39781086Y-175768115D01*
X39795172Y-175625100D01*
X39795172Y-175435100D01*
X39786992Y-175352049D01*
X41410128Y-176975186D01*
X41410128Y-177048401D01*
X41427192Y-177221655D01*
X41477728Y-177388251D01*
X41559795Y-177541787D01*
X41670238Y-177676362D01*
X41697091Y-177698400D01*
X41670238Y-177720438D01*
X41583687Y-177825900D01*
X40939611Y-177825900D01*
X40920674Y-177806963D01*
X40751156Y-177693695D01*
X40562798Y-177615674D01*
X40362839Y-177575900D01*
X40158961Y-177575900D01*
X39959002Y-177615674D01*
X39770644Y-177693695D01*
X39601126Y-177806963D01*
X39456963Y-177951126D01*
X39343695Y-178120644D01*
X39265674Y-178309002D01*
X39225900Y-178508961D01*
X39225900Y-178712839D01*
X39265674Y-178912798D01*
X39343695Y-179101156D01*
X39456963Y-179270674D01*
X39601126Y-179414837D01*
X39770644Y-179528105D01*
X39959002Y-179606126D01*
X40158961Y-179645900D01*
X40362839Y-179645900D01*
X40562798Y-179606126D01*
X40751156Y-179528105D01*
X40920674Y-179414837D01*
X40939611Y-179395900D01*
X41583687Y-179395900D01*
X41670238Y-179501362D01*
X41804813Y-179611805D01*
X41958349Y-179693872D01*
X42124945Y-179744408D01*
X42298199Y-179761472D01*
X43198201Y-179761472D01*
X43371455Y-179744408D01*
X43538051Y-179693872D01*
X43691587Y-179611805D01*
X43826162Y-179501362D01*
X43936605Y-179366787D01*
X44018672Y-179213251D01*
X44069208Y-179046655D01*
X44086272Y-178873401D01*
X44086272Y-178348399D01*
X44069208Y-178175145D01*
X44018672Y-178008549D01*
X43936605Y-177855013D01*
X43826162Y-177720438D01*
X43799309Y-177698400D01*
X43826162Y-177676362D01*
X43912713Y-177570900D01*
X47838547Y-177570900D01*
X47877100Y-177574697D01*
X47915653Y-177570900D01*
X47915661Y-177570900D01*
X48030987Y-177559541D01*
X48178960Y-177514654D01*
X48315333Y-177441762D01*
X48434864Y-177343664D01*
X48456939Y-177316766D01*
X48647140Y-177354600D01*
X48939660Y-177354600D01*
X49226558Y-177297532D01*
X49496811Y-177185590D01*
X49740032Y-177023075D01*
X49946875Y-176816232D01*
X50109390Y-176573011D01*
X50221332Y-176302758D01*
X50278400Y-176015860D01*
X50278400Y-175723340D01*
X50221332Y-175436442D01*
X50109390Y-175166189D01*
X49946875Y-174922968D01*
X49740032Y-174716125D01*
X49565640Y-174599600D01*
X49740032Y-174483075D01*
X49946875Y-174276232D01*
X50109390Y-174033011D01*
X50221332Y-173762758D01*
X50278400Y-173475860D01*
X50278400Y-173183340D01*
X50221332Y-172896442D01*
X50109390Y-172626189D01*
X49946875Y-172382968D01*
X49740032Y-172176125D01*
X49565640Y-172059600D01*
X49740032Y-171943075D01*
X49946875Y-171736232D01*
X50109390Y-171493011D01*
X50221332Y-171222758D01*
X50278400Y-170935860D01*
X50278400Y-170643340D01*
X50221332Y-170356442D01*
X50109390Y-170086189D01*
X49946875Y-169842968D01*
X49740032Y-169636125D01*
X49565640Y-169519600D01*
X49740032Y-169403075D01*
X49946875Y-169196232D01*
X50109390Y-168953011D01*
X50221332Y-168682758D01*
X50278400Y-168395860D01*
X50278400Y-168103340D01*
X50221332Y-167816442D01*
X50109390Y-167546189D01*
X49946875Y-167302968D01*
X49815020Y-167171113D01*
X49887580Y-167149102D01*
X49997894Y-167090137D01*
X50094585Y-167010785D01*
X50173937Y-166914094D01*
X50232902Y-166803780D01*
X50269212Y-166684082D01*
X50281472Y-166559600D01*
X50281472Y-164859600D01*
X50269212Y-164735118D01*
X50232902Y-164615420D01*
X50173937Y-164505106D01*
X50094585Y-164408415D01*
X49997894Y-164329063D01*
X49887580Y-164270098D01*
X49767882Y-164233788D01*
X49643400Y-164221528D01*
X47943400Y-164221528D01*
X47818918Y-164233788D01*
X47699220Y-164270098D01*
X47588906Y-164329063D01*
X47492215Y-164408415D01*
X47412863Y-164505106D01*
X47353898Y-164615420D01*
X47317588Y-164735118D01*
X47305328Y-164859600D01*
X47305328Y-164924600D01*
X45825372Y-164924600D01*
X45825372Y-164713499D01*
X45808308Y-164540245D01*
X45757772Y-164373649D01*
X45701833Y-164268995D01*
X45717837Y-164249494D01*
X45776802Y-164139180D01*
X45813112Y-164019482D01*
X45825372Y-163895000D01*
X45822300Y-163480750D01*
X45663550Y-163322000D01*
X44801800Y-163322000D01*
X44801800Y-163342000D01*
X44547800Y-163342000D01*
X44547800Y-163322000D01*
X44527800Y-163322000D01*
X44527800Y-163068000D01*
X44547800Y-163068000D01*
X44547800Y-162337650D01*
X44584700Y-162300750D01*
X44584700Y-162018750D01*
X44801800Y-162018750D01*
X44801800Y-163068000D01*
X45663550Y-163068000D01*
X45822300Y-162909250D01*
X45825372Y-162495000D01*
X45813112Y-162370518D01*
X45776802Y-162250820D01*
X45739919Y-162181818D01*
X45742237Y-162178994D01*
X45801202Y-162068680D01*
X45837512Y-161948982D01*
X45849772Y-161824500D01*
X45846700Y-161385250D01*
X45687950Y-161226500D01*
X44838700Y-161226500D01*
X44838700Y-161981850D01*
X44801800Y-162018750D01*
X44584700Y-162018750D01*
X44584700Y-161226500D01*
X44564700Y-161226500D01*
X44564700Y-160972500D01*
X44584700Y-160972500D01*
X44584700Y-160952500D01*
X44838700Y-160952500D01*
X44838700Y-160972500D01*
X45687950Y-160972500D01*
X45739609Y-160920841D01*
X47951409Y-163132641D01*
G37*
%TD.AperFunction*%
D19*
X17185501Y-179377200D02*
X10040658Y-179377200D01*
X9700400Y-179036943D01*
X9700400Y-177763190D01*
X14192224Y-177763190D01*
X14236875Y-177910399D01*
X14362059Y-178173220D01*
X14536112Y-178406569D01*
X14752345Y-178601478D01*
X15002448Y-178750457D01*
X15276809Y-178847781D01*
X15506700Y-178727114D01*
X15506700Y-177533300D01*
X15760700Y-177533300D01*
X15760700Y-178727114D01*
X15990591Y-178847781D01*
X16264952Y-178750457D01*
X16515055Y-178601478D01*
X16731288Y-178406569D01*
X16905341Y-178173220D01*
X17030525Y-177910399D01*
X17075176Y-177763190D01*
X16953855Y-177533300D01*
X15760700Y-177533300D01*
X15506700Y-177533300D01*
X14313545Y-177533300D01*
X14192224Y-177763190D01*
X9700400Y-177763190D01*
X9700400Y-175513536D01*
X9743295Y-175593787D01*
X9853738Y-175728362D01*
X9988313Y-175838805D01*
X10141849Y-175920872D01*
X10308445Y-175971408D01*
X10481699Y-175988472D01*
X11006701Y-175988472D01*
X11179955Y-175971408D01*
X11346551Y-175920872D01*
X11500087Y-175838805D01*
X11634662Y-175728362D01*
X11656700Y-175701509D01*
X11678738Y-175728362D01*
X11813313Y-175838805D01*
X11966849Y-175920872D01*
X12133445Y-175971408D01*
X12306699Y-175988472D01*
X12831701Y-175988472D01*
X13004955Y-175971408D01*
X13171551Y-175920872D01*
X13325087Y-175838805D01*
X13459662Y-175728362D01*
X13570105Y-175593787D01*
X13652172Y-175440251D01*
X13653644Y-175435400D01*
X14262077Y-175435400D01*
X14317710Y-175569711D01*
X14480225Y-175812932D01*
X14687068Y-176019775D01*
X14869234Y-176141495D01*
X14752345Y-176211122D01*
X14536112Y-176406031D01*
X14362059Y-176639380D01*
X14236875Y-176902201D01*
X14192224Y-177049410D01*
X14313545Y-177279300D01*
X15506700Y-177279300D01*
X15506700Y-177259300D01*
X15760700Y-177259300D01*
X15760700Y-177279300D01*
X16953855Y-177279300D01*
X17075176Y-177049410D01*
X17030525Y-176902201D01*
X16905341Y-176639380D01*
X16731288Y-176406031D01*
X16515055Y-176211122D01*
X16398166Y-176141495D01*
X16580332Y-176019775D01*
X16787175Y-175812932D01*
X16949690Y-175569711D01*
X17061632Y-175299458D01*
X17118700Y-175012560D01*
X17118700Y-174720040D01*
X17080775Y-174529382D01*
X17185500Y-174424657D01*
X17185501Y-179377200D01*
%TA.AperFunction,Conductor*%
D20*
G36*
X17185501Y-179377200D02*
G01*
X10040658Y-179377200D01*
X9700400Y-179036943D01*
X9700400Y-177763190D01*
X14192224Y-177763190D01*
X14236875Y-177910399D01*
X14362059Y-178173220D01*
X14536112Y-178406569D01*
X14752345Y-178601478D01*
X15002448Y-178750457D01*
X15276809Y-178847781D01*
X15506700Y-178727114D01*
X15506700Y-177533300D01*
X15760700Y-177533300D01*
X15760700Y-178727114D01*
X15990591Y-178847781D01*
X16264952Y-178750457D01*
X16515055Y-178601478D01*
X16731288Y-178406569D01*
X16905341Y-178173220D01*
X17030525Y-177910399D01*
X17075176Y-177763190D01*
X16953855Y-177533300D01*
X15760700Y-177533300D01*
X15506700Y-177533300D01*
X14313545Y-177533300D01*
X14192224Y-177763190D01*
X9700400Y-177763190D01*
X9700400Y-175513536D01*
X9743295Y-175593787D01*
X9853738Y-175728362D01*
X9988313Y-175838805D01*
X10141849Y-175920872D01*
X10308445Y-175971408D01*
X10481699Y-175988472D01*
X11006701Y-175988472D01*
X11179955Y-175971408D01*
X11346551Y-175920872D01*
X11500087Y-175838805D01*
X11634662Y-175728362D01*
X11656700Y-175701509D01*
X11678738Y-175728362D01*
X11813313Y-175838805D01*
X11966849Y-175920872D01*
X12133445Y-175971408D01*
X12306699Y-175988472D01*
X12831701Y-175988472D01*
X13004955Y-175971408D01*
X13171551Y-175920872D01*
X13325087Y-175838805D01*
X13459662Y-175728362D01*
X13570105Y-175593787D01*
X13652172Y-175440251D01*
X13653644Y-175435400D01*
X14262077Y-175435400D01*
X14317710Y-175569711D01*
X14480225Y-175812932D01*
X14687068Y-176019775D01*
X14869234Y-176141495D01*
X14752345Y-176211122D01*
X14536112Y-176406031D01*
X14362059Y-176639380D01*
X14236875Y-176902201D01*
X14192224Y-177049410D01*
X14313545Y-177279300D01*
X15506700Y-177279300D01*
X15506700Y-177259300D01*
X15760700Y-177259300D01*
X15760700Y-177279300D01*
X16953855Y-177279300D01*
X17075176Y-177049410D01*
X17030525Y-176902201D01*
X16905341Y-176639380D01*
X16731288Y-176406031D01*
X16515055Y-176211122D01*
X16398166Y-176141495D01*
X16580332Y-176019775D01*
X16787175Y-175812932D01*
X16949690Y-175569711D01*
X17061632Y-175299458D01*
X17118700Y-175012560D01*
X17118700Y-174720040D01*
X17080775Y-174529382D01*
X17185500Y-174424657D01*
X17185501Y-179377200D01*
G37*
%TD.AperFunction*%
D19*
X47477410Y-172626189D02*
X47365468Y-172896442D01*
X47308400Y-173183340D01*
X47308400Y-173475860D01*
X47365468Y-173762758D01*
X47477410Y-174033011D01*
X47639925Y-174276232D01*
X47846768Y-174483075D01*
X48021160Y-174599600D01*
X47846768Y-174716125D01*
X47639925Y-174922968D01*
X47477410Y-175166189D01*
X47365468Y-175436442D01*
X47308400Y-175723340D01*
X47308400Y-176000900D01*
X43912713Y-176000900D01*
X43826162Y-175895438D01*
X43691587Y-175784995D01*
X43632459Y-175753391D01*
X43761700Y-175624150D01*
X43761700Y-174774900D01*
X44015700Y-174774900D01*
X44015700Y-175624150D01*
X44174450Y-175782900D01*
X44613700Y-175785972D01*
X44738182Y-175773712D01*
X44857880Y-175737402D01*
X44968194Y-175678437D01*
X45064885Y-175599085D01*
X45144237Y-175502394D01*
X45203202Y-175392080D01*
X45239512Y-175272382D01*
X45251772Y-175147900D01*
X45248700Y-174933650D01*
X45089950Y-174774900D01*
X44015700Y-174774900D01*
X43761700Y-174774900D01*
X43060250Y-174774900D01*
X42971950Y-174686600D01*
X41922700Y-174686600D01*
X41922700Y-174706600D01*
X41668700Y-174706600D01*
X41668700Y-174686600D01*
X41648700Y-174686600D01*
X41648700Y-174432600D01*
X41668700Y-174432600D01*
X41668700Y-174412600D01*
X41922700Y-174412600D01*
X41922700Y-174432600D01*
X42599150Y-174432600D01*
X42687450Y-174520900D01*
X43761700Y-174520900D01*
X43761700Y-174500900D01*
X44015700Y-174500900D01*
X44015700Y-174520900D01*
X45089950Y-174520900D01*
X45248700Y-174362150D01*
X45251772Y-174147900D01*
X45239512Y-174023418D01*
X45203202Y-173903720D01*
X45144237Y-173793406D01*
X45064885Y-173696715D01*
X44985106Y-173631242D01*
X44991662Y-173625862D01*
X45102105Y-173491286D01*
X45184172Y-173337750D01*
X45234708Y-173171154D01*
X45251772Y-172997900D01*
X45251772Y-172497900D01*
X45244552Y-172424599D01*
X47612108Y-172424599D01*
X47477410Y-172626189D01*
%TA.AperFunction,Conductor*%
D20*
G36*
X47477410Y-172626189D02*
G01*
X47365468Y-172896442D01*
X47308400Y-173183340D01*
X47308400Y-173475860D01*
X47365468Y-173762758D01*
X47477410Y-174033011D01*
X47639925Y-174276232D01*
X47846768Y-174483075D01*
X48021160Y-174599600D01*
X47846768Y-174716125D01*
X47639925Y-174922968D01*
X47477410Y-175166189D01*
X47365468Y-175436442D01*
X47308400Y-175723340D01*
X47308400Y-176000900D01*
X43912713Y-176000900D01*
X43826162Y-175895438D01*
X43691587Y-175784995D01*
X43632459Y-175753391D01*
X43761700Y-175624150D01*
X43761700Y-174774900D01*
X44015700Y-174774900D01*
X44015700Y-175624150D01*
X44174450Y-175782900D01*
X44613700Y-175785972D01*
X44738182Y-175773712D01*
X44857880Y-175737402D01*
X44968194Y-175678437D01*
X45064885Y-175599085D01*
X45144237Y-175502394D01*
X45203202Y-175392080D01*
X45239512Y-175272382D01*
X45251772Y-175147900D01*
X45248700Y-174933650D01*
X45089950Y-174774900D01*
X44015700Y-174774900D01*
X43761700Y-174774900D01*
X43060250Y-174774900D01*
X42971950Y-174686600D01*
X41922700Y-174686600D01*
X41922700Y-174706600D01*
X41668700Y-174706600D01*
X41668700Y-174686600D01*
X41648700Y-174686600D01*
X41648700Y-174432600D01*
X41668700Y-174432600D01*
X41668700Y-174412600D01*
X41922700Y-174412600D01*
X41922700Y-174432600D01*
X42599150Y-174432600D01*
X42687450Y-174520900D01*
X43761700Y-174520900D01*
X43761700Y-174500900D01*
X44015700Y-174500900D01*
X44015700Y-174520900D01*
X45089950Y-174520900D01*
X45248700Y-174362150D01*
X45251772Y-174147900D01*
X45239512Y-174023418D01*
X45203202Y-173903720D01*
X45144237Y-173793406D01*
X45064885Y-173696715D01*
X44985106Y-173631242D01*
X44991662Y-173625862D01*
X45102105Y-173491286D01*
X45184172Y-173337750D01*
X45234708Y-173171154D01*
X45251772Y-172997900D01*
X45251772Y-172497900D01*
X45244552Y-172424599D01*
X47612108Y-172424599D01*
X47477410Y-172626189D01*
G37*
%TD.AperFunction*%
D19*
X47639925Y-169196232D02*
X47846768Y-169403075D01*
X48021160Y-169519600D01*
X47846768Y-169636125D01*
X47639925Y-169842968D01*
X47477410Y-170086189D01*
X47365468Y-170356442D01*
X47308400Y-170643340D01*
X47308400Y-170854599D01*
X45859810Y-170854599D01*
X45859400Y-170795950D01*
X45700650Y-170637200D01*
X44851400Y-170637200D01*
X44851400Y-170657200D01*
X44597400Y-170657200D01*
X44597400Y-170637200D01*
X44577400Y-170637200D01*
X44577400Y-170383200D01*
X44597400Y-170383200D01*
X44597400Y-170363200D01*
X44851400Y-170363200D01*
X44851400Y-170383200D01*
X45700650Y-170383200D01*
X45859400Y-170224450D01*
X45862472Y-169785200D01*
X45850212Y-169660718D01*
X45813902Y-169541020D01*
X45754937Y-169430706D01*
X45686661Y-169347512D01*
X45688405Y-169345387D01*
X45770472Y-169191851D01*
X45818173Y-169034600D01*
X47531926Y-169034600D01*
X47639925Y-169196232D01*
%TA.AperFunction,Conductor*%
D20*
G36*
X47639925Y-169196232D02*
G01*
X47846768Y-169403075D01*
X48021160Y-169519600D01*
X47846768Y-169636125D01*
X47639925Y-169842968D01*
X47477410Y-170086189D01*
X47365468Y-170356442D01*
X47308400Y-170643340D01*
X47308400Y-170854599D01*
X45859810Y-170854599D01*
X45859400Y-170795950D01*
X45700650Y-170637200D01*
X44851400Y-170637200D01*
X44851400Y-170657200D01*
X44597400Y-170657200D01*
X44597400Y-170637200D01*
X44577400Y-170637200D01*
X44577400Y-170383200D01*
X44597400Y-170383200D01*
X44597400Y-170363200D01*
X44851400Y-170363200D01*
X44851400Y-170383200D01*
X45700650Y-170383200D01*
X45859400Y-170224450D01*
X45862472Y-169785200D01*
X45850212Y-169660718D01*
X45813902Y-169541020D01*
X45754937Y-169430706D01*
X45686661Y-169347512D01*
X45688405Y-169345387D01*
X45770472Y-169191851D01*
X45818173Y-169034600D01*
X47531926Y-169034600D01*
X47639925Y-169196232D01*
G37*
%TD.AperFunction*%
D19*
X42026701Y-153055359D02*
X42026700Y-156303943D01*
X35743385Y-162587258D01*
X35713437Y-162611836D01*
X35688859Y-162641784D01*
X35688855Y-162641788D01*
X35680862Y-162651528D01*
X35615339Y-162731367D01*
X35582697Y-162792437D01*
X35542446Y-162867741D01*
X35497559Y-163015714D01*
X35484138Y-163151981D01*
X33864500Y-161532343D01*
X33864500Y-161505561D01*
X33824726Y-161305602D01*
X33746705Y-161117244D01*
X33633437Y-160947726D01*
X33489274Y-160803563D01*
X33319756Y-160690295D01*
X33131398Y-160612274D01*
X32931439Y-160572500D01*
X32727561Y-160572500D01*
X32527602Y-160612274D01*
X32339244Y-160690295D01*
X32169726Y-160803563D01*
X32025563Y-160947726D01*
X31912295Y-161117244D01*
X31834274Y-161305602D01*
X31794500Y-161505561D01*
X31794500Y-161709439D01*
X31834274Y-161909398D01*
X31912295Y-162097756D01*
X32025563Y-162267274D01*
X32050317Y-162292028D01*
X30157100Y-162292028D01*
X30094544Y-162295102D01*
X30084789Y-162296063D01*
X29962128Y-162320463D01*
X29952749Y-162323308D01*
X29837173Y-162371181D01*
X29828528Y-162375802D01*
X29724511Y-162445308D01*
X29716935Y-162451526D01*
X29628526Y-162539935D01*
X29622308Y-162547511D01*
X29552802Y-162651528D01*
X29548181Y-162660173D01*
X29500308Y-162775749D01*
X29497463Y-162785128D01*
X29473063Y-162907789D01*
X29472102Y-162917544D01*
X29469028Y-162980100D01*
X29469028Y-165292028D01*
X28407100Y-165292028D01*
X28344544Y-165295102D01*
X28334789Y-165296063D01*
X28212128Y-165320463D01*
X28202749Y-165323308D01*
X28087173Y-165371181D01*
X28078528Y-165375802D01*
X27974511Y-165445308D01*
X27966935Y-165451526D01*
X27878526Y-165539935D01*
X27872308Y-165547511D01*
X27810600Y-165639858D01*
X27810600Y-162667211D01*
X27829537Y-162648274D01*
X27942805Y-162478756D01*
X28020826Y-162290398D01*
X28060600Y-162090439D01*
X28060600Y-161886561D01*
X28020826Y-161686602D01*
X27942805Y-161498244D01*
X27829537Y-161328726D01*
X27685374Y-161184563D01*
X27515856Y-161071295D01*
X27327498Y-160993274D01*
X27127539Y-160953500D01*
X26923661Y-160953500D01*
X26723702Y-160993274D01*
X26535344Y-161071295D01*
X26365826Y-161184563D01*
X26221663Y-161328726D01*
X26108395Y-161498244D01*
X26030374Y-161686602D01*
X25990600Y-161886561D01*
X25990600Y-162090439D01*
X26030374Y-162290398D01*
X26108395Y-162478756D01*
X26221663Y-162648274D01*
X26240601Y-162667212D01*
X26240601Y-164310002D01*
X26150638Y-164302061D01*
X25192850Y-164305100D01*
X25034100Y-164463850D01*
X25034100Y-164952028D01*
X24780100Y-164952028D01*
X24780100Y-164463850D01*
X24621350Y-164305100D01*
X23663562Y-164302061D01*
X23538962Y-164313060D01*
X23418903Y-164348156D01*
X23307997Y-164406000D01*
X23210507Y-164484369D01*
X23207600Y-164487839D01*
X23207600Y-163749031D01*
X27649041Y-159307591D01*
X27692349Y-159272049D01*
X27834184Y-159099223D01*
X27939576Y-158902047D01*
X27953453Y-158856300D01*
X28742534Y-158856300D01*
X28785115Y-158908185D01*
X28881806Y-158987537D01*
X28992120Y-159046502D01*
X29111818Y-159082812D01*
X29236300Y-159095072D01*
X30936300Y-159095072D01*
X31060782Y-159082812D01*
X31180480Y-159046502D01*
X31290794Y-158987537D01*
X31387485Y-158908185D01*
X31466837Y-158811494D01*
X31503983Y-158742000D01*
X35440304Y-158742000D01*
X35546941Y-158848637D01*
X35781973Y-159005680D01*
X36043126Y-159113853D01*
X36320365Y-159169000D01*
X36603035Y-159169000D01*
X36880274Y-159113853D01*
X37141427Y-159005680D01*
X37376459Y-158848637D01*
X37576337Y-158648759D01*
X37733380Y-158413727D01*
X37841553Y-158152574D01*
X37896700Y-157875335D01*
X37896700Y-157592665D01*
X37841553Y-157315426D01*
X37733380Y-157054273D01*
X37576337Y-156819241D01*
X37376459Y-156619363D01*
X37141427Y-156462320D01*
X36880274Y-156354147D01*
X36603035Y-156299000D01*
X36320365Y-156299000D01*
X36043126Y-156354147D01*
X35781973Y-156462320D01*
X35767486Y-156472000D01*
X31503983Y-156472000D01*
X31466837Y-156402506D01*
X31387485Y-156305815D01*
X31290794Y-156226463D01*
X31180480Y-156167498D01*
X31099834Y-156143034D01*
X31183888Y-156067269D01*
X31357941Y-155833920D01*
X31483125Y-155571099D01*
X31527776Y-155423890D01*
X31423713Y-155226702D01*
X35648603Y-155226702D01*
X35720186Y-155470671D01*
X35975696Y-155591571D01*
X36249884Y-155660300D01*
X36532212Y-155674217D01*
X36811830Y-155632787D01*
X37077992Y-155537603D01*
X37203214Y-155470671D01*
X37274797Y-155226702D01*
X36461700Y-154413605D01*
X35648603Y-155226702D01*
X31423713Y-155226702D01*
X31406455Y-155194000D01*
X30213300Y-155194000D01*
X30213300Y-155214000D01*
X29959300Y-155214000D01*
X29959300Y-155194000D01*
X28766145Y-155194000D01*
X28644824Y-155423890D01*
X28689475Y-155571099D01*
X28814659Y-155833920D01*
X28988712Y-156067269D01*
X29072766Y-156143034D01*
X28992120Y-156167498D01*
X28881806Y-156226463D01*
X28785115Y-156305815D01*
X28705763Y-156402506D01*
X28646798Y-156512820D01*
X28624508Y-156586300D01*
X28189273Y-156586300D01*
X28200402Y-156565480D01*
X28236712Y-156445782D01*
X28248972Y-156321300D01*
X28245900Y-156107050D01*
X28087150Y-155948300D01*
X27012900Y-155948300D01*
X27012900Y-155968300D01*
X26758900Y-155968300D01*
X26758900Y-155948300D01*
X25684650Y-155948300D01*
X25572950Y-156060000D01*
X23264657Y-156060000D01*
X24003357Y-155321300D01*
X25522828Y-155321300D01*
X25525900Y-155535550D01*
X25684650Y-155694300D01*
X26758900Y-155694300D01*
X26758900Y-154845050D01*
X27012900Y-154845050D01*
X27012900Y-155694300D01*
X28087150Y-155694300D01*
X28245900Y-155535550D01*
X28248972Y-155321300D01*
X28236712Y-155196818D01*
X28200402Y-155077120D01*
X28141437Y-154966806D01*
X28062085Y-154870115D01*
X27965394Y-154790763D01*
X27855080Y-154731798D01*
X27783585Y-154710110D01*
X28644824Y-154710110D01*
X28766145Y-154940000D01*
X29959300Y-154940000D01*
X29959300Y-153746186D01*
X30213300Y-153746186D01*
X30213300Y-154940000D01*
X31406455Y-154940000D01*
X31527776Y-154710110D01*
X31483125Y-154562901D01*
X31360053Y-154304512D01*
X35021483Y-154304512D01*
X35062913Y-154584130D01*
X35158097Y-154850292D01*
X35225029Y-154975514D01*
X35468998Y-155047097D01*
X36282095Y-154234000D01*
X36641305Y-154234000D01*
X37454402Y-155047097D01*
X37698371Y-154975514D01*
X37819271Y-154720004D01*
X37888000Y-154445816D01*
X37901917Y-154163488D01*
X37860487Y-153883870D01*
X37765303Y-153617708D01*
X37698371Y-153492486D01*
X37454402Y-153420903D01*
X36641305Y-154234000D01*
X36282095Y-154234000D01*
X35468998Y-153420903D01*
X35225029Y-153492486D01*
X35104129Y-153747996D01*
X35035400Y-154022184D01*
X35021483Y-154304512D01*
X31360053Y-154304512D01*
X31357941Y-154300080D01*
X31183888Y-154066731D01*
X30967655Y-153871822D01*
X30717552Y-153722843D01*
X30443191Y-153625519D01*
X30213300Y-153746186D01*
X29959300Y-153746186D01*
X29729409Y-153625519D01*
X29455048Y-153722843D01*
X29204945Y-153871822D01*
X28988712Y-154066731D01*
X28814659Y-154300080D01*
X28689475Y-154562901D01*
X28644824Y-154710110D01*
X27783585Y-154710110D01*
X27735382Y-154695488D01*
X27610900Y-154683228D01*
X27171650Y-154686300D01*
X27012900Y-154845050D01*
X26758900Y-154845050D01*
X26600150Y-154686300D01*
X26160900Y-154683228D01*
X26036418Y-154695488D01*
X25916720Y-154731798D01*
X25806406Y-154790763D01*
X25709715Y-154870115D01*
X25630363Y-154966806D01*
X25571398Y-155077120D01*
X25535088Y-155196818D01*
X25522828Y-155321300D01*
X24003357Y-155321300D01*
X25239510Y-154085147D01*
X25269464Y-154060564D01*
X25367562Y-153941033D01*
X25440454Y-153804660D01*
X25458192Y-153746186D01*
X25485342Y-153656687D01*
X25493337Y-153575506D01*
X25496700Y-153541361D01*
X25496700Y-153541356D01*
X25500497Y-153502800D01*
X25496700Y-153464244D01*
X25496700Y-153299853D01*
X25568050Y-153241298D01*
X35648603Y-153241298D01*
X36461700Y-154054395D01*
X37274797Y-153241298D01*
X37203214Y-152997329D01*
X36947704Y-152876429D01*
X36673516Y-152807700D01*
X36391188Y-152793783D01*
X36111570Y-152835213D01*
X35845408Y-152930397D01*
X35720186Y-152997329D01*
X35648603Y-153241298D01*
X25568050Y-153241298D01*
X25589662Y-153223562D01*
X25700105Y-153088986D01*
X25782172Y-152935450D01*
X25832708Y-152768854D01*
X25849772Y-152595600D01*
X25849772Y-151645600D01*
X25832708Y-151472346D01*
X25782172Y-151305750D01*
X25700105Y-151152214D01*
X25589662Y-151017638D01*
X25455086Y-150907195D01*
X25301550Y-150825128D01*
X25252009Y-150810100D01*
X39781443Y-150810100D01*
X42026701Y-153055359D01*
%TA.AperFunction,Conductor*%
D20*
G36*
X42026701Y-153055359D02*
G01*
X42026700Y-156303943D01*
X35743385Y-162587258D01*
X35713437Y-162611836D01*
X35688859Y-162641784D01*
X35688855Y-162641788D01*
X35680862Y-162651528D01*
X35615339Y-162731367D01*
X35582697Y-162792437D01*
X35542446Y-162867741D01*
X35497559Y-163015714D01*
X35484138Y-163151981D01*
X33864500Y-161532343D01*
X33864500Y-161505561D01*
X33824726Y-161305602D01*
X33746705Y-161117244D01*
X33633437Y-160947726D01*
X33489274Y-160803563D01*
X33319756Y-160690295D01*
X33131398Y-160612274D01*
X32931439Y-160572500D01*
X32727561Y-160572500D01*
X32527602Y-160612274D01*
X32339244Y-160690295D01*
X32169726Y-160803563D01*
X32025563Y-160947726D01*
X31912295Y-161117244D01*
X31834274Y-161305602D01*
X31794500Y-161505561D01*
X31794500Y-161709439D01*
X31834274Y-161909398D01*
X31912295Y-162097756D01*
X32025563Y-162267274D01*
X32050317Y-162292028D01*
X30157100Y-162292028D01*
X30094544Y-162295102D01*
X30084789Y-162296063D01*
X29962128Y-162320463D01*
X29952749Y-162323308D01*
X29837173Y-162371181D01*
X29828528Y-162375802D01*
X29724511Y-162445308D01*
X29716935Y-162451526D01*
X29628526Y-162539935D01*
X29622308Y-162547511D01*
X29552802Y-162651528D01*
X29548181Y-162660173D01*
X29500308Y-162775749D01*
X29497463Y-162785128D01*
X29473063Y-162907789D01*
X29472102Y-162917544D01*
X29469028Y-162980100D01*
X29469028Y-165292028D01*
X28407100Y-165292028D01*
X28344544Y-165295102D01*
X28334789Y-165296063D01*
X28212128Y-165320463D01*
X28202749Y-165323308D01*
X28087173Y-165371181D01*
X28078528Y-165375802D01*
X27974511Y-165445308D01*
X27966935Y-165451526D01*
X27878526Y-165539935D01*
X27872308Y-165547511D01*
X27810600Y-165639858D01*
X27810600Y-162667211D01*
X27829537Y-162648274D01*
X27942805Y-162478756D01*
X28020826Y-162290398D01*
X28060600Y-162090439D01*
X28060600Y-161886561D01*
X28020826Y-161686602D01*
X27942805Y-161498244D01*
X27829537Y-161328726D01*
X27685374Y-161184563D01*
X27515856Y-161071295D01*
X27327498Y-160993274D01*
X27127539Y-160953500D01*
X26923661Y-160953500D01*
X26723702Y-160993274D01*
X26535344Y-161071295D01*
X26365826Y-161184563D01*
X26221663Y-161328726D01*
X26108395Y-161498244D01*
X26030374Y-161686602D01*
X25990600Y-161886561D01*
X25990600Y-162090439D01*
X26030374Y-162290398D01*
X26108395Y-162478756D01*
X26221663Y-162648274D01*
X26240601Y-162667212D01*
X26240601Y-164310002D01*
X26150638Y-164302061D01*
X25192850Y-164305100D01*
X25034100Y-164463850D01*
X25034100Y-164952028D01*
X24780100Y-164952028D01*
X24780100Y-164463850D01*
X24621350Y-164305100D01*
X23663562Y-164302061D01*
X23538962Y-164313060D01*
X23418903Y-164348156D01*
X23307997Y-164406000D01*
X23210507Y-164484369D01*
X23207600Y-164487839D01*
X23207600Y-163749031D01*
X27649041Y-159307591D01*
X27692349Y-159272049D01*
X27834184Y-159099223D01*
X27939576Y-158902047D01*
X27953453Y-158856300D01*
X28742534Y-158856300D01*
X28785115Y-158908185D01*
X28881806Y-158987537D01*
X28992120Y-159046502D01*
X29111818Y-159082812D01*
X29236300Y-159095072D01*
X30936300Y-159095072D01*
X31060782Y-159082812D01*
X31180480Y-159046502D01*
X31290794Y-158987537D01*
X31387485Y-158908185D01*
X31466837Y-158811494D01*
X31503983Y-158742000D01*
X35440304Y-158742000D01*
X35546941Y-158848637D01*
X35781973Y-159005680D01*
X36043126Y-159113853D01*
X36320365Y-159169000D01*
X36603035Y-159169000D01*
X36880274Y-159113853D01*
X37141427Y-159005680D01*
X37376459Y-158848637D01*
X37576337Y-158648759D01*
X37733380Y-158413727D01*
X37841553Y-158152574D01*
X37896700Y-157875335D01*
X37896700Y-157592665D01*
X37841553Y-157315426D01*
X37733380Y-157054273D01*
X37576337Y-156819241D01*
X37376459Y-156619363D01*
X37141427Y-156462320D01*
X36880274Y-156354147D01*
X36603035Y-156299000D01*
X36320365Y-156299000D01*
X36043126Y-156354147D01*
X35781973Y-156462320D01*
X35767486Y-156472000D01*
X31503983Y-156472000D01*
X31466837Y-156402506D01*
X31387485Y-156305815D01*
X31290794Y-156226463D01*
X31180480Y-156167498D01*
X31099834Y-156143034D01*
X31183888Y-156067269D01*
X31357941Y-155833920D01*
X31483125Y-155571099D01*
X31527776Y-155423890D01*
X31423713Y-155226702D01*
X35648603Y-155226702D01*
X35720186Y-155470671D01*
X35975696Y-155591571D01*
X36249884Y-155660300D01*
X36532212Y-155674217D01*
X36811830Y-155632787D01*
X37077992Y-155537603D01*
X37203214Y-155470671D01*
X37274797Y-155226702D01*
X36461700Y-154413605D01*
X35648603Y-155226702D01*
X31423713Y-155226702D01*
X31406455Y-155194000D01*
X30213300Y-155194000D01*
X30213300Y-155214000D01*
X29959300Y-155214000D01*
X29959300Y-155194000D01*
X28766145Y-155194000D01*
X28644824Y-155423890D01*
X28689475Y-155571099D01*
X28814659Y-155833920D01*
X28988712Y-156067269D01*
X29072766Y-156143034D01*
X28992120Y-156167498D01*
X28881806Y-156226463D01*
X28785115Y-156305815D01*
X28705763Y-156402506D01*
X28646798Y-156512820D01*
X28624508Y-156586300D01*
X28189273Y-156586300D01*
X28200402Y-156565480D01*
X28236712Y-156445782D01*
X28248972Y-156321300D01*
X28245900Y-156107050D01*
X28087150Y-155948300D01*
X27012900Y-155948300D01*
X27012900Y-155968300D01*
X26758900Y-155968300D01*
X26758900Y-155948300D01*
X25684650Y-155948300D01*
X25572950Y-156060000D01*
X23264657Y-156060000D01*
X24003357Y-155321300D01*
X25522828Y-155321300D01*
X25525900Y-155535550D01*
X25684650Y-155694300D01*
X26758900Y-155694300D01*
X26758900Y-154845050D01*
X27012900Y-154845050D01*
X27012900Y-155694300D01*
X28087150Y-155694300D01*
X28245900Y-155535550D01*
X28248972Y-155321300D01*
X28236712Y-155196818D01*
X28200402Y-155077120D01*
X28141437Y-154966806D01*
X28062085Y-154870115D01*
X27965394Y-154790763D01*
X27855080Y-154731798D01*
X27783585Y-154710110D01*
X28644824Y-154710110D01*
X28766145Y-154940000D01*
X29959300Y-154940000D01*
X29959300Y-153746186D01*
X30213300Y-153746186D01*
X30213300Y-154940000D01*
X31406455Y-154940000D01*
X31527776Y-154710110D01*
X31483125Y-154562901D01*
X31360053Y-154304512D01*
X35021483Y-154304512D01*
X35062913Y-154584130D01*
X35158097Y-154850292D01*
X35225029Y-154975514D01*
X35468998Y-155047097D01*
X36282095Y-154234000D01*
X36641305Y-154234000D01*
X37454402Y-155047097D01*
X37698371Y-154975514D01*
X37819271Y-154720004D01*
X37888000Y-154445816D01*
X37901917Y-154163488D01*
X37860487Y-153883870D01*
X37765303Y-153617708D01*
X37698371Y-153492486D01*
X37454402Y-153420903D01*
X36641305Y-154234000D01*
X36282095Y-154234000D01*
X35468998Y-153420903D01*
X35225029Y-153492486D01*
X35104129Y-153747996D01*
X35035400Y-154022184D01*
X35021483Y-154304512D01*
X31360053Y-154304512D01*
X31357941Y-154300080D01*
X31183888Y-154066731D01*
X30967655Y-153871822D01*
X30717552Y-153722843D01*
X30443191Y-153625519D01*
X30213300Y-153746186D01*
X29959300Y-153746186D01*
X29729409Y-153625519D01*
X29455048Y-153722843D01*
X29204945Y-153871822D01*
X28988712Y-154066731D01*
X28814659Y-154300080D01*
X28689475Y-154562901D01*
X28644824Y-154710110D01*
X27783585Y-154710110D01*
X27735382Y-154695488D01*
X27610900Y-154683228D01*
X27171650Y-154686300D01*
X27012900Y-154845050D01*
X26758900Y-154845050D01*
X26600150Y-154686300D01*
X26160900Y-154683228D01*
X26036418Y-154695488D01*
X25916720Y-154731798D01*
X25806406Y-154790763D01*
X25709715Y-154870115D01*
X25630363Y-154966806D01*
X25571398Y-155077120D01*
X25535088Y-155196818D01*
X25522828Y-155321300D01*
X24003357Y-155321300D01*
X25239510Y-154085147D01*
X25269464Y-154060564D01*
X25367562Y-153941033D01*
X25440454Y-153804660D01*
X25458192Y-153746186D01*
X25485342Y-153656687D01*
X25493337Y-153575506D01*
X25496700Y-153541361D01*
X25496700Y-153541356D01*
X25500497Y-153502800D01*
X25496700Y-153464244D01*
X25496700Y-153299853D01*
X25568050Y-153241298D01*
X35648603Y-153241298D01*
X36461700Y-154054395D01*
X37274797Y-153241298D01*
X37203214Y-152997329D01*
X36947704Y-152876429D01*
X36673516Y-152807700D01*
X36391188Y-152793783D01*
X36111570Y-152835213D01*
X35845408Y-152930397D01*
X35720186Y-152997329D01*
X35648603Y-153241298D01*
X25568050Y-153241298D01*
X25589662Y-153223562D01*
X25700105Y-153088986D01*
X25782172Y-152935450D01*
X25832708Y-152768854D01*
X25849772Y-152595600D01*
X25849772Y-151645600D01*
X25832708Y-151472346D01*
X25782172Y-151305750D01*
X25700105Y-151152214D01*
X25589662Y-151017638D01*
X25455086Y-150907195D01*
X25301550Y-150825128D01*
X25252009Y-150810100D01*
X39781443Y-150810100D01*
X42026701Y-153055359D01*
G37*
%TD.AperFunction*%
D19*
X39041451Y-164302407D02*
X38192850Y-164305100D01*
X38034100Y-164463850D01*
X38034100Y-164952028D01*
X37780100Y-164952028D01*
X37780100Y-164463850D01*
X37621350Y-164305100D01*
X37056200Y-164303307D01*
X37056200Y-163494757D01*
X39041450Y-161509507D01*
X39041451Y-164302407D01*
%TA.AperFunction,Conductor*%
D20*
G36*
X39041451Y-164302407D02*
G01*
X38192850Y-164305100D01*
X38034100Y-164463850D01*
X38034100Y-164952028D01*
X37780100Y-164952028D01*
X37780100Y-164463850D01*
X37621350Y-164305100D01*
X37056200Y-164303307D01*
X37056200Y-163494757D01*
X39041450Y-161509507D01*
X39041451Y-164302407D01*
G37*
%TD.AperFunction*%
%TD*%
M02*
