M48
; DRILL file {KiCad 5.1.10-88a1d61d58~90~ubuntu20.04.1} date Fri Oct 15 11:56:13 2021
; FORMAT={-:-/ absolute / inch / decimal}
; #@! TF.CreationDate,2021-10-15T11:56:13+01:00
; #@! TF.GenerationSoftware,Kicad,Pcbnew,5.1.10-88a1d61d58~90~ubuntu20.04.1
; #@! TF.FileFunction,Plated,1,2,PTH
FMAT,2
INCH
T1C0.0315
T2C0.0394
%
G90
G05
T1
X0.436Y-6.3835
X0.436Y-6.5213
T2
X0.0745Y-6.481
X0.1095Y-7.5635
X0.1095Y-7.6635
X0.113Y-6.3565
X0.213Y-6.3565
X0.2695Y-7.667
X0.363Y-6.6585
X0.3695Y-7.667
X0.4695Y-7.667
X0.5085Y-7.289
X0.5695Y-7.667
X0.6695Y-7.667
X0.719Y-7.568
X0.786Y-6.794
X0.8865Y-7.35
X0.9355Y-6.649
X0.966Y-7.6715
X1.0Y-6.4035
X1.066Y-7.5125
X1.066Y-7.6715
X1.074Y-7.3555
X1.166Y-7.6715
X1.1955Y-6.517
X1.2955Y-6.517
X1.328Y-7.6715
X1.3955Y-6.517
X1.4955Y-6.517
X1.5Y-7.3215
X1.515Y-6.676
X1.5865Y-6.8385
X1.5955Y-6.517
X1.7565Y-6.7635
X1.764Y-7.1005
X1.9355Y-6.653
T0
M30
