<?xml version="1.0" standalone="no"?>
<!DOCTYPE svg PUBLIC "-//W3C//DTD SVG 1.1//EN"
"http://www.w3.org/Graphics/SVG/1.1/DTD/svg11.dtd">
<svg width="87.4961" height="106.696" viewBox="0 0 1822.83 2222.83" version="1.1"
xmlns="http://www.w3.org/2000/svg"
xmlns:xlink="http://www.w3.org/1999/xlink">
<g fill-rule="evenodd"><path d="M 796.063,752.756 L 796.063,670.079 L 831.496,670.079 L 831.496,752.756 L 796.063,752.756 z " style="fill-opacity:1.000000;fill:rgb(103,198,105);stroke:rgb(0,0,0);stroke-width:2"/></g>
<g fill-rule="evenodd"><path d="M 980.315,929.921 L 980.315,1045.67 L 698.425,1045.67 L 698.425,814.173 L 980.315,814.173 L 980.315,929.921 z " style="fill-opacity:1.000000;fill:rgb(115,81,255);stroke:rgb(0,0,0);stroke-width:2"/></g>
<g fill-rule="evenodd"><path d="M 441.417,1022.05 L 441.417,988.687 L 434.748,982.018 L 402.819,981.809 L 394.52,982.625 L 386.98,984.913 L 380.03,988.627 L 373.941,993.624 L 368.942,999.716 L 365.227,1006.66 L 362.941,1014.2 L 362.433,1017.22 L 361.623,1019.11 L 360.447,1020.79 L 358.954,1022.19 L 357.206,1023.26 L 355.276,1023.95 L 353.247,1024.23 L 351.202,1024.09 L 349.228,1023.54 L 347.408,1022.6 L 345.818,1021.31 L 304.128,979.618 L 302.885,978.103 L 301.391,974.498 L 301.391,970.596 L 302.885,966.992 L 306.175,962.067 L 314.236,942.606 L 318.345,921.948 L 318.345,900.884 L 316.283,889.531 L 317.045,885.704 L 319.212,882.46 L 431.578,770.094 L 433.094,768.851 L 436.698,767.357 L 600.661,767.327 L 602.394,767.806 L 605.465,769.647 L 606.704,770.949 L 609.098,775.085 L 614.097,781.176 L 620.188,786.175 L 627.137,789.89 L 634.677,792.176 L 643.011,792.997 L 651.624,793.212 L 653.594,793.845 L 655.392,794.87 L 656.94,796.244 L 658.173,797.907 L 659.036,799.788 L 659.494,801.806 L 659.527,803.876 L 659.002,806.336 L 658.181,814.663 L 658.181,1045.18 L 659.002,1053.5 L 659.527,1055.96 L 659.494,1058.03 L 659.036,1060.05 L 658.173,1061.93 L 656.94,1063.6 L 655.392,1064.97 L 653.594,1066 L 651.624,1066.63 L 643.011,1066.84 L 634.677,1067.66 L 627.137,1069.95 L 620.188,1073.67 L 614.097,1078.66 L 609.098,1084.76 L 606.704,1088.89 L 605.465,1090.19 L 604.012,1091.25 L 600.661,1092.51 L 567.281,1092.48 L 565.405,1091.91 L 562.161,1089.75 L 553.83,1081.42 L 520.473,1081.42 L 520.472,1100.79 L 402.362,1100.79 L 402.362,1022.05 L 441.417,1022.05M 481.417,1022.05 L 520.472,1022.05 L 520.472,1041.42 L 553.829,1041.42 L 560.531,1034.72 L 560.706,1022.47 L 559.892,1014.21 L 557.606,1006.66 L 553.891,999.716 L 548.892,993.624 L 542.803,988.627 L 535.852,984.913 L 528.313,982.625 L 520.013,981.809 L 488.087,982.018 L 481.417,988.687 L 481.417,1022.05 z " style="fill-opacity:1.000000;fill:rgb(74,236,41);stroke:rgb(0,0,0);stroke-width:2"/></g>
<g fill-rule="evenodd"><path d="M 916.456,307.597 L 916.167,310.536 L 915.074,314.136 L 913.301,317.454 L 910.914,320.363 L 908.006,322.75 L 904.687,324.523 L 901.087,325.615 L 897.343,325.984 L 825.492,325.984 L 821.748,325.615 L 818.147,324.523 L 814.829,322.75 L 811.921,320.363 L 809.534,317.454 L 807.76,314.136 L 806.668,310.536 L 806.379,307.597 L 766.456,307.597 L 766.167,310.536 L 765.074,314.136 L 763.301,317.454 L 760.914,320.363 L 758.006,322.75 L 754.687,324.523 L 751.087,325.615 L 747.343,325.984 L 675.492,325.984 L 671.748,325.615 L 668.147,324.523 L 664.829,322.75 L 661.921,320.363 L 659.534,317.454 L 657.76,314.136 L 656.668,310.536 L 656.379,307.597 L 622.939,307.597 L 616.235,314.302 L 616.065,325.569 L 616.877,333.825 L 619.165,341.364 L 622.879,348.313 L 627.877,354.404 L 634.622,360.188 L 635.71,361.815 L 636.844,365.544 L 636.846,367.502 L 635.72,371.234 L 626.112,383.05 L 620.625,393.316 L 617.247,404.455 L 616.057,416.532 L 616.057,453.937 L 617.247,466.013 L 620.625,477.154 L 626.112,487.421 L 633.499,496.42 L 642.498,503.806 L 652.764,509.294 L 663.906,512.674 L 675.981,513.863 L 698.8,514.055 L 702.405,515.549 L 705.164,518.308 L 706.088,520.036 L 706.849,523.863 L 706.849,572.833 L 706.657,574.784 L 705.164,578.389 L 702.405,581.148 L 700.676,582.072 L 696.849,582.833 L 287.481,582.833 L 284.251,582.564 L 273.322,583.64 L 262.814,586.829 L 253.13,592.004 L 244.641,598.97 L 242.08,601.848 L 239.046,603.627 L 237.342,604.089 L 144.978,604.245 L 136.646,605.067 L 129.107,607.353 L 122.156,611.068 L 116.067,616.067 L 111.068,622.156 L 107.353,629.106 L 105.067,636.646 L 104.245,644.979 L 104.245,777.854 L 105.067,786.187 L 107.353,793.727 L 111.068,800.676 L 116.067,806.767 L 122.156,811.765 L 129.106,815.48 L 133.875,816.926 L 135.773,817.722 L 137.467,818.891 L 138.886,820.381 L 139.97,822.13 L 140.673,824.064 L 140.966,826.102 L 140.835,828.156 L 140.286,830.139 L 139.343,831.968 L 128.359,843.254 L 116.655,860.766 L 108.597,880.225 L 104.487,900.885 L 104.487,921.948 L 108.597,942.607 L 116.656,962.067 L 120.87,968.72 L 121.631,972.547 L 121.439,974.498 L 119.946,978.103 L 118.703,979.618 L 75.8567,1022.47 L 73.3789,1024.56 L 69.6599,1028.76 L 67.9483,1029.87 L 66.0465,1030.62 L 64.0337,1030.96 L 61.9938,1030.88 L 60.0119,1030.39 L 58.1704,1029.51 L 56.5461,1028.27 L 55.2067,1026.73 L 54.208,1024.95 L 53.5917,1023.01 L 53.3833,1020.98 L 53.3833,63.3853 L 54.1445,59.5585 L 55.0686,57.8296 L 57.8276,55.0706 L 61.4324,53.5775 L 63.3833,53.3853 L 1759.45,53.3853 L 1761.4,53.5775 L 1765,55.0706 L 1767.76,57.8296 L 1768.69,59.5585 L 1769.45,63.3853 L 1769.45,2159.45 L 1768.69,2163.27 L 1767.76,2165 L 1765,2167.76 L 1761.4,2169.26 L 1759.45,2169.45 L 63.3833,2169.45 L 59.5565,2168.69 L 57.8276,2167.76 L 55.0686,2165 L 54.1445,2163.27 L 53.3833,2159.45 L 53.3833,1401.85 L 53.5918,1399.82 L 54.2084,1397.88 L 55.2075,1396.1 L 56.5474,1394.55 L 58.1723,1393.32 L 60.0145,1392.44 L 61.9971,1391.95 L 64.0374,1391.87 L 66.0505,1392.22 L 67.9525,1392.96 L 69.6639,1394.07 L 73.3804,1398.27 L 75.8544,1400.36 L 521.68,1846.19 L 523.773,1848.66 L 532.263,1855.63 L 541.947,1860.81 L 552.455,1864 L 563.385,1865.07 L 566.615,1864.8 L 726.066,1864.96 L 729.366,1866.18 L 730.804,1867.2 L 733.5,1870.24 L 742.497,1877.62 L 752.765,1883.11 L 763.905,1886.49 L 775.983,1887.68 L 846.849,1887.68 L 858.928,1886.49 L 870.068,1883.11 L 880.335,1877.62 L 889.333,1870.24 L 892.028,1867.2 L 893.467,1866.18 L 896.767,1864.96 L 898.525,1864.8 L 1160.56,1864.97 L 1163.95,1866.26 L 1166.65,1868.68 L 1168.31,1871.9 L 1170.63,1879.52 L 1176.11,1889.78 L 1184.63,1899.97 L 1185.72,1901.6 L 1186.85,1905.33 L 1186.46,1909.21 L 1184.62,1912.65 L 1177.88,1918.43 L 1172.88,1924.52 L 1169.16,1931.47 L 1166.88,1939.01 L 1166.06,1947.27 L 1166.23,1958.53 L 1172.94,1965.24 L 1206.38,1965.24 L 1206.67,1962.3 L 1207.76,1958.7 L 1209.53,1955.38 L 1211.92,1952.47 L 1214.83,1950.08 L 1218.15,1948.31 L 1221.75,1947.22 L 1225.49,1946.85 L 1297.34,1946.85 L 1301.09,1947.22 L 1304.69,1948.31 L 1308.01,1950.08 L 1310.91,1952.47 L 1313.3,1955.38 L 1315.07,1958.7 L 1316.17,1962.3 L 1316.46,1965.24 L 1349.89,1965.24 L 1356.6,1958.53 L 1356.77,1947.27 L 1355.96,1939.01 L 1353.67,1931.47 L 1349.95,1924.52 L 1344.96,1918.43 L 1338.21,1912.65 L 1336.37,1909.21 L 1335.99,1905.33 L 1337.11,1901.6 L 1346.72,1889.78 L 1352.21,1879.52 L 1355.59,1868.38 L 1356.78,1856.3 L 1356.78,1825.22 L 1356.97,1823.27 L 1358.46,1819.66 L 1407.76,1770.09 L 1411,1767.93 L 1414.83,1767.17 L 1464.72,1767.17 L 1468.54,1767.93 L 1471.79,1770.09 L 1478.36,1779.58 L 1489.34,1790.86 L 1490.29,1792.69 L 1490.83,1794.68 L 1490.97,1796.73 L 1490.67,1798.77 L 1489.97,1800.7 L 1488.89,1802.45 L 1487.47,1803.94 L 1485.77,1805.11 L 1483.88,1805.91 L 1479.11,1807.35 L 1472.16,1811.07 L 1466.07,1816.07 L 1461.07,1822.16 L 1457.35,1829.11 L 1455.07,1836.65 L 1454.25,1844.95 L 1454.46,1884.75 L 1461.13,1891.42 L 1494.49,1891.42 L 1494.49,1844.49 L 1628.35,1844.49 L 1628.35,1891.42 L 1661.7,1891.42 L 1668.37,1884.75 L 1668.58,1844.95 L 1667.77,1836.65 L 1665.48,1829.11 L 1661.76,1822.16 L 1656.77,1816.07 L 1650.68,1811.07 L 1643.73,1807.35 L 1638.96,1805.91 L 1637.06,1805.11 L 1635.37,1803.94 L 1633.95,1802.45 L 1632.86,1800.7 L 1632.16,1798.77 L 1631.87,1796.73 L 1632,1794.68 L 1632.55,1792.69 L 1633.49,1790.86 L 1644.47,1779.58 L 1656.18,1762.07 L 1664.24,1742.61 L 1668.35,1721.95 L 1668.35,1700.88 L 1666.28,1689.53 L 1667.04,1685.7 L 1669.21,1682.46 L 1696.98,1654.69 L 1699.45,1652.6 L 1706.42,1644.11 L 1711.6,1634.43 L 1714.78,1623.92 L 1715.86,1612.99 L 1715.59,1609.76 L 1715.59,667.401 L 1715.86,664.172 L 1714.78,653.244 L 1711.6,642.734 L 1706.42,633.05 L 1699.45,624.561 L 1696.98,622.468 L 1628.71,554.2 L 1626.62,551.728 L 1618.13,544.76 L 1608.44,539.583 L 1597.94,536.395 L 1587.01,535.32 L 1583.78,535.589 L 934.725,535.589 L 929.587,535.284 L 927.556,534.838 L 925.661,533.981 L 923.984,532.75 L 922.598,531.199 L 921.563,529.395 L 920.924,527.416 L 920.707,514.945 L 921.348,511.422 L 922.13,509.804 L 924.491,507.112 L 930.335,503.806 L 939.334,496.42 L 946.721,487.42 L 952.208,477.154 L 955.586,466.013 L 956.777,453.935 L 956.777,416.534 L 955.586,404.456 L 952.208,393.317 L 946.721,383.05 L 937.113,371.234 L 936.366,369.423 L 935.988,365.544 L 936.372,363.624 L 938.211,360.188 L 944.956,354.404 L 949.954,348.313 L 953.668,341.364 L 955.956,333.823 L 956.77,325.569 L 956.598,314.302 L 949.893,307.597 L 916.456,307.597M 265.712,2056.42 L 289.205,2068.25 L 316.979,2075.94 L 345.717,2078.06 L 374.321,2074.54 L 401.802,2065.46 L 418.482,2056.55 L 425.032,2042.29 L 342.125,1959.39 L 259.218,2042.29 L 265.712,2056.42M 195.163,1934.69 L 198.684,1963.3 L 207.762,1990.78 L 216.678,2007.46 L 230.934,2014.01 L 313.841,1931.1 L 230.934,1848.19 L 216.802,1854.69 L 204.974,1878.18 L 197.284,1905.95 L 195.163,1934.69M 342.125,1902.82 L 425.032,1819.91 L 418.539,1805.78 L 395.046,1793.95 L 367.272,1786.26 L 338.531,1784.14 L 309.93,1787.66 L 282.448,1796.74 L 265.769,1805.65 L 259.218,1819.91 L 342.125,1902.82M 1494.94,277.557 L 1412.04,194.651 L 1397.9,201.146 L 1386.08,224.637 L 1378.39,252.411 L 1376.26,281.152 L 1379.79,309.753 L 1388.86,337.235 L 1397.78,353.914 L 1412.04,360.464 L 1494.94,277.557M 1523.23,249.273 L 1606.13,166.366 L 1599.64,152.234 L 1576.15,140.406 L 1548.37,132.718 L 1519.64,130.595 L 1491.03,134.12 L 1463.55,143.195 L 1446.87,152.11 L 1440.32,166.366 L 1523.23,249.273M 370.409,1931.1 L 453.317,2014.01 L 467.448,2007.51 L 479.277,1984.02 L 486.965,1956.25 L 489.088,1927.51 L 485.563,1898.91 L 476.488,1871.42 L 467.572,1854.74 L 453.317,1848.19 L 370.409,1931.1M 1523.23,305.842 L 1440.32,388.75 L 1446.81,402.882 L 1470.31,414.709 L 1498.08,422.399 L 1526.82,424.522 L 1555.42,420.997 L 1582.91,411.92 L 1599.58,403.006 L 1606.13,388.75 L 1523.23,305.842M 1551.51,277.557 L 1634.42,360.464 L 1648.55,353.971 L 1660.38,330.478 L 1668.07,302.705 L 1670.19,273.965 L 1666.66,245.362 L 1657.59,217.881 L 1648.67,201.203 L 1634.42,194.651 L 1551.51,277.557M 691.417,249.213 L 691.417,215.853 L 684.745,209.181 L 656.752,208.973 L 648.458,209.791 L 640.917,212.077 L 633.968,215.792 L 627.877,220.791 L 622.879,226.881 L 619.165,233.831 L 616.877,241.369 L 616.065,249.627 L 616.235,260.893 L 622.939,267.597 L 656.379,267.597 L 656.668,264.661 L 657.76,261.061 L 659.534,257.743 L 661.921,254.834 L 664.829,252.447 L 668.147,250.674 L 671.748,249.581 L 675.492,249.213 L 691.417,249.213M 1316.46,2005.24 L 1316.17,2008.17 L 1315.07,2011.77 L 1313.3,2015.09 L 1310.91,2018 L 1308.01,2020.39 L 1304.69,2022.16 L 1301.09,2023.25 L 1297.34,2023.62 L 1281.42,2023.62 L 1281.42,2056.98 L 1288.09,2063.65 L 1316.08,2063.86 L 1324.38,2063.04 L 1331.92,2060.76 L 1338.86,2057.04 L 1344.96,2052.04 L 1349.95,2045.95 L 1353.67,2039 L 1355.96,2031.46 L 1356.77,2023.21 L 1356.6,2011.94 L 1349.89,2005.24 L 1316.46,2005.24M 1241.42,2023.62 L 1225.49,2023.62 L 1221.75,2023.25 L 1218.15,2022.16 L 1214.83,2020.39 L 1211.92,2018 L 1209.53,2015.09 L 1207.76,2011.77 L 1206.67,2008.17 L 1206.38,2005.24 L 1172.94,2005.24 L 1166.23,2011.94 L 1166.06,2023.21 L 1166.88,2031.46 L 1169.16,2039 L 1172.88,2045.95 L 1177.88,2052.04 L 1183.97,2057.04 L 1190.92,2060.76 L 1198.46,2063.04 L 1206.75,2063.86 L 1234.74,2063.65 L 1241.42,2056.98 L 1241.42,2023.62M 1494.49,1931.42 L 1461.13,1931.42 L 1454.46,1938.08 L 1454.25,1977.88 L 1455.07,1986.19 L 1457.35,1993.73 L 1461.07,2000.68 L 1466.07,2006.77 L 1472.16,2011.76 L 1479.11,2015.48 L 1486.65,2017.77 L 1494.95,2018.58 L 1534.75,2018.37 L 1541.42,2011.7 L 1541.42,1978.35 L 1494.49,1978.35 L 1494.49,1931.42M 1628.35,1931.42 L 1628.35,1978.35 L 1581.42,1978.35 L 1581.42,2011.7 L 1588.08,2018.37 L 1627.88,2018.58 L 1636.19,2017.77 L 1643.73,2015.48 L 1650.68,2011.76 L 1656.77,2006.77 L 1661.76,2000.68 L 1665.48,1993.73 L 1667.77,1986.19 L 1668.58,1977.88 L 1668.37,1938.08 L 1661.7,1931.42 L 1628.35,1931.42M 916.456,267.597 L 949.893,267.597 L 956.598,260.892 L 956.77,249.627 L 955.956,241.371 L 953.668,233.831 L 949.954,226.881 L 944.956,220.791 L 938.865,215.792 L 931.916,212.077 L 924.375,209.791 L 916.081,208.973 L 888.09,209.181 L 881.417,215.853 L 881.417,249.213 L 897.343,249.213 L 901.087,249.581 L 904.687,250.674 L 908.006,252.447 L 910.914,254.834 L 913.301,257.743 L 915.074,261.061 L 916.167,264.661 L 916.456,267.597M 806.379,267.597 L 806.668,264.661 L 807.76,261.061 L 809.534,257.743 L 811.921,254.834 L 814.829,252.447 L 818.147,250.674 L 821.748,249.581 L 825.492,249.213 L 841.417,249.213 L 841.417,215.853 L 834.745,209.181 L 806.752,208.973 L 798.457,209.791 L 789.326,212.711 L 785.444,213.096 L 774.375,209.791 L 766.081,208.973 L 738.09,209.181 L 731.417,215.853 L 731.417,249.213 L 747.343,249.213 L 751.087,249.581 L 754.687,250.674 L 758.006,252.447 L 760.914,254.834 L 763.301,257.743 L 765.074,261.061 L 766.167,264.661 L 766.456,267.597 L 806.379,267.597 z " style="fill-opacity:1.000000;fill:rgb(205,186,171);stroke:rgb(0,0,0);stroke-width:2"/></g>
<g fill-rule="evenodd"><path d="M 900.393,1189.76 L 898.425,1189.76 L 898.425,1107.09 L 933.858,1107.09 L 933.858,1189.76 L 931.889,1189.76 L 931.889,1214.74 L 1073.29,1356.3 L 1080.61,1356.3 L 1084.35,1356.67 L 1087.96,1357.76 L 1091.27,1359.53 L 1094.18,1361.92 L 1096.57,1364.83 L 1098.34,1368.15 L 1099.43,1371.75 L 1099.8,1375.49 L 1099.8,1447.34 L 1099.43,1451.09 L 1098.34,1454.69 L 1096.57,1458.01 L 1094.18,1460.91 L 1091.27,1463.3 L 1087.96,1465.07 L 1084.35,1466.17 L 1080.61,1466.54 L 1042.22,1466.54 L 1038.48,1466.17 L 1034.88,1465.07 L 1031.56,1463.3 L 1028.65,1460.91 L 1026.27,1458.01 L 1024.49,1454.69 L 1023.4,1451.09 L 1023.03,1447.34 L 1023.03,1375.49 L 1023.4,1371.75 L 1024.49,1368.15 L 1026.27,1364.83 L 1028.65,1361.92 L 1031.94,1359.33 L 905.006,1232.39 L 903.047,1230.01 L 901.592,1227.29 L 900.696,1224.33 L 900.393,1221.26 L 900.393,1189.76 z " style="fill-opacity:1.000000;fill:rgb(242,251,227);stroke:rgb(0,0,0);stroke-width:2"/></g>
<g fill-rule="evenodd"><path d="M 929.919,670.079 L 933.858,670.079 L 933.858,752.756 L 898.425,752.756 L 898.423,608.661 L 898.726,605.589 L 899.622,602.635 L 901.077,599.912 L 903.036,597.526 L 920.36,580.202 L 922.746,578.243 L 925.469,576.788 L 928.423,575.892 L 931.495,575.589 L 1587.01,575.589 L 1590.08,575.892 L 1593.03,576.788 L 1595.75,578.243 L 1598.14,580.202 L 1670.98,653.036 L 1672.94,655.422 L 1674.39,658.145 L 1675.29,661.099 L 1675.59,664.171 L 1675.59,1612.99 L 1675.29,1616.06 L 1674.39,1619.02 L 1672.94,1621.74 L 1670.98,1624.13 L 1618.3,1676.81 L 1622.56,1684.19 L 1626.88,1697.5 L 1628.35,1711.42 L 1626.88,1725.33 L 1622.56,1738.64 L 1615.56,1750.76 L 1606.2,1761.16 L 1594.88,1769.38 L 1582.1,1775.07 L 1568.41,1777.98 L 1554.42,1777.98 L 1540.74,1775.07 L 1527.95,1769.38 L 1516.63,1761.16 L 1507.27,1750.76 L 1500.27,1738.64 L 1496.55,1727.17 L 1394.12,1727.17 L 1313.39,1807.9 L 1315.07,1811.06 L 1316.17,1814.66 L 1316.54,1818.41 L 1316.54,1856.79 L 1316.17,1860.54 L 1315.07,1864.14 L 1313.3,1867.45 L 1310.91,1870.36 L 1308.01,1872.75 L 1304.69,1874.52 L 1301.09,1875.62 L 1297.34,1875.98 L 1225.49,1875.98 L 1221.75,1875.62 L 1218.15,1874.52 L 1214.83,1872.75 L 1211.92,1870.36 L 1209.53,1867.45 L 1207.76,1864.14 L 1206.67,1860.54 L 1206.3,1856.79 L 1206.3,1824.8 L 866.535,1824.8 L 866.167,1831.99 L 865.074,1835.59 L 863.301,1838.91 L 860.914,1841.82 L 858.006,1844.21 L 854.687,1845.98 L 851.087,1847.07 L 847.343,1847.44 L 775.492,1847.44 L 771.748,1847.07 L 768.147,1845.98 L 764.829,1844.21 L 761.921,1841.82 L 759.534,1838.91 L 757.76,1835.59 L 756.668,1831.99 L 756.299,1824.8 L 563.385,1824.8 L 560.313,1824.5 L 557.359,1823.6 L 554.636,1822.15 L 552.25,1820.19 L 101.856,1369.8 L 99.8973,1367.41 L 98.442,1364.69 L 97.5459,1361.73 L 97.2433,1358.66 L 97.2433,1064.17 L 97.5459,1061.1 L 98.442,1058.14 L 99.8973,1055.42 L 101.856,1053.04 L 153.036,1001.86 L 155.422,999.897 L 158.145,998.442 L 161.099,997.546 L 164.171,997.243 L 258.661,997.243 L 261.734,997.546 L 264.688,998.442 L 267.41,999.897 L 269.797,1001.86 L 320.977,1053.04 L 322.935,1055.42 L 324.391,1058.14 L 325.287,1061.1 L 325.589,1064.17 L 325.589,1160.8 L 402.362,1237.57 L 402.362,1226.77 L 520.472,1226.77 L 520.472,1305.51 L 402.362,1305.51 L 402.362,1280.55 L 399.91,1279.24 L 397.524,1277.28 L 298.706,1178.46 L 296.747,1176.07 L 295.292,1173.35 L 294.396,1170.39 L 294.093,1167.32 L 294.093,1070.69 L 252.138,1028.74 L 170.694,1028.74 L 128.739,1070.69 L 128.739,1352.14 L 569.908,1793.31 L 756.299,1793.31 L 756.668,1786.12 L 757.76,1782.52 L 759.534,1779.2 L 761.921,1776.29 L 764.829,1773.9 L 768.147,1772.13 L 771.748,1771.04 L 775.492,1770.67 L 847.343,1770.67 L 851.087,1771.04 L 854.687,1772.13 L 858.006,1773.9 L 860.914,1776.29 L 863.301,1779.2 L 865.074,1782.52 L 866.167,1786.12 L 866.535,1793.31 L 1232.87,1793.31 L 1235.95,1793.61 L 1238.9,1794.5 L 1241.62,1795.96 L 1245.3,1799.21 L 1277.53,1799.21 L 1376.46,1700.28 L 1378.85,1698.32 L 1381.57,1696.87 L 1384.53,1695.97 L 1387.6,1695.67 L 1496.55,1695.67 L 1500.27,1684.19 L 1507.27,1672.08 L 1516.63,1661.68 L 1527.95,1653.45 L 1540.74,1647.76 L 1554.42,1644.85 L 1568.41,1644.85 L 1582.1,1647.76 L 1594.88,1653.45 L 1596.17,1654.39 L 1644.09,1606.47 L 1644.09,670.695 L 1580.48,607.085 L 938.018,607.085 L 929.919,615.184 L 929.919,670.079 z " style="fill-opacity:1.000000;fill:rgb(70,124,194);stroke:rgb(0,0,0);stroke-width:2"/></g>
<g fill-rule="evenodd"><path d="M 875.394,1395.3 L 853.824,1373.73 L 851.865,1371.35 L 850.41,1368.62 L 849.514,1365.67 L 849.211,1362.6 L 849.211,1189.76 L 847.244,1189.76 L 847.244,1107.09 L 882.677,1107.09 L 882.677,1189.76 L 880.707,1189.76 L 880.707,1356.07 L 884.082,1359.45 L 887.242,1357.76 L 890.842,1356.67 L 894.587,1356.3 L 932.972,1356.3 L 936.717,1356.67 L 940.317,1357.76 L 943.635,1359.53 L 946.544,1361.92 L 948.931,1364.83 L 950.704,1368.15 L 951.797,1371.75 L 952.165,1375.49 L 952.165,1447.34 L 951.797,1451.09 L 950.704,1454.69 L 948.931,1458.01 L 946.544,1460.91 L 943.635,1463.3 L 940.317,1465.07 L 936.717,1466.17 L 932.972,1466.54 L 894.587,1466.54 L 890.842,1466.17 L 887.242,1465.07 L 883.924,1463.3 L 881.015,1460.91 L 878.628,1458.01 L 876.855,1454.69 L 875.762,1451.09 L 875.394,1447.34 L 875.394,1395.3 z " style="fill-opacity:1.000000;fill:rgb(84,248,27);stroke:rgb(0,0,0);stroke-width:2"/></g>
<g fill-rule="evenodd"><path d="M 642.52,695.669 L 642.52,670.079 L 677.953,670.079 L 677.953,752.756 L 642.52,752.756 L 642.52,727.165 L 417.94,727.165 L 268.296,876.81 L 272.56,884.195 L 276.884,897.502 L 278.346,911.417 L 276.884,925.333 L 272.56,938.64 L 265.564,950.757 L 256.202,961.155 L 244.882,969.38 L 232.1,975.071 L 218.413,977.98 L 204.421,977.98 L 190.735,975.071 L 177.953,969.38 L 166.633,961.155 L 157.271,950.757 L 150.275,938.64 L 145.951,925.333 L 144.488,911.417 L 145.951,897.502 L 150.275,884.195 L 157.271,872.077 L 166.633,861.679 L 177.953,853.455 L 190.735,847.764 L 204.421,844.855 L 218.413,844.855 L 232.1,847.764 L 244.882,853.455 L 246.172,854.392 L 400.282,700.282 L 402.668,698.323 L 405.391,696.868 L 408.345,695.972 L 411.417,695.669 L 642.52,695.669 z " style="fill-opacity:1.000000;fill:rgb(232,231,141);stroke:rgb(0,0,0);stroke-width:2"/></g>
<g fill-rule="evenodd"><path d="M 880.707,670.079 L 882.677,670.079 L 882.677,752.756 L 847.244,752.756 L 847.244,670.079 L 849.211,670.079 L 849.211,473.622 L 825.492,473.622 L 821.748,473.253 L 818.147,472.161 L 814.829,470.387 L 811.921,468.001 L 809.534,465.092 L 807.76,461.774 L 806.668,458.173 L 806.299,454.429 L 806.299,416.043 L 806.668,412.299 L 807.76,408.698 L 809.534,405.38 L 811.921,402.472 L 814.829,400.085 L 818.147,398.311 L 821.748,397.219 L 825.492,396.85 L 897.343,396.85 L 901.087,397.219 L 904.687,398.311 L 908.006,400.085 L 910.914,402.472 L 913.301,405.38 L 915.074,408.698 L 916.167,412.299 L 916.535,416.043 L 916.535,454.429 L 916.167,458.173 L 915.074,461.774 L 913.301,465.092 L 910.914,468.001 L 908.006,470.387 L 904.687,472.161 L 901.087,473.253 L 897.343,473.622 L 880.707,473.622 L 880.707,670.079 z " style="fill-opacity:1.000000;fill:rgb(118,90,46);stroke:rgb(0,0,0);stroke-width:2"/></g>
<g fill-rule="evenodd"><path d="M 778.345,670.079 L 780.315,670.079 L 780.315,752.756 L 744.882,752.756 L 744.882,670.079 L 746.849,670.079 L 746.849,492.94 L 727.532,473.622 L 675.492,473.622 L 671.748,473.253 L 668.147,472.161 L 664.829,470.387 L 661.921,468.001 L 659.534,465.092 L 657.76,461.774 L 656.668,458.173 L 656.299,454.429 L 656.299,416.043 L 656.668,412.299 L 657.76,408.698 L 659.534,405.38 L 661.921,402.472 L 664.829,400.085 L 668.147,398.311 L 671.748,397.219 L 675.492,396.85 L 747.343,396.85 L 751.087,397.219 L 754.687,398.311 L 758.006,400.085 L 760.914,402.472 L 763.301,405.38 L 765.074,408.698 L 766.167,412.299 L 766.535,416.043 L 766.535,454.429 L 766.167,458.173 L 765.074,461.774 L 763.385,464.934 L 773.733,475.282 L 775.691,477.668 L 777.147,480.391 L 778.043,483.345 L 778.345,486.417 L 778.345,670.079 z " style="fill-opacity:1.000000;fill:rgb(99,51,159);stroke:rgb(0,0,0);stroke-width:2"/></g>
<g fill-rule="evenodd"><path d="M 695.669,670.079 L 695.669,654.329 L 290.775,654.329 L 278.346,666.758 L 278.346,778.346 L 144.488,778.346 L 144.488,644.488 L 256.074,644.488 L 273.116,627.446 L 275.502,625.487 L 278.225,624.032 L 281.179,623.136 L 284.251,622.833 L 703.149,622.833 L 706.222,623.136 L 709.176,624.032 L 711.898,625.487 L 714.285,627.446 L 722.553,635.714 L 724.511,638.1 L 725.967,640.823 L 726.863,643.777 L 727.165,646.849 L 727.165,670.079 L 729.134,670.079 L 729.134,752.756 L 693.701,752.756 L 693.701,670.079 L 695.669,670.079 z " style="fill-opacity:1.000000;fill:rgb(201,154,102);stroke:rgb(0,0,0);stroke-width:2"/></g>
<g fill-rule="evenodd"><path d="M 1036.22,1108.44 L 1044.38,1100.28 L 1046.76,1098.32 L 1049.49,1096.87 L 1052.44,1095.97 L 1055.51,1095.67 L 1074.56,1095.67 L 1073.64,1092.41 L 1070.05,1085.39 L 1065.17,1079.2 L 1059.18,1074.09 L 1052.3,1070.25 L 1044.83,1067.83 L 1042.39,1067.56 L 1033.95,1075.69 L 1031.59,1076.81 L 1027.98,1077.29 L 1025.41,1076.81 L 1023.5,1075.96 L 1021.81,1074.73 L 1019.59,1071.84 L 1018.72,1069.38 L 1018.61,1057.59 L 1019.74,1053.51 L 1020.56,1045.18 L 1020.56,814.662 L 1019.74,806.335 L 1019.21,803.876 L 1019.24,801.806 L 1019.7,799.788 L 1020.57,797.907 L 1021.8,796.244 L 1023.35,794.87 L 1025.14,793.845 L 1027.11,793.212 L 1029.17,792.997 L 1035.73,792.997 L 1044.06,792.176 L 1051.6,789.89 L 1058.55,786.175 L 1064.64,781.176 L 1069.64,775.083 L 1072.04,770.946 L 1073.28,769.645 L 1076.35,767.806 L 1079.87,767.165 L 1336.13,767.357 L 1339.74,768.851 L 1341.25,770.094 L 1453.62,882.46 L 1455.79,885.704 L 1456.55,889.531 L 1454.49,900.884 L 1454.49,921.948 L 1458.6,942.606 L 1466.66,962.067 L 1478.36,979.579 L 1489.34,990.864 L 1490.29,992.694 L 1490.83,994.677 L 1490.97,996.731 L 1490.67,998.768 L 1489.97,1000.7 L 1488.89,1002.45 L 1487.47,1003.94 L 1485.77,1005.11 L 1483.88,1005.91 L 1479.11,1007.35 L 1472.16,1011.07 L 1466.07,1016.07 L 1461.07,1022.16 L 1457.35,1029.11 L 1455.07,1036.65 L 1454.25,1044.98 L 1454.25,1135.61 L 1453.48,1139.43 L 1451.32,1142.68 L 1391.25,1202.74 L 1388.01,1204.91 L 1384.18,1205.67 L 1085.91,1205.67 L 1083.86,1205.46 L 1081.9,1204.83 L 1080.11,1203.81 L 1078.56,1202.45 L 1077.33,1200.8 L 1076.46,1198.94 L 1075.99,1196.93 L 1075.94,1194.87 L 1076.45,1188.48 L 1076.27,1175.12 L 1069.58,1168.42 L 1036.22,1168.42 L 1036.22,1189.76 L 1000.79,1189.76 L 1000.79,1107.09 L 1036.22,1107.09 L 1036.22,1108.44M 1070.84,1127.17 L 1062.03,1127.17 L 1060.78,1128.42 L 1069.58,1128.42 L 1070.84,1127.17 z " style="fill-opacity:1.000000;fill:rgb(50,13,183);stroke:rgb(0,0,0);stroke-width:2"/></g>
<g fill-rule="evenodd"><path d="M 951.573,1189.76 L 949.606,1189.76 L 949.606,1107.09 L 985.039,1107.09 L 985.039,1189.76 L 983.07,1189.76 L 983.069,1199.1 L 1029.64,1245.67 L 1404.89,1245.67 L 1494.49,1156.08 L 1494.49,1044.49 L 1628.35,1044.49 L 1628.35,1178.35 L 1516.76,1178.35 L 1422.55,1272.55 L 1420.17,1274.51 L 1417.44,1275.97 L 1414.49,1276.86 L 1411.42,1277.17 L 1023.11,1277.17 L 1020.04,1276.86 L 1017.09,1275.97 L 1014.36,1274.51 L 1011.98,1272.55 L 956.186,1216.76 L 954.227,1214.37 L 952.772,1211.65 L 951.876,1208.7 L 951.573,1205.63 L 951.573,1189.76 z " style="fill-opacity:1.000000;fill:rgb(49,88,163);stroke:rgb(0,0,0);stroke-width:2"/></g>
<g fill-rule="evenodd"><path d="M 1036.22,727.165 L 1036.22,752.756 L 1000.79,752.756 L 1000.79,670.079 L 1036.22,670.079 L 1036.22,695.669 L 1361.42,695.669 L 1364.49,695.972 L 1367.44,696.868 L 1370.17,698.323 L 1372.55,700.282 L 1526.66,854.392 L 1527.95,853.455 L 1540.74,847.764 L 1554.42,844.855 L 1568.41,844.855 L 1582.1,847.764 L 1594.88,853.455 L 1606.2,861.679 L 1615.56,872.077 L 1622.56,884.195 L 1626.88,897.502 L 1628.35,911.417 L 1626.88,925.333 L 1622.56,938.64 L 1615.56,950.757 L 1606.2,961.155 L 1594.88,969.38 L 1582.1,975.071 L 1568.41,977.98 L 1554.42,977.98 L 1540.74,975.071 L 1527.95,969.38 L 1516.63,961.155 L 1507.27,950.757 L 1500.27,938.64 L 1495.95,925.333 L 1494.49,911.417 L 1495.95,897.502 L 1500.27,884.195 L 1504.54,876.809 L 1354.89,727.165 L 1036.22,727.165 z " style="fill-opacity:1.000000;fill:rgb(90,37,93);stroke:rgb(0,0,0);stroke-width:2"/></g>
<g fill-rule="evenodd"><path d="M 983.07,670.079 L 985.039,670.079 L 985.039,752.756 L 949.606,752.756 L 949.606,670.079 L 951.573,670.079 L 951.573,646.849 L 951.876,643.777 L 952.772,640.823 L 954.227,638.1 L 956.186,635.714 L 964.454,627.446 L 966.84,625.487 L 969.563,624.032 L 972.517,623.136 L 975.589,622.833 L 1488.58,622.833 L 1491.65,623.136 L 1494.61,624.032 L 1497.33,625.487 L 1499.72,627.446 L 1526.66,654.392 L 1527.95,653.455 L 1540.74,647.764 L 1554.42,644.855 L 1568.41,644.855 L 1582.1,647.764 L 1594.88,653.455 L 1606.2,661.679 L 1615.56,672.077 L 1622.56,684.195 L 1626.88,697.502 L 1628.35,711.417 L 1626.88,725.333 L 1622.56,738.64 L 1615.56,750.757 L 1606.2,761.155 L 1594.88,769.38 L 1582.1,775.071 L 1568.41,777.98 L 1554.42,777.98 L 1540.74,775.071 L 1527.95,769.38 L 1516.63,761.155 L 1507.27,750.757 L 1500.27,738.64 L 1495.95,725.333 L 1494.49,711.417 L 1495.95,697.502 L 1500.27,684.195 L 1504.54,676.81 L 1482.06,654.329 L 983.069,654.329 L 983.07,670.079 z " style="fill-opacity:1.000000;fill:rgb(5,23,88);stroke:rgb(0,0,0);stroke-width:2"/></g>
<g fill-rule="evenodd"><path d="M 642.52,1132.68 L 642.52,1107.09 L 677.953,1107.09 L 677.953,1189.76 L 642.52,1189.76 L 642.52,1164.17 L 520.472,1164.17 L 520.472,1203.15 L 402.362,1203.15 L 402.362,1124.41 L 520.472,1124.41 L 520.472,1132.68 L 642.52,1132.68 z " style="fill-opacity:1.000000;fill:rgb(233,94,212);stroke:rgb(0,0,0);stroke-width:2"/></g>
<g fill-rule="evenodd"><path d="M 695.669,1189.76 L 693.701,1189.76 L 693.701,1107.09 L 729.134,1107.09 L 729.134,1189.76 L 727.165,1189.76 L 727.165,1411.42 L 726.863,1414.49 L 725.967,1417.44 L 724.511,1420.17 L 722.553,1422.55 L 672.553,1472.55 L 670.166,1474.51 L 667.444,1475.97 L 664.49,1476.86 L 661.417,1477.17 L 361.417,1477.17 L 358.345,1476.86 L 355.391,1475.97 L 352.668,1474.51 L 350.282,1472.55 L 348.323,1470.17 L 346.868,1467.44 L 345.972,1464.49 L 345.669,1461.42 L 345.669,1327.78 L 200.282,1182.39 L 198.323,1180.01 L 196.572,1176.31 L 190.735,1175.07 L 177.953,1169.38 L 166.633,1161.16 L 157.271,1150.76 L 150.275,1138.64 L 145.951,1125.33 L 144.488,1111.42 L 145.951,1097.5 L 150.275,1084.19 L 157.271,1072.08 L 166.633,1061.68 L 177.953,1053.45 L 190.735,1047.76 L 204.421,1044.85 L 218.413,1044.85 L 232.1,1047.76 L 244.882,1053.45 L 256.202,1061.68 L 265.564,1072.08 L 272.56,1084.19 L 276.884,1097.5 L 278.346,1111.42 L 276.884,1125.33 L 272.56,1138.64 L 265.564,1150.76 L 256.202,1161.16 L 244.882,1169.38 L 235.836,1173.41 L 372.553,1310.12 L 374.511,1312.51 L 375.967,1315.23 L 376.863,1318.19 L 377.165,1321.26 L 377.165,1445.67 L 654.894,1445.67 L 695.669,1404.89 L 695.669,1189.76 z " style="fill-opacity:1.000000;fill:rgb(171,178,205);stroke:rgb(0,0,0);stroke-width:2"/></g>
<g fill-rule="evenodd"><path d="M 746.849,1189.76 L 744.882,1189.76 L 744.882,1107.09 L 780.315,1107.09 L 780.315,1189.76 L 778.345,1189.76 L 778.345,1427.05 L 778.043,1430.12 L 777.147,1433.08 L 775.691,1435.8 L 773.733,1438.18 L 692.121,1519.8 L 689.734,1521.76 L 687.012,1523.21 L 684.058,1524.11 L 680.985,1524.41 L 341.847,1524.41 L 338.775,1524.11 L 335.821,1523.21 L 333.098,1521.76 L 330.712,1519.8 L 200.282,1389.37 L 198.323,1386.98 L 196.868,1384.26 L 195.972,1381.3 L 195.669,1376.12 L 190.735,1375.07 L 177.953,1369.38 L 166.633,1361.16 L 157.271,1350.76 L 150.275,1338.64 L 145.951,1325.33 L 144.488,1311.42 L 145.951,1297.5 L 150.275,1284.19 L 157.271,1272.08 L 166.633,1261.68 L 177.953,1253.45 L 190.735,1247.76 L 204.421,1244.85 L 218.413,1244.85 L 232.1,1247.76 L 244.882,1253.45 L 256.202,1261.68 L 265.564,1272.08 L 272.56,1284.19 L 276.884,1297.5 L 278.346,1311.42 L 276.884,1325.33 L 272.56,1338.64 L 265.564,1350.76 L 256.202,1361.16 L 244.882,1369.38 L 232.1,1375.07 L 230.803,1375.35 L 348.37,1492.91 L 674.462,1492.91 L 746.849,1420.53 L 746.849,1189.76 z " style="fill-opacity:1.000000;fill:rgb(198,155,180);stroke:rgb(0,0,0);stroke-width:2"/></g>
<g fill-rule="evenodd"><path d="M 798.031,1189.76 L 796.063,1189.76 L 796.063,1107.09 L 831.496,1107.09 L 831.496,1189.76 L 829.527,1189.76 L 829.527,1623.03 L 847.343,1623.03 L 851.087,1623.4 L 854.687,1624.49 L 858.006,1626.27 L 860.914,1628.65 L 863.301,1631.56 L 865.074,1634.88 L 866.167,1638.48 L 866.535,1642.22 L 866.535,1680.61 L 866.167,1684.35 L 865.074,1687.96 L 863.301,1691.27 L 860.914,1694.18 L 858.006,1696.57 L 854.687,1698.34 L 851.087,1699.43 L 847.343,1699.8 L 775.492,1699.8 L 771.748,1699.43 L 768.147,1698.34 L 764.829,1696.57 L 761.921,1694.18 L 759.534,1691.27 L 757.76,1687.96 L 756.668,1684.35 L 756.299,1680.61 L 756.299,1642.22 L 756.668,1638.48 L 757.76,1634.88 L 759.534,1631.56 L 761.921,1628.65 L 764.829,1626.27 L 768.147,1624.49 L 771.748,1623.4 L 775.492,1623.03 L 798.031,1623.03 L 798.031,1189.76 z " style="fill-opacity:1.000000;fill:rgb(84,17,14);stroke:rgb(0,0,0);stroke-width:2"/></g>
</svg>
