<?xml version="1.0" standalone="no"?>
<!DOCTYPE svg PUBLIC "-//W3C//DTD SVG 1.1//EN"
"http://www.w3.org/Graphics/SVG/1.1/DTD/svg11.dtd">
<svg width="87.4961" height="106.696" viewBox="0 0 1822.83 2222.83" version="1.1"
xmlns="http://www.w3.org/2000/svg"
xmlns:xlink="http://www.w3.org/1999/xlink">
<g fill-rule="evenodd"><path d="M 0,2222.83 L 0,0 L 1822.83,0 L 1822.83,2222.83 L 0,2222.83 z " style="fill-opacity:0.200000;fill:rgb(103,198,105);"/></g>
<polyline points="6.69132,2211.42 6.69132,11.4173 6.78332,10.4953 7.05132,9.60932 7.48732,8.79132 8.07532,8.07532 8.79132,7.48732 9.60932,7.05132 10.4953,6.78332 11.4173,6.69132 1811.42,6.69132 1812.34,6.78332 1813.22,7.05132 1814.04,7.48732 1814.76,8.07532 1815.35,8.79132 1815.78,9.60932 1816.05,10.4953 1816.14,11.4173 1816.14,2211.42 1816.05,2212.34 1815.78,2213.22 1815.35,2214.04 1814.76,2214.76 1814.04,2215.35 1813.22,2215.78 1812.34,2216.05 1811.42,2216.14 11.4173,2216.14 10.4953,2216.05 9.60932,2215.78 8.79132,2215.35 8.07532,2214.76 7.48732,2214.04 7.05132,2213.22 6.78332,2212.34 6.69132,2211.42" style="stroke:rgb(103,198,105);stroke-width:9.448819;fill:none;stroke-opacity:0.5;stroke-linecap:round;stroke-linejoin:round;;fill:none"/>
<polyline points="6.69132,2211.42 6.69132,11.4173 6.78332,10.4953 7.05132,9.60932 7.48732,8.79132 8.07532,8.07532 8.79132,7.48732 9.60932,7.05132 10.4953,6.78332 11.4173,6.69132 1811.42,6.69132 1812.34,6.78332 1813.22,7.05132 1814.04,7.48732 1814.76,8.07532 1815.35,8.79132 1815.78,9.60932 1816.05,10.4953 1816.14,11.4173 1816.14,2211.42 1816.05,2212.34 1815.78,2213.22 1815.35,2214.04 1814.76,2214.76 1814.04,2215.35 1813.22,2215.78 1812.34,2216.05 1811.42,2216.14 11.4173,2216.14 10.4953,2216.05 9.60932,2215.78 8.79132,2215.35 8.07532,2214.76 7.48732,2214.04 7.05132,2213.22 6.78332,2212.34 6.69132,2211.42" style="stroke:rgb(0,0,0);stroke-width:1px;fill:none;stroke-opacity:1;stroke-linecap:round;stroke-linejoin:round;;fill:none"/>
<g fill-rule="evenodd"><path d="M 11.4173,2211.42 L 11.4173,11.4173 L 1811.42,11.4173 L 1811.42,2211.42 L 11.4173,2211.42 z " style="fill-opacity:1.000000;fill:rgb(103,198,105);stroke:rgb(0,0,0);stroke-width:2"/></g>
</svg>
