<?xml version="1.0" standalone="no"?>
<!DOCTYPE svg PUBLIC "-//W3C//DTD SVG 1.1//EN"
"http://www.w3.org/Graphics/SVG/1.1/DTD/svg11.dtd">
<svg width="87.4961" height="106.696" viewBox="0 0 1822.83 2222.83" version="1.1"
xmlns="http://www.w3.org/2000/svg"
xmlns:xlink="http://www.w3.org/1999/xlink">
<polyline points="791.337,752.755 791.697,668.269 793.437,666.149 796.061,665.353 833.303,665.713 835.423,667.453 836.219,670.077 835.859,754.563 834.119,756.683 831.495,757.479 796.061,757.479 792.721,756.095 791.337,752.755" style="stroke:rgb(103,198,105);stroke-width:9.448819;fill:none;stroke-opacity:0.5;stroke-linecap:round;stroke-linejoin:round;;fill:none"/>
<polyline points="791.337,752.755 791.697,668.269 793.437,666.149 796.061,665.353 833.303,665.713 835.423,667.453 836.219,670.077 835.859,754.563 834.119,756.683 831.495,757.479 796.061,757.479 792.721,756.095 791.337,752.755" style="stroke:rgb(0,0,0);stroke-width:1px;fill:none;stroke-opacity:1;stroke-linecap:round;stroke-linejoin:round;;fill:none"/>
<polyline points="693.699,1045.67 693.699,814.171 695.799,810.243 698.423,809.447 980.313,809.447 984.241,811.547 985.039,814.171 985.039,1045.67 982.939,1049.6 980.313,1050.39 698.423,1050.39 695.083,1049.01 693.699,1045.67" style="stroke:rgb(115,81,255);stroke-width:9.448819;fill:none;stroke-opacity:0.5;stroke-linecap:round;stroke-linejoin:round;;fill:none"/>
<polyline points="693.699,1045.67 693.699,814.171 695.799,810.243 698.423,809.447 980.313,809.447 984.241,811.547 985.039,814.171 985.039,1045.67 982.939,1049.6 980.313,1050.39 698.423,1050.39 695.083,1049.01 693.699,1045.67" style="stroke:rgb(0,0,0);stroke-width:1px;fill:none;stroke-opacity:1;stroke-linecap:round;stroke-linejoin:round;;fill:none"/>
<polyline points="296.665,974.497 297.025,968.787 309.691,941.227 313.619,921.481 313.619,901.309 311.557,889.491 313.115,883.079 315.871,879.119 431.285,764.485 436.697,762.631 601.295,762.645 608.415,765.957 617.453,777.819 622.825,782.227 635.601,787.519 655.039,789.345 658.527,791.335 662.465,795.935 664.249,803.801 662.905,814.893 662.905,1044.94 664.101,1059.08 660.735,1066.41 655.933,1070.1 652.413,1071.29 635.601,1072.32 622.825,1077.61 617.453,1082.02 610.485,1091.72 606.255,1095.41 600.655,1097.24 566.585,1097.16 559.535,1093.68 551.871,1086.14 525.195,1086.14 525.105,1101.71 523.811,1104.13 521.393,1105.42 400.553,1105.15 398.433,1103.41 397.637,1100.79 397.997,1020.24 399.737,1018.12 402.361,1017.32 436.691,1017.32 436.691,990.643 432.777,986.729 403.035,986.533 388.795,989.297 382.665,992.573 372.887,1002.35 369.611,1008.48 366.771,1019.09 363.681,1024.23 358.797,1027.71 350.885,1028.81 342.477,1024.65 300.787,982.957 296.665,974.497" style="stroke:rgb(74,236,41);stroke-width:9.448819;fill:none;stroke-opacity:0.5;stroke-linecap:round;stroke-linejoin:round;;fill:none"/>
<polyline points="296.665,974.497 297.025,968.787 309.691,941.227 313.619,921.481 313.619,901.309 311.557,889.491 313.115,883.079 315.871,879.119 431.285,764.485 436.697,762.631 601.295,762.645 608.415,765.957 617.453,777.819 622.825,782.227 635.601,787.519 655.039,789.345 658.527,791.335 662.465,795.935 664.249,803.801 662.905,814.893 662.905,1044.94 664.101,1059.08 660.735,1066.41 655.933,1070.1 652.413,1071.29 635.601,1072.32 622.825,1077.61 617.453,1082.02 610.485,1091.72 606.255,1095.41 600.655,1097.24 566.585,1097.16 559.535,1093.68 551.871,1086.14 525.195,1086.14 525.105,1101.71 523.811,1104.13 521.393,1105.42 400.553,1105.15 398.433,1103.41 397.637,1100.79 397.997,1020.24 399.737,1018.12 402.361,1017.32 436.691,1017.32 436.691,990.643 432.777,986.729 403.035,986.533 388.795,989.297 382.665,992.573 372.887,1002.35 369.611,1008.48 366.771,1019.09 363.681,1024.23 358.797,1027.71 350.885,1028.81 342.477,1024.65 300.787,982.957 296.665,974.497" style="stroke:rgb(0,0,0);stroke-width:1px;fill:none;stroke-opacity:1;stroke-linecap:round;stroke-linejoin:round;;fill:none"/>
<polyline points="486.141,1017.32 486.141,990.643 490.055,986.729 527.385,987.279 540.165,992.573 549.943,1002.35 555.235,1015.13 555.833,1032.73 551.871,1036.69 525.195,1036.69 525.105,1021.13 522.279,1017.68 486.141,1017.32" style="stroke:rgb(74,236,41);stroke-width:9.448819;fill:none;stroke-opacity:0.5;stroke-linecap:round;stroke-linejoin:round;;fill:none"/>
<polyline points="486.141,1017.32 486.141,990.643 490.055,986.729 527.385,987.279 540.165,992.573 549.943,1002.35 555.235,1015.13 555.833,1032.73 551.871,1036.69 525.195,1036.69 525.105,1021.13 522.279,1017.68 486.141,1017.32" style="stroke:rgb(0,0,0);stroke-width:1px;fill:none;stroke-opacity:1;stroke-linecap:round;stroke-linejoin:round;;fill:none"/>
<polyline points="48.6573,2159.45 48.6573,1401.85 51.6413,1392.99 58.8853,1387.85 66.8373,1387.56 72.7473,1390.49 527.101,1845.28 534.899,1851.68 543.763,1856.42 553.379,1859.34 563.419,1860.33 726.899,1860.31 732.105,1862.33 745.133,1873.68 754.581,1878.73 764.831,1881.84 776.215,1882.96 846.615,1882.96 857.999,1881.84 868.249,1878.73 877.695,1873.68 890.725,1862.33 898.107,1860.1 1161.42,1860.32 1166.4,1862.23 1170.39,1865.78 1180.05,1887.13 1189.65,1898.98 1191.55,1904.87 1190.98,1910.58 1188.79,1914.87 1176.83,1927.16 1171.53,1939.93 1170.93,1956.54 1174.9,1960.51 1202.27,1960.51 1205.88,1952.38 1211.83,1946.43 1216.78,1943.79 1225.49,1942.13 1301.55,1942.52 1306.91,1944.14 1313.91,1948.82 1317.47,1953.15 1320.56,1960.51 1347.94,1960.51 1351.9,1956.54 1351.3,1939.93 1346.01,1927.16 1334.04,1914.87 1331.85,1910.58 1331.28,1904.87 1332.94,1899.38 1342.77,1887.15 1347.82,1877.7 1350.93,1867.45 1352.6,1821.46 1355.11,1816.33 1404.41,1766.76 1409.2,1763.56 1413.91,1762.53 1464.72,1762.44 1470.35,1763.56 1475.1,1766.72 1482.02,1776.57 1494.48,1790.53 1495.64,1797.4 1492.31,1805.71 1487.6,1809.47 1474.79,1815.01 1469.42,1819.42 1461.74,1830.92 1458.97,1845.17 1459.18,1882.78 1463.09,1886.69 1489.76,1886.69 1489.85,1843.57 1491.86,1840.56 1494.49,1839.76 1629.27,1839.85 1632.27,1841.86 1633.07,1844.49 1633.07,1886.69 1659.75,1886.69 1663.65,1882.78 1663.86,1845.17 1661.09,1830.92 1653.41,1819.42 1648.04,1815.01 1635.23,1809.47 1630.52,1805.71 1627.72,1800.38 1627.44,1793.42 1629.66,1788.1 1640.79,1776.59 1651.99,1759.83 1659.69,1741.23 1663.62,1721.48 1663.62,1701.31 1661.56,1689.49 1662.68,1683.9 1665.87,1679.12 1696.07,1649.27 1702.47,1641.48 1707.21,1632.61 1710.13,1622.99 1711.11,1612.96 1711.11,664.207 1710.13,654.167 1707.21,644.549 1702.47,635.687 1696.07,627.889 1623.29,555.107 1615.49,548.705 1606.63,543.967 1597.01,541.049 1586.97,540.063 934.725,540.313 926.541,539.451 921.187,536.557 917.067,530.847 915.983,515.025 916.855,509.957 920.939,503.995 935.977,493.061 942.771,484.781 947.821,475.337 950.929,465.085 952.051,453.703 952.051,416.763 950.929,405.381 947.821,395.133 942.767,385.677 933.051,373.649 931.285,366.001 934.525,357.227 941.565,351.085 949.281,339.547 951.299,332.895 951.903,316.287 947.935,312.321 920.561,312.321 916.951,320.451 911.001,326.401 906.057,329.043 897.341,330.707 821.283,330.315 815.919,328.689 808.923,324.013 805.365,319.681 802.271,312.321 770.561,312.321 767.467,319.681 763.909,324.013 756.913,328.689 751.549,330.315 675.027,330.685 666.775,329.043 661.831,326.401 655.881,320.451 652.271,312.321 624.895,312.321 620.929,316.287 621.531,332.897 626.825,345.675 639.637,359.187 641.569,367.497 639.891,373.447 630.063,385.677 625.009,395.131 621.901,405.379 620.781,416.763 620.781,453.703 621.901,465.085 625.009,475.337 630.059,484.783 636.853,493.061 645.135,499.859 654.579,504.907 664.831,508.017 699.741,509.425 705.029,511.619 708.957,515.491 711.573,523.863 711.573,572.833 709.091,581.013 704.631,585.313 696.849,587.557 284.285,587.307 274.247,588.295 264.629,591.213 255.765,595.951 244.469,605.921 237.969,608.771 145.211,608.969 137.571,609.721 124.793,615.013 115.013,624.793 111.737,630.921 108.969,645.209 109.721,785.261 115.013,798.037 119.423,803.409 124.793,807.817 140.887,815.631 144.409,820.515 145.679,826.401 143.175,834.727 132.045,846.237 120.841,863.003 113.139,881.603 109.211,901.347 109.211,921.483 113.139,941.227 120.863,959.883 125.255,966.965 126.139,974.959 122.043,982.957 72.7413,1032.34 66.8333,1035.27 58.8813,1034.98 51.6413,1029.83 48.6573,1020.98 48.6573,63.3853 51.2733,55.0133 56.0193,50.7053 63.3833,48.6593 1759.45,48.6593 1767.63,51.1413 1771.93,55.6013 1774.17,63.3853 1774.17,2159.45 1771.56,2167.82 1766.81,2172.13 1759.45,2174.17 63.3833,2174.17 54.4853,2171.1 49.9773,2165.5 48.6573,2159.45" style="stroke:rgb(205,186,171);stroke-width:9.448819;fill:none;stroke-opacity:0.5;stroke-linecap:round;stroke-linejoin:round;;fill:none"/>
<polyline points="48.6573,2159.45 48.6573,1401.85 51.6413,1392.99 58.8853,1387.85 66.8373,1387.56 72.7473,1390.49 527.101,1845.28 534.899,1851.68 543.763,1856.42 553.379,1859.34 563.419,1860.33 726.899,1860.31 732.105,1862.33 745.133,1873.68 754.581,1878.73 764.831,1881.84 776.215,1882.96 846.615,1882.96 857.999,1881.84 868.249,1878.73 877.695,1873.68 890.725,1862.33 898.107,1860.1 1161.42,1860.32 1166.4,1862.23 1170.39,1865.78 1180.05,1887.13 1189.65,1898.98 1191.55,1904.87 1190.98,1910.58 1188.79,1914.87 1176.83,1927.16 1171.53,1939.93 1170.93,1956.54 1174.9,1960.51 1202.27,1960.51 1205.88,1952.38 1211.83,1946.43 1216.78,1943.79 1225.49,1942.13 1301.55,1942.52 1306.91,1944.14 1313.91,1948.82 1317.47,1953.15 1320.56,1960.51 1347.94,1960.51 1351.9,1956.54 1351.3,1939.93 1346.01,1927.16 1334.04,1914.87 1331.85,1910.58 1331.28,1904.87 1332.94,1899.38 1342.77,1887.15 1347.82,1877.7 1350.93,1867.45 1352.6,1821.46 1355.11,1816.33 1404.41,1766.76 1409.2,1763.56 1413.91,1762.53 1464.72,1762.44 1470.35,1763.56 1475.1,1766.72 1482.02,1776.57 1494.48,1790.53 1495.64,1797.4 1492.31,1805.71 1487.6,1809.47 1474.79,1815.01 1469.42,1819.42 1461.74,1830.92 1458.97,1845.17 1459.18,1882.78 1463.09,1886.69 1489.76,1886.69 1489.85,1843.57 1491.86,1840.56 1494.49,1839.76 1629.27,1839.85 1632.27,1841.86 1633.07,1844.49 1633.07,1886.69 1659.75,1886.69 1663.65,1882.78 1663.86,1845.17 1661.09,1830.92 1653.41,1819.42 1648.04,1815.01 1635.23,1809.47 1630.52,1805.71 1627.72,1800.38 1627.44,1793.42 1629.66,1788.1 1640.79,1776.59 1651.99,1759.83 1659.69,1741.23 1663.62,1721.48 1663.62,1701.31 1661.56,1689.49 1662.68,1683.9 1665.87,1679.12 1696.07,1649.27 1702.47,1641.48 1707.21,1632.61 1710.13,1622.99 1711.11,1612.96 1711.11,664.207 1710.13,654.167 1707.21,644.549 1702.47,635.687 1696.07,627.889 1623.29,555.107 1615.49,548.705 1606.63,543.967 1597.01,541.049 1586.97,540.063 934.725,540.313 926.541,539.451 921.187,536.557 917.067,530.847 915.983,515.025 916.855,509.957 920.939,503.995 935.977,493.061 942.771,484.781 947.821,475.337 950.929,465.085 952.051,453.703 952.051,416.763 950.929,405.381 947.821,395.133 942.767,385.677 933.051,373.649 931.285,366.001 934.525,357.227 941.565,351.085 949.281,339.547 951.299,332.895 951.903,316.287 947.935,312.321 920.561,312.321 916.951,320.451 911.001,326.401 906.057,329.043 897.341,330.707 821.283,330.315 815.919,328.689 808.923,324.013 805.365,319.681 802.271,312.321 770.561,312.321 767.467,319.681 763.909,324.013 756.913,328.689 751.549,330.315 675.027,330.685 666.775,329.043 661.831,326.401 655.881,320.451 652.271,312.321 624.895,312.321 620.929,316.287 621.531,332.897 626.825,345.675 639.637,359.187 641.569,367.497 639.891,373.447 630.063,385.677 625.009,395.131 621.901,405.379 620.781,416.763 620.781,453.703 621.901,465.085 625.009,475.337 630.059,484.783 636.853,493.061 645.135,499.859 654.579,504.907 664.831,508.017 699.741,509.425 705.029,511.619 708.957,515.491 711.573,523.863 711.573,572.833 709.091,581.013 704.631,585.313 696.849,587.557 284.285,587.307 274.247,588.295 264.629,591.213 255.765,595.951 244.469,605.921 237.969,608.771 145.211,608.969 137.571,609.721 124.793,615.013 115.013,624.793 111.737,630.921 108.969,645.209 109.721,785.261 115.013,798.037 119.423,803.409 124.793,807.817 140.887,815.631 144.409,820.515 145.679,826.401 143.175,834.727 132.045,846.237 120.841,863.003 113.139,881.603 109.211,901.347 109.211,921.483 113.139,941.227 120.863,959.883 125.255,966.965 126.139,974.959 122.043,982.957 72.7413,1032.34 66.8333,1035.27 58.8813,1034.98 51.6413,1029.83 48.6573,1020.98 48.6573,63.3853 51.2733,55.0133 56.0193,50.7053 63.3833,48.6593 1759.45,48.6593 1767.63,51.1413 1771.93,55.6013 1774.17,63.3853 1774.17,2159.45 1771.56,2167.82 1766.81,2172.13 1759.45,2174.17 63.3833,2174.17 54.4853,2171.1 49.9773,2165.5 48.6573,2159.45" style="stroke:rgb(0,0,0);stroke-width:1px;fill:none;stroke-opacity:1;stroke-linecap:round;stroke-linejoin:round;;fill:none"/>
<polyline points="886.141,244.487 886.141,217.809 890.061,213.889 923.447,214.445 936.225,219.737 946.005,229.517 951.299,242.295 951.903,258.905 947.935,262.871 920.559,262.871 917.467,255.515 914.565,251.835 906.913,246.505 897.805,244.509 886.141,244.487" style="stroke:rgb(205,186,171);stroke-width:9.448819;fill:none;stroke-opacity:0.5;stroke-linecap:round;stroke-linejoin:round;;fill:none"/>
<polyline points="886.141,244.487 886.141,217.809 890.061,213.889 923.447,214.445 936.225,219.737 946.005,229.517 951.299,242.295 951.903,258.905 947.935,262.871 920.559,262.871 917.467,255.515 914.565,251.835 906.913,246.505 897.805,244.509 886.141,244.487" style="stroke:rgb(0,0,0);stroke-width:1px;fill:none;stroke-opacity:1;stroke-linecap:round;stroke-linejoin:round;;fill:none"/>
<polyline points="377.089,1931.1 454.331,2008.34 463.971,2003.91 474.847,1982.31 482.287,1955.44 484.341,1927.62 480.929,1899.95 472.127,1873.29 464.155,1858.37 454.331,1853.86 377.089,1931.1" style="stroke:rgb(205,186,171);stroke-width:9.448819;fill:none;stroke-opacity:0.5;stroke-linecap:round;stroke-linejoin:round;;fill:none"/>
<polyline points="377.089,1931.1 454.331,2008.34 463.971,2003.91 474.847,1982.31 482.287,1955.44 484.341,1927.62 480.929,1899.95 472.127,1873.29 464.155,1858.37 454.331,1853.86 377.089,1931.1" style="stroke:rgb(0,0,0);stroke-width:1px;fill:none;stroke-opacity:1;stroke-linecap:round;stroke-linejoin:round;;fill:none"/>
<polyline points="199.907,1934.58 201.959,1906.77 209.401,1879.89 220.277,1858.29 229.917,1853.86 307.159,1931.1 229.917,2008.34 220.093,2003.83 212.119,1988.91 203.315,1962.26 199.907,1934.58" style="stroke:rgb(205,186,171);stroke-width:9.448819;fill:none;stroke-opacity:0.5;stroke-linecap:round;stroke-linejoin:round;;fill:none"/>
<polyline points="199.907,1934.58 201.959,1906.77 209.401,1879.89 220.277,1858.29 229.917,1853.86 307.159,1931.1 229.917,2008.34 220.093,2003.83 212.119,1988.91 203.315,1962.26 199.907,1934.58" style="stroke:rgb(0,0,0);stroke-width:1px;fill:none;stroke-opacity:1;stroke-linecap:round;stroke-linejoin:round;;fill:none"/>
<polyline points="264.883,2043.31 269.313,2052.95 290.911,2063.82 317.789,2071.26 345.599,2073.32 373.281,2069.91 399.933,2061.1 414.851,2053.13 419.365,2043.31 342.125,1966.07 264.883,2043.31" style="stroke:rgb(205,186,171);stroke-width:9.448819;fill:none;stroke-opacity:0.5;stroke-linecap:round;stroke-linejoin:round;;fill:none"/>
<polyline points="264.883,2043.31 269.313,2052.95 290.911,2063.82 317.789,2071.26 345.599,2073.32 373.281,2069.91 399.933,2061.1 414.851,2053.13 419.365,2043.31 342.125,1966.07 264.883,2043.31" style="stroke:rgb(0,0,0);stroke-width:1px;fill:none;stroke-opacity:1;stroke-linecap:round;stroke-linejoin:round;;fill:none"/>
<polyline points="264.883,1818.89 269.397,1809.07 284.315,1801.1 310.969,1792.3 338.647,1788.88 366.459,1790.94 393.337,1798.38 414.935,1809.25 419.365,1818.89 342.123,1896.14 264.883,1818.89" style="stroke:rgb(205,186,171);stroke-width:9.448819;fill:none;stroke-opacity:0.5;stroke-linecap:round;stroke-linejoin:round;;fill:none"/>
<polyline points="264.883,1818.89 269.397,1809.07 284.315,1801.1 310.969,1792.3 338.647,1788.88 366.459,1790.94 393.337,1798.38 414.935,1809.25 419.365,1818.89 342.123,1896.14 264.883,1818.89" style="stroke:rgb(0,0,0);stroke-width:1px;fill:none;stroke-opacity:1;stroke-linecap:round;stroke-linejoin:round;;fill:none"/>
<polyline points="620.791,249.821 620.929,258.905 624.895,262.871 652.273,262.871 655.365,255.515 658.267,251.835 665.919,246.505 675.027,244.509 686.691,244.487 686.691,217.809 682.771,213.889 656.965,213.697 642.731,216.461 636.605,219.737 626.825,229.517 621.531,242.293 620.791,249.821" style="stroke:rgb(205,186,171);stroke-width:9.448819;fill:none;stroke-opacity:0.5;stroke-linecap:round;stroke-linejoin:round;;fill:none"/>
<polyline points="620.791,249.821 620.929,258.905 624.895,262.871 652.273,262.871 655.365,255.515 658.267,251.835 665.919,246.505 675.027,244.509 686.691,244.487 686.691,217.809 682.771,213.889 656.965,213.697 642.731,216.461 636.605,219.737 626.825,229.517 621.531,242.293 620.791,249.821" style="stroke:rgb(0,0,0);stroke-width:1px;fill:none;stroke-opacity:1;stroke-linecap:round;stroke-linejoin:round;;fill:none"/>
<polyline points="736.141,244.487 736.141,217.809 740.061,213.889 765.865,213.697 773.457,214.447 784.991,217.797 806.965,213.697 832.771,213.889 836.691,217.809 836.691,244.487 825.027,244.509 815.919,246.505 808.267,251.835 805.365,255.515 802.273,262.871 770.559,262.871 767.467,255.515 764.565,251.835 756.913,246.505 747.805,244.509 736.141,244.487" style="stroke:rgb(205,186,171);stroke-width:9.448819;fill:none;stroke-opacity:0.5;stroke-linecap:round;stroke-linejoin:round;;fill:none"/>
<polyline points="736.141,244.487 736.141,217.809 740.061,213.889 765.865,213.697 773.457,214.447 784.991,217.797 806.965,213.697 832.771,213.889 836.691,217.809 836.691,244.487 825.027,244.509 815.919,246.505 808.267,251.835 805.365,255.515 802.273,262.871 770.559,262.871 767.467,255.515 764.565,251.835 756.913,246.505 747.805,244.509 736.141,244.487" style="stroke:rgb(0,0,0);stroke-width:1px;fill:none;stroke-opacity:1;stroke-linecap:round;stroke-linejoin:round;;fill:none"/>
<polyline points="1286.14,2055.02 1286.14,2028.35 1297.81,2028.32 1306.91,2026.33 1314.57,2021 1317.47,2017.32 1320.56,2009.96 1347.94,2009.96 1351.9,2013.93 1351.3,2030.53 1349.28,2037.18 1346.01,2043.31 1336.23,2053.09 1323.45,2058.39 1315.86,2059.13 1290.06,2058.94 1286.14,2055.02" style="stroke:rgb(205,186,171);stroke-width:9.448819;fill:none;stroke-opacity:0.5;stroke-linecap:round;stroke-linejoin:round;;fill:none"/>
<polyline points="1286.14,2055.02 1286.14,2028.35 1297.81,2028.32 1306.91,2026.33 1314.57,2021 1317.47,2017.32 1320.56,2009.96 1347.94,2009.96 1351.9,2013.93 1351.3,2030.53 1349.28,2037.18 1346.01,2043.31 1336.23,2053.09 1323.45,2058.39 1315.86,2059.13 1290.06,2058.94 1286.14,2055.02" style="stroke:rgb(0,0,0);stroke-width:1px;fill:none;stroke-opacity:1;stroke-linecap:round;stroke-linejoin:round;;fill:none"/>
<polyline points="1170.79,2023.01 1170.93,2013.93 1174.9,2009.96 1202.27,2009.96 1205.37,2017.32 1208.27,2021 1215.92,2026.33 1225.03,2028.32 1236.69,2028.35 1236.69,2055.02 1232.77,2058.94 1206.97,2059.13 1192.73,2056.37 1186.61,2053.09 1176.83,2043.31 1171.53,2030.54 1170.79,2023.01" style="stroke:rgb(205,186,171);stroke-width:9.448819;fill:none;stroke-opacity:0.5;stroke-linecap:round;stroke-linejoin:round;;fill:none"/>
<polyline points="1170.79,2023.01 1170.93,2013.93 1174.9,2009.96 1202.27,2009.96 1205.37,2017.32 1208.27,2021 1215.92,2026.33 1225.03,2028.32 1236.69,2028.35 1236.69,2055.02 1232.77,2058.94 1206.97,2059.13 1192.73,2056.37 1186.61,2053.09 1176.83,2043.31 1171.53,2030.54 1170.79,2023.01" style="stroke:rgb(0,0,0);stroke-width:1px;fill:none;stroke-opacity:1;stroke-linecap:round;stroke-linejoin:round;;fill:none"/>
<polyline points="1458.97,1977.66 1459.18,1940.05 1463.09,1936.14 1489.76,1936.14 1490.56,1980.97 1494.49,1983.07 1536.69,1983.07 1536.69,2009.75 1532.78,2013.65 1495.17,2013.86 1480.92,2011.09 1474.79,2007.82 1465.01,1998.04 1459.72,1985.26 1458.97,1977.66" style="stroke:rgb(205,186,171);stroke-width:9.448819;fill:none;stroke-opacity:0.5;stroke-linecap:round;stroke-linejoin:round;;fill:none"/>
<polyline points="1458.97,1977.66 1459.18,1940.05 1463.09,1936.14 1489.76,1936.14 1490.56,1980.97 1494.49,1983.07 1536.69,1983.07 1536.69,2009.75 1532.78,2013.65 1495.17,2013.86 1480.92,2011.09 1474.79,2007.82 1465.01,1998.04 1459.72,1985.26 1458.97,1977.66" style="stroke:rgb(0,0,0);stroke-width:1px;fill:none;stroke-opacity:1;stroke-linecap:round;stroke-linejoin:round;;fill:none"/>
<polyline points="1586.14,2009.75 1586.14,1983.07 1628.35,1983.07 1632.27,1980.97 1633.07,1936.14 1659.75,1936.14 1663.65,1940.05 1663.11,1985.26 1661.09,1991.91 1653.41,2003.41 1641.91,2011.09 1627.66,2013.86 1590.05,2013.65 1586.14,2009.75" style="stroke:rgb(205,186,171);stroke-width:9.448819;fill:none;stroke-opacity:0.5;stroke-linecap:round;stroke-linejoin:round;;fill:none"/>
<polyline points="1586.14,2009.75 1586.14,1983.07 1628.35,1983.07 1632.27,1980.97 1633.07,1936.14 1659.75,1936.14 1663.65,1940.05 1663.11,1985.26 1661.09,1991.91 1653.41,2003.41 1641.91,2011.09 1627.66,2013.86 1590.05,2013.65 1586.14,2009.75" style="stroke:rgb(0,0,0);stroke-width:1px;fill:none;stroke-opacity:1;stroke-linecap:round;stroke-linejoin:round;;fill:none"/>
<polyline points="1558.19,277.557 1635.43,354.797 1645.07,350.367 1655.95,328.769 1663.39,301.891 1665.44,274.081 1662.03,246.401 1653.23,219.749 1645.26,204.831 1635.43,200.315 1558.19,277.557" style="stroke:rgb(205,186,171);stroke-width:9.448819;fill:none;stroke-opacity:0.5;stroke-linecap:round;stroke-linejoin:round;;fill:none"/>
<polyline points="1558.19,277.557 1635.43,354.797 1645.07,350.367 1655.95,328.769 1663.39,301.891 1665.44,274.081 1662.03,246.401 1653.23,219.749 1645.26,204.831 1635.43,200.315 1558.19,277.557" style="stroke:rgb(0,0,0);stroke-width:1px;fill:none;stroke-opacity:1;stroke-linecap:round;stroke-linejoin:round;;fill:none"/>
<polyline points="1445.99,165.349 1450.5,155.525 1465.42,147.553 1492.07,138.751 1519.75,135.339 1547.56,137.393 1574.44,144.833 1596.04,155.709 1600.47,165.349 1523.23,242.591 1445.99,165.349" style="stroke:rgb(205,186,171);stroke-width:9.448819;fill:none;stroke-opacity:0.5;stroke-linecap:round;stroke-linejoin:round;;fill:none"/>
<polyline points="1445.99,165.349 1450.5,155.525 1465.42,147.553 1492.07,138.751 1519.75,135.339 1547.56,137.393 1574.44,144.833 1596.04,155.709 1600.47,165.349 1523.23,242.591 1445.99,165.349" style="stroke:rgb(0,0,0);stroke-width:1px;fill:none;stroke-opacity:1;stroke-linecap:round;stroke-linejoin:round;;fill:none"/>
<polyline points="1445.99,389.765 1450.42,399.405 1472.01,410.279 1498.89,417.721 1526.7,419.775 1554.38,416.363 1581.04,407.559 1595.95,399.587 1600.47,389.765 1523.23,312.521 1445.99,389.765" style="stroke:rgb(205,186,171);stroke-width:9.448819;fill:none;stroke-opacity:0.5;stroke-linecap:round;stroke-linejoin:round;;fill:none"/>
<polyline points="1445.99,389.765 1450.42,399.405 1472.01,410.279 1498.89,417.721 1526.7,419.775 1554.38,416.363 1581.04,407.559 1595.95,399.587 1600.47,389.765 1523.23,312.521 1445.99,389.765" style="stroke:rgb(0,0,0);stroke-width:1px;fill:none;stroke-opacity:1;stroke-linecap:round;stroke-linejoin:round;;fill:none"/>
<polyline points="1381.01,281.033 1383.06,253.221 1390.5,226.345 1401.38,204.747 1411.02,200.315 1488.26,277.555 1411.02,354.797 1401.2,350.283 1393.22,335.365 1384.42,308.713 1381.01,281.033" style="stroke:rgb(205,186,171);stroke-width:9.448819;fill:none;stroke-opacity:0.5;stroke-linecap:round;stroke-linejoin:round;;fill:none"/>
<polyline points="1381.01,281.033 1383.06,253.221 1390.5,226.345 1401.38,204.747 1411.02,200.315 1488.26,277.555 1411.02,354.797 1401.2,350.283 1393.22,335.365 1384.42,308.713 1381.01,281.033" style="stroke:rgb(0,0,0);stroke-width:1px;fill:none;stroke-opacity:1;stroke-linecap:round;stroke-linejoin:round;;fill:none"/>
<polyline points="893.699,1189.76 894.059,1105.28 895.799,1103.16 898.423,1102.36 935.665,1102.72 937.785,1104.46 938.581,1107.09 938.581,1189.76 936.613,1193.58 936.613,1212.78 1075.25,1351.57 1084.82,1351.97 1090.18,1353.59 1097.18,1358.27 1102.51,1365.92 1104.53,1375.49 1104.5,1447.81 1102.51,1456.91 1097.83,1463.91 1094.27,1466.95 1089.33,1469.6 1081.07,1471.24 1041.76,1471.24 1037.11,1470.69 1029.33,1467.47 1022.61,1461 1019.97,1456.06 1018.31,1447.34 1018.31,1375.49 1019.97,1366.78 1024.93,1359 899.393,1233.01 895.993,1224.79 895.667,1193.58 893.699,1189.76" style="stroke:rgb(242,251,227);stroke-width:9.448819;fill:none;stroke-opacity:0.5;stroke-linecap:round;stroke-linejoin:round;;fill:none"/>
<polyline points="893.699,1189.76 894.059,1105.28 895.799,1103.16 898.423,1102.36 935.665,1102.72 937.785,1104.46 938.581,1107.09 938.581,1189.76 936.613,1193.58 936.613,1212.78 1075.25,1351.57 1084.82,1351.97 1090.18,1353.59 1097.18,1358.27 1102.51,1365.92 1104.53,1375.49 1104.5,1447.81 1102.51,1456.91 1097.83,1463.91 1094.27,1466.95 1089.33,1469.6 1081.07,1471.24 1041.76,1471.24 1037.11,1470.69 1029.33,1467.47 1022.61,1461 1019.97,1456.06 1018.31,1447.34 1018.31,1375.49 1019.97,1366.78 1024.93,1359 899.393,1233.01 895.993,1224.79 895.667,1193.58 893.699,1189.76" style="stroke:rgb(0,0,0);stroke-width:1px;fill:none;stroke-opacity:1;stroke-linecap:round;stroke-linejoin:round;;fill:none"/>
<polyline points="92.5173,1358.66 92.5173,1064.17 94.2753,1055.92 98.5133,1049.69 149.693,998.513 156.773,993.919 164.171,992.517 258.661,992.517 266.057,993.919 273.137,998.513 324.317,1049.69 328.911,1056.77 330.313,1064.17 330.313,1158.84 397.691,1226.22 399.021,1223.43 402.361,1222.05 523.095,1222.84 525.195,1226.77 524.835,1307.32 523.095,1309.44 520.471,1310.24 399.737,1309.44 397.637,1305.51 397.637,1283.37 295.363,1181.8 291.125,1175.57 289.367,1167.32 289.367,1072.65 250.181,1033.46 172.649,1033.46 133.463,1072.65 133.463,1350.18 571.863,1788.58 751.809,1788.58 753.593,1780.29 758.267,1773.29 762.601,1769.74 770.375,1766.52 847.341,1765.94 856.057,1767.61 863.909,1772.64 869.239,1780.29 871.023,1788.58 1232.87,1788.58 1240.27,1789.98 1247.09,1794.49 1275.57,1794.49 1373.12,1696.94 1379.34,1692.7 1387.6,1690.94 1493.11,1690.94 1495.96,1682.27 1503.76,1668.92 1513.47,1658.17 1525.18,1649.63 1539.27,1643.27 1554.42,1640.13 1569.4,1640.23 1583.56,1643.27 1595.38,1648.5 1639.37,1604.51 1639.37,672.651 1578.53,611.809 939.975,611.809 934.643,617.139 934.643,665.431 937.197,666.737 938.581,670.077 938.491,753.677 936.481,756.683 933.857,757.479 898.423,757.479 895.083,756.095 893.699,752.755 893.697,608.661 895.099,601.263 899.383,594.527 917.361,576.549 924.097,572.265 931.495,570.863 1587.47,570.887 1595.26,572.621 1601.48,576.859 1674.32,649.693 1678.56,655.917 1680.31,664.171 1680.29,1613.45 1678.91,1620.39 1674.63,1627.12 1624.2,1677.59 1626.88,1682.27 1631.5,1696.52 1633.04,1711.91 1631.38,1726.79 1626.88,1740.56 1619.66,1753.12 1608.98,1764.98 1596.8,1773.7 1584.02,1779.39 1568.91,1782.68 1553.93,1782.68 1539.27,1779.56 1526.03,1773.7 1513.47,1764.67 1503.76,1753.92 1495.96,1740.56 1493.11,1731.89 1396.08,1731.89 1319.2,1808.76 1321.26,1818.41 1320.69,1861.91 1317.47,1869.68 1311,1876.4 1306.06,1879.04 1297.81,1880.69 1225.49,1880.71 1215.92,1878.69 1208.27,1873.36 1205.37,1869.68 1202.15,1861.91 1201.57,1829.53 871.023,1829.53 869.239,1837.82 864.565,1844.82 860.231,1848.37 852.457,1851.59 775.491,1852.17 766.775,1850.5 758.923,1845.47 753.593,1837.82 751.809,1829.53 558.941,1829.02 548.907,1823.53 98.5133,1373.14 93.9193,1366.06 92.5173,1358.66" style="stroke:rgb(70,124,194);stroke-width:9.448819;fill:none;stroke-opacity:0.5;stroke-linecap:round;stroke-linejoin:round;;fill:none"/>
<polyline points="92.5173,1358.66 92.5173,1064.17 94.2753,1055.92 98.5133,1049.69 149.693,998.513 156.773,993.919 164.171,992.517 258.661,992.517 266.057,993.919 273.137,998.513 324.317,1049.69 328.911,1056.77 330.313,1064.17 330.313,1158.84 397.691,1226.22 399.021,1223.43 402.361,1222.05 523.095,1222.84 525.195,1226.77 524.835,1307.32 523.095,1309.44 520.471,1310.24 399.737,1309.44 397.637,1305.51 397.637,1283.37 295.363,1181.8 291.125,1175.57 289.367,1167.32 289.367,1072.65 250.181,1033.46 172.649,1033.46 133.463,1072.65 133.463,1350.18 571.863,1788.58 751.809,1788.58 753.593,1780.29 758.267,1773.29 762.601,1769.74 770.375,1766.52 847.341,1765.94 856.057,1767.61 863.909,1772.64 869.239,1780.29 871.023,1788.58 1232.87,1788.58 1240.27,1789.98 1247.09,1794.49 1275.57,1794.49 1373.12,1696.94 1379.34,1692.7 1387.6,1690.94 1493.11,1690.94 1495.96,1682.27 1503.76,1668.92 1513.47,1658.17 1525.18,1649.63 1539.27,1643.27 1554.42,1640.13 1569.4,1640.23 1583.56,1643.27 1595.38,1648.5 1639.37,1604.51 1639.37,672.651 1578.53,611.809 939.975,611.809 934.643,617.139 934.643,665.431 937.197,666.737 938.581,670.077 938.491,753.677 936.481,756.683 933.857,757.479 898.423,757.479 895.083,756.095 893.699,752.755 893.697,608.661 895.099,601.263 899.383,594.527 917.361,576.549 924.097,572.265 931.495,570.863 1587.47,570.887 1595.26,572.621 1601.48,576.859 1674.32,649.693 1678.56,655.917 1680.31,664.171 1680.29,1613.45 1678.91,1620.39 1674.63,1627.12 1624.2,1677.59 1626.88,1682.27 1631.5,1696.52 1633.04,1711.91 1631.38,1726.79 1626.88,1740.56 1619.66,1753.12 1608.98,1764.98 1596.8,1773.7 1584.02,1779.39 1568.91,1782.68 1553.93,1782.68 1539.27,1779.56 1526.03,1773.7 1513.47,1764.67 1503.76,1753.92 1495.96,1740.56 1493.11,1731.89 1396.08,1731.89 1319.2,1808.76 1321.26,1818.41 1320.69,1861.91 1317.47,1869.68 1311,1876.4 1306.06,1879.04 1297.81,1880.69 1225.49,1880.71 1215.92,1878.69 1208.27,1873.36 1205.37,1869.68 1202.15,1861.91 1201.57,1829.53 871.023,1829.53 869.239,1837.82 864.565,1844.82 860.231,1848.37 852.457,1851.59 775.491,1852.17 766.775,1850.5 758.923,1845.47 753.593,1837.82 751.809,1829.53 558.941,1829.02 548.907,1823.53 98.5133,1373.14 93.9193,1366.06 92.5173,1358.66" style="stroke:rgb(0,0,0);stroke-width:1px;fill:none;stroke-opacity:1;stroke-linecap:round;stroke-linejoin:round;;fill:none"/>
<polyline points="842.519,1189.76 842.877,1105.28 844.619,1103.16 847.243,1102.36 884.483,1102.72 886.605,1104.46 887.401,1107.09 887.401,1189.76 885.431,1193.59 885.431,1353.42 894.585,1351.57 937.179,1351.97 946.631,1355.88 950.195,1358.92 954.869,1365.92 956.889,1375.49 956.497,1451.55 954.869,1456.91 950.195,1463.91 941.687,1469.6 932.971,1471.26 890.377,1470.87 885.013,1469.24 878.017,1464.57 872.333,1456.06 870.667,1447.34 870.667,1397.26 850.171,1376.73 846.243,1370.85 844.811,1366.13 844.485,1193.58 842.519,1189.76" style="stroke:rgb(84,248,27);stroke-width:9.448819;fill:none;stroke-opacity:0.5;stroke-linecap:round;stroke-linejoin:round;;fill:none"/>
<polyline points="842.519,1189.76 842.877,1105.28 844.619,1103.16 847.243,1102.36 884.483,1102.72 886.605,1104.46 887.401,1107.09 887.401,1189.76 885.431,1193.59 885.431,1353.42 894.585,1351.57 937.179,1351.97 946.631,1355.88 950.195,1358.92 954.869,1365.92 956.889,1375.49 956.497,1451.55 954.869,1456.91 950.195,1463.91 941.687,1469.6 932.971,1471.26 890.377,1470.87 885.013,1469.24 878.017,1464.57 872.333,1456.06 870.667,1447.34 870.667,1397.26 850.171,1376.73 846.243,1370.85 844.811,1366.13 844.485,1193.58 842.519,1189.76" style="stroke:rgb(0,0,0);stroke-width:1px;fill:none;stroke-opacity:1;stroke-linecap:round;stroke-linejoin:round;;fill:none"/>
<polyline points="139.789,911.909 141.329,896.519 145.957,882.271 153.177,869.713 163.471,858.167 176.029,849.137 189.273,843.269 203.927,840.155 219.395,840.233 233.559,843.269 245.377,848.503 396.939,696.939 403.163,692.701 411.415,690.943 637.793,690.943 637.885,669.155 640.711,665.713 677.951,665.353 680.577,666.149 682.317,668.269 682.675,752.755 681.293,756.095 678.873,757.389 639.893,756.683 637.793,752.755 637.793,731.889 419.895,731.889 274.199,877.585 277.051,882.733 281.581,897.007 283.043,911.909 281.375,926.791 276.875,940.561 269.073,953.917 259.361,964.665 246.803,973.695 233.559,979.563 218.411,982.703 203.927,982.677 189.751,979.691 176.029,973.695 163.471,964.665 153.177,953.119 145.957,940.561 141.457,926.791 139.789,911.909" style="stroke:rgb(232,231,141);stroke-width:9.448819;fill:none;stroke-opacity:0.5;stroke-linecap:round;stroke-linejoin:round;;fill:none"/>
<polyline points="139.789,911.909 141.329,896.519 145.957,882.271 153.177,869.713 163.471,858.167 176.029,849.137 189.273,843.269 203.927,840.155 219.395,840.233 233.559,843.269 245.377,848.503 396.939,696.939 403.163,692.701 411.415,690.943 637.793,690.943 637.885,669.155 640.711,665.713 677.951,665.353 680.577,666.149 682.317,668.269 682.675,752.755 681.293,756.095 678.873,757.389 639.893,756.683 637.793,752.755 637.793,731.889 419.895,731.889 274.199,877.585 277.051,882.733 281.581,897.007 283.043,911.909 281.375,926.791 276.875,940.561 269.073,953.917 259.361,964.665 246.803,973.695 233.559,979.563 218.411,982.703 203.927,982.677 189.751,979.691 176.029,973.695 163.471,964.665 153.177,953.119 145.957,940.561 141.457,926.791 139.789,911.909" style="stroke:rgb(0,0,0);stroke-width:1px;fill:none;stroke-opacity:1;stroke-linecap:round;stroke-linejoin:round;;fill:none"/>
<polyline points="801.573,454.427 802.145,410.927 805.365,403.151 808.267,399.473 816.775,393.789 825.491,392.125 901.549,392.517 911.001,396.431 916.951,402.381 919.595,407.325 921.259,416.041 921.259,454.427 919.239,463.999 914.565,470.997 906.913,476.327 897.805,478.323 885.431,478.345 885.431,666.255 887.401,670.077 887.401,752.755 886.605,755.379 883.597,757.389 847.243,757.479 844.619,756.683 842.609,753.677 842.519,670.077 844.485,666.257 844.485,478.345 821.283,477.953 812.601,474.553 805.365,467.317 802.145,459.543 801.573,454.427" style="stroke:rgb(118,90,46);stroke-width:9.448819;fill:none;stroke-opacity:0.5;stroke-linecap:round;stroke-linejoin:round;;fill:none"/>
<polyline points="801.573,454.427 802.145,410.927 805.365,403.151 808.267,399.473 816.775,393.789 825.491,392.125 901.549,392.517 911.001,396.431 916.951,402.381 919.595,407.325 921.259,416.041 921.259,454.427 919.239,463.999 914.565,470.997 906.913,476.327 897.805,478.323 885.431,478.345 885.431,666.255 887.401,670.077 887.401,752.755 886.605,755.379 883.597,757.389 847.243,757.479 844.619,756.683 842.609,753.677 842.519,670.077 844.485,666.257 844.485,478.345 821.283,477.953 812.601,474.553 805.365,467.317 802.145,459.543 801.573,454.427" style="stroke:rgb(0,0,0);stroke-width:1px;fill:none;stroke-opacity:1;stroke-linecap:round;stroke-linejoin:round;;fill:none"/>
<polyline points="651.573,454.427 652.145,410.927 655.365,403.151 658.267,399.473 666.775,393.789 675.491,392.125 751.549,392.517 761.001,396.431 764.565,399.473 769.239,406.471 771.259,416.041 771.259,454.427 769.203,464.069 779.857,475.441 783.069,486.417 783.069,666.255 785.039,670.077 785.039,752.755 784.241,755.379 782.121,757.119 744.881,757.479 742.255,756.683 740.247,753.677 740.157,670.077 742.123,666.257 742.123,494.895 725.573,478.345 675.491,478.345 665.919,476.327 658.923,471.651 655.365,467.317 652.145,459.543 651.573,454.427" style="stroke:rgb(99,51,159);stroke-width:9.448819;fill:none;stroke-opacity:0.5;stroke-linecap:round;stroke-linejoin:round;;fill:none"/>
<polyline points="651.573,454.427 652.145,410.927 655.365,403.151 658.267,399.473 666.775,393.789 675.491,392.125 751.549,392.517 761.001,396.431 764.565,399.473 769.239,406.471 771.259,416.041 771.259,454.427 769.203,464.069 779.857,475.441 783.069,486.417 783.069,666.255 785.039,670.077 785.039,752.755 784.241,755.379 782.121,757.119 744.881,757.479 742.255,756.683 740.247,753.677 740.157,670.077 742.123,666.257 742.123,494.895 725.573,478.345 675.491,478.345 665.919,476.327 658.923,471.651 655.365,467.317 652.145,459.543 651.573,454.427" style="stroke:rgb(0,0,0);stroke-width:1px;fill:none;stroke-opacity:1;stroke-linecap:round;stroke-linejoin:round;;fill:none"/>
<polyline points="139.763,778.345 139.763,644.487 140.559,641.863 143.565,639.853 254.115,639.763 272.503,621.835 276.851,619.509 284.251,618.107 703.149,618.107 710.545,619.509 717.281,623.793 728.163,635.101 731.383,642.405 731.889,666.257 733.857,670.077 733.857,752.755 733.061,755.379 730.055,757.389 693.699,757.479 691.075,756.683 689.335,754.563 688.975,670.077 690.943,666.257 690.943,659.053 292.731,659.053 283.069,668.713 283.069,778.345 280.969,782.273 144.487,783.069 141.147,781.685 139.763,778.345" style="stroke:rgb(201,154,102);stroke-width:9.448819;fill:none;stroke-opacity:0.5;stroke-linecap:round;stroke-linejoin:round;;fill:none"/>
<polyline points="139.763,778.345 139.763,644.487 140.559,641.863 143.565,639.853 254.115,639.763 272.503,621.835 276.851,619.509 284.251,618.107 703.149,618.107 710.545,619.509 717.281,623.793 728.163,635.101 731.383,642.405 731.889,666.257 733.857,670.077 733.857,752.755 733.061,755.379 730.055,757.389 693.699,757.479 691.075,756.683 689.335,754.563 688.975,670.077 690.943,666.257 690.943,659.053 292.731,659.053 283.069,668.713 283.069,778.345 280.969,782.273 144.487,783.069 141.147,781.685 139.763,778.345" style="stroke:rgb(0,0,0);stroke-width:1px;fill:none;stroke-opacity:1;stroke-linecap:round;stroke-linejoin:round;;fill:none"/>
<polyline points="996.061,1189.76 996.857,1104.46 1000.79,1102.36 1035.61,1102.36 1043.77,1094.67 1048.11,1092.35 1055.05,1090.97 1067.59,1090.94 1061.75,1082.5 1050.4,1074.6 1044.03,1072.54 1035.98,1079.95 1027.12,1081.93 1018.52,1078.12 1014.07,1070.2 1013.93,1056.98 1015.83,1044.94 1015.83,814.893 1014.52,801.731 1016.77,795.093 1021.01,790.765 1026.63,788.511 1043.13,787.519 1049.78,785.503 1061.28,777.819 1070.32,765.955 1074.68,763.383 1079.87,762.439 1337.06,762.723 1344.59,766.753 1456.96,879.119 1459.72,883.079 1461.27,889.491 1459.21,901.309 1459.21,921.481 1463.14,941.227 1470.84,959.827 1482.05,976.593 1493.54,988.697 1495.55,994.375 1495.35,999.437 1492.9,1004.94 1490.15,1007.83 1474.79,1015.01 1469.42,1019.42 1461.74,1030.92 1459.72,1037.57 1458.97,1135.61 1457.85,1141.24 1454.66,1146.02 1394.59,1206.08 1390.63,1208.83 1384.18,1210.39 1083.37,1210.15 1076.98,1207.36 1072.17,1200.93 1071.26,1197.04 1071.57,1177.1 1067.62,1173.15 1040.94,1173.15 1040.85,1190.69 1039.56,1193.1 1037.14,1194.4 999.865,1194.4 996.857,1192.39 996.061,1189.76" style="stroke:rgb(50,13,183);stroke-width:9.448819;fill:none;stroke-opacity:0.5;stroke-linecap:round;stroke-linejoin:round;;fill:none"/>
<polyline points="996.061,1189.76 996.857,1104.46 1000.79,1102.36 1035.61,1102.36 1043.77,1094.67 1048.11,1092.35 1055.05,1090.97 1067.59,1090.94 1061.75,1082.5 1050.4,1074.6 1044.03,1072.54 1035.98,1079.95 1027.12,1081.93 1018.52,1078.12 1014.07,1070.2 1013.93,1056.98 1015.83,1044.94 1015.83,814.893 1014.52,801.731 1016.77,795.093 1021.01,790.765 1026.63,788.511 1043.13,787.519 1049.78,785.503 1061.28,777.819 1070.32,765.955 1074.68,763.383 1079.87,762.439 1337.06,762.723 1344.59,766.753 1456.96,879.119 1459.72,883.079 1461.27,889.491 1459.21,901.309 1459.21,921.481 1463.14,941.227 1470.84,959.827 1482.05,976.593 1493.54,988.697 1495.55,994.375 1495.35,999.437 1492.9,1004.94 1490.15,1007.83 1474.79,1015.01 1469.42,1019.42 1461.74,1030.92 1459.72,1037.57 1458.97,1135.61 1457.85,1141.24 1454.66,1146.02 1394.59,1206.08 1390.63,1208.83 1384.18,1210.39 1083.37,1210.15 1076.98,1207.36 1072.17,1200.93 1071.26,1197.04 1071.57,1177.1 1067.62,1173.15 1040.94,1173.15 1040.85,1190.69 1039.56,1193.1 1037.14,1194.4 999.865,1194.4 996.857,1192.39 996.061,1189.76" style="stroke:rgb(0,0,0);stroke-width:1px;fill:none;stroke-opacity:1;stroke-linecap:round;stroke-linejoin:round;;fill:none"/>
<polyline points="944.881,1189.76 945.241,1105.28 946.981,1103.16 949.605,1102.36 985.959,1102.45 988.967,1104.46 989.763,1107.09 989.763,1189.76 987.793,1193.59 987.793,1197.15 1031.59,1240.94 1402.94,1240.94 1489.76,1154.12 1489.76,1044.49 1491.15,1041.15 1494.49,1039.76 1628.35,1039.76 1630.97,1040.56 1632.98,1043.57 1633.07,1178.35 1631.69,1181.69 1628.35,1183.07 1518.72,1183.07 1425.89,1275.89 1415.86,1281.38 1019.58,1281.56 1014.86,1280.13 1008.64,1275.89 950.573,1217.37 947.353,1210.07 946.847,1193.58 944.881,1189.76" style="stroke:rgb(49,88,163);stroke-width:9.448819;fill:none;stroke-opacity:0.5;stroke-linecap:round;stroke-linejoin:round;;fill:none"/>
<polyline points="944.881,1189.76 945.241,1105.28 946.981,1103.16 949.605,1102.36 985.959,1102.45 988.967,1104.46 989.763,1107.09 989.763,1189.76 987.793,1193.59 987.793,1197.15 1031.59,1240.94 1402.94,1240.94 1489.76,1154.12 1489.76,1044.49 1491.15,1041.15 1494.49,1039.76 1628.35,1039.76 1630.97,1040.56 1632.98,1043.57 1633.07,1178.35 1631.69,1181.69 1628.35,1183.07 1518.72,1183.07 1425.89,1275.89 1415.86,1281.38 1019.58,1281.56 1014.86,1280.13 1008.64,1275.89 950.573,1217.37 947.353,1210.07 946.847,1193.58 944.881,1189.76" style="stroke:rgb(0,0,0);stroke-width:1px;fill:none;stroke-opacity:1;stroke-linecap:round;stroke-linejoin:round;;fill:none"/>
<polyline points="996.061,752.755 996.061,670.077 996.857,667.453 999.865,665.443 1038.84,666.149 1040.94,670.077 1040.94,690.943 1365.86,691.449 1375.89,696.939 1527.46,848.503 1539.27,843.269 1553.44,840.233 1568.91,840.155 1583.56,843.269 1596.8,849.137 1609.36,858.167 1619.66,869.713 1626.88,882.271 1631.38,896.041 1633.04,910.923 1631.38,926.791 1626.88,940.561 1619.66,953.119 1609.71,964.315 1597.66,973.201 1584.02,979.385 1568.91,982.677 1553.93,982.677 1539.27,979.563 1525.18,973.201 1513.47,964.665 1503.18,953.119 1495.96,940.561 1491.46,926.791 1489.79,911.909 1491.25,897.007 1495.78,882.733 1498.63,877.585 1352.94,731.889 1040.94,731.889 1040.85,753.677 1038.03,757.119 999.865,757.389 996.857,755.379 996.061,752.755" style="stroke:rgb(90,37,93);stroke-width:9.448819;fill:none;stroke-opacity:0.5;stroke-linecap:round;stroke-linejoin:round;;fill:none"/>
<polyline points="996.061,752.755 996.061,670.077 996.857,667.453 999.865,665.443 1038.84,666.149 1040.94,670.077 1040.94,690.943 1365.86,691.449 1375.89,696.939 1527.46,848.503 1539.27,843.269 1553.44,840.233 1568.91,840.155 1583.56,843.269 1596.8,849.137 1609.36,858.167 1619.66,869.713 1626.88,882.271 1631.38,896.041 1633.04,910.923 1631.38,926.791 1626.88,940.561 1619.66,953.119 1609.71,964.315 1597.66,973.201 1584.02,979.385 1568.91,982.677 1553.93,982.677 1539.27,979.563 1525.18,973.201 1513.47,964.665 1503.18,953.119 1495.96,940.561 1491.46,926.791 1489.79,911.909 1491.25,897.007 1495.78,882.733 1498.63,877.585 1352.94,731.889 1040.94,731.889 1040.85,753.677 1038.03,757.119 999.865,757.389 996.857,755.379 996.061,752.755" style="stroke:rgb(0,0,0);stroke-width:1px;fill:none;stroke-opacity:1;stroke-linecap:round;stroke-linejoin:round;;fill:none"/>
<polyline points="944.881,752.755 944.881,670.077 946.847,666.259 947.353,642.405 950.573,635.101 961.455,623.793 968.191,619.509 975.125,618.131 1492.12,618.433 1496.83,619.865 1502.71,623.793 1527.46,648.503 1539.27,643.269 1553.44,640.233 1568.41,640.129 1583.56,643.269 1597.66,649.631 1609.36,658.167 1619.66,669.713 1626.88,682.271 1631.38,696.041 1633.04,710.923 1631.5,726.313 1626.88,740.561 1619.66,753.119 1609.36,764.665 1596.8,773.695 1583.56,779.563 1568.91,782.677 1553.93,782.677 1539.27,779.563 1525.18,773.201 1513.47,764.665 1503.18,753.119 1495.96,740.561 1491.46,726.791 1489.79,711.909 1491.33,696.519 1495.96,682.271 1498.63,677.585 1480.1,659.053 987.793,659.053 987.793,666.255 989.763,670.077 989.403,754.563 987.663,756.683 985.039,757.479 949.605,757.479 946.265,756.095 944.881,752.755" style="stroke:rgb(5,23,88);stroke-width:9.448819;fill:none;stroke-opacity:0.5;stroke-linecap:round;stroke-linejoin:round;;fill:none"/>
<polyline points="944.881,752.755 944.881,670.077 946.847,666.259 947.353,642.405 950.573,635.101 961.455,623.793 968.191,619.509 975.125,618.131 1492.12,618.433 1496.83,619.865 1502.71,623.793 1527.46,648.503 1539.27,643.269 1553.44,640.233 1568.41,640.129 1583.56,643.269 1597.66,649.631 1609.36,658.167 1619.66,669.713 1626.88,682.271 1631.38,696.041 1633.04,710.923 1631.5,726.313 1626.88,740.561 1619.66,753.119 1609.36,764.665 1596.8,773.695 1583.56,779.563 1568.91,782.677 1553.93,782.677 1539.27,779.563 1525.18,773.201 1513.47,764.665 1503.18,753.119 1495.96,740.561 1491.46,726.791 1489.79,711.909 1491.33,696.519 1495.96,682.271 1498.63,677.585 1480.1,659.053 987.793,659.053 987.793,666.255 989.763,670.077 989.403,754.563 987.663,756.683 985.039,757.479 949.605,757.479 946.265,756.095 944.881,752.755" style="stroke:rgb(0,0,0);stroke-width:1px;fill:none;stroke-opacity:1;stroke-linecap:round;stroke-linejoin:round;;fill:none"/>
<polyline points="397.637,1203.15 397.637,1124.41 398.433,1121.78 400.553,1120.04 520.471,1119.68 524.399,1121.78 525.195,1127.95 637.793,1127.95 637.885,1106.16 640.711,1102.72 677.951,1102.36 680.577,1103.16 682.317,1105.28 682.675,1189.76 681.879,1192.39 679.759,1194.13 639.893,1193.69 637.793,1189.76 637.793,1168.9 525.195,1168.9 525.195,1203.15 524.399,1205.77 521.393,1207.78 402.361,1207.87 399.021,1206.49 397.637,1203.15" style="stroke:rgb(233,94,212);stroke-width:9.448819;fill:none;stroke-opacity:0.5;stroke-linecap:round;stroke-linejoin:round;;fill:none"/>
<polyline points="397.637,1203.15 397.637,1124.41 398.433,1121.78 400.553,1120.04 520.471,1119.68 524.399,1121.78 525.195,1127.95 637.793,1127.95 637.885,1106.16 640.711,1102.72 677.951,1102.36 680.577,1103.16 682.317,1105.28 682.675,1189.76 681.879,1192.39 679.759,1194.13 639.893,1193.69 637.793,1189.76 637.793,1168.9 525.195,1168.9 525.195,1203.15 524.399,1205.77 521.393,1207.78 402.361,1207.87 399.021,1206.49 397.637,1203.15" style="stroke:rgb(0,0,0);stroke-width:1px;fill:none;stroke-opacity:1;stroke-linecap:round;stroke-linejoin:round;;fill:none"/>
<polyline points="139.789,1111.91 141.457,1096.04 145.957,1082.27 153.177,1069.71 163.855,1057.86 176.029,1049.14 189.273,1043.27 204.421,1040.13 218.905,1040.16 233.559,1043.27 247.657,1049.63 259.361,1058.17 269.073,1068.92 276.875,1082.27 281.503,1096.52 283.043,1110.92 281.503,1126.31 276.875,1140.56 269.073,1153.92 259.361,1164.67 244.037,1174.93 375.893,1306.78 380.131,1313.01 381.889,1321.26 381.889,1440.94 652.937,1440.94 690.943,1402.94 690.943,1193.58 688.975,1189.76 689.065,1106.16 691.075,1103.16 693.699,1102.36 730.941,1102.72 733.061,1104.46 733.857,1107.09 733.857,1189.76 731.889,1193.58 731.889,1411.42 730.131,1419.67 725.893,1425.89 675.893,1475.89 669.669,1480.13 664.951,1481.56 361.417,1481.89 353.163,1480.13 344.669,1473.16 342.345,1468.81 340.967,1461.88 340.943,1329.74 196.939,1185.74 193.303,1180.45 176.029,1173.7 163.121,1164.32 153.177,1153.12 145.957,1140.56 141.329,1126.31 139.789,1111.91" style="stroke:rgb(171,178,205);stroke-width:9.448819;fill:none;stroke-opacity:0.5;stroke-linecap:round;stroke-linejoin:round;;fill:none"/>
<polyline points="139.789,1111.91 141.457,1096.04 145.957,1082.27 153.177,1069.71 163.855,1057.86 176.029,1049.14 189.273,1043.27 204.421,1040.13 218.905,1040.16 233.559,1043.27 247.657,1049.63 259.361,1058.17 269.073,1068.92 276.875,1082.27 281.503,1096.52 283.043,1110.92 281.503,1126.31 276.875,1140.56 269.073,1153.92 259.361,1164.67 244.037,1174.93 375.893,1306.78 380.131,1313.01 381.889,1321.26 381.889,1440.94 652.937,1440.94 690.943,1402.94 690.943,1193.58 688.975,1189.76 689.065,1106.16 691.075,1103.16 693.699,1102.36 730.941,1102.72 733.061,1104.46 733.857,1107.09 733.857,1189.76 731.889,1193.58 731.889,1411.42 730.131,1419.67 725.893,1425.89 675.893,1475.89 669.669,1480.13 664.951,1481.56 361.417,1481.89 353.163,1480.13 344.669,1473.16 342.345,1468.81 340.967,1461.88 340.943,1329.74 196.939,1185.74 193.303,1180.45 176.029,1173.7 163.121,1164.32 153.177,1153.12 145.957,1140.56 141.329,1126.31 139.789,1111.91" style="stroke:rgb(0,0,0);stroke-width:1px;fill:none;stroke-opacity:1;stroke-linecap:round;stroke-linejoin:round;;fill:none"/>
<polyline points="139.789,1311.91 141.457,1296.04 145.957,1282.27 153.177,1269.71 163.471,1258.17 176.029,1249.14 189.273,1243.27 203.437,1240.23 218.905,1240.16 233.559,1243.27 246.803,1249.14 259.361,1258.17 269.655,1269.71 277.051,1282.73 281.503,1296.52 283.043,1310.92 281.503,1326.31 276.875,1340.56 269.073,1353.92 258.977,1364.98 247.657,1373.2 239.211,1377.07 350.325,1488.19 672.505,1488.19 742.123,1418.57 742.123,1193.58 740.157,1189.76 740.247,1106.16 742.255,1103.16 744.881,1102.36 780.313,1102.36 782.939,1103.16 784.679,1105.28 785.039,1189.76 783.069,1193.58 782.563,1431.49 777.073,1441.53 695.461,1523.14 688.381,1527.73 680.985,1529.13 341.847,1529.13 334.449,1527.73 327.369,1523.14 196.939,1392.71 192.701,1386.48 191.161,1379.99 176.029,1373.7 163.121,1364.32 153.177,1353.12 145.957,1340.56 141.329,1326.31 139.789,1311.91" style="stroke:rgb(198,155,180);stroke-width:9.448819;fill:none;stroke-opacity:0.5;stroke-linecap:round;stroke-linejoin:round;;fill:none"/>
<polyline points="139.789,1311.91 141.457,1296.04 145.957,1282.27 153.177,1269.71 163.471,1258.17 176.029,1249.14 189.273,1243.27 203.437,1240.23 218.905,1240.16 233.559,1243.27 246.803,1249.14 259.361,1258.17 269.655,1269.71 277.051,1282.73 281.503,1296.52 283.043,1310.92 281.503,1326.31 276.875,1340.56 269.073,1353.92 258.977,1364.98 247.657,1373.2 239.211,1377.07 350.325,1488.19 672.505,1488.19 742.123,1418.57 742.123,1193.58 740.157,1189.76 740.247,1106.16 742.255,1103.16 744.881,1102.36 780.313,1102.36 782.939,1103.16 784.679,1105.28 785.039,1189.76 783.069,1193.58 782.563,1431.49 777.073,1441.53 695.461,1523.14 688.381,1527.73 680.985,1529.13 341.847,1529.13 334.449,1527.73 327.369,1523.14 196.939,1392.71 192.701,1386.48 191.161,1379.99 176.029,1373.7 163.121,1364.32 153.177,1353.12 145.957,1340.56 141.329,1326.31 139.789,1311.91" style="stroke:rgb(0,0,0);stroke-width:1px;fill:none;stroke-opacity:1;stroke-linecap:round;stroke-linejoin:round;;fill:none"/>
<polyline points="751.573,1680.61 751.597,1641.76 752.145,1637.11 755.365,1629.33 761.831,1622.61 770.375,1618.88 793.305,1618.31 793.305,1193.58 791.337,1189.76 791.429,1106.16 793.437,1103.16 796.061,1102.36 832.417,1102.45 835.423,1104.46 836.219,1107.09 836.219,1189.76 834.251,1193.58 834.251,1618.31 847.805,1618.33 856.057,1619.97 863.909,1625 867.467,1629.33 870.687,1637.11 871.235,1641.76 870.867,1684.82 869.239,1690.18 864.565,1697.18 860.231,1700.73 852.457,1703.96 775.491,1704.53 766.775,1702.86 758.923,1697.83 753.593,1690.18 751.573,1680.61" style="stroke:rgb(84,17,14);stroke-width:9.448819;fill:none;stroke-opacity:0.5;stroke-linecap:round;stroke-linejoin:round;;fill:none"/>
<polyline points="751.573,1680.61 751.597,1641.76 752.145,1637.11 755.365,1629.33 761.831,1622.61 770.375,1618.88 793.305,1618.31 793.305,1193.58 791.337,1189.76 791.429,1106.16 793.437,1103.16 796.061,1102.36 832.417,1102.45 835.423,1104.46 836.219,1107.09 836.219,1189.76 834.251,1193.58 834.251,1618.31 847.805,1618.33 856.057,1619.97 863.909,1625 867.467,1629.33 870.687,1637.11 871.235,1641.76 870.867,1684.82 869.239,1690.18 864.565,1697.18 860.231,1700.73 852.457,1703.96 775.491,1704.53 766.775,1702.86 758.923,1697.83 753.593,1690.18 751.573,1680.61" style="stroke:rgb(0,0,0);stroke-width:1px;fill:none;stroke-opacity:1;stroke-linecap:round;stroke-linejoin:round;;fill:none"/>
</svg>
