%TF.GenerationSoftware,KiCad,Pcbnew,5.1.6-c6e7f7d~87~ubuntu18.04.1*%
%TF.CreationDate,2022-02-07T12:08:45+00:00*%
%TF.ProjectId,L6235-breakout,4c363233-352d-4627-9265-616b6f75742e,rev?*%
%TF.SameCoordinates,Original*%
%TF.FileFunction,Legend,Top*%
%TF.FilePolarity,Positive*%
%FSLAX46Y46*%
G04 Gerber Fmt 4.6, Leading zero omitted, Abs format (unit mm)*
G04 Created by KiCad (PCBNEW 5.1.6-c6e7f7d~87~ubuntu18.04.1) date 2022-02-07 12:08:45*
%MOMM*%
%LPD*%
G01*
G04 APERTURE LIST*
%ADD10C,0.150000*%
%ADD11C,0.120000*%
%ADD12C,0.125000*%
G04 APERTURE END LIST*
D10*
X28218095Y-184983380D02*
X28218095Y-183983380D01*
X28551428Y-184697666D01*
X28884761Y-183983380D01*
X28884761Y-184983380D01*
X29551428Y-183983380D02*
X29741904Y-183983380D01*
X29837142Y-184031000D01*
X29932380Y-184126238D01*
X29980000Y-184316714D01*
X29980000Y-184650047D01*
X29932380Y-184840523D01*
X29837142Y-184935761D01*
X29741904Y-184983380D01*
X29551428Y-184983380D01*
X29456190Y-184935761D01*
X29360952Y-184840523D01*
X29313333Y-184650047D01*
X29313333Y-184316714D01*
X29360952Y-184126238D01*
X29456190Y-184031000D01*
X29551428Y-183983380D01*
X30265714Y-183983380D02*
X30837142Y-183983380D01*
X30551428Y-184983380D02*
X30551428Y-183983380D01*
X31360952Y-183983380D02*
X31551428Y-183983380D01*
X31646666Y-184031000D01*
X31741904Y-184126238D01*
X31789523Y-184316714D01*
X31789523Y-184650047D01*
X31741904Y-184840523D01*
X31646666Y-184935761D01*
X31551428Y-184983380D01*
X31360952Y-184983380D01*
X31265714Y-184935761D01*
X31170476Y-184840523D01*
X31122857Y-184650047D01*
X31122857Y-184316714D01*
X31170476Y-184126238D01*
X31265714Y-184031000D01*
X31360952Y-183983380D01*
X32789523Y-184983380D02*
X32456190Y-184507190D01*
X32218095Y-184983380D02*
X32218095Y-183983380D01*
X32599047Y-183983380D01*
X32694285Y-184031000D01*
X32741904Y-184078619D01*
X32789523Y-184173857D01*
X32789523Y-184316714D01*
X32741904Y-184411952D01*
X32694285Y-184459571D01*
X32599047Y-184507190D01*
X32218095Y-184507190D01*
X50863666Y-155789380D02*
X51197000Y-156789380D01*
X51530333Y-155789380D01*
X51863666Y-156789380D02*
X51863666Y-155789380D01*
X52101761Y-155789380D01*
X52244619Y-155837000D01*
X52339857Y-155932238D01*
X52387476Y-156027476D01*
X52435095Y-156217952D01*
X52435095Y-156360809D01*
X52387476Y-156551285D01*
X52339857Y-156646523D01*
X52244619Y-156741761D01*
X52101761Y-156789380D01*
X51863666Y-156789380D01*
X52863666Y-156789380D02*
X52863666Y-155789380D01*
X53101761Y-155789380D01*
X53244619Y-155837000D01*
X53339857Y-155932238D01*
X53387476Y-156027476D01*
X53435095Y-156217952D01*
X53435095Y-156360809D01*
X53387476Y-156551285D01*
X53339857Y-156646523D01*
X53244619Y-156741761D01*
X53101761Y-156789380D01*
X52863666Y-156789380D01*
X51562095Y-158504000D02*
X51466857Y-158456380D01*
X51324000Y-158456380D01*
X51181142Y-158504000D01*
X51085904Y-158599238D01*
X51038285Y-158694476D01*
X50990666Y-158884952D01*
X50990666Y-159027809D01*
X51038285Y-159218285D01*
X51085904Y-159313523D01*
X51181142Y-159408761D01*
X51324000Y-159456380D01*
X51419238Y-159456380D01*
X51562095Y-159408761D01*
X51609714Y-159361142D01*
X51609714Y-159027809D01*
X51419238Y-159027809D01*
X52038285Y-159456380D02*
X52038285Y-158456380D01*
X52609714Y-159456380D01*
X52609714Y-158456380D01*
X53085904Y-159456380D02*
X53085904Y-158456380D01*
X53324000Y-158456380D01*
X53466857Y-158504000D01*
X53562095Y-158599238D01*
X53609714Y-158694476D01*
X53657333Y-158884952D01*
X53657333Y-159027809D01*
X53609714Y-159218285D01*
X53562095Y-159313523D01*
X53466857Y-159408761D01*
X53324000Y-159456380D01*
X53085904Y-159456380D01*
X51308095Y-177935000D02*
X51212857Y-177887380D01*
X51070000Y-177887380D01*
X50927142Y-177935000D01*
X50831904Y-178030238D01*
X50784285Y-178125476D01*
X50736666Y-178315952D01*
X50736666Y-178458809D01*
X50784285Y-178649285D01*
X50831904Y-178744523D01*
X50927142Y-178839761D01*
X51070000Y-178887380D01*
X51165238Y-178887380D01*
X51308095Y-178839761D01*
X51355714Y-178792142D01*
X51355714Y-178458809D01*
X51165238Y-178458809D01*
X51784285Y-178887380D02*
X51784285Y-177887380D01*
X52355714Y-178887380D01*
X52355714Y-177887380D01*
X52831904Y-178887380D02*
X52831904Y-177887380D01*
X53070000Y-177887380D01*
X53212857Y-177935000D01*
X53308095Y-178030238D01*
X53355714Y-178125476D01*
X53403333Y-178315952D01*
X53403333Y-178458809D01*
X53355714Y-178649285D01*
X53308095Y-178744523D01*
X53212857Y-178839761D01*
X53070000Y-178887380D01*
X52831904Y-178887380D01*
X50601809Y-175807714D02*
X50982761Y-175807714D01*
X50744666Y-175474380D02*
X50744666Y-176331523D01*
X50792285Y-176426761D01*
X50887523Y-176474380D01*
X50982761Y-176474380D01*
X51744666Y-176474380D02*
X51744666Y-175950571D01*
X51697047Y-175855333D01*
X51601809Y-175807714D01*
X51411333Y-175807714D01*
X51316095Y-175855333D01*
X51744666Y-176426761D02*
X51649428Y-176474380D01*
X51411333Y-176474380D01*
X51316095Y-176426761D01*
X51268476Y-176331523D01*
X51268476Y-176236285D01*
X51316095Y-176141047D01*
X51411333Y-176093428D01*
X51649428Y-176093428D01*
X51744666Y-176045809D01*
X52649428Y-176426761D02*
X52554190Y-176474380D01*
X52363714Y-176474380D01*
X52268476Y-176426761D01*
X52220857Y-176379142D01*
X52173238Y-176283904D01*
X52173238Y-175998190D01*
X52220857Y-175902952D01*
X52268476Y-175855333D01*
X52363714Y-175807714D01*
X52554190Y-175807714D01*
X52649428Y-175855333D01*
X53078000Y-176474380D02*
X53078000Y-175474380D01*
X53506571Y-176474380D02*
X53506571Y-175950571D01*
X53458952Y-175855333D01*
X53363714Y-175807714D01*
X53220857Y-175807714D01*
X53125619Y-175855333D01*
X53078000Y-175902952D01*
X54125619Y-176474380D02*
X54030380Y-176426761D01*
X53982761Y-176379142D01*
X53935142Y-176283904D01*
X53935142Y-175998190D01*
X53982761Y-175902952D01*
X54030380Y-175855333D01*
X54125619Y-175807714D01*
X54268476Y-175807714D01*
X54363714Y-175855333D01*
X54411333Y-175902952D01*
X54458952Y-175998190D01*
X54458952Y-176283904D01*
X54411333Y-176379142D01*
X54363714Y-176426761D01*
X54268476Y-176474380D01*
X54125619Y-176474380D01*
X50768476Y-173807380D02*
X50768476Y-172807380D01*
X50768476Y-173188333D02*
X50863714Y-173140714D01*
X51054190Y-173140714D01*
X51149428Y-173188333D01*
X51197047Y-173235952D01*
X51244666Y-173331190D01*
X51244666Y-173616904D01*
X51197047Y-173712142D01*
X51149428Y-173759761D01*
X51054190Y-173807380D01*
X50863714Y-173807380D01*
X50768476Y-173759761D01*
X51673238Y-173807380D02*
X51673238Y-173140714D01*
X51673238Y-173331190D02*
X51720857Y-173235952D01*
X51768476Y-173188333D01*
X51863714Y-173140714D01*
X51958952Y-173140714D01*
X52720857Y-173807380D02*
X52720857Y-173283571D01*
X52673238Y-173188333D01*
X52578000Y-173140714D01*
X52387523Y-173140714D01*
X52292285Y-173188333D01*
X52720857Y-173759761D02*
X52625619Y-173807380D01*
X52387523Y-173807380D01*
X52292285Y-173759761D01*
X52244666Y-173664523D01*
X52244666Y-173569285D01*
X52292285Y-173474047D01*
X52387523Y-173426428D01*
X52625619Y-173426428D01*
X52720857Y-173378809D01*
X53197047Y-173807380D02*
X53197047Y-172807380D01*
X53292285Y-173426428D02*
X53578000Y-173807380D01*
X53578000Y-173140714D02*
X53197047Y-173521666D01*
X54387523Y-173759761D02*
X54292285Y-173807380D01*
X54101809Y-173807380D01*
X54006571Y-173759761D01*
X53958952Y-173664523D01*
X53958952Y-173283571D01*
X54006571Y-173188333D01*
X54101809Y-173140714D01*
X54292285Y-173140714D01*
X54387523Y-173188333D01*
X54435142Y-173283571D01*
X54435142Y-173378809D01*
X53958952Y-173474047D01*
X50935047Y-170743571D02*
X50601714Y-170743571D01*
X50601714Y-171267380D02*
X50601714Y-170267380D01*
X51077904Y-170267380D01*
X52173142Y-170219761D02*
X51316000Y-171505476D01*
X53077904Y-171267380D02*
X52744571Y-170791190D01*
X52506476Y-171267380D02*
X52506476Y-170267380D01*
X52887428Y-170267380D01*
X52982666Y-170315000D01*
X53030285Y-170362619D01*
X53077904Y-170457857D01*
X53077904Y-170600714D01*
X53030285Y-170695952D01*
X52982666Y-170743571D01*
X52887428Y-170791190D01*
X52506476Y-170791190D01*
X50974857Y-168679761D02*
X50879619Y-168727380D01*
X50689142Y-168727380D01*
X50593904Y-168679761D01*
X50546285Y-168584523D01*
X50546285Y-168203571D01*
X50593904Y-168108333D01*
X50689142Y-168060714D01*
X50879619Y-168060714D01*
X50974857Y-168108333D01*
X51022476Y-168203571D01*
X51022476Y-168298809D01*
X50546285Y-168394047D01*
X51451047Y-168060714D02*
X51451047Y-168727380D01*
X51451047Y-168155952D02*
X51498666Y-168108333D01*
X51593904Y-168060714D01*
X51736761Y-168060714D01*
X51832000Y-168108333D01*
X51879619Y-168203571D01*
X51879619Y-168727380D01*
X52784380Y-168727380D02*
X52784380Y-168203571D01*
X52736761Y-168108333D01*
X52641523Y-168060714D01*
X52451047Y-168060714D01*
X52355809Y-168108333D01*
X52784380Y-168679761D02*
X52689142Y-168727380D01*
X52451047Y-168727380D01*
X52355809Y-168679761D01*
X52308190Y-168584523D01*
X52308190Y-168489285D01*
X52355809Y-168394047D01*
X52451047Y-168346428D01*
X52689142Y-168346428D01*
X52784380Y-168298809D01*
X53260571Y-168727380D02*
X53260571Y-167727380D01*
X53260571Y-168108333D02*
X53355809Y-168060714D01*
X53546285Y-168060714D01*
X53641523Y-168108333D01*
X53689142Y-168155952D01*
X53736761Y-168251190D01*
X53736761Y-168536904D01*
X53689142Y-168632142D01*
X53641523Y-168679761D01*
X53546285Y-168727380D01*
X53355809Y-168727380D01*
X53260571Y-168679761D01*
X54308190Y-168727380D02*
X54212952Y-168679761D01*
X54165333Y-168584523D01*
X54165333Y-167727380D01*
X55070095Y-168679761D02*
X54974857Y-168727380D01*
X54784380Y-168727380D01*
X54689142Y-168679761D01*
X54641523Y-168584523D01*
X54641523Y-168203571D01*
X54689142Y-168108333D01*
X54784380Y-168060714D01*
X54974857Y-168060714D01*
X55070095Y-168108333D01*
X55117714Y-168203571D01*
X55117714Y-168298809D01*
X54641523Y-168394047D01*
X50728809Y-165885761D02*
X50824047Y-165933380D01*
X51014523Y-165933380D01*
X51109761Y-165885761D01*
X51157380Y-165790523D01*
X51157380Y-165742904D01*
X51109761Y-165647666D01*
X51014523Y-165600047D01*
X50871666Y-165600047D01*
X50776428Y-165552428D01*
X50728809Y-165457190D01*
X50728809Y-165409571D01*
X50776428Y-165314333D01*
X50871666Y-165266714D01*
X51014523Y-165266714D01*
X51109761Y-165314333D01*
X51585952Y-165266714D02*
X51585952Y-166266714D01*
X51585952Y-165314333D02*
X51681190Y-165266714D01*
X51871666Y-165266714D01*
X51966904Y-165314333D01*
X52014523Y-165361952D01*
X52062142Y-165457190D01*
X52062142Y-165742904D01*
X52014523Y-165838142D01*
X51966904Y-165885761D01*
X51871666Y-165933380D01*
X51681190Y-165933380D01*
X51585952Y-165885761D01*
X52871666Y-165885761D02*
X52776428Y-165933380D01*
X52585952Y-165933380D01*
X52490714Y-165885761D01*
X52443095Y-165790523D01*
X52443095Y-165409571D01*
X52490714Y-165314333D01*
X52585952Y-165266714D01*
X52776428Y-165266714D01*
X52871666Y-165314333D01*
X52919285Y-165409571D01*
X52919285Y-165504809D01*
X52443095Y-165600047D01*
X53728809Y-165885761D02*
X53633571Y-165933380D01*
X53443095Y-165933380D01*
X53347857Y-165885761D01*
X53300238Y-165790523D01*
X53300238Y-165409571D01*
X53347857Y-165314333D01*
X53443095Y-165266714D01*
X53633571Y-165266714D01*
X53728809Y-165314333D01*
X53776428Y-165409571D01*
X53776428Y-165504809D01*
X53300238Y-165600047D01*
X54633571Y-165933380D02*
X54633571Y-164933380D01*
X54633571Y-165885761D02*
X54538333Y-165933380D01*
X54347857Y-165933380D01*
X54252619Y-165885761D01*
X54205000Y-165838142D01*
X54157380Y-165742904D01*
X54157380Y-165457190D01*
X54205000Y-165361952D01*
X54252619Y-165314333D01*
X54347857Y-165266714D01*
X54538333Y-165266714D01*
X54633571Y-165314333D01*
X9906190Y-173426380D02*
X9906190Y-172426380D01*
X9906190Y-172902571D02*
X10477619Y-172902571D01*
X10477619Y-173426380D02*
X10477619Y-172426380D01*
X10906190Y-173140666D02*
X11382380Y-173140666D01*
X10810952Y-173426380D02*
X11144285Y-172426380D01*
X11477619Y-173426380D01*
X12287142Y-173426380D02*
X11810952Y-173426380D01*
X11810952Y-172426380D01*
X13096666Y-173426380D02*
X12620476Y-173426380D01*
X12620476Y-172426380D01*
D11*
X9017000Y-172466000D02*
X13970000Y-172466000D01*
X9017000Y-175006000D02*
X13970000Y-175006000D01*
X9017000Y-169672000D02*
X9017000Y-175006000D01*
X12065000Y-169672000D02*
X9017000Y-169672000D01*
X13970000Y-169672000D02*
X12065000Y-169672000D01*
D10*
X11938095Y-177046000D02*
X11842857Y-176998380D01*
X11700000Y-176998380D01*
X11557142Y-177046000D01*
X11461904Y-177141238D01*
X11414285Y-177236476D01*
X11366666Y-177426952D01*
X11366666Y-177569809D01*
X11414285Y-177760285D01*
X11461904Y-177855523D01*
X11557142Y-177950761D01*
X11700000Y-177998380D01*
X11795238Y-177998380D01*
X11938095Y-177950761D01*
X11985714Y-177903142D01*
X11985714Y-177569809D01*
X11795238Y-177569809D01*
X12414285Y-177998380D02*
X12414285Y-176998380D01*
X12985714Y-177998380D01*
X12985714Y-176998380D01*
X13461904Y-177998380D02*
X13461904Y-176998380D01*
X13700000Y-176998380D01*
X13842857Y-177046000D01*
X13938095Y-177141238D01*
X13985714Y-177236476D01*
X14033333Y-177426952D01*
X14033333Y-177569809D01*
X13985714Y-177760285D01*
X13938095Y-177855523D01*
X13842857Y-177950761D01*
X13700000Y-177998380D01*
X13461904Y-177998380D01*
X11287285Y-167457428D02*
X12049190Y-167457428D01*
X11668238Y-167838380D02*
X11668238Y-167076476D01*
X13001571Y-166838380D02*
X12525380Y-166838380D01*
X12477761Y-167314571D01*
X12525380Y-167266952D01*
X12620619Y-167219333D01*
X12858714Y-167219333D01*
X12953952Y-167266952D01*
X13001571Y-167314571D01*
X13049190Y-167409809D01*
X13049190Y-167647904D01*
X13001571Y-167743142D01*
X12953952Y-167790761D01*
X12858714Y-167838380D01*
X12620619Y-167838380D01*
X12525380Y-167790761D01*
X12477761Y-167743142D01*
X13334904Y-166838380D02*
X13668238Y-167838380D01*
X14001571Y-166838380D01*
X18067928Y-187063571D02*
X18210785Y-187111190D01*
X18258404Y-187158809D01*
X18306023Y-187254047D01*
X18306023Y-187396904D01*
X18258404Y-187492142D01*
X18210785Y-187539761D01*
X18115547Y-187587380D01*
X17734595Y-187587380D01*
X17734595Y-186587380D01*
X18067928Y-186587380D01*
X18163166Y-186635000D01*
X18210785Y-186682619D01*
X18258404Y-186777857D01*
X18258404Y-186873095D01*
X18210785Y-186968333D01*
X18163166Y-187015952D01*
X18067928Y-187063571D01*
X17734595Y-187063571D01*
X19210785Y-187587380D02*
X18734595Y-187587380D01*
X18734595Y-186587380D01*
X19544119Y-187587380D02*
X19544119Y-186587380D01*
X19782214Y-186587380D01*
X19925071Y-186635000D01*
X20020309Y-186730238D01*
X20067928Y-186825476D01*
X20115547Y-187015952D01*
X20115547Y-187158809D01*
X20067928Y-187349285D01*
X20020309Y-187444523D01*
X19925071Y-187539761D01*
X19782214Y-187587380D01*
X19544119Y-187587380D01*
X21115547Y-187492142D02*
X21067928Y-187539761D01*
X20925071Y-187587380D01*
X20829833Y-187587380D01*
X20686976Y-187539761D01*
X20591738Y-187444523D01*
X20544119Y-187349285D01*
X20496500Y-187158809D01*
X20496500Y-187015952D01*
X20544119Y-186825476D01*
X20591738Y-186730238D01*
X20686976Y-186635000D01*
X20829833Y-186587380D01*
X20925071Y-186587380D01*
X21067928Y-186635000D01*
X21115547Y-186682619D01*
X22306023Y-187587380D02*
X22306023Y-186587380D01*
X22639357Y-187301666D01*
X22972690Y-186587380D01*
X22972690Y-187587380D01*
X23591738Y-187587380D02*
X23496500Y-187539761D01*
X23448880Y-187492142D01*
X23401261Y-187396904D01*
X23401261Y-187111190D01*
X23448880Y-187015952D01*
X23496500Y-186968333D01*
X23591738Y-186920714D01*
X23734595Y-186920714D01*
X23829833Y-186968333D01*
X23877452Y-187015952D01*
X23925071Y-187111190D01*
X23925071Y-187396904D01*
X23877452Y-187492142D01*
X23829833Y-187539761D01*
X23734595Y-187587380D01*
X23591738Y-187587380D01*
X24210785Y-186920714D02*
X24591738Y-186920714D01*
X24353642Y-186587380D02*
X24353642Y-187444523D01*
X24401261Y-187539761D01*
X24496500Y-187587380D01*
X24591738Y-187587380D01*
X25067928Y-187587380D02*
X24972690Y-187539761D01*
X24925071Y-187492142D01*
X24877452Y-187396904D01*
X24877452Y-187111190D01*
X24925071Y-187015952D01*
X24972690Y-186968333D01*
X25067928Y-186920714D01*
X25210785Y-186920714D01*
X25306023Y-186968333D01*
X25353642Y-187015952D01*
X25401261Y-187111190D01*
X25401261Y-187396904D01*
X25353642Y-187492142D01*
X25306023Y-187539761D01*
X25210785Y-187587380D01*
X25067928Y-187587380D01*
X25829833Y-187587380D02*
X25829833Y-186920714D01*
X25829833Y-187111190D02*
X25877452Y-187015952D01*
X25925071Y-186968333D01*
X26020309Y-186920714D01*
X26115547Y-186920714D01*
X27782214Y-187492142D02*
X27734595Y-187539761D01*
X27591738Y-187587380D01*
X27496500Y-187587380D01*
X27353642Y-187539761D01*
X27258404Y-187444523D01*
X27210785Y-187349285D01*
X27163166Y-187158809D01*
X27163166Y-187015952D01*
X27210785Y-186825476D01*
X27258404Y-186730238D01*
X27353642Y-186635000D01*
X27496500Y-186587380D01*
X27591738Y-186587380D01*
X27734595Y-186635000D01*
X27782214Y-186682619D01*
X28353642Y-187587380D02*
X28258404Y-187539761D01*
X28210785Y-187492142D01*
X28163166Y-187396904D01*
X28163166Y-187111190D01*
X28210785Y-187015952D01*
X28258404Y-186968333D01*
X28353642Y-186920714D01*
X28496500Y-186920714D01*
X28591738Y-186968333D01*
X28639357Y-187015952D01*
X28686976Y-187111190D01*
X28686976Y-187396904D01*
X28639357Y-187492142D01*
X28591738Y-187539761D01*
X28496500Y-187587380D01*
X28353642Y-187587380D01*
X29115547Y-186920714D02*
X29115547Y-187587380D01*
X29115547Y-187015952D02*
X29163166Y-186968333D01*
X29258404Y-186920714D01*
X29401261Y-186920714D01*
X29496500Y-186968333D01*
X29544119Y-187063571D01*
X29544119Y-187587380D01*
X29877452Y-186920714D02*
X30258404Y-186920714D01*
X30020309Y-186587380D02*
X30020309Y-187444523D01*
X30067928Y-187539761D01*
X30163166Y-187587380D01*
X30258404Y-187587380D01*
X30591738Y-187587380D02*
X30591738Y-186920714D01*
X30591738Y-187111190D02*
X30639357Y-187015952D01*
X30686976Y-186968333D01*
X30782214Y-186920714D01*
X30877452Y-186920714D01*
X31353642Y-187587380D02*
X31258404Y-187539761D01*
X31210785Y-187492142D01*
X31163166Y-187396904D01*
X31163166Y-187111190D01*
X31210785Y-187015952D01*
X31258404Y-186968333D01*
X31353642Y-186920714D01*
X31496500Y-186920714D01*
X31591738Y-186968333D01*
X31639357Y-187015952D01*
X31686976Y-187111190D01*
X31686976Y-187396904D01*
X31639357Y-187492142D01*
X31591738Y-187539761D01*
X31496500Y-187587380D01*
X31353642Y-187587380D01*
X32258404Y-187587380D02*
X32163166Y-187539761D01*
X32115547Y-187444523D01*
X32115547Y-186587380D01*
X32782214Y-187587380D02*
X32686976Y-187539761D01*
X32639357Y-187444523D01*
X32639357Y-186587380D01*
X33544119Y-187539761D02*
X33448880Y-187587380D01*
X33258404Y-187587380D01*
X33163166Y-187539761D01*
X33115547Y-187444523D01*
X33115547Y-187063571D01*
X33163166Y-186968333D01*
X33258404Y-186920714D01*
X33448880Y-186920714D01*
X33544119Y-186968333D01*
X33591738Y-187063571D01*
X33591738Y-187158809D01*
X33115547Y-187254047D01*
X34020309Y-187587380D02*
X34020309Y-186920714D01*
X34020309Y-187111190D02*
X34067928Y-187015952D01*
X34115547Y-186968333D01*
X34210785Y-186920714D01*
X34306023Y-186920714D01*
X17591738Y-188237380D02*
X17925071Y-189237380D01*
X18258404Y-188237380D01*
X18972690Y-189189761D02*
X18877452Y-189237380D01*
X18686976Y-189237380D01*
X18591738Y-189189761D01*
X18544119Y-189094523D01*
X18544119Y-188713571D01*
X18591738Y-188618333D01*
X18686976Y-188570714D01*
X18877452Y-188570714D01*
X18972690Y-188618333D01*
X19020309Y-188713571D01*
X19020309Y-188808809D01*
X18544119Y-188904047D01*
X19448880Y-189237380D02*
X19448880Y-188570714D01*
X19448880Y-188761190D02*
X19496500Y-188665952D01*
X19544119Y-188618333D01*
X19639357Y-188570714D01*
X19734595Y-188570714D01*
X20020309Y-189189761D02*
X20115547Y-189237380D01*
X20306023Y-189237380D01*
X20401261Y-189189761D01*
X20448880Y-189094523D01*
X20448880Y-189046904D01*
X20401261Y-188951666D01*
X20306023Y-188904047D01*
X20163166Y-188904047D01*
X20067928Y-188856428D01*
X20020309Y-188761190D01*
X20020309Y-188713571D01*
X20067928Y-188618333D01*
X20163166Y-188570714D01*
X20306023Y-188570714D01*
X20401261Y-188618333D01*
X20877452Y-189237380D02*
X20877452Y-188570714D01*
X20877452Y-188237380D02*
X20829833Y-188285000D01*
X20877452Y-188332619D01*
X20925071Y-188285000D01*
X20877452Y-188237380D01*
X20877452Y-188332619D01*
X21496500Y-189237380D02*
X21401261Y-189189761D01*
X21353642Y-189142142D01*
X21306023Y-189046904D01*
X21306023Y-188761190D01*
X21353642Y-188665952D01*
X21401261Y-188618333D01*
X21496500Y-188570714D01*
X21639357Y-188570714D01*
X21734595Y-188618333D01*
X21782214Y-188665952D01*
X21829833Y-188761190D01*
X21829833Y-189046904D01*
X21782214Y-189142142D01*
X21734595Y-189189761D01*
X21639357Y-189237380D01*
X21496500Y-189237380D01*
X22258404Y-188570714D02*
X22258404Y-189237380D01*
X22258404Y-188665952D02*
X22306023Y-188618333D01*
X22401261Y-188570714D01*
X22544119Y-188570714D01*
X22639357Y-188618333D01*
X22686976Y-188713571D01*
X22686976Y-189237380D01*
X23877452Y-188332619D02*
X23925071Y-188285000D01*
X24020309Y-188237380D01*
X24258404Y-188237380D01*
X24353642Y-188285000D01*
X24401261Y-188332619D01*
X24448880Y-188427857D01*
X24448880Y-188523095D01*
X24401261Y-188665952D01*
X23829833Y-189237380D01*
X24448880Y-189237380D01*
D12*
X37728869Y-184374404D02*
X37462202Y-183993452D01*
X37271726Y-184374404D02*
X37271726Y-183574404D01*
X37576488Y-183574404D01*
X37652678Y-183612500D01*
X37690773Y-183650595D01*
X37728869Y-183726785D01*
X37728869Y-183841071D01*
X37690773Y-183917261D01*
X37652678Y-183955357D01*
X37576488Y-183993452D01*
X37271726Y-183993452D01*
X38376488Y-184336309D02*
X38300297Y-184374404D01*
X38147916Y-184374404D01*
X38071726Y-184336309D01*
X38033630Y-184260119D01*
X38033630Y-183955357D01*
X38071726Y-183879166D01*
X38147916Y-183841071D01*
X38300297Y-183841071D01*
X38376488Y-183879166D01*
X38414583Y-183955357D01*
X38414583Y-184031547D01*
X38033630Y-184107738D01*
X38757440Y-183841071D02*
X38757440Y-184641071D01*
X38757440Y-183879166D02*
X38833630Y-183841071D01*
X38986011Y-183841071D01*
X39062202Y-183879166D01*
X39100297Y-183917261D01*
X39138392Y-183993452D01*
X39138392Y-184222023D01*
X39100297Y-184298214D01*
X39062202Y-184336309D01*
X38986011Y-184374404D01*
X38833630Y-184374404D01*
X38757440Y-184336309D01*
X39938392Y-184374404D02*
X39671726Y-183993452D01*
X39481250Y-184374404D02*
X39481250Y-183574404D01*
X39786011Y-183574404D01*
X39862202Y-183612500D01*
X39900297Y-183650595D01*
X39938392Y-183726785D01*
X39938392Y-183841071D01*
X39900297Y-183917261D01*
X39862202Y-183955357D01*
X39786011Y-183993452D01*
X39481250Y-183993452D01*
X40624107Y-184374404D02*
X40624107Y-183955357D01*
X40586011Y-183879166D01*
X40509821Y-183841071D01*
X40357440Y-183841071D01*
X40281250Y-183879166D01*
X40624107Y-184336309D02*
X40547916Y-184374404D01*
X40357440Y-184374404D01*
X40281250Y-184336309D01*
X40243154Y-184260119D01*
X40243154Y-184183928D01*
X40281250Y-184107738D01*
X40357440Y-184069642D01*
X40547916Y-184069642D01*
X40624107Y-184031547D01*
X41005059Y-183841071D02*
X41005059Y-184641071D01*
X41005059Y-183879166D02*
X41081250Y-183841071D01*
X41233630Y-183841071D01*
X41309821Y-183879166D01*
X41347916Y-183917261D01*
X41386011Y-183993452D01*
X41386011Y-184222023D01*
X41347916Y-184298214D01*
X41309821Y-184336309D01*
X41233630Y-184374404D01*
X41081250Y-184374404D01*
X41005059Y-184336309D01*
X42719345Y-184374404D02*
X42338392Y-184374404D01*
X42338392Y-183574404D01*
X42871726Y-183841071D02*
X43176488Y-183841071D01*
X42986011Y-183574404D02*
X42986011Y-184260119D01*
X43024107Y-184336309D01*
X43100297Y-184374404D01*
X43176488Y-184374404D01*
X43786011Y-184374404D02*
X43786011Y-183574404D01*
X43786011Y-184336309D02*
X43709821Y-184374404D01*
X43557440Y-184374404D01*
X43481250Y-184336309D01*
X43443154Y-184298214D01*
X43405059Y-184222023D01*
X43405059Y-183993452D01*
X43443154Y-183917261D01*
X43481250Y-183879166D01*
X43557440Y-183841071D01*
X43709821Y-183841071D01*
X43786011Y-183879166D01*
X37271726Y-185699404D02*
X37271726Y-185166071D01*
X37271726Y-185318452D02*
X37309821Y-185242261D01*
X37347916Y-185204166D01*
X37424107Y-185166071D01*
X37500297Y-185166071D01*
X38071726Y-185661309D02*
X37995535Y-185699404D01*
X37843154Y-185699404D01*
X37766964Y-185661309D01*
X37728869Y-185585119D01*
X37728869Y-185280357D01*
X37766964Y-185204166D01*
X37843154Y-185166071D01*
X37995535Y-185166071D01*
X38071726Y-185204166D01*
X38109821Y-185280357D01*
X38109821Y-185356547D01*
X37728869Y-185432738D01*
X38452678Y-185166071D02*
X38452678Y-185966071D01*
X38452678Y-185204166D02*
X38528869Y-185166071D01*
X38681250Y-185166071D01*
X38757440Y-185204166D01*
X38795535Y-185242261D01*
X38833630Y-185318452D01*
X38833630Y-185547023D01*
X38795535Y-185623214D01*
X38757440Y-185661309D01*
X38681250Y-185699404D01*
X38528869Y-185699404D01*
X38452678Y-185661309D01*
X39176488Y-185699404D02*
X39176488Y-185166071D01*
X39176488Y-185318452D02*
X39214583Y-185242261D01*
X39252678Y-185204166D01*
X39328869Y-185166071D01*
X39405059Y-185166071D01*
X40014583Y-185699404D02*
X40014583Y-185280357D01*
X39976488Y-185204166D01*
X39900297Y-185166071D01*
X39747916Y-185166071D01*
X39671726Y-185204166D01*
X40014583Y-185661309D02*
X39938392Y-185699404D01*
X39747916Y-185699404D01*
X39671726Y-185661309D01*
X39633630Y-185585119D01*
X39633630Y-185508928D01*
X39671726Y-185432738D01*
X39747916Y-185394642D01*
X39938392Y-185394642D01*
X40014583Y-185356547D01*
X40395535Y-185166071D02*
X40395535Y-185966071D01*
X40395535Y-185204166D02*
X40471726Y-185166071D01*
X40624107Y-185166071D01*
X40700297Y-185204166D01*
X40738392Y-185242261D01*
X40776488Y-185318452D01*
X40776488Y-185547023D01*
X40738392Y-185623214D01*
X40700297Y-185661309D01*
X40624107Y-185699404D01*
X40471726Y-185699404D01*
X40395535Y-185661309D01*
X41233630Y-185699404D02*
X41157440Y-185661309D01*
X41119345Y-185585119D01*
X41119345Y-184899404D01*
X41424107Y-185166071D02*
X41728869Y-185166071D01*
X41538392Y-184899404D02*
X41538392Y-185585119D01*
X41576488Y-185661309D01*
X41652678Y-185699404D01*
X41728869Y-185699404D01*
X42338392Y-185699404D02*
X42338392Y-184899404D01*
X42338392Y-185661309D02*
X42262202Y-185699404D01*
X42109821Y-185699404D01*
X42033630Y-185661309D01*
X41995535Y-185623214D01*
X41957440Y-185547023D01*
X41957440Y-185318452D01*
X41995535Y-185242261D01*
X42033630Y-185204166D01*
X42109821Y-185166071D01*
X42262202Y-185166071D01*
X42338392Y-185204166D01*
X42719345Y-185623214D02*
X42757440Y-185661309D01*
X42719345Y-185699404D01*
X42681250Y-185661309D01*
X42719345Y-185623214D01*
X42719345Y-185699404D01*
X43443154Y-185661309D02*
X43366964Y-185699404D01*
X43214583Y-185699404D01*
X43138392Y-185661309D01*
X43100297Y-185623214D01*
X43062202Y-185547023D01*
X43062202Y-185318452D01*
X43100297Y-185242261D01*
X43138392Y-185204166D01*
X43214583Y-185166071D01*
X43366964Y-185166071D01*
X43443154Y-185204166D01*
X43900297Y-185699404D02*
X43824107Y-185661309D01*
X43786011Y-185623214D01*
X43747916Y-185547023D01*
X43747916Y-185318452D01*
X43786011Y-185242261D01*
X43824107Y-185204166D01*
X43900297Y-185166071D01*
X44014583Y-185166071D01*
X44090773Y-185204166D01*
X44128869Y-185242261D01*
X44166964Y-185318452D01*
X44166964Y-185547023D01*
X44128869Y-185623214D01*
X44090773Y-185661309D01*
X44014583Y-185699404D01*
X43900297Y-185699404D01*
X44509821Y-185699404D02*
X44509821Y-185166071D01*
X44509821Y-185242261D02*
X44547916Y-185204166D01*
X44624107Y-185166071D01*
X44738392Y-185166071D01*
X44814583Y-185204166D01*
X44852678Y-185280357D01*
X44852678Y-185699404D01*
X44852678Y-185280357D02*
X44890773Y-185204166D01*
X44966964Y-185166071D01*
X45081250Y-185166071D01*
X45157440Y-185204166D01*
X45195535Y-185280357D01*
X45195535Y-185699404D01*
X37271726Y-187024404D02*
X37271726Y-186224404D01*
X37462202Y-186224404D01*
X37576488Y-186262500D01*
X37652678Y-186338690D01*
X37690773Y-186414880D01*
X37728869Y-186567261D01*
X37728869Y-186681547D01*
X37690773Y-186833928D01*
X37652678Y-186910119D01*
X37576488Y-186986309D01*
X37462202Y-187024404D01*
X37271726Y-187024404D01*
X38376488Y-186986309D02*
X38300297Y-187024404D01*
X38147916Y-187024404D01*
X38071726Y-186986309D01*
X38033630Y-186910119D01*
X38033630Y-186605357D01*
X38071726Y-186529166D01*
X38147916Y-186491071D01*
X38300297Y-186491071D01*
X38376488Y-186529166D01*
X38414583Y-186605357D01*
X38414583Y-186681547D01*
X38033630Y-186757738D01*
X38719345Y-186986309D02*
X38795535Y-187024404D01*
X38947916Y-187024404D01*
X39024107Y-186986309D01*
X39062202Y-186910119D01*
X39062202Y-186872023D01*
X39024107Y-186795833D01*
X38947916Y-186757738D01*
X38833630Y-186757738D01*
X38757440Y-186719642D01*
X38719345Y-186643452D01*
X38719345Y-186605357D01*
X38757440Y-186529166D01*
X38833630Y-186491071D01*
X38947916Y-186491071D01*
X39024107Y-186529166D01*
X39405059Y-187024404D02*
X39405059Y-186491071D01*
X39405059Y-186224404D02*
X39366964Y-186262500D01*
X39405059Y-186300595D01*
X39443154Y-186262500D01*
X39405059Y-186224404D01*
X39405059Y-186300595D01*
X40128869Y-186491071D02*
X40128869Y-187138690D01*
X40090773Y-187214880D01*
X40052678Y-187252976D01*
X39976488Y-187291071D01*
X39862202Y-187291071D01*
X39786011Y-187252976D01*
X40128869Y-186986309D02*
X40052678Y-187024404D01*
X39900297Y-187024404D01*
X39824107Y-186986309D01*
X39786011Y-186948214D01*
X39747916Y-186872023D01*
X39747916Y-186643452D01*
X39786011Y-186567261D01*
X39824107Y-186529166D01*
X39900297Y-186491071D01*
X40052678Y-186491071D01*
X40128869Y-186529166D01*
X40509821Y-186491071D02*
X40509821Y-187024404D01*
X40509821Y-186567261D02*
X40547916Y-186529166D01*
X40624107Y-186491071D01*
X40738392Y-186491071D01*
X40814583Y-186529166D01*
X40852678Y-186605357D01*
X40852678Y-187024404D01*
X41233630Y-186948214D02*
X41271726Y-186986309D01*
X41233630Y-187024404D01*
X41195535Y-186986309D01*
X41233630Y-186948214D01*
X41233630Y-187024404D01*
X41233630Y-186529166D02*
X41271726Y-186567261D01*
X41233630Y-186605357D01*
X41195535Y-186567261D01*
X41233630Y-186529166D01*
X41233630Y-186605357D01*
X42186011Y-186986309D02*
X42300297Y-187024404D01*
X42490773Y-187024404D01*
X42566964Y-186986309D01*
X42605059Y-186948214D01*
X42643154Y-186872023D01*
X42643154Y-186795833D01*
X42605059Y-186719642D01*
X42566964Y-186681547D01*
X42490773Y-186643452D01*
X42338392Y-186605357D01*
X42262202Y-186567261D01*
X42224107Y-186529166D01*
X42186011Y-186452976D01*
X42186011Y-186376785D01*
X42224107Y-186300595D01*
X42262202Y-186262500D01*
X42338392Y-186224404D01*
X42528869Y-186224404D01*
X42643154Y-186262500D01*
X43862202Y-186605357D02*
X43976488Y-186643452D01*
X44014583Y-186681547D01*
X44052678Y-186757738D01*
X44052678Y-186872023D01*
X44014583Y-186948214D01*
X43976488Y-186986309D01*
X43900297Y-187024404D01*
X43595535Y-187024404D01*
X43595535Y-186224404D01*
X43862202Y-186224404D01*
X43938392Y-186262500D01*
X43976488Y-186300595D01*
X44014583Y-186376785D01*
X44014583Y-186452976D01*
X43976488Y-186529166D01*
X43938392Y-186567261D01*
X43862202Y-186605357D01*
X43595535Y-186605357D01*
X44509821Y-187024404D02*
X44433630Y-186986309D01*
X44395535Y-186948214D01*
X44357440Y-186872023D01*
X44357440Y-186643452D01*
X44395535Y-186567261D01*
X44433630Y-186529166D01*
X44509821Y-186491071D01*
X44624107Y-186491071D01*
X44700297Y-186529166D01*
X44738392Y-186567261D01*
X44776488Y-186643452D01*
X44776488Y-186872023D01*
X44738392Y-186948214D01*
X44700297Y-186986309D01*
X44624107Y-187024404D01*
X44509821Y-187024404D01*
X45043154Y-186491071D02*
X45195535Y-187024404D01*
X45347916Y-186643452D01*
X45500297Y-187024404D01*
X45652678Y-186491071D01*
X45881250Y-186491071D02*
X46071726Y-187024404D01*
X46262202Y-186491071D02*
X46071726Y-187024404D01*
X45995535Y-187214880D01*
X45957440Y-187252976D01*
X45881250Y-187291071D01*
X46871726Y-186986309D02*
X46795535Y-187024404D01*
X46643154Y-187024404D01*
X46566964Y-186986309D01*
X46528869Y-186910119D01*
X46528869Y-186605357D01*
X46566964Y-186529166D01*
X46643154Y-186491071D01*
X46795535Y-186491071D01*
X46871726Y-186529166D01*
X46909821Y-186605357D01*
X46909821Y-186681547D01*
X46528869Y-186757738D01*
X47252678Y-187024404D02*
X47252678Y-186491071D01*
X47252678Y-186643452D02*
X47290773Y-186567261D01*
X47328869Y-186529166D01*
X47405059Y-186491071D01*
X47481250Y-186491071D01*
X37652678Y-188349404D02*
X37271726Y-188349404D01*
X37271726Y-187549404D01*
X37919345Y-188349404D02*
X37919345Y-187816071D01*
X37919345Y-187549404D02*
X37881250Y-187587500D01*
X37919345Y-187625595D01*
X37957440Y-187587500D01*
X37919345Y-187549404D01*
X37919345Y-187625595D01*
X38643154Y-188311309D02*
X38566964Y-188349404D01*
X38414583Y-188349404D01*
X38338392Y-188311309D01*
X38300297Y-188273214D01*
X38262202Y-188197023D01*
X38262202Y-187968452D01*
X38300297Y-187892261D01*
X38338392Y-187854166D01*
X38414583Y-187816071D01*
X38566964Y-187816071D01*
X38643154Y-187854166D01*
X39290773Y-188311309D02*
X39214583Y-188349404D01*
X39062202Y-188349404D01*
X38986011Y-188311309D01*
X38947916Y-188235119D01*
X38947916Y-187930357D01*
X38986011Y-187854166D01*
X39062202Y-187816071D01*
X39214583Y-187816071D01*
X39290773Y-187854166D01*
X39328869Y-187930357D01*
X39328869Y-188006547D01*
X38947916Y-188082738D01*
X39671726Y-187816071D02*
X39671726Y-188349404D01*
X39671726Y-187892261D02*
X39709821Y-187854166D01*
X39786011Y-187816071D01*
X39900297Y-187816071D01*
X39976488Y-187854166D01*
X40014583Y-187930357D01*
X40014583Y-188349404D01*
X40738392Y-188311309D02*
X40662202Y-188349404D01*
X40509821Y-188349404D01*
X40433630Y-188311309D01*
X40395535Y-188273214D01*
X40357440Y-188197023D01*
X40357440Y-187968452D01*
X40395535Y-187892261D01*
X40433630Y-187854166D01*
X40509821Y-187816071D01*
X40662202Y-187816071D01*
X40738392Y-187854166D01*
X41386011Y-188311309D02*
X41309821Y-188349404D01*
X41157440Y-188349404D01*
X41081250Y-188311309D01*
X41043154Y-188235119D01*
X41043154Y-187930357D01*
X41081250Y-187854166D01*
X41157440Y-187816071D01*
X41309821Y-187816071D01*
X41386011Y-187854166D01*
X41424107Y-187930357D01*
X41424107Y-188006547D01*
X41043154Y-188082738D01*
X41766964Y-188273214D02*
X41805059Y-188311309D01*
X41766964Y-188349404D01*
X41728869Y-188311309D01*
X41766964Y-188273214D01*
X41766964Y-188349404D01*
X41766964Y-187854166D02*
X41805059Y-187892261D01*
X41766964Y-187930357D01*
X41728869Y-187892261D01*
X41766964Y-187854166D01*
X41766964Y-187930357D01*
X43176488Y-187587500D02*
X43100297Y-187549404D01*
X42986011Y-187549404D01*
X42871726Y-187587500D01*
X42795535Y-187663690D01*
X42757440Y-187739880D01*
X42719345Y-187892261D01*
X42719345Y-188006547D01*
X42757440Y-188158928D01*
X42795535Y-188235119D01*
X42871726Y-188311309D01*
X42986011Y-188349404D01*
X43062202Y-188349404D01*
X43176488Y-188311309D01*
X43214583Y-188273214D01*
X43214583Y-188006547D01*
X43062202Y-188006547D01*
X43557440Y-188349404D02*
X43557440Y-187549404D01*
X43862202Y-187549404D01*
X43938392Y-187587500D01*
X43976488Y-187625595D01*
X44014583Y-187701785D01*
X44014583Y-187816071D01*
X43976488Y-187892261D01*
X43938392Y-187930357D01*
X43862202Y-187968452D01*
X43557440Y-187968452D01*
X44738392Y-188349404D02*
X44357440Y-188349404D01*
X44357440Y-187549404D01*
D11*
%TO.C,C1*%
X43513148Y-171245200D02*
X44035652Y-171245200D01*
X43513148Y-169775200D02*
X44035652Y-169775200D01*
%TO.C,C2*%
X20835252Y-159285000D02*
X20312748Y-159285000D01*
X20835252Y-160755000D02*
X20312748Y-160755000D01*
%TO.C,C3*%
X40581700Y-155984000D02*
G75*
G03*
X40581700Y-155984000I-4120000J0D01*
G01*
%TO.C,C5*%
X43500448Y-160364500D02*
X44022952Y-160364500D01*
X43500448Y-161834500D02*
X44022952Y-161834500D01*
%TO.C,C6*%
X23764648Y-180948000D02*
X24287152Y-180948000D01*
X23764648Y-179478000D02*
X24287152Y-179478000D01*
%TO.C,C7*%
X38346748Y-148363000D02*
X38869252Y-148363000D01*
X38346748Y-149833000D02*
X38869252Y-149833000D01*
%TO.C,C8*%
X19083348Y-166993900D02*
X19605852Y-166993900D01*
X19083348Y-168463900D02*
X19605852Y-168463900D01*
%TO.C,C10*%
X43153700Y-173436648D02*
X43153700Y-173959152D01*
X44623700Y-173436648D02*
X44623700Y-173959152D01*
%TO.C,D1*%
X45776000Y-149953000D02*
X45776000Y-152638000D01*
X47696000Y-149953000D02*
X45776000Y-149953000D01*
X47696000Y-152638000D02*
X47696000Y-149953000D01*
%TO.C,D2*%
X44053000Y-148138000D02*
X41368000Y-148138000D01*
X41368000Y-148138000D02*
X41368000Y-150058000D01*
X41368000Y-150058000D02*
X44053000Y-150058000D01*
%TO.C,J2*%
X14303700Y-178736300D02*
X16963700Y-178736300D01*
X14303700Y-168516300D02*
X14303700Y-178736300D01*
X16963700Y-168516300D02*
X16963700Y-178736300D01*
X14303700Y-168516300D02*
X16963700Y-168516300D01*
X14303700Y-167246300D02*
X14303700Y-165916300D01*
X14303700Y-165916300D02*
X15633700Y-165916300D01*
%TO.C,J3*%
X34604000Y-183524200D02*
X34604000Y-180864200D01*
X29464000Y-183524200D02*
X34604000Y-183524200D01*
X29464000Y-180864200D02*
X34604000Y-180864200D01*
X29464000Y-183524200D02*
X29464000Y-180864200D01*
X28194000Y-183524200D02*
X26864000Y-183524200D01*
X26864000Y-183524200D02*
X26864000Y-182194200D01*
%TO.C,J5*%
X47565000Y-160207000D02*
X50225000Y-160207000D01*
X47565000Y-157607000D02*
X47565000Y-160207000D01*
X50225000Y-157607000D02*
X50225000Y-160207000D01*
X47565000Y-157607000D02*
X50225000Y-157607000D01*
X47565000Y-156337000D02*
X47565000Y-155007000D01*
X47565000Y-155007000D02*
X48895000Y-155007000D01*
%TO.C,R1*%
X43547936Y-167667000D02*
X44002064Y-167667000D01*
X43547936Y-169137000D02*
X44002064Y-169137000D01*
%TO.C,R2*%
X43535236Y-165898500D02*
X43989364Y-165898500D01*
X43535236Y-164428500D02*
X43989364Y-164428500D01*
%TO.C,R3*%
X43989364Y-163930000D02*
X43535236Y-163930000D01*
X43989364Y-162460000D02*
X43535236Y-162460000D01*
%TO.C,R4*%
X23812136Y-181573500D02*
X24266264Y-181573500D01*
X23812136Y-183043500D02*
X24266264Y-183043500D01*
%TO.C,R5*%
X19993236Y-179643100D02*
X20447364Y-179643100D01*
X19993236Y-181113100D02*
X20447364Y-181113100D01*
%TO.C,R6*%
X19609164Y-164873000D02*
X19155036Y-164873000D01*
X19609164Y-166343000D02*
X19155036Y-166343000D01*
%TO.C,R7*%
X19955136Y-177534900D02*
X20409264Y-177534900D01*
X19955136Y-179004900D02*
X20409264Y-179004900D01*
%TO.C,R8*%
X43483200Y-177925464D02*
X43483200Y-177471336D01*
X42013200Y-177925464D02*
X42013200Y-177471336D01*
%TO.C,R9*%
X42530700Y-173420036D02*
X42530700Y-173874164D01*
X41060700Y-173420036D02*
X41060700Y-173874164D01*
%TO.C,R10*%
X20018636Y-176122000D02*
X20472764Y-176122000D01*
X20018636Y-174652000D02*
X20472764Y-174652000D01*
%TO.C,R11*%
X11074036Y-170422900D02*
X11528164Y-170422900D01*
X11074036Y-171892900D02*
X11528164Y-171892900D01*
%TO.C,R12*%
X11429636Y-175385400D02*
X11883764Y-175385400D01*
X11429636Y-173915400D02*
X11883764Y-173915400D01*
%TO.C,R13*%
X20018636Y-183221300D02*
X20472764Y-183221300D01*
X20018636Y-181751300D02*
X20472764Y-181751300D01*
%TO.C,U1*%
X36907100Y-178980100D02*
X25907100Y-178980100D01*
X36907100Y-162980100D02*
X36907100Y-178980100D01*
X25907100Y-164480100D02*
X27407100Y-162980100D01*
X25907100Y-178980100D02*
X25907100Y-164480100D01*
X27407100Y-162980100D02*
X36907100Y-162980100D01*
%TO.C,C9*%
X17620000Y-160750000D02*
G75*
G03*
X17620000Y-160750000I-4120000J0D01*
G01*
%TO.C,C4*%
X25153252Y-149071000D02*
X24630748Y-149071000D01*
X25153252Y-147601000D02*
X24630748Y-147601000D01*
%TO.C,U2*%
X22687000Y-156612000D02*
X24187000Y-156612000D01*
X24187000Y-156612000D02*
X24187000Y-156342000D01*
X24187000Y-156342000D02*
X27017000Y-156342000D01*
X22687000Y-149712000D02*
X24187000Y-149712000D01*
X24187000Y-149712000D02*
X24187000Y-149982000D01*
X24187000Y-149982000D02*
X25287000Y-149982000D01*
%TO.C,J1*%
X47565000Y-179765000D02*
X50225000Y-179765000D01*
X47565000Y-167005000D02*
X47565000Y-179765000D01*
X50225000Y-167005000D02*
X50225000Y-179765000D01*
X47565000Y-167005000D02*
X50225000Y-167005000D01*
X47565000Y-165735000D02*
X47565000Y-164405000D01*
X47565000Y-164405000D02*
X48895000Y-164405000D01*
%TO.C,C1*%
D10*
X40981333Y-170857142D02*
X40933714Y-170904761D01*
X40790857Y-170952380D01*
X40695619Y-170952380D01*
X40552761Y-170904761D01*
X40457523Y-170809523D01*
X40409904Y-170714285D01*
X40362285Y-170523809D01*
X40362285Y-170380952D01*
X40409904Y-170190476D01*
X40457523Y-170095238D01*
X40552761Y-170000000D01*
X40695619Y-169952380D01*
X40790857Y-169952380D01*
X40933714Y-170000000D01*
X40981333Y-170047619D01*
X41933714Y-170952380D02*
X41362285Y-170952380D01*
X41648000Y-170952380D02*
X41648000Y-169952380D01*
X41552761Y-170095238D01*
X41457523Y-170190476D01*
X41362285Y-170238095D01*
%TO.C,C2*%
X20407333Y-162057142D02*
X20359714Y-162104761D01*
X20216857Y-162152380D01*
X20121619Y-162152380D01*
X19978761Y-162104761D01*
X19883523Y-162009523D01*
X19835904Y-161914285D01*
X19788285Y-161723809D01*
X19788285Y-161580952D01*
X19835904Y-161390476D01*
X19883523Y-161295238D01*
X19978761Y-161200000D01*
X20121619Y-161152380D01*
X20216857Y-161152380D01*
X20359714Y-161200000D01*
X20407333Y-161247619D01*
X20788285Y-161247619D02*
X20835904Y-161200000D01*
X20931142Y-161152380D01*
X21169238Y-161152380D01*
X21264476Y-161200000D01*
X21312095Y-161247619D01*
X21359714Y-161342857D01*
X21359714Y-161438095D01*
X21312095Y-161580952D01*
X20740666Y-162152380D01*
X21359714Y-162152380D01*
%TO.C,C3*%
X31726142Y-155741666D02*
X31773761Y-155789285D01*
X31821380Y-155932142D01*
X31821380Y-156027380D01*
X31773761Y-156170238D01*
X31678523Y-156265476D01*
X31583285Y-156313095D01*
X31392809Y-156360714D01*
X31249952Y-156360714D01*
X31059476Y-156313095D01*
X30964238Y-156265476D01*
X30869000Y-156170238D01*
X30821380Y-156027380D01*
X30821380Y-155932142D01*
X30869000Y-155789285D01*
X30916619Y-155741666D01*
X30821380Y-155408333D02*
X30821380Y-154789285D01*
X31202333Y-155122619D01*
X31202333Y-154979761D01*
X31249952Y-154884523D01*
X31297571Y-154836904D01*
X31392809Y-154789285D01*
X31630904Y-154789285D01*
X31726142Y-154836904D01*
X31773761Y-154884523D01*
X31821380Y-154979761D01*
X31821380Y-155265476D01*
X31773761Y-155360714D01*
X31726142Y-155408333D01*
%TO.C,C5*%
X46315333Y-161520142D02*
X46267714Y-161567761D01*
X46124857Y-161615380D01*
X46029619Y-161615380D01*
X45886761Y-161567761D01*
X45791523Y-161472523D01*
X45743904Y-161377285D01*
X45696285Y-161186809D01*
X45696285Y-161043952D01*
X45743904Y-160853476D01*
X45791523Y-160758238D01*
X45886761Y-160663000D01*
X46029619Y-160615380D01*
X46124857Y-160615380D01*
X46267714Y-160663000D01*
X46315333Y-160710619D01*
X47220095Y-160615380D02*
X46743904Y-160615380D01*
X46696285Y-161091571D01*
X46743904Y-161043952D01*
X46839142Y-160996333D01*
X47077238Y-160996333D01*
X47172476Y-161043952D01*
X47220095Y-161091571D01*
X47267714Y-161186809D01*
X47267714Y-161424904D01*
X47220095Y-161520142D01*
X47172476Y-161567761D01*
X47077238Y-161615380D01*
X46839142Y-161615380D01*
X46743904Y-161567761D01*
X46696285Y-161520142D01*
%TO.C,C6*%
X23963333Y-178919142D02*
X23915714Y-178966761D01*
X23772857Y-179014380D01*
X23677619Y-179014380D01*
X23534761Y-178966761D01*
X23439523Y-178871523D01*
X23391904Y-178776285D01*
X23344285Y-178585809D01*
X23344285Y-178442952D01*
X23391904Y-178252476D01*
X23439523Y-178157238D01*
X23534761Y-178062000D01*
X23677619Y-178014380D01*
X23772857Y-178014380D01*
X23915714Y-178062000D01*
X23963333Y-178109619D01*
X24820476Y-178014380D02*
X24630000Y-178014380D01*
X24534761Y-178062000D01*
X24487142Y-178109619D01*
X24391904Y-178252476D01*
X24344285Y-178442952D01*
X24344285Y-178823904D01*
X24391904Y-178919142D01*
X24439523Y-178966761D01*
X24534761Y-179014380D01*
X24725238Y-179014380D01*
X24820476Y-178966761D01*
X24868095Y-178919142D01*
X24915714Y-178823904D01*
X24915714Y-178585809D01*
X24868095Y-178490571D01*
X24820476Y-178442952D01*
X24725238Y-178395333D01*
X24534761Y-178395333D01*
X24439523Y-178442952D01*
X24391904Y-178490571D01*
X24344285Y-178585809D01*
%TO.C,C7*%
X35774333Y-149582142D02*
X35726714Y-149629761D01*
X35583857Y-149677380D01*
X35488619Y-149677380D01*
X35345761Y-149629761D01*
X35250523Y-149534523D01*
X35202904Y-149439285D01*
X35155285Y-149248809D01*
X35155285Y-149105952D01*
X35202904Y-148915476D01*
X35250523Y-148820238D01*
X35345761Y-148725000D01*
X35488619Y-148677380D01*
X35583857Y-148677380D01*
X35726714Y-148725000D01*
X35774333Y-148772619D01*
X36107666Y-148677380D02*
X36774333Y-148677380D01*
X36345761Y-149677380D01*
%TO.C,C8*%
X21833333Y-168124142D02*
X21785714Y-168171761D01*
X21642857Y-168219380D01*
X21547619Y-168219380D01*
X21404761Y-168171761D01*
X21309523Y-168076523D01*
X21261904Y-167981285D01*
X21214285Y-167790809D01*
X21214285Y-167647952D01*
X21261904Y-167457476D01*
X21309523Y-167362238D01*
X21404761Y-167267000D01*
X21547619Y-167219380D01*
X21642857Y-167219380D01*
X21785714Y-167267000D01*
X21833333Y-167314619D01*
X22404761Y-167647952D02*
X22309523Y-167600333D01*
X22261904Y-167552714D01*
X22214285Y-167457476D01*
X22214285Y-167409857D01*
X22261904Y-167314619D01*
X22309523Y-167267000D01*
X22404761Y-167219380D01*
X22595238Y-167219380D01*
X22690476Y-167267000D01*
X22738095Y-167314619D01*
X22785714Y-167409857D01*
X22785714Y-167457476D01*
X22738095Y-167552714D01*
X22690476Y-167600333D01*
X22595238Y-167647952D01*
X22404761Y-167647952D01*
X22309523Y-167695571D01*
X22261904Y-167743190D01*
X22214285Y-167838428D01*
X22214285Y-168028904D01*
X22261904Y-168124142D01*
X22309523Y-168171761D01*
X22404761Y-168219380D01*
X22595238Y-168219380D01*
X22690476Y-168171761D01*
X22738095Y-168124142D01*
X22785714Y-168028904D01*
X22785714Y-167838428D01*
X22738095Y-167743190D01*
X22690476Y-167695571D01*
X22595238Y-167647952D01*
%TO.C,C10*%
X45925842Y-174340757D02*
X45973461Y-174388376D01*
X46021080Y-174531233D01*
X46021080Y-174626471D01*
X45973461Y-174769328D01*
X45878223Y-174864566D01*
X45782985Y-174912185D01*
X45592509Y-174959804D01*
X45449652Y-174959804D01*
X45259176Y-174912185D01*
X45163938Y-174864566D01*
X45068700Y-174769328D01*
X45021080Y-174626471D01*
X45021080Y-174531233D01*
X45068700Y-174388376D01*
X45116319Y-174340757D01*
X46021080Y-173388376D02*
X46021080Y-173959804D01*
X46021080Y-173674090D02*
X45021080Y-173674090D01*
X45163938Y-173769328D01*
X45259176Y-173864566D01*
X45306795Y-173959804D01*
X45021080Y-172769328D02*
X45021080Y-172674090D01*
X45068700Y-172578852D01*
X45116319Y-172531233D01*
X45211557Y-172483614D01*
X45402033Y-172435995D01*
X45640128Y-172435995D01*
X45830604Y-172483614D01*
X45925842Y-172531233D01*
X45973461Y-172578852D01*
X46021080Y-172674090D01*
X46021080Y-172769328D01*
X45973461Y-172864566D01*
X45925842Y-172912185D01*
X45830604Y-172959804D01*
X45640128Y-173007423D01*
X45402033Y-173007423D01*
X45211557Y-172959804D01*
X45116319Y-172912185D01*
X45068700Y-172864566D01*
X45021080Y-172769328D01*
%TO.C,D1*%
X45410380Y-152391095D02*
X44410380Y-152391095D01*
X44410380Y-152153000D01*
X44458000Y-152010142D01*
X44553238Y-151914904D01*
X44648476Y-151867285D01*
X44838952Y-151819666D01*
X44981809Y-151819666D01*
X45172285Y-151867285D01*
X45267523Y-151914904D01*
X45362761Y-152010142D01*
X45410380Y-152153000D01*
X45410380Y-152391095D01*
X45410380Y-150867285D02*
X45410380Y-151438714D01*
X45410380Y-151153000D02*
X44410380Y-151153000D01*
X44553238Y-151248238D01*
X44648476Y-151343476D01*
X44696095Y-151438714D01*
%TO.C,D2*%
X42368004Y-151226780D02*
X42368004Y-150226780D01*
X42606100Y-150226780D01*
X42748957Y-150274400D01*
X42844195Y-150369638D01*
X42891814Y-150464876D01*
X42939433Y-150655352D01*
X42939433Y-150798209D01*
X42891814Y-150988685D01*
X42844195Y-151083923D01*
X42748957Y-151179161D01*
X42606100Y-151226780D01*
X42368004Y-151226780D01*
X43320385Y-150322019D02*
X43368004Y-150274400D01*
X43463242Y-150226780D01*
X43701338Y-150226780D01*
X43796576Y-150274400D01*
X43844195Y-150322019D01*
X43891814Y-150417257D01*
X43891814Y-150512495D01*
X43844195Y-150655352D01*
X43272766Y-151226780D01*
X43891814Y-151226780D01*
%TO.C,R1*%
X40981333Y-168854380D02*
X40648000Y-168378190D01*
X40409904Y-168854380D02*
X40409904Y-167854380D01*
X40790857Y-167854380D01*
X40886095Y-167902000D01*
X40933714Y-167949619D01*
X40981333Y-168044857D01*
X40981333Y-168187714D01*
X40933714Y-168282952D01*
X40886095Y-168330571D01*
X40790857Y-168378190D01*
X40409904Y-168378190D01*
X41933714Y-168854380D02*
X41362285Y-168854380D01*
X41648000Y-168854380D02*
X41648000Y-167854380D01*
X41552761Y-167997238D01*
X41457523Y-168092476D01*
X41362285Y-168140095D01*
%TO.C,R2*%
X46333333Y-163702380D02*
X46000000Y-163226190D01*
X45761904Y-163702380D02*
X45761904Y-162702380D01*
X46142857Y-162702380D01*
X46238095Y-162750000D01*
X46285714Y-162797619D01*
X46333333Y-162892857D01*
X46333333Y-163035714D01*
X46285714Y-163130952D01*
X46238095Y-163178571D01*
X46142857Y-163226190D01*
X45761904Y-163226190D01*
X46714285Y-162797619D02*
X46761904Y-162750000D01*
X46857142Y-162702380D01*
X47095238Y-162702380D01*
X47190476Y-162750000D01*
X47238095Y-162797619D01*
X47285714Y-162892857D01*
X47285714Y-162988095D01*
X47238095Y-163130952D01*
X46666666Y-163702380D01*
X47285714Y-163702380D01*
%TO.C,R3*%
X46315333Y-165702380D02*
X45982000Y-165226190D01*
X45743904Y-165702380D02*
X45743904Y-164702380D01*
X46124857Y-164702380D01*
X46220095Y-164750000D01*
X46267714Y-164797619D01*
X46315333Y-164892857D01*
X46315333Y-165035714D01*
X46267714Y-165130952D01*
X46220095Y-165178571D01*
X46124857Y-165226190D01*
X45743904Y-165226190D01*
X46648666Y-164702380D02*
X47267714Y-164702380D01*
X46934380Y-165083333D01*
X47077238Y-165083333D01*
X47172476Y-165130952D01*
X47220095Y-165178571D01*
X47267714Y-165273809D01*
X47267714Y-165511904D01*
X47220095Y-165607142D01*
X47172476Y-165654761D01*
X47077238Y-165702380D01*
X46791523Y-165702380D01*
X46696285Y-165654761D01*
X46648666Y-165607142D01*
%TO.C,R4*%
X23836333Y-184475380D02*
X23503000Y-183999190D01*
X23264904Y-184475380D02*
X23264904Y-183475380D01*
X23645857Y-183475380D01*
X23741095Y-183523000D01*
X23788714Y-183570619D01*
X23836333Y-183665857D01*
X23836333Y-183808714D01*
X23788714Y-183903952D01*
X23741095Y-183951571D01*
X23645857Y-183999190D01*
X23264904Y-183999190D01*
X24693476Y-183808714D02*
X24693476Y-184475380D01*
X24455380Y-183427761D02*
X24217285Y-184142047D01*
X24836333Y-184142047D01*
%TO.C,R5*%
X17486333Y-180792380D02*
X17153000Y-180316190D01*
X16914904Y-180792380D02*
X16914904Y-179792380D01*
X17295857Y-179792380D01*
X17391095Y-179840000D01*
X17438714Y-179887619D01*
X17486333Y-179982857D01*
X17486333Y-180125714D01*
X17438714Y-180220952D01*
X17391095Y-180268571D01*
X17295857Y-180316190D01*
X16914904Y-180316190D01*
X18391095Y-179792380D02*
X17914904Y-179792380D01*
X17867285Y-180268571D01*
X17914904Y-180220952D01*
X18010142Y-180173333D01*
X18248238Y-180173333D01*
X18343476Y-180220952D01*
X18391095Y-180268571D01*
X18438714Y-180363809D01*
X18438714Y-180601904D01*
X18391095Y-180697142D01*
X18343476Y-180744761D01*
X18248238Y-180792380D01*
X18010142Y-180792380D01*
X17914904Y-180744761D01*
X17867285Y-180697142D01*
%TO.C,R6*%
X21931333Y-166060380D02*
X21598000Y-165584190D01*
X21359904Y-166060380D02*
X21359904Y-165060380D01*
X21740857Y-165060380D01*
X21836095Y-165108000D01*
X21883714Y-165155619D01*
X21931333Y-165250857D01*
X21931333Y-165393714D01*
X21883714Y-165488952D01*
X21836095Y-165536571D01*
X21740857Y-165584190D01*
X21359904Y-165584190D01*
X22788476Y-165060380D02*
X22598000Y-165060380D01*
X22502761Y-165108000D01*
X22455142Y-165155619D01*
X22359904Y-165298476D01*
X22312285Y-165488952D01*
X22312285Y-165869904D01*
X22359904Y-165965142D01*
X22407523Y-166012761D01*
X22502761Y-166060380D01*
X22693238Y-166060380D01*
X22788476Y-166012761D01*
X22836095Y-165965142D01*
X22883714Y-165869904D01*
X22883714Y-165631809D01*
X22836095Y-165536571D01*
X22788476Y-165488952D01*
X22693238Y-165441333D01*
X22502761Y-165441333D01*
X22407523Y-165488952D01*
X22359904Y-165536571D01*
X22312285Y-165631809D01*
%TO.C,R7*%
X17359333Y-179014380D02*
X17026000Y-178538190D01*
X16787904Y-179014380D02*
X16787904Y-178014380D01*
X17168857Y-178014380D01*
X17264095Y-178062000D01*
X17311714Y-178109619D01*
X17359333Y-178204857D01*
X17359333Y-178347714D01*
X17311714Y-178442952D01*
X17264095Y-178490571D01*
X17168857Y-178538190D01*
X16787904Y-178538190D01*
X17692666Y-178014380D02*
X18359333Y-178014380D01*
X17930761Y-179014380D01*
%TO.C,R8*%
X41550580Y-177865066D02*
X41074390Y-178198400D01*
X41550580Y-178436495D02*
X40550580Y-178436495D01*
X40550580Y-178055542D01*
X40598200Y-177960304D01*
X40645819Y-177912685D01*
X40741057Y-177865066D01*
X40883914Y-177865066D01*
X40979152Y-177912685D01*
X41026771Y-177960304D01*
X41074390Y-178055542D01*
X41074390Y-178436495D01*
X40979152Y-177293638D02*
X40931533Y-177388876D01*
X40883914Y-177436495D01*
X40788676Y-177484114D01*
X40741057Y-177484114D01*
X40645819Y-177436495D01*
X40598200Y-177388876D01*
X40550580Y-177293638D01*
X40550580Y-177103161D01*
X40598200Y-177007923D01*
X40645819Y-176960304D01*
X40741057Y-176912685D01*
X40788676Y-176912685D01*
X40883914Y-176960304D01*
X40931533Y-177007923D01*
X40979152Y-177103161D01*
X40979152Y-177293638D01*
X41026771Y-177388876D01*
X41074390Y-177436495D01*
X41169628Y-177484114D01*
X41360104Y-177484114D01*
X41455342Y-177436495D01*
X41502961Y-177388876D01*
X41550580Y-177293638D01*
X41550580Y-177103161D01*
X41502961Y-177007923D01*
X41455342Y-176960304D01*
X41360104Y-176912685D01*
X41169628Y-176912685D01*
X41074390Y-176960304D01*
X41026771Y-177007923D01*
X40979152Y-177103161D01*
%TO.C,R9*%
X40702380Y-173902666D02*
X40226190Y-174236000D01*
X40702380Y-174474095D02*
X39702380Y-174474095D01*
X39702380Y-174093142D01*
X39750000Y-173997904D01*
X39797619Y-173950285D01*
X39892857Y-173902666D01*
X40035714Y-173902666D01*
X40130952Y-173950285D01*
X40178571Y-173997904D01*
X40226190Y-174093142D01*
X40226190Y-174474095D01*
X40702380Y-173426476D02*
X40702380Y-173236000D01*
X40654761Y-173140761D01*
X40607142Y-173093142D01*
X40464285Y-172997904D01*
X40273809Y-172950285D01*
X39892857Y-172950285D01*
X39797619Y-172997904D01*
X39750000Y-173045523D01*
X39702380Y-173140761D01*
X39702380Y-173331238D01*
X39750000Y-173426476D01*
X39797619Y-173474095D01*
X39892857Y-173521714D01*
X40130952Y-173521714D01*
X40226190Y-173474095D01*
X40273809Y-173426476D01*
X40321428Y-173331238D01*
X40321428Y-173140761D01*
X40273809Y-173045523D01*
X40226190Y-172997904D01*
X40130952Y-172950285D01*
%TO.C,R10*%
X19423142Y-174188380D02*
X19089809Y-173712190D01*
X18851714Y-174188380D02*
X18851714Y-173188380D01*
X19232666Y-173188380D01*
X19327904Y-173236000D01*
X19375523Y-173283619D01*
X19423142Y-173378857D01*
X19423142Y-173521714D01*
X19375523Y-173616952D01*
X19327904Y-173664571D01*
X19232666Y-173712190D01*
X18851714Y-173712190D01*
X20375523Y-174188380D02*
X19804095Y-174188380D01*
X20089809Y-174188380D02*
X20089809Y-173188380D01*
X19994571Y-173331238D01*
X19899333Y-173426476D01*
X19804095Y-173474095D01*
X20994571Y-173188380D02*
X21089809Y-173188380D01*
X21185047Y-173236000D01*
X21232666Y-173283619D01*
X21280285Y-173378857D01*
X21327904Y-173569333D01*
X21327904Y-173807428D01*
X21280285Y-173997904D01*
X21232666Y-174093142D01*
X21185047Y-174140761D01*
X21089809Y-174188380D01*
X20994571Y-174188380D01*
X20899333Y-174140761D01*
X20851714Y-174093142D01*
X20804095Y-173997904D01*
X20756476Y-173807428D01*
X20756476Y-173569333D01*
X20804095Y-173378857D01*
X20851714Y-173283619D01*
X20899333Y-173236000D01*
X20994571Y-173188380D01*
%TO.C,R13*%
X16502142Y-182951380D02*
X16168809Y-182475190D01*
X15930714Y-182951380D02*
X15930714Y-181951380D01*
X16311666Y-181951380D01*
X16406904Y-181999000D01*
X16454523Y-182046619D01*
X16502142Y-182141857D01*
X16502142Y-182284714D01*
X16454523Y-182379952D01*
X16406904Y-182427571D01*
X16311666Y-182475190D01*
X15930714Y-182475190D01*
X17454523Y-182951380D02*
X16883095Y-182951380D01*
X17168809Y-182951380D02*
X17168809Y-181951380D01*
X17073571Y-182094238D01*
X16978333Y-182189476D01*
X16883095Y-182237095D01*
X17787857Y-181951380D02*
X18406904Y-181951380D01*
X18073571Y-182332333D01*
X18216428Y-182332333D01*
X18311666Y-182379952D01*
X18359285Y-182427571D01*
X18406904Y-182522809D01*
X18406904Y-182760904D01*
X18359285Y-182856142D01*
X18311666Y-182903761D01*
X18216428Y-182951380D01*
X17930714Y-182951380D01*
X17835476Y-182903761D01*
X17787857Y-182856142D01*
%TO.C,U1*%
X27395195Y-161332480D02*
X27395195Y-162142004D01*
X27442814Y-162237242D01*
X27490433Y-162284861D01*
X27585671Y-162332480D01*
X27776147Y-162332480D01*
X27871385Y-162284861D01*
X27919004Y-162237242D01*
X27966623Y-162142004D01*
X27966623Y-161332480D01*
X28966623Y-162332480D02*
X28395195Y-162332480D01*
X28680909Y-162332480D02*
X28680909Y-161332480D01*
X28585671Y-161475338D01*
X28490433Y-161570576D01*
X28395195Y-161618195D01*
%TO.C,C9*%
X9485333Y-164695142D02*
X9437714Y-164742761D01*
X9294857Y-164790380D01*
X9199619Y-164790380D01*
X9056761Y-164742761D01*
X8961523Y-164647523D01*
X8913904Y-164552285D01*
X8866285Y-164361809D01*
X8866285Y-164218952D01*
X8913904Y-164028476D01*
X8961523Y-163933238D01*
X9056761Y-163838000D01*
X9199619Y-163790380D01*
X9294857Y-163790380D01*
X9437714Y-163838000D01*
X9485333Y-163885619D01*
X9961523Y-164790380D02*
X10152000Y-164790380D01*
X10247238Y-164742761D01*
X10294857Y-164695142D01*
X10390095Y-164552285D01*
X10437714Y-164361809D01*
X10437714Y-163980857D01*
X10390095Y-163885619D01*
X10342476Y-163838000D01*
X10247238Y-163790380D01*
X10056761Y-163790380D01*
X9961523Y-163838000D01*
X9913904Y-163885619D01*
X9866285Y-163980857D01*
X9866285Y-164218952D01*
X9913904Y-164314190D01*
X9961523Y-164361809D01*
X10056761Y-164409428D01*
X10247238Y-164409428D01*
X10342476Y-164361809D01*
X10390095Y-164314190D01*
X10437714Y-164218952D01*
%TO.C,C4*%
X22058333Y-148820142D02*
X22010714Y-148867761D01*
X21867857Y-148915380D01*
X21772619Y-148915380D01*
X21629761Y-148867761D01*
X21534523Y-148772523D01*
X21486904Y-148677285D01*
X21439285Y-148486809D01*
X21439285Y-148343952D01*
X21486904Y-148153476D01*
X21534523Y-148058238D01*
X21629761Y-147963000D01*
X21772619Y-147915380D01*
X21867857Y-147915380D01*
X22010714Y-147963000D01*
X22058333Y-148010619D01*
X22915476Y-148248714D02*
X22915476Y-148915380D01*
X22677380Y-147867761D02*
X22439285Y-148582047D01*
X23058333Y-148582047D01*
%TO.C,H1*%
X51238095Y-186452380D02*
X51238095Y-185452380D01*
X51238095Y-185928571D02*
X51809523Y-185928571D01*
X51809523Y-186452380D02*
X51809523Y-185452380D01*
X52809523Y-186452380D02*
X52238095Y-186452380D01*
X52523809Y-186452380D02*
X52523809Y-185452380D01*
X52428571Y-185595238D01*
X52333333Y-185690476D01*
X52238095Y-185738095D01*
%TO.C,H2*%
X51238095Y-150452380D02*
X51238095Y-149452380D01*
X51238095Y-149928571D02*
X51809523Y-149928571D01*
X51809523Y-150452380D02*
X51809523Y-149452380D01*
X52238095Y-149547619D02*
X52285714Y-149500000D01*
X52380952Y-149452380D01*
X52619047Y-149452380D01*
X52714285Y-149500000D01*
X52761904Y-149547619D01*
X52809523Y-149642857D01*
X52809523Y-149738095D01*
X52761904Y-149880952D01*
X52190476Y-150452380D01*
X52809523Y-150452380D01*
%TO.C,H3*%
X11238095Y-151452380D02*
X11238095Y-150452380D01*
X11238095Y-150928571D02*
X11809523Y-150928571D01*
X11809523Y-151452380D02*
X11809523Y-150452380D01*
X12190476Y-150452380D02*
X12809523Y-150452380D01*
X12476190Y-150833333D01*
X12619047Y-150833333D01*
X12714285Y-150880952D01*
X12761904Y-150928571D01*
X12809523Y-151023809D01*
X12809523Y-151261904D01*
X12761904Y-151357142D01*
X12714285Y-151404761D01*
X12619047Y-151452380D01*
X12333333Y-151452380D01*
X12238095Y-151404761D01*
X12190476Y-151357142D01*
%TO.C,H4*%
X11238095Y-186452380D02*
X11238095Y-185452380D01*
X11238095Y-185928571D02*
X11809523Y-185928571D01*
X11809523Y-186452380D02*
X11809523Y-185452380D01*
X12714285Y-185785714D02*
X12714285Y-186452380D01*
X12476190Y-185404761D02*
X12238095Y-186119047D01*
X12857142Y-186119047D01*
%TO.C,U2*%
X27618095Y-151344380D02*
X27618095Y-152153904D01*
X27665714Y-152249142D01*
X27713333Y-152296761D01*
X27808571Y-152344380D01*
X27999047Y-152344380D01*
X28094285Y-152296761D01*
X28141904Y-152249142D01*
X28189523Y-152153904D01*
X28189523Y-151344380D01*
X28618095Y-151439619D02*
X28665714Y-151392000D01*
X28760952Y-151344380D01*
X28999047Y-151344380D01*
X29094285Y-151392000D01*
X29141904Y-151439619D01*
X29189523Y-151534857D01*
X29189523Y-151630095D01*
X29141904Y-151772952D01*
X28570476Y-152344380D01*
X29189523Y-152344380D01*
%TD*%
M02*
