%TF.GenerationSoftware,KiCad,Pcbnew,5.1.6-c6e7f7d~87~ubuntu18.04.1*%
%TF.CreationDate,2022-02-07T12:08:45+00:00*%
%TF.ProjectId,L6235-breakout,4c363233-352d-4627-9265-616b6f75742e,rev?*%
%TF.SameCoordinates,Original*%
%TF.FileFunction,Copper,L2,Bot*%
%TF.FilePolarity,Positive*%
%FSLAX46Y46*%
G04 Gerber Fmt 4.6, Leading zero omitted, Abs format (unit mm)*
G04 Created by KiCad (PCBNEW 5.1.6-c6e7f7d~87~ubuntu18.04.1) date 2022-02-07 12:08:45*
%MOMM*%
%LPD*%
G01*
G04 APERTURE LIST*
%TA.AperFunction,ComponentPad*%
%ADD10C,1.600000*%
%TD*%
%TA.AperFunction,ComponentPad*%
%ADD11R,1.700000X1.700000*%
%TD*%
%TA.AperFunction,ComponentPad*%
%ADD12O,1.700000X1.700000*%
%TD*%
%TA.AperFunction,ViaPad*%
%ADD13C,0.800000*%
%TD*%
%TA.AperFunction,Conductor*%
%ADD14C,0.300000*%
%TD*%
%TA.AperFunction,Conductor*%
%ADD15C,1.000000*%
%TD*%
%TA.AperFunction,Conductor*%
%ADD16C,0.254000*%
%TD*%
G04 APERTURE END LIST*
D10*
%TO.P,C3,1*%
%TO.N,VDD*%
X36461700Y-157734000D03*
%TO.P,C3,2*%
%TO.N,GND*%
X36461700Y-154234000D03*
%TD*%
D11*
%TO.P,J2,1*%
%TO.N,+5V*%
X15633700Y-167246300D03*
D12*
%TO.P,J2,2*%
%TO.N,HALL1*%
X15633700Y-169786300D03*
%TO.P,J2,3*%
%TO.N,HALL2*%
X15633700Y-172326300D03*
%TO.P,J2,4*%
%TO.N,HALL3*%
X15633700Y-174866300D03*
%TO.P,J2,5*%
%TO.N,GND*%
X15633700Y-177406300D03*
%TD*%
D11*
%TO.P,J3,1*%
%TO.N,PHASE1*%
X28194000Y-182194200D03*
D12*
%TO.P,J3,2*%
%TO.N,PHASE2*%
X30734000Y-182194200D03*
%TO.P,J3,3*%
%TO.N,PHASE3*%
X33274000Y-182194200D03*
%TD*%
D11*
%TO.P,J5,1*%
%TO.N,VDD*%
X48895000Y-156337000D03*
D12*
%TO.P,J5,2*%
%TO.N,GND*%
X48895000Y-158877000D03*
%TD*%
D10*
%TO.P,C9,1*%
%TO.N,+5V*%
X15250000Y-160750000D03*
%TO.P,C9,2*%
%TO.N,GND*%
X11750000Y-160750000D03*
%TD*%
D11*
%TO.P,J1,1*%
%TO.N,Net-(J1-Pad1)*%
X48895000Y-165735000D03*
D12*
%TO.P,J1,2*%
%TO.N,Net-(J1-Pad2)*%
X48895000Y-168275000D03*
%TO.P,J1,3*%
%TO.N,F-R*%
X48895000Y-170815000D03*
%TO.P,J1,4*%
%TO.N,BRAKE*%
X48895000Y-173355000D03*
%TO.P,J1,5*%
%TO.N,TACHO*%
X48895000Y-175895000D03*
%TO.P,J1,6*%
%TO.N,GND*%
X48895000Y-178435000D03*
%TD*%
D13*
%TO.N,GND*%
X33000000Y-174000000D03*
X32000000Y-174000000D03*
X31000000Y-174000000D03*
X32000000Y-173000000D03*
X31000000Y-173000000D03*
X33000000Y-173000000D03*
X33000000Y-172000000D03*
X32000000Y-172000000D03*
X31000000Y-172000000D03*
X31000000Y-167000000D03*
X31000000Y-168000000D03*
X31000000Y-169000000D03*
X31000000Y-170000000D03*
X31000000Y-171000000D03*
X32000000Y-171000000D03*
X33000000Y-171000000D03*
X33000000Y-170000000D03*
X32000000Y-170000000D03*
X32000000Y-169000000D03*
X33000000Y-169000000D03*
X33000000Y-168000000D03*
X32000000Y-168000000D03*
X32000000Y-167000000D03*
X33000000Y-167000000D03*
X34000000Y-167000000D03*
X34000000Y-168000000D03*
X34000000Y-169000000D03*
X34000000Y-170000000D03*
X34000000Y-171000000D03*
X34000000Y-172000000D03*
X34000000Y-173000000D03*
X34000000Y-174000000D03*
X34000000Y-175000000D03*
X33000000Y-175000000D03*
X32000000Y-175000000D03*
X31000000Y-175000000D03*
X30000000Y-175000000D03*
X29000000Y-175000000D03*
X29000000Y-174000000D03*
X30000000Y-174000000D03*
X30000000Y-173000000D03*
X29000000Y-173000000D03*
X29000000Y-172000000D03*
X30000000Y-172000000D03*
X30000000Y-171000000D03*
X29000000Y-171000000D03*
X29000000Y-170000000D03*
X30000000Y-170000000D03*
X30000000Y-169000000D03*
X29000000Y-169000000D03*
X29000000Y-168000000D03*
X30000000Y-168000000D03*
X30000000Y-167000000D03*
X29000000Y-167000000D03*
X46723300Y-162128200D03*
X37907100Y-164132400D03*
X45570100Y-174647900D03*
X37907100Y-177873800D03*
X24975900Y-177424000D03*
X46800000Y-169400000D03*
%TO.N,+5V*%
X10388600Y-169291000D03*
X19333200Y-173287700D03*
X40260900Y-178610900D03*
X28575000Y-149098000D03*
%TO.N,Net-(D1-Pad1)*%
X30353000Y-151765000D03*
X18415000Y-162941000D03*
%TO.N,BRAKE*%
X36576000Y-161544000D03*
%TO.N,PHASE2*%
X27025600Y-167538400D03*
%TO.N,Net-(R13-Pad2)*%
X37338000Y-179959000D03*
X21209000Y-185420000D03*
%TO.N,VDD*%
X36830000Y-163703000D03*
X30086300Y-157607000D03*
%TD*%
D14*
%TO.N,+5V*%
X12433300Y-167246300D02*
X10388600Y-169291000D01*
X15633700Y-167246300D02*
X12433300Y-167246300D01*
X19333200Y-170945800D02*
X15633700Y-167246300D01*
X19333200Y-173287700D02*
X19333200Y-170945800D01*
X40260900Y-178610900D02*
X40260900Y-179944400D01*
X19333200Y-182617100D02*
X19333200Y-173287700D01*
X19333200Y-182617100D02*
X19333200Y-186084200D01*
X19333200Y-186084200D02*
X20574000Y-187325000D01*
X20574000Y-187325000D02*
X39751000Y-187325000D01*
X40260900Y-186815100D02*
X40260900Y-178610900D01*
X39751000Y-187325000D02*
X40260900Y-186815100D01*
D15*
X26902000Y-149098000D02*
X15250000Y-160750000D01*
X28575000Y-149098000D02*
X26902000Y-149098000D01*
D14*
%TO.N,Net-(D1-Pad1)*%
X30353000Y-151765000D02*
X29591000Y-151765000D01*
X29591000Y-151765000D02*
X18415000Y-162941000D01*
X18415000Y-162941000D02*
X18415000Y-162941000D01*
%TO.N,BRAKE*%
X37071300Y-161607500D02*
X48793400Y-173329600D01*
X37007800Y-161544000D02*
X37071300Y-161607500D01*
X36576000Y-161544000D02*
X37007800Y-161544000D01*
D15*
%TO.N,PHASE2*%
X20828000Y-167690800D02*
X20828000Y-178689000D01*
X20828000Y-178689000D02*
X22098000Y-179959000D01*
X22098000Y-179959000D02*
X30353000Y-179959000D01*
X30734000Y-180340000D02*
X30734000Y-182194200D01*
X30353000Y-179959000D02*
X30734000Y-180340000D01*
X20980400Y-167538400D02*
X20828000Y-167690800D01*
X27025600Y-167538400D02*
X20980400Y-167538400D01*
%TO.N,Net-(R13-Pad2)*%
X37338000Y-179959000D02*
X37338000Y-184912000D01*
X37338000Y-184912000D02*
X36830000Y-185420000D01*
X36830000Y-185420000D02*
X21209000Y-185420000D01*
X21209000Y-185420000D02*
X21209000Y-185420000D01*
%TO.N,VDD*%
X36830000Y-163703000D02*
X35941000Y-163703000D01*
X37604700Y-156591000D02*
X36461700Y-157734000D01*
X37858700Y-156337000D02*
X37604700Y-156591000D01*
X48895000Y-156337000D02*
X37858700Y-156337000D01*
X30086300Y-157607000D02*
X30086300Y-157607000D01*
X34417000Y-162179000D02*
X34544000Y-162306000D01*
X35941000Y-163703000D02*
X34544000Y-162306000D01*
X36461700Y-157734000D02*
X34417000Y-157734000D01*
X34417000Y-157734000D02*
X34417000Y-162179000D01*
X34417000Y-157734000D02*
X30200600Y-157734000D01*
%TD*%
D16*
%TO.N,GND*%
G36*
X55340001Y-189340000D02*
G01*
X8660000Y-189340000D01*
X8660000Y-185779872D01*
X9765000Y-185779872D01*
X9765000Y-186220128D01*
X9850890Y-186651925D01*
X10019369Y-187058669D01*
X10263962Y-187424729D01*
X10575271Y-187736038D01*
X10941331Y-187980631D01*
X11348075Y-188149110D01*
X11779872Y-188235000D01*
X12220128Y-188235000D01*
X12651925Y-188149110D01*
X13058669Y-187980631D01*
X13424729Y-187736038D01*
X13736038Y-187424729D01*
X13980631Y-187058669D01*
X14149110Y-186651925D01*
X14235000Y-186220128D01*
X14235000Y-185779872D01*
X14149110Y-185348075D01*
X13980631Y-184941331D01*
X13736038Y-184575271D01*
X13424729Y-184263962D01*
X13058669Y-184019369D01*
X12651925Y-183850890D01*
X12220128Y-183765000D01*
X11779872Y-183765000D01*
X11348075Y-183850890D01*
X10941331Y-184019369D01*
X10575271Y-184263962D01*
X10263962Y-184575271D01*
X10019369Y-184941331D01*
X9850890Y-185348075D01*
X9765000Y-185779872D01*
X8660000Y-185779872D01*
X8660000Y-177763190D01*
X14192224Y-177763190D01*
X14236875Y-177910399D01*
X14362059Y-178173220D01*
X14536112Y-178406569D01*
X14752345Y-178601478D01*
X15002448Y-178750457D01*
X15276809Y-178847781D01*
X15506700Y-178727114D01*
X15506700Y-177533300D01*
X15760700Y-177533300D01*
X15760700Y-178727114D01*
X15990591Y-178847781D01*
X16264952Y-178750457D01*
X16515055Y-178601478D01*
X16731288Y-178406569D01*
X16905341Y-178173220D01*
X17030525Y-177910399D01*
X17075176Y-177763190D01*
X16953855Y-177533300D01*
X15760700Y-177533300D01*
X15506700Y-177533300D01*
X14313545Y-177533300D01*
X14192224Y-177763190D01*
X8660000Y-177763190D01*
X8660000Y-169189061D01*
X9353600Y-169189061D01*
X9353600Y-169392939D01*
X9393374Y-169592898D01*
X9471395Y-169781256D01*
X9584663Y-169950774D01*
X9728826Y-170094937D01*
X9898344Y-170208205D01*
X10086702Y-170286226D01*
X10286661Y-170326000D01*
X10490539Y-170326000D01*
X10690498Y-170286226D01*
X10878856Y-170208205D01*
X11048374Y-170094937D01*
X11192537Y-169950774D01*
X11305805Y-169781256D01*
X11383826Y-169592898D01*
X11423600Y-169392939D01*
X11423600Y-169366157D01*
X12758458Y-168031300D01*
X14145628Y-168031300D01*
X14145628Y-168096300D01*
X14157888Y-168220782D01*
X14194198Y-168340480D01*
X14253163Y-168450794D01*
X14332515Y-168547485D01*
X14429206Y-168626837D01*
X14539520Y-168685802D01*
X14612080Y-168707813D01*
X14480225Y-168839668D01*
X14317710Y-169082889D01*
X14205768Y-169353142D01*
X14148700Y-169640040D01*
X14148700Y-169932560D01*
X14205768Y-170219458D01*
X14317710Y-170489711D01*
X14480225Y-170732932D01*
X14687068Y-170939775D01*
X14861460Y-171056300D01*
X14687068Y-171172825D01*
X14480225Y-171379668D01*
X14317710Y-171622889D01*
X14205768Y-171893142D01*
X14148700Y-172180040D01*
X14148700Y-172472560D01*
X14205768Y-172759458D01*
X14317710Y-173029711D01*
X14480225Y-173272932D01*
X14687068Y-173479775D01*
X14861460Y-173596300D01*
X14687068Y-173712825D01*
X14480225Y-173919668D01*
X14317710Y-174162889D01*
X14205768Y-174433142D01*
X14148700Y-174720040D01*
X14148700Y-175012560D01*
X14205768Y-175299458D01*
X14317710Y-175569711D01*
X14480225Y-175812932D01*
X14687068Y-176019775D01*
X14869234Y-176141495D01*
X14752345Y-176211122D01*
X14536112Y-176406031D01*
X14362059Y-176639380D01*
X14236875Y-176902201D01*
X14192224Y-177049410D01*
X14313545Y-177279300D01*
X15506700Y-177279300D01*
X15506700Y-177259300D01*
X15760700Y-177259300D01*
X15760700Y-177279300D01*
X16953855Y-177279300D01*
X17075176Y-177049410D01*
X17030525Y-176902201D01*
X16905341Y-176639380D01*
X16731288Y-176406031D01*
X16515055Y-176211122D01*
X16398166Y-176141495D01*
X16580332Y-176019775D01*
X16787175Y-175812932D01*
X16949690Y-175569711D01*
X17061632Y-175299458D01*
X17118700Y-175012560D01*
X17118700Y-174720040D01*
X17061632Y-174433142D01*
X16949690Y-174162889D01*
X16787175Y-173919668D01*
X16580332Y-173712825D01*
X16405940Y-173596300D01*
X16580332Y-173479775D01*
X16787175Y-173272932D01*
X16949690Y-173029711D01*
X17061632Y-172759458D01*
X17118700Y-172472560D01*
X17118700Y-172180040D01*
X17061632Y-171893142D01*
X16949690Y-171622889D01*
X16787175Y-171379668D01*
X16580332Y-171172825D01*
X16405940Y-171056300D01*
X16580332Y-170939775D01*
X16787175Y-170732932D01*
X16949690Y-170489711D01*
X17061632Y-170219458D01*
X17118700Y-169932560D01*
X17118700Y-169841458D01*
X18548201Y-171270959D01*
X18548200Y-172608989D01*
X18529263Y-172627926D01*
X18415995Y-172797444D01*
X18337974Y-172985802D01*
X18298200Y-173185761D01*
X18298200Y-173389639D01*
X18337974Y-173589598D01*
X18415995Y-173777956D01*
X18529263Y-173947474D01*
X18548201Y-173966412D01*
X18548200Y-182578539D01*
X18548200Y-182578540D01*
X18548201Y-186045637D01*
X18544403Y-186084200D01*
X18559559Y-186238086D01*
X18604446Y-186386059D01*
X18604447Y-186386060D01*
X18677339Y-186522433D01*
X18708573Y-186560491D01*
X18750855Y-186612012D01*
X18750859Y-186612016D01*
X18775437Y-186641964D01*
X18805385Y-186666542D01*
X19991658Y-187852815D01*
X20016236Y-187882764D01*
X20046184Y-187907342D01*
X20046187Y-187907345D01*
X20075559Y-187931450D01*
X20135767Y-187980862D01*
X20272140Y-188053754D01*
X20420112Y-188098641D01*
X20434490Y-188100057D01*
X20535439Y-188110000D01*
X20535446Y-188110000D01*
X20573999Y-188113797D01*
X20612552Y-188110000D01*
X39712447Y-188110000D01*
X39751000Y-188113797D01*
X39789553Y-188110000D01*
X39789561Y-188110000D01*
X39904887Y-188098641D01*
X40052860Y-188053754D01*
X40189233Y-187980862D01*
X40308764Y-187882764D01*
X40333347Y-187852810D01*
X40788711Y-187397446D01*
X40818664Y-187372864D01*
X40916762Y-187253333D01*
X40989654Y-187116960D01*
X41034541Y-186968987D01*
X41045900Y-186853661D01*
X41045900Y-186853654D01*
X41049697Y-186815101D01*
X41045900Y-186776548D01*
X41045900Y-185779872D01*
X49765000Y-185779872D01*
X49765000Y-186220128D01*
X49850890Y-186651925D01*
X50019369Y-187058669D01*
X50263962Y-187424729D01*
X50575271Y-187736038D01*
X50941331Y-187980631D01*
X51348075Y-188149110D01*
X51779872Y-188235000D01*
X52220128Y-188235000D01*
X52651925Y-188149110D01*
X53058669Y-187980631D01*
X53424729Y-187736038D01*
X53736038Y-187424729D01*
X53980631Y-187058669D01*
X54149110Y-186651925D01*
X54235000Y-186220128D01*
X54235000Y-185779872D01*
X54149110Y-185348075D01*
X53980631Y-184941331D01*
X53736038Y-184575271D01*
X53424729Y-184263962D01*
X53058669Y-184019369D01*
X52651925Y-183850890D01*
X52220128Y-183765000D01*
X51779872Y-183765000D01*
X51348075Y-183850890D01*
X50941331Y-184019369D01*
X50575271Y-184263962D01*
X50263962Y-184575271D01*
X50019369Y-184941331D01*
X49850890Y-185348075D01*
X49765000Y-185779872D01*
X41045900Y-185779872D01*
X41045900Y-179289611D01*
X41064837Y-179270674D01*
X41178105Y-179101156D01*
X41256126Y-178912798D01*
X41280175Y-178791890D01*
X47453524Y-178791890D01*
X47498175Y-178939099D01*
X47623359Y-179201920D01*
X47797412Y-179435269D01*
X48013645Y-179630178D01*
X48263748Y-179779157D01*
X48538109Y-179876481D01*
X48768000Y-179755814D01*
X48768000Y-178562000D01*
X49022000Y-178562000D01*
X49022000Y-179755814D01*
X49251891Y-179876481D01*
X49526252Y-179779157D01*
X49776355Y-179630178D01*
X49992588Y-179435269D01*
X50166641Y-179201920D01*
X50291825Y-178939099D01*
X50336476Y-178791890D01*
X50215155Y-178562000D01*
X49022000Y-178562000D01*
X48768000Y-178562000D01*
X47574845Y-178562000D01*
X47453524Y-178791890D01*
X41280175Y-178791890D01*
X41295900Y-178712839D01*
X41295900Y-178508961D01*
X41256126Y-178309002D01*
X41178105Y-178120644D01*
X41064837Y-177951126D01*
X40920674Y-177806963D01*
X40751156Y-177693695D01*
X40562798Y-177615674D01*
X40362839Y-177575900D01*
X40158961Y-177575900D01*
X39959002Y-177615674D01*
X39770644Y-177693695D01*
X39601126Y-177806963D01*
X39456963Y-177951126D01*
X39343695Y-178120644D01*
X39265674Y-178309002D01*
X39225900Y-178508961D01*
X39225900Y-178712839D01*
X39265674Y-178912798D01*
X39343695Y-179101156D01*
X39456963Y-179270674D01*
X39475901Y-179289612D01*
X39475900Y-186489943D01*
X39425843Y-186540000D01*
X37038051Y-186540000D01*
X37052499Y-186538577D01*
X37266447Y-186473676D01*
X37463623Y-186368284D01*
X37636449Y-186226449D01*
X37671996Y-186183135D01*
X38101135Y-185753996D01*
X38144449Y-185718449D01*
X38286284Y-185545623D01*
X38391676Y-185348447D01*
X38456577Y-185134499D01*
X38473000Y-184967752D01*
X38473000Y-184967743D01*
X38478490Y-184912001D01*
X38473000Y-184856259D01*
X38473000Y-179903248D01*
X38456577Y-179736501D01*
X38391676Y-179522553D01*
X38286284Y-179325377D01*
X38144449Y-179152551D01*
X37971623Y-179010716D01*
X37774446Y-178905324D01*
X37560498Y-178840423D01*
X37338000Y-178818509D01*
X37115501Y-178840423D01*
X36901553Y-178905324D01*
X36704377Y-179010716D01*
X36531551Y-179152551D01*
X36389716Y-179325377D01*
X36284324Y-179522554D01*
X36219423Y-179736502D01*
X36203000Y-179903249D01*
X36203001Y-184285000D01*
X21153248Y-184285000D01*
X20986501Y-184301423D01*
X20772553Y-184366324D01*
X20575377Y-184471716D01*
X20402551Y-184613551D01*
X20260716Y-184786377D01*
X20155324Y-184983553D01*
X20118200Y-185105933D01*
X20118200Y-179584331D01*
X21256008Y-180722140D01*
X21291551Y-180765449D01*
X21464377Y-180907284D01*
X21661553Y-181012676D01*
X21825705Y-181062471D01*
X21875500Y-181077577D01*
X21896493Y-181079644D01*
X22042248Y-181094000D01*
X22042255Y-181094000D01*
X22097999Y-181099490D01*
X22153743Y-181094000D01*
X26757716Y-181094000D01*
X26754498Y-181100020D01*
X26718188Y-181219718D01*
X26705928Y-181344200D01*
X26705928Y-183044200D01*
X26718188Y-183168682D01*
X26754498Y-183288380D01*
X26813463Y-183398694D01*
X26892815Y-183495385D01*
X26989506Y-183574737D01*
X27099820Y-183633702D01*
X27219518Y-183670012D01*
X27344000Y-183682272D01*
X29044000Y-183682272D01*
X29168482Y-183670012D01*
X29288180Y-183633702D01*
X29398494Y-183574737D01*
X29495185Y-183495385D01*
X29574537Y-183398694D01*
X29633502Y-183288380D01*
X29655513Y-183215820D01*
X29787368Y-183347675D01*
X30030589Y-183510190D01*
X30300842Y-183622132D01*
X30587740Y-183679200D01*
X30880260Y-183679200D01*
X31167158Y-183622132D01*
X31437411Y-183510190D01*
X31680632Y-183347675D01*
X31887475Y-183140832D01*
X32004000Y-182966440D01*
X32120525Y-183140832D01*
X32327368Y-183347675D01*
X32570589Y-183510190D01*
X32840842Y-183622132D01*
X33127740Y-183679200D01*
X33420260Y-183679200D01*
X33707158Y-183622132D01*
X33977411Y-183510190D01*
X34220632Y-183347675D01*
X34427475Y-183140832D01*
X34589990Y-182897611D01*
X34701932Y-182627358D01*
X34759000Y-182340460D01*
X34759000Y-182047940D01*
X34701932Y-181761042D01*
X34589990Y-181490789D01*
X34427475Y-181247568D01*
X34220632Y-181040725D01*
X33977411Y-180878210D01*
X33707158Y-180766268D01*
X33420260Y-180709200D01*
X33127740Y-180709200D01*
X32840842Y-180766268D01*
X32570589Y-180878210D01*
X32327368Y-181040725D01*
X32120525Y-181247568D01*
X32004000Y-181421960D01*
X31887475Y-181247568D01*
X31869000Y-181229093D01*
X31869000Y-180395741D01*
X31874490Y-180339999D01*
X31869000Y-180284257D01*
X31869000Y-180284248D01*
X31852577Y-180117501D01*
X31787676Y-179903553D01*
X31682284Y-179706377D01*
X31540449Y-179533551D01*
X31497135Y-179498004D01*
X31194996Y-179195865D01*
X31159449Y-179152551D01*
X30986623Y-179010716D01*
X30789447Y-178905324D01*
X30575499Y-178840423D01*
X30408752Y-178824000D01*
X30408751Y-178824000D01*
X30353000Y-178818509D01*
X30297249Y-178824000D01*
X22568132Y-178824000D01*
X21963000Y-178218869D01*
X21963000Y-168673400D01*
X27081352Y-168673400D01*
X27248099Y-168656977D01*
X27462047Y-168592076D01*
X27659223Y-168486684D01*
X27832049Y-168344849D01*
X27973884Y-168172023D01*
X28079276Y-167974847D01*
X28144177Y-167760899D01*
X28166091Y-167538400D01*
X28144177Y-167315901D01*
X28079276Y-167101953D01*
X27973884Y-166904777D01*
X27832049Y-166731951D01*
X27659223Y-166590116D01*
X27462047Y-166484724D01*
X27248099Y-166419823D01*
X27081352Y-166403400D01*
X21036151Y-166403400D01*
X20980399Y-166397909D01*
X20924648Y-166403400D01*
X20757901Y-166419823D01*
X20543953Y-166484724D01*
X20346777Y-166590116D01*
X20173951Y-166731951D01*
X20138404Y-166775265D01*
X20064865Y-166848804D01*
X20021551Y-166884351D01*
X19879716Y-167057177D01*
X19783866Y-167236502D01*
X19774324Y-167254354D01*
X19709423Y-167468302D01*
X19687509Y-167690800D01*
X19693000Y-167746552D01*
X19693000Y-170195442D01*
X17121772Y-167624215D01*
X17121772Y-166396300D01*
X17109512Y-166271818D01*
X17073202Y-166152120D01*
X17014237Y-166041806D01*
X16934885Y-165945115D01*
X16838194Y-165865763D01*
X16727880Y-165806798D01*
X16608182Y-165770488D01*
X16483700Y-165758228D01*
X14783700Y-165758228D01*
X14659218Y-165770488D01*
X14539520Y-165806798D01*
X14429206Y-165865763D01*
X14332515Y-165945115D01*
X14253163Y-166041806D01*
X14194198Y-166152120D01*
X14157888Y-166271818D01*
X14145628Y-166396300D01*
X14145628Y-166461300D01*
X12471852Y-166461300D01*
X12433299Y-166457503D01*
X12394746Y-166461300D01*
X12394739Y-166461300D01*
X12293790Y-166471243D01*
X12279412Y-166472659D01*
X12244972Y-166483106D01*
X12131440Y-166517546D01*
X11995067Y-166590438D01*
X11957590Y-166621195D01*
X11905487Y-166663955D01*
X11905484Y-166663958D01*
X11875536Y-166688536D01*
X11850958Y-166718484D01*
X10313443Y-168256000D01*
X10286661Y-168256000D01*
X10086702Y-168295774D01*
X9898344Y-168373795D01*
X9728826Y-168487063D01*
X9584663Y-168631226D01*
X9471395Y-168800744D01*
X9393374Y-168989102D01*
X9353600Y-169189061D01*
X8660000Y-169189061D01*
X8660000Y-162839061D01*
X17380000Y-162839061D01*
X17380000Y-163042939D01*
X17419774Y-163242898D01*
X17497795Y-163431256D01*
X17611063Y-163600774D01*
X17755226Y-163744937D01*
X17924744Y-163858205D01*
X18113102Y-163936226D01*
X18313061Y-163976000D01*
X18516939Y-163976000D01*
X18716898Y-163936226D01*
X18905256Y-163858205D01*
X19074774Y-163744937D01*
X19218937Y-163600774D01*
X19332205Y-163431256D01*
X19410226Y-163242898D01*
X19450000Y-163042939D01*
X19450000Y-163016157D01*
X24859157Y-157607000D01*
X28945809Y-157607000D01*
X28967723Y-157829499D01*
X29032624Y-158043447D01*
X29138016Y-158240623D01*
X29279851Y-158413449D01*
X29310706Y-158438771D01*
X29394151Y-158540449D01*
X29566977Y-158682284D01*
X29764153Y-158787676D01*
X29978101Y-158852577D01*
X30144848Y-158869000D01*
X33282000Y-158869000D01*
X33282001Y-162123239D01*
X33276509Y-162179000D01*
X33298423Y-162401498D01*
X33363324Y-162615446D01*
X33391415Y-162668000D01*
X33468717Y-162812623D01*
X33610552Y-162985449D01*
X33653860Y-163020991D01*
X33702012Y-163069143D01*
X35099008Y-164466140D01*
X35134551Y-164509449D01*
X35307377Y-164651284D01*
X35504553Y-164756676D01*
X35718501Y-164821577D01*
X35885248Y-164838000D01*
X35885257Y-164838000D01*
X35940999Y-164843490D01*
X35996741Y-164838000D01*
X36885752Y-164838000D01*
X37052499Y-164821577D01*
X37266447Y-164756676D01*
X37463623Y-164651284D01*
X37636449Y-164509449D01*
X37778284Y-164336623D01*
X37883676Y-164139447D01*
X37948577Y-163925499D01*
X37970491Y-163703000D01*
X37961079Y-163607436D01*
X47435282Y-173081639D01*
X47410000Y-173208740D01*
X47410000Y-173501260D01*
X47467068Y-173788158D01*
X47579010Y-174058411D01*
X47741525Y-174301632D01*
X47948368Y-174508475D01*
X48122760Y-174625000D01*
X47948368Y-174741525D01*
X47741525Y-174948368D01*
X47579010Y-175191589D01*
X47467068Y-175461842D01*
X47410000Y-175748740D01*
X47410000Y-176041260D01*
X47467068Y-176328158D01*
X47579010Y-176598411D01*
X47741525Y-176841632D01*
X47948368Y-177048475D01*
X48130534Y-177170195D01*
X48013645Y-177239822D01*
X47797412Y-177434731D01*
X47623359Y-177668080D01*
X47498175Y-177930901D01*
X47453524Y-178078110D01*
X47574845Y-178308000D01*
X48768000Y-178308000D01*
X48768000Y-178288000D01*
X49022000Y-178288000D01*
X49022000Y-178308000D01*
X50215155Y-178308000D01*
X50336476Y-178078110D01*
X50291825Y-177930901D01*
X50166641Y-177668080D01*
X49992588Y-177434731D01*
X49776355Y-177239822D01*
X49659466Y-177170195D01*
X49841632Y-177048475D01*
X50048475Y-176841632D01*
X50210990Y-176598411D01*
X50322932Y-176328158D01*
X50380000Y-176041260D01*
X50380000Y-175748740D01*
X50322932Y-175461842D01*
X50210990Y-175191589D01*
X50048475Y-174948368D01*
X49841632Y-174741525D01*
X49667240Y-174625000D01*
X49841632Y-174508475D01*
X50048475Y-174301632D01*
X50210990Y-174058411D01*
X50322932Y-173788158D01*
X50380000Y-173501260D01*
X50380000Y-173208740D01*
X50322932Y-172921842D01*
X50210990Y-172651589D01*
X50048475Y-172408368D01*
X49841632Y-172201525D01*
X49667240Y-172085000D01*
X49841632Y-171968475D01*
X50048475Y-171761632D01*
X50210990Y-171518411D01*
X50322932Y-171248158D01*
X50380000Y-170961260D01*
X50380000Y-170668740D01*
X50322932Y-170381842D01*
X50210990Y-170111589D01*
X50048475Y-169868368D01*
X49841632Y-169661525D01*
X49667240Y-169545000D01*
X49841632Y-169428475D01*
X50048475Y-169221632D01*
X50210990Y-168978411D01*
X50322932Y-168708158D01*
X50380000Y-168421260D01*
X50380000Y-168128740D01*
X50322932Y-167841842D01*
X50210990Y-167571589D01*
X50048475Y-167328368D01*
X49916620Y-167196513D01*
X49989180Y-167174502D01*
X50099494Y-167115537D01*
X50196185Y-167036185D01*
X50275537Y-166939494D01*
X50334502Y-166829180D01*
X50370812Y-166709482D01*
X50383072Y-166585000D01*
X50383072Y-164885000D01*
X50370812Y-164760518D01*
X50334502Y-164640820D01*
X50275537Y-164530506D01*
X50196185Y-164433815D01*
X50099494Y-164354463D01*
X49989180Y-164295498D01*
X49869482Y-164259188D01*
X49745000Y-164246928D01*
X48045000Y-164246928D01*
X47920518Y-164259188D01*
X47800820Y-164295498D01*
X47690506Y-164354463D01*
X47593815Y-164433815D01*
X47514463Y-164530506D01*
X47455498Y-164640820D01*
X47419188Y-164760518D01*
X47406928Y-164885000D01*
X47406928Y-166585000D01*
X47419188Y-166709482D01*
X47455498Y-166829180D01*
X47514463Y-166939494D01*
X47593815Y-167036185D01*
X47690506Y-167115537D01*
X47800820Y-167174502D01*
X47873380Y-167196513D01*
X47741525Y-167328368D01*
X47579010Y-167571589D01*
X47467068Y-167841842D01*
X47410000Y-168128740D01*
X47410000Y-168421260D01*
X47467068Y-168708158D01*
X47579010Y-168978411D01*
X47741525Y-169221632D01*
X47948368Y-169428475D01*
X48122760Y-169545000D01*
X47948368Y-169661525D01*
X47741525Y-169868368D01*
X47579010Y-170111589D01*
X47467068Y-170381842D01*
X47410000Y-170668740D01*
X47410000Y-170836043D01*
X37599112Y-161025155D01*
X37599109Y-161025153D01*
X37590149Y-161016192D01*
X37565564Y-160986236D01*
X37446033Y-160888138D01*
X37312446Y-160816735D01*
X37235774Y-160740063D01*
X37066256Y-160626795D01*
X36877898Y-160548774D01*
X36677939Y-160509000D01*
X36474061Y-160509000D01*
X36274102Y-160548774D01*
X36085744Y-160626795D01*
X35916226Y-160740063D01*
X35772063Y-160884226D01*
X35658795Y-161053744D01*
X35580774Y-161242102D01*
X35552000Y-161386760D01*
X35552000Y-159233890D01*
X47453524Y-159233890D01*
X47498175Y-159381099D01*
X47623359Y-159643920D01*
X47797412Y-159877269D01*
X48013645Y-160072178D01*
X48263748Y-160221157D01*
X48538109Y-160318481D01*
X48768000Y-160197814D01*
X48768000Y-159004000D01*
X49022000Y-159004000D01*
X49022000Y-160197814D01*
X49251891Y-160318481D01*
X49526252Y-160221157D01*
X49776355Y-160072178D01*
X49992588Y-159877269D01*
X50166641Y-159643920D01*
X50291825Y-159381099D01*
X50336476Y-159233890D01*
X50215155Y-159004000D01*
X49022000Y-159004000D01*
X48768000Y-159004000D01*
X47574845Y-159004000D01*
X47453524Y-159233890D01*
X35552000Y-159233890D01*
X35552000Y-158869000D01*
X35577416Y-158869000D01*
X35781973Y-159005680D01*
X36043126Y-159113853D01*
X36320365Y-159169000D01*
X36603035Y-159169000D01*
X36880274Y-159113853D01*
X37141427Y-159005680D01*
X37376459Y-158848637D01*
X37576337Y-158648759D01*
X37733380Y-158413727D01*
X37841553Y-158152574D01*
X37889550Y-157911282D01*
X38328832Y-157472000D01*
X47477317Y-157472000D01*
X47514463Y-157541494D01*
X47593815Y-157638185D01*
X47690506Y-157717537D01*
X47800820Y-157776502D01*
X47881466Y-157800966D01*
X47797412Y-157876731D01*
X47623359Y-158110080D01*
X47498175Y-158372901D01*
X47453524Y-158520110D01*
X47574845Y-158750000D01*
X48768000Y-158750000D01*
X48768000Y-158730000D01*
X49022000Y-158730000D01*
X49022000Y-158750000D01*
X50215155Y-158750000D01*
X50336476Y-158520110D01*
X50291825Y-158372901D01*
X50166641Y-158110080D01*
X49992588Y-157876731D01*
X49908534Y-157800966D01*
X49989180Y-157776502D01*
X50099494Y-157717537D01*
X50196185Y-157638185D01*
X50275537Y-157541494D01*
X50334502Y-157431180D01*
X50370812Y-157311482D01*
X50383072Y-157187000D01*
X50383072Y-155487000D01*
X50370812Y-155362518D01*
X50334502Y-155242820D01*
X50275537Y-155132506D01*
X50196185Y-155035815D01*
X50099494Y-154956463D01*
X49989180Y-154897498D01*
X49869482Y-154861188D01*
X49745000Y-154848928D01*
X48045000Y-154848928D01*
X47920518Y-154861188D01*
X47800820Y-154897498D01*
X47690506Y-154956463D01*
X47593815Y-155035815D01*
X47514463Y-155132506D01*
X47477317Y-155202000D01*
X37914441Y-155202000D01*
X37858699Y-155196510D01*
X37802957Y-155202000D01*
X37802948Y-155202000D01*
X37636201Y-155218423D01*
X37422253Y-155283324D01*
X37227667Y-155387332D01*
X37274797Y-155226702D01*
X36461700Y-154413605D01*
X35648603Y-155226702D01*
X35720186Y-155470671D01*
X35975696Y-155591571D01*
X36249884Y-155660300D01*
X36532212Y-155674217D01*
X36811830Y-155632787D01*
X37033366Y-155553562D01*
X37016704Y-155573865D01*
X36841562Y-155749007D01*
X36841556Y-155749012D01*
X36284418Y-156306150D01*
X36043126Y-156354147D01*
X35781973Y-156462320D01*
X35577416Y-156599000D01*
X34472751Y-156599000D01*
X34417000Y-156593509D01*
X34361248Y-156599000D01*
X30608201Y-156599000D01*
X30522747Y-156553324D01*
X30308799Y-156488423D01*
X30142052Y-156472000D01*
X30030548Y-156472000D01*
X29863801Y-156488423D01*
X29649853Y-156553324D01*
X29452677Y-156658716D01*
X29279851Y-156800551D01*
X29138016Y-156973377D01*
X29032624Y-157170553D01*
X28967723Y-157384501D01*
X28945809Y-157607000D01*
X24859157Y-157607000D01*
X28161645Y-154304512D01*
X35021483Y-154304512D01*
X35062913Y-154584130D01*
X35158097Y-154850292D01*
X35225029Y-154975514D01*
X35468998Y-155047097D01*
X36282095Y-154234000D01*
X36641305Y-154234000D01*
X37454402Y-155047097D01*
X37698371Y-154975514D01*
X37819271Y-154720004D01*
X37888000Y-154445816D01*
X37901917Y-154163488D01*
X37860487Y-153883870D01*
X37765303Y-153617708D01*
X37698371Y-153492486D01*
X37454402Y-153420903D01*
X36641305Y-154234000D01*
X36282095Y-154234000D01*
X35468998Y-153420903D01*
X35225029Y-153492486D01*
X35104129Y-153747996D01*
X35035400Y-154022184D01*
X35021483Y-154304512D01*
X28161645Y-154304512D01*
X29224859Y-153241298D01*
X35648603Y-153241298D01*
X36461700Y-154054395D01*
X37274797Y-153241298D01*
X37203214Y-152997329D01*
X36947704Y-152876429D01*
X36673516Y-152807700D01*
X36391188Y-152793783D01*
X36111570Y-152835213D01*
X35845408Y-152930397D01*
X35720186Y-152997329D01*
X35648603Y-153241298D01*
X29224859Y-153241298D01*
X29815512Y-152650645D01*
X29862744Y-152682205D01*
X30051102Y-152760226D01*
X30251061Y-152800000D01*
X30454939Y-152800000D01*
X30654898Y-152760226D01*
X30843256Y-152682205D01*
X31012774Y-152568937D01*
X31156937Y-152424774D01*
X31270205Y-152255256D01*
X31348226Y-152066898D01*
X31388000Y-151866939D01*
X31388000Y-151663061D01*
X31348226Y-151463102D01*
X31270205Y-151274744D01*
X31156937Y-151105226D01*
X31012774Y-150961063D01*
X30843256Y-150847795D01*
X30679277Y-150779872D01*
X49765000Y-150779872D01*
X49765000Y-151220128D01*
X49850890Y-151651925D01*
X50019369Y-152058669D01*
X50263962Y-152424729D01*
X50575271Y-152736038D01*
X50941331Y-152980631D01*
X51348075Y-153149110D01*
X51779872Y-153235000D01*
X52220128Y-153235000D01*
X52651925Y-153149110D01*
X53058669Y-152980631D01*
X53424729Y-152736038D01*
X53736038Y-152424729D01*
X53980631Y-152058669D01*
X54149110Y-151651925D01*
X54235000Y-151220128D01*
X54235000Y-150779872D01*
X54149110Y-150348075D01*
X53980631Y-149941331D01*
X53736038Y-149575271D01*
X53424729Y-149263962D01*
X53058669Y-149019369D01*
X52651925Y-148850890D01*
X52220128Y-148765000D01*
X51779872Y-148765000D01*
X51348075Y-148850890D01*
X50941331Y-149019369D01*
X50575271Y-149263962D01*
X50263962Y-149575271D01*
X50019369Y-149941331D01*
X49850890Y-150348075D01*
X49765000Y-150779872D01*
X30679277Y-150779872D01*
X30654898Y-150769774D01*
X30454939Y-150730000D01*
X30251061Y-150730000D01*
X30051102Y-150769774D01*
X29862744Y-150847795D01*
X29693226Y-150961063D01*
X29674289Y-150980000D01*
X29629556Y-150980000D01*
X29591000Y-150976203D01*
X29552444Y-150980000D01*
X29552439Y-150980000D01*
X29512026Y-150983980D01*
X29437113Y-150991358D01*
X29289140Y-151036246D01*
X29152767Y-151109138D01*
X29033236Y-151207236D01*
X29008653Y-151237190D01*
X18339843Y-161906000D01*
X18313061Y-161906000D01*
X18113102Y-161945774D01*
X17924744Y-162023795D01*
X17755226Y-162137063D01*
X17611063Y-162281226D01*
X17497795Y-162450744D01*
X17419774Y-162639102D01*
X17380000Y-162839061D01*
X8660000Y-162839061D01*
X8660000Y-161742702D01*
X10936903Y-161742702D01*
X11008486Y-161986671D01*
X11263996Y-162107571D01*
X11538184Y-162176300D01*
X11820512Y-162190217D01*
X12100130Y-162148787D01*
X12366292Y-162053603D01*
X12491514Y-161986671D01*
X12563097Y-161742702D01*
X11750000Y-160929605D01*
X10936903Y-161742702D01*
X8660000Y-161742702D01*
X8660000Y-160820512D01*
X10309783Y-160820512D01*
X10351213Y-161100130D01*
X10446397Y-161366292D01*
X10513329Y-161491514D01*
X10757298Y-161563097D01*
X11570395Y-160750000D01*
X11929605Y-160750000D01*
X12742702Y-161563097D01*
X12986671Y-161491514D01*
X13107571Y-161236004D01*
X13176300Y-160961816D01*
X13190217Y-160679488D01*
X13179724Y-160608665D01*
X13815000Y-160608665D01*
X13815000Y-160891335D01*
X13870147Y-161168574D01*
X13978320Y-161429727D01*
X14135363Y-161664759D01*
X14335241Y-161864637D01*
X14570273Y-162021680D01*
X14831426Y-162129853D01*
X15108665Y-162185000D01*
X15391335Y-162185000D01*
X15668574Y-162129853D01*
X15929727Y-162021680D01*
X16164759Y-161864637D01*
X16364637Y-161664759D01*
X16521680Y-161429727D01*
X16629853Y-161168574D01*
X16677850Y-160927281D01*
X27372132Y-150233000D01*
X28630752Y-150233000D01*
X28797499Y-150216577D01*
X29011447Y-150151676D01*
X29208623Y-150046284D01*
X29381449Y-149904449D01*
X29523284Y-149731623D01*
X29628676Y-149534447D01*
X29693577Y-149320499D01*
X29715491Y-149098000D01*
X29693577Y-148875501D01*
X29628676Y-148661553D01*
X29523284Y-148464377D01*
X29381449Y-148291551D01*
X29208623Y-148149716D01*
X29011447Y-148044324D01*
X28797499Y-147979423D01*
X28630752Y-147963000D01*
X26957741Y-147963000D01*
X26901999Y-147957510D01*
X26846257Y-147963000D01*
X26846248Y-147963000D01*
X26679501Y-147979423D01*
X26465553Y-148044324D01*
X26268377Y-148149716D01*
X26095551Y-148291551D01*
X26060009Y-148334859D01*
X15072719Y-159322150D01*
X14831426Y-159370147D01*
X14570273Y-159478320D01*
X14335241Y-159635363D01*
X14135363Y-159835241D01*
X13978320Y-160070273D01*
X13870147Y-160331426D01*
X13815000Y-160608665D01*
X13179724Y-160608665D01*
X13148787Y-160399870D01*
X13053603Y-160133708D01*
X12986671Y-160008486D01*
X12742702Y-159936903D01*
X11929605Y-160750000D01*
X11570395Y-160750000D01*
X10757298Y-159936903D01*
X10513329Y-160008486D01*
X10392429Y-160263996D01*
X10323700Y-160538184D01*
X10309783Y-160820512D01*
X8660000Y-160820512D01*
X8660000Y-159757298D01*
X10936903Y-159757298D01*
X11750000Y-160570395D01*
X12563097Y-159757298D01*
X12491514Y-159513329D01*
X12236004Y-159392429D01*
X11961816Y-159323700D01*
X11679488Y-159309783D01*
X11399870Y-159351213D01*
X11133708Y-159446397D01*
X11008486Y-159513329D01*
X10936903Y-159757298D01*
X8660000Y-159757298D01*
X8660000Y-150779872D01*
X9765000Y-150779872D01*
X9765000Y-151220128D01*
X9850890Y-151651925D01*
X10019369Y-152058669D01*
X10263962Y-152424729D01*
X10575271Y-152736038D01*
X10941331Y-152980631D01*
X11348075Y-153149110D01*
X11779872Y-153235000D01*
X12220128Y-153235000D01*
X12651925Y-153149110D01*
X13058669Y-152980631D01*
X13424729Y-152736038D01*
X13736038Y-152424729D01*
X13980631Y-152058669D01*
X14149110Y-151651925D01*
X14235000Y-151220128D01*
X14235000Y-150779872D01*
X14149110Y-150348075D01*
X13980631Y-149941331D01*
X13736038Y-149575271D01*
X13424729Y-149263962D01*
X13058669Y-149019369D01*
X12651925Y-148850890D01*
X12220128Y-148765000D01*
X11779872Y-148765000D01*
X11348075Y-148850890D01*
X10941331Y-149019369D01*
X10575271Y-149263962D01*
X10263962Y-149575271D01*
X10019369Y-149941331D01*
X9850890Y-150348075D01*
X9765000Y-150779872D01*
X8660000Y-150779872D01*
X8660000Y-147660000D01*
X55340000Y-147660000D01*
X55340001Y-189340000D01*
G37*
X55340001Y-189340000D02*
X8660000Y-189340000D01*
X8660000Y-185779872D01*
X9765000Y-185779872D01*
X9765000Y-186220128D01*
X9850890Y-186651925D01*
X10019369Y-187058669D01*
X10263962Y-187424729D01*
X10575271Y-187736038D01*
X10941331Y-187980631D01*
X11348075Y-188149110D01*
X11779872Y-188235000D01*
X12220128Y-188235000D01*
X12651925Y-188149110D01*
X13058669Y-187980631D01*
X13424729Y-187736038D01*
X13736038Y-187424729D01*
X13980631Y-187058669D01*
X14149110Y-186651925D01*
X14235000Y-186220128D01*
X14235000Y-185779872D01*
X14149110Y-185348075D01*
X13980631Y-184941331D01*
X13736038Y-184575271D01*
X13424729Y-184263962D01*
X13058669Y-184019369D01*
X12651925Y-183850890D01*
X12220128Y-183765000D01*
X11779872Y-183765000D01*
X11348075Y-183850890D01*
X10941331Y-184019369D01*
X10575271Y-184263962D01*
X10263962Y-184575271D01*
X10019369Y-184941331D01*
X9850890Y-185348075D01*
X9765000Y-185779872D01*
X8660000Y-185779872D01*
X8660000Y-177763190D01*
X14192224Y-177763190D01*
X14236875Y-177910399D01*
X14362059Y-178173220D01*
X14536112Y-178406569D01*
X14752345Y-178601478D01*
X15002448Y-178750457D01*
X15276809Y-178847781D01*
X15506700Y-178727114D01*
X15506700Y-177533300D01*
X15760700Y-177533300D01*
X15760700Y-178727114D01*
X15990591Y-178847781D01*
X16264952Y-178750457D01*
X16515055Y-178601478D01*
X16731288Y-178406569D01*
X16905341Y-178173220D01*
X17030525Y-177910399D01*
X17075176Y-177763190D01*
X16953855Y-177533300D01*
X15760700Y-177533300D01*
X15506700Y-177533300D01*
X14313545Y-177533300D01*
X14192224Y-177763190D01*
X8660000Y-177763190D01*
X8660000Y-169189061D01*
X9353600Y-169189061D01*
X9353600Y-169392939D01*
X9393374Y-169592898D01*
X9471395Y-169781256D01*
X9584663Y-169950774D01*
X9728826Y-170094937D01*
X9898344Y-170208205D01*
X10086702Y-170286226D01*
X10286661Y-170326000D01*
X10490539Y-170326000D01*
X10690498Y-170286226D01*
X10878856Y-170208205D01*
X11048374Y-170094937D01*
X11192537Y-169950774D01*
X11305805Y-169781256D01*
X11383826Y-169592898D01*
X11423600Y-169392939D01*
X11423600Y-169366157D01*
X12758458Y-168031300D01*
X14145628Y-168031300D01*
X14145628Y-168096300D01*
X14157888Y-168220782D01*
X14194198Y-168340480D01*
X14253163Y-168450794D01*
X14332515Y-168547485D01*
X14429206Y-168626837D01*
X14539520Y-168685802D01*
X14612080Y-168707813D01*
X14480225Y-168839668D01*
X14317710Y-169082889D01*
X14205768Y-169353142D01*
X14148700Y-169640040D01*
X14148700Y-169932560D01*
X14205768Y-170219458D01*
X14317710Y-170489711D01*
X14480225Y-170732932D01*
X14687068Y-170939775D01*
X14861460Y-171056300D01*
X14687068Y-171172825D01*
X14480225Y-171379668D01*
X14317710Y-171622889D01*
X14205768Y-171893142D01*
X14148700Y-172180040D01*
X14148700Y-172472560D01*
X14205768Y-172759458D01*
X14317710Y-173029711D01*
X14480225Y-173272932D01*
X14687068Y-173479775D01*
X14861460Y-173596300D01*
X14687068Y-173712825D01*
X14480225Y-173919668D01*
X14317710Y-174162889D01*
X14205768Y-174433142D01*
X14148700Y-174720040D01*
X14148700Y-175012560D01*
X14205768Y-175299458D01*
X14317710Y-175569711D01*
X14480225Y-175812932D01*
X14687068Y-176019775D01*
X14869234Y-176141495D01*
X14752345Y-176211122D01*
X14536112Y-176406031D01*
X14362059Y-176639380D01*
X14236875Y-176902201D01*
X14192224Y-177049410D01*
X14313545Y-177279300D01*
X15506700Y-177279300D01*
X15506700Y-177259300D01*
X15760700Y-177259300D01*
X15760700Y-177279300D01*
X16953855Y-177279300D01*
X17075176Y-177049410D01*
X17030525Y-176902201D01*
X16905341Y-176639380D01*
X16731288Y-176406031D01*
X16515055Y-176211122D01*
X16398166Y-176141495D01*
X16580332Y-176019775D01*
X16787175Y-175812932D01*
X16949690Y-175569711D01*
X17061632Y-175299458D01*
X17118700Y-175012560D01*
X17118700Y-174720040D01*
X17061632Y-174433142D01*
X16949690Y-174162889D01*
X16787175Y-173919668D01*
X16580332Y-173712825D01*
X16405940Y-173596300D01*
X16580332Y-173479775D01*
X16787175Y-173272932D01*
X16949690Y-173029711D01*
X17061632Y-172759458D01*
X17118700Y-172472560D01*
X17118700Y-172180040D01*
X17061632Y-171893142D01*
X16949690Y-171622889D01*
X16787175Y-171379668D01*
X16580332Y-171172825D01*
X16405940Y-171056300D01*
X16580332Y-170939775D01*
X16787175Y-170732932D01*
X16949690Y-170489711D01*
X17061632Y-170219458D01*
X17118700Y-169932560D01*
X17118700Y-169841458D01*
X18548201Y-171270959D01*
X18548200Y-172608989D01*
X18529263Y-172627926D01*
X18415995Y-172797444D01*
X18337974Y-172985802D01*
X18298200Y-173185761D01*
X18298200Y-173389639D01*
X18337974Y-173589598D01*
X18415995Y-173777956D01*
X18529263Y-173947474D01*
X18548201Y-173966412D01*
X18548200Y-182578539D01*
X18548200Y-182578540D01*
X18548201Y-186045637D01*
X18544403Y-186084200D01*
X18559559Y-186238086D01*
X18604446Y-186386059D01*
X18604447Y-186386060D01*
X18677339Y-186522433D01*
X18708573Y-186560491D01*
X18750855Y-186612012D01*
X18750859Y-186612016D01*
X18775437Y-186641964D01*
X18805385Y-186666542D01*
X19991658Y-187852815D01*
X20016236Y-187882764D01*
X20046184Y-187907342D01*
X20046187Y-187907345D01*
X20075559Y-187931450D01*
X20135767Y-187980862D01*
X20272140Y-188053754D01*
X20420112Y-188098641D01*
X20434490Y-188100057D01*
X20535439Y-188110000D01*
X20535446Y-188110000D01*
X20573999Y-188113797D01*
X20612552Y-188110000D01*
X39712447Y-188110000D01*
X39751000Y-188113797D01*
X39789553Y-188110000D01*
X39789561Y-188110000D01*
X39904887Y-188098641D01*
X40052860Y-188053754D01*
X40189233Y-187980862D01*
X40308764Y-187882764D01*
X40333347Y-187852810D01*
X40788711Y-187397446D01*
X40818664Y-187372864D01*
X40916762Y-187253333D01*
X40989654Y-187116960D01*
X41034541Y-186968987D01*
X41045900Y-186853661D01*
X41045900Y-186853654D01*
X41049697Y-186815101D01*
X41045900Y-186776548D01*
X41045900Y-185779872D01*
X49765000Y-185779872D01*
X49765000Y-186220128D01*
X49850890Y-186651925D01*
X50019369Y-187058669D01*
X50263962Y-187424729D01*
X50575271Y-187736038D01*
X50941331Y-187980631D01*
X51348075Y-188149110D01*
X51779872Y-188235000D01*
X52220128Y-188235000D01*
X52651925Y-188149110D01*
X53058669Y-187980631D01*
X53424729Y-187736038D01*
X53736038Y-187424729D01*
X53980631Y-187058669D01*
X54149110Y-186651925D01*
X54235000Y-186220128D01*
X54235000Y-185779872D01*
X54149110Y-185348075D01*
X53980631Y-184941331D01*
X53736038Y-184575271D01*
X53424729Y-184263962D01*
X53058669Y-184019369D01*
X52651925Y-183850890D01*
X52220128Y-183765000D01*
X51779872Y-183765000D01*
X51348075Y-183850890D01*
X50941331Y-184019369D01*
X50575271Y-184263962D01*
X50263962Y-184575271D01*
X50019369Y-184941331D01*
X49850890Y-185348075D01*
X49765000Y-185779872D01*
X41045900Y-185779872D01*
X41045900Y-179289611D01*
X41064837Y-179270674D01*
X41178105Y-179101156D01*
X41256126Y-178912798D01*
X41280175Y-178791890D01*
X47453524Y-178791890D01*
X47498175Y-178939099D01*
X47623359Y-179201920D01*
X47797412Y-179435269D01*
X48013645Y-179630178D01*
X48263748Y-179779157D01*
X48538109Y-179876481D01*
X48768000Y-179755814D01*
X48768000Y-178562000D01*
X49022000Y-178562000D01*
X49022000Y-179755814D01*
X49251891Y-179876481D01*
X49526252Y-179779157D01*
X49776355Y-179630178D01*
X49992588Y-179435269D01*
X50166641Y-179201920D01*
X50291825Y-178939099D01*
X50336476Y-178791890D01*
X50215155Y-178562000D01*
X49022000Y-178562000D01*
X48768000Y-178562000D01*
X47574845Y-178562000D01*
X47453524Y-178791890D01*
X41280175Y-178791890D01*
X41295900Y-178712839D01*
X41295900Y-178508961D01*
X41256126Y-178309002D01*
X41178105Y-178120644D01*
X41064837Y-177951126D01*
X40920674Y-177806963D01*
X40751156Y-177693695D01*
X40562798Y-177615674D01*
X40362839Y-177575900D01*
X40158961Y-177575900D01*
X39959002Y-177615674D01*
X39770644Y-177693695D01*
X39601126Y-177806963D01*
X39456963Y-177951126D01*
X39343695Y-178120644D01*
X39265674Y-178309002D01*
X39225900Y-178508961D01*
X39225900Y-178712839D01*
X39265674Y-178912798D01*
X39343695Y-179101156D01*
X39456963Y-179270674D01*
X39475901Y-179289612D01*
X39475900Y-186489943D01*
X39425843Y-186540000D01*
X37038051Y-186540000D01*
X37052499Y-186538577D01*
X37266447Y-186473676D01*
X37463623Y-186368284D01*
X37636449Y-186226449D01*
X37671996Y-186183135D01*
X38101135Y-185753996D01*
X38144449Y-185718449D01*
X38286284Y-185545623D01*
X38391676Y-185348447D01*
X38456577Y-185134499D01*
X38473000Y-184967752D01*
X38473000Y-184967743D01*
X38478490Y-184912001D01*
X38473000Y-184856259D01*
X38473000Y-179903248D01*
X38456577Y-179736501D01*
X38391676Y-179522553D01*
X38286284Y-179325377D01*
X38144449Y-179152551D01*
X37971623Y-179010716D01*
X37774446Y-178905324D01*
X37560498Y-178840423D01*
X37338000Y-178818509D01*
X37115501Y-178840423D01*
X36901553Y-178905324D01*
X36704377Y-179010716D01*
X36531551Y-179152551D01*
X36389716Y-179325377D01*
X36284324Y-179522554D01*
X36219423Y-179736502D01*
X36203000Y-179903249D01*
X36203001Y-184285000D01*
X21153248Y-184285000D01*
X20986501Y-184301423D01*
X20772553Y-184366324D01*
X20575377Y-184471716D01*
X20402551Y-184613551D01*
X20260716Y-184786377D01*
X20155324Y-184983553D01*
X20118200Y-185105933D01*
X20118200Y-179584331D01*
X21256008Y-180722140D01*
X21291551Y-180765449D01*
X21464377Y-180907284D01*
X21661553Y-181012676D01*
X21825705Y-181062471D01*
X21875500Y-181077577D01*
X21896493Y-181079644D01*
X22042248Y-181094000D01*
X22042255Y-181094000D01*
X22097999Y-181099490D01*
X22153743Y-181094000D01*
X26757716Y-181094000D01*
X26754498Y-181100020D01*
X26718188Y-181219718D01*
X26705928Y-181344200D01*
X26705928Y-183044200D01*
X26718188Y-183168682D01*
X26754498Y-183288380D01*
X26813463Y-183398694D01*
X26892815Y-183495385D01*
X26989506Y-183574737D01*
X27099820Y-183633702D01*
X27219518Y-183670012D01*
X27344000Y-183682272D01*
X29044000Y-183682272D01*
X29168482Y-183670012D01*
X29288180Y-183633702D01*
X29398494Y-183574737D01*
X29495185Y-183495385D01*
X29574537Y-183398694D01*
X29633502Y-183288380D01*
X29655513Y-183215820D01*
X29787368Y-183347675D01*
X30030589Y-183510190D01*
X30300842Y-183622132D01*
X30587740Y-183679200D01*
X30880260Y-183679200D01*
X31167158Y-183622132D01*
X31437411Y-183510190D01*
X31680632Y-183347675D01*
X31887475Y-183140832D01*
X32004000Y-182966440D01*
X32120525Y-183140832D01*
X32327368Y-183347675D01*
X32570589Y-183510190D01*
X32840842Y-183622132D01*
X33127740Y-183679200D01*
X33420260Y-183679200D01*
X33707158Y-183622132D01*
X33977411Y-183510190D01*
X34220632Y-183347675D01*
X34427475Y-183140832D01*
X34589990Y-182897611D01*
X34701932Y-182627358D01*
X34759000Y-182340460D01*
X34759000Y-182047940D01*
X34701932Y-181761042D01*
X34589990Y-181490789D01*
X34427475Y-181247568D01*
X34220632Y-181040725D01*
X33977411Y-180878210D01*
X33707158Y-180766268D01*
X33420260Y-180709200D01*
X33127740Y-180709200D01*
X32840842Y-180766268D01*
X32570589Y-180878210D01*
X32327368Y-181040725D01*
X32120525Y-181247568D01*
X32004000Y-181421960D01*
X31887475Y-181247568D01*
X31869000Y-181229093D01*
X31869000Y-180395741D01*
X31874490Y-180339999D01*
X31869000Y-180284257D01*
X31869000Y-180284248D01*
X31852577Y-180117501D01*
X31787676Y-179903553D01*
X31682284Y-179706377D01*
X31540449Y-179533551D01*
X31497135Y-179498004D01*
X31194996Y-179195865D01*
X31159449Y-179152551D01*
X30986623Y-179010716D01*
X30789447Y-178905324D01*
X30575499Y-178840423D01*
X30408752Y-178824000D01*
X30408751Y-178824000D01*
X30353000Y-178818509D01*
X30297249Y-178824000D01*
X22568132Y-178824000D01*
X21963000Y-178218869D01*
X21963000Y-168673400D01*
X27081352Y-168673400D01*
X27248099Y-168656977D01*
X27462047Y-168592076D01*
X27659223Y-168486684D01*
X27832049Y-168344849D01*
X27973884Y-168172023D01*
X28079276Y-167974847D01*
X28144177Y-167760899D01*
X28166091Y-167538400D01*
X28144177Y-167315901D01*
X28079276Y-167101953D01*
X27973884Y-166904777D01*
X27832049Y-166731951D01*
X27659223Y-166590116D01*
X27462047Y-166484724D01*
X27248099Y-166419823D01*
X27081352Y-166403400D01*
X21036151Y-166403400D01*
X20980399Y-166397909D01*
X20924648Y-166403400D01*
X20757901Y-166419823D01*
X20543953Y-166484724D01*
X20346777Y-166590116D01*
X20173951Y-166731951D01*
X20138404Y-166775265D01*
X20064865Y-166848804D01*
X20021551Y-166884351D01*
X19879716Y-167057177D01*
X19783866Y-167236502D01*
X19774324Y-167254354D01*
X19709423Y-167468302D01*
X19687509Y-167690800D01*
X19693000Y-167746552D01*
X19693000Y-170195442D01*
X17121772Y-167624215D01*
X17121772Y-166396300D01*
X17109512Y-166271818D01*
X17073202Y-166152120D01*
X17014237Y-166041806D01*
X16934885Y-165945115D01*
X16838194Y-165865763D01*
X16727880Y-165806798D01*
X16608182Y-165770488D01*
X16483700Y-165758228D01*
X14783700Y-165758228D01*
X14659218Y-165770488D01*
X14539520Y-165806798D01*
X14429206Y-165865763D01*
X14332515Y-165945115D01*
X14253163Y-166041806D01*
X14194198Y-166152120D01*
X14157888Y-166271818D01*
X14145628Y-166396300D01*
X14145628Y-166461300D01*
X12471852Y-166461300D01*
X12433299Y-166457503D01*
X12394746Y-166461300D01*
X12394739Y-166461300D01*
X12293790Y-166471243D01*
X12279412Y-166472659D01*
X12244972Y-166483106D01*
X12131440Y-166517546D01*
X11995067Y-166590438D01*
X11957590Y-166621195D01*
X11905487Y-166663955D01*
X11905484Y-166663958D01*
X11875536Y-166688536D01*
X11850958Y-166718484D01*
X10313443Y-168256000D01*
X10286661Y-168256000D01*
X10086702Y-168295774D01*
X9898344Y-168373795D01*
X9728826Y-168487063D01*
X9584663Y-168631226D01*
X9471395Y-168800744D01*
X9393374Y-168989102D01*
X9353600Y-169189061D01*
X8660000Y-169189061D01*
X8660000Y-162839061D01*
X17380000Y-162839061D01*
X17380000Y-163042939D01*
X17419774Y-163242898D01*
X17497795Y-163431256D01*
X17611063Y-163600774D01*
X17755226Y-163744937D01*
X17924744Y-163858205D01*
X18113102Y-163936226D01*
X18313061Y-163976000D01*
X18516939Y-163976000D01*
X18716898Y-163936226D01*
X18905256Y-163858205D01*
X19074774Y-163744937D01*
X19218937Y-163600774D01*
X19332205Y-163431256D01*
X19410226Y-163242898D01*
X19450000Y-163042939D01*
X19450000Y-163016157D01*
X24859157Y-157607000D01*
X28945809Y-157607000D01*
X28967723Y-157829499D01*
X29032624Y-158043447D01*
X29138016Y-158240623D01*
X29279851Y-158413449D01*
X29310706Y-158438771D01*
X29394151Y-158540449D01*
X29566977Y-158682284D01*
X29764153Y-158787676D01*
X29978101Y-158852577D01*
X30144848Y-158869000D01*
X33282000Y-158869000D01*
X33282001Y-162123239D01*
X33276509Y-162179000D01*
X33298423Y-162401498D01*
X33363324Y-162615446D01*
X33391415Y-162668000D01*
X33468717Y-162812623D01*
X33610552Y-162985449D01*
X33653860Y-163020991D01*
X33702012Y-163069143D01*
X35099008Y-164466140D01*
X35134551Y-164509449D01*
X35307377Y-164651284D01*
X35504553Y-164756676D01*
X35718501Y-164821577D01*
X35885248Y-164838000D01*
X35885257Y-164838000D01*
X35940999Y-164843490D01*
X35996741Y-164838000D01*
X36885752Y-164838000D01*
X37052499Y-164821577D01*
X37266447Y-164756676D01*
X37463623Y-164651284D01*
X37636449Y-164509449D01*
X37778284Y-164336623D01*
X37883676Y-164139447D01*
X37948577Y-163925499D01*
X37970491Y-163703000D01*
X37961079Y-163607436D01*
X47435282Y-173081639D01*
X47410000Y-173208740D01*
X47410000Y-173501260D01*
X47467068Y-173788158D01*
X47579010Y-174058411D01*
X47741525Y-174301632D01*
X47948368Y-174508475D01*
X48122760Y-174625000D01*
X47948368Y-174741525D01*
X47741525Y-174948368D01*
X47579010Y-175191589D01*
X47467068Y-175461842D01*
X47410000Y-175748740D01*
X47410000Y-176041260D01*
X47467068Y-176328158D01*
X47579010Y-176598411D01*
X47741525Y-176841632D01*
X47948368Y-177048475D01*
X48130534Y-177170195D01*
X48013645Y-177239822D01*
X47797412Y-177434731D01*
X47623359Y-177668080D01*
X47498175Y-177930901D01*
X47453524Y-178078110D01*
X47574845Y-178308000D01*
X48768000Y-178308000D01*
X48768000Y-178288000D01*
X49022000Y-178288000D01*
X49022000Y-178308000D01*
X50215155Y-178308000D01*
X50336476Y-178078110D01*
X50291825Y-177930901D01*
X50166641Y-177668080D01*
X49992588Y-177434731D01*
X49776355Y-177239822D01*
X49659466Y-177170195D01*
X49841632Y-177048475D01*
X50048475Y-176841632D01*
X50210990Y-176598411D01*
X50322932Y-176328158D01*
X50380000Y-176041260D01*
X50380000Y-175748740D01*
X50322932Y-175461842D01*
X50210990Y-175191589D01*
X50048475Y-174948368D01*
X49841632Y-174741525D01*
X49667240Y-174625000D01*
X49841632Y-174508475D01*
X50048475Y-174301632D01*
X50210990Y-174058411D01*
X50322932Y-173788158D01*
X50380000Y-173501260D01*
X50380000Y-173208740D01*
X50322932Y-172921842D01*
X50210990Y-172651589D01*
X50048475Y-172408368D01*
X49841632Y-172201525D01*
X49667240Y-172085000D01*
X49841632Y-171968475D01*
X50048475Y-171761632D01*
X50210990Y-171518411D01*
X50322932Y-171248158D01*
X50380000Y-170961260D01*
X50380000Y-170668740D01*
X50322932Y-170381842D01*
X50210990Y-170111589D01*
X50048475Y-169868368D01*
X49841632Y-169661525D01*
X49667240Y-169545000D01*
X49841632Y-169428475D01*
X50048475Y-169221632D01*
X50210990Y-168978411D01*
X50322932Y-168708158D01*
X50380000Y-168421260D01*
X50380000Y-168128740D01*
X50322932Y-167841842D01*
X50210990Y-167571589D01*
X50048475Y-167328368D01*
X49916620Y-167196513D01*
X49989180Y-167174502D01*
X50099494Y-167115537D01*
X50196185Y-167036185D01*
X50275537Y-166939494D01*
X50334502Y-166829180D01*
X50370812Y-166709482D01*
X50383072Y-166585000D01*
X50383072Y-164885000D01*
X50370812Y-164760518D01*
X50334502Y-164640820D01*
X50275537Y-164530506D01*
X50196185Y-164433815D01*
X50099494Y-164354463D01*
X49989180Y-164295498D01*
X49869482Y-164259188D01*
X49745000Y-164246928D01*
X48045000Y-164246928D01*
X47920518Y-164259188D01*
X47800820Y-164295498D01*
X47690506Y-164354463D01*
X47593815Y-164433815D01*
X47514463Y-164530506D01*
X47455498Y-164640820D01*
X47419188Y-164760518D01*
X47406928Y-164885000D01*
X47406928Y-166585000D01*
X47419188Y-166709482D01*
X47455498Y-166829180D01*
X47514463Y-166939494D01*
X47593815Y-167036185D01*
X47690506Y-167115537D01*
X47800820Y-167174502D01*
X47873380Y-167196513D01*
X47741525Y-167328368D01*
X47579010Y-167571589D01*
X47467068Y-167841842D01*
X47410000Y-168128740D01*
X47410000Y-168421260D01*
X47467068Y-168708158D01*
X47579010Y-168978411D01*
X47741525Y-169221632D01*
X47948368Y-169428475D01*
X48122760Y-169545000D01*
X47948368Y-169661525D01*
X47741525Y-169868368D01*
X47579010Y-170111589D01*
X47467068Y-170381842D01*
X47410000Y-170668740D01*
X47410000Y-170836043D01*
X37599112Y-161025155D01*
X37599109Y-161025153D01*
X37590149Y-161016192D01*
X37565564Y-160986236D01*
X37446033Y-160888138D01*
X37312446Y-160816735D01*
X37235774Y-160740063D01*
X37066256Y-160626795D01*
X36877898Y-160548774D01*
X36677939Y-160509000D01*
X36474061Y-160509000D01*
X36274102Y-160548774D01*
X36085744Y-160626795D01*
X35916226Y-160740063D01*
X35772063Y-160884226D01*
X35658795Y-161053744D01*
X35580774Y-161242102D01*
X35552000Y-161386760D01*
X35552000Y-159233890D01*
X47453524Y-159233890D01*
X47498175Y-159381099D01*
X47623359Y-159643920D01*
X47797412Y-159877269D01*
X48013645Y-160072178D01*
X48263748Y-160221157D01*
X48538109Y-160318481D01*
X48768000Y-160197814D01*
X48768000Y-159004000D01*
X49022000Y-159004000D01*
X49022000Y-160197814D01*
X49251891Y-160318481D01*
X49526252Y-160221157D01*
X49776355Y-160072178D01*
X49992588Y-159877269D01*
X50166641Y-159643920D01*
X50291825Y-159381099D01*
X50336476Y-159233890D01*
X50215155Y-159004000D01*
X49022000Y-159004000D01*
X48768000Y-159004000D01*
X47574845Y-159004000D01*
X47453524Y-159233890D01*
X35552000Y-159233890D01*
X35552000Y-158869000D01*
X35577416Y-158869000D01*
X35781973Y-159005680D01*
X36043126Y-159113853D01*
X36320365Y-159169000D01*
X36603035Y-159169000D01*
X36880274Y-159113853D01*
X37141427Y-159005680D01*
X37376459Y-158848637D01*
X37576337Y-158648759D01*
X37733380Y-158413727D01*
X37841553Y-158152574D01*
X37889550Y-157911282D01*
X38328832Y-157472000D01*
X47477317Y-157472000D01*
X47514463Y-157541494D01*
X47593815Y-157638185D01*
X47690506Y-157717537D01*
X47800820Y-157776502D01*
X47881466Y-157800966D01*
X47797412Y-157876731D01*
X47623359Y-158110080D01*
X47498175Y-158372901D01*
X47453524Y-158520110D01*
X47574845Y-158750000D01*
X48768000Y-158750000D01*
X48768000Y-158730000D01*
X49022000Y-158730000D01*
X49022000Y-158750000D01*
X50215155Y-158750000D01*
X50336476Y-158520110D01*
X50291825Y-158372901D01*
X50166641Y-158110080D01*
X49992588Y-157876731D01*
X49908534Y-157800966D01*
X49989180Y-157776502D01*
X50099494Y-157717537D01*
X50196185Y-157638185D01*
X50275537Y-157541494D01*
X50334502Y-157431180D01*
X50370812Y-157311482D01*
X50383072Y-157187000D01*
X50383072Y-155487000D01*
X50370812Y-155362518D01*
X50334502Y-155242820D01*
X50275537Y-155132506D01*
X50196185Y-155035815D01*
X50099494Y-154956463D01*
X49989180Y-154897498D01*
X49869482Y-154861188D01*
X49745000Y-154848928D01*
X48045000Y-154848928D01*
X47920518Y-154861188D01*
X47800820Y-154897498D01*
X47690506Y-154956463D01*
X47593815Y-155035815D01*
X47514463Y-155132506D01*
X47477317Y-155202000D01*
X37914441Y-155202000D01*
X37858699Y-155196510D01*
X37802957Y-155202000D01*
X37802948Y-155202000D01*
X37636201Y-155218423D01*
X37422253Y-155283324D01*
X37227667Y-155387332D01*
X37274797Y-155226702D01*
X36461700Y-154413605D01*
X35648603Y-155226702D01*
X35720186Y-155470671D01*
X35975696Y-155591571D01*
X36249884Y-155660300D01*
X36532212Y-155674217D01*
X36811830Y-155632787D01*
X37033366Y-155553562D01*
X37016704Y-155573865D01*
X36841562Y-155749007D01*
X36841556Y-155749012D01*
X36284418Y-156306150D01*
X36043126Y-156354147D01*
X35781973Y-156462320D01*
X35577416Y-156599000D01*
X34472751Y-156599000D01*
X34417000Y-156593509D01*
X34361248Y-156599000D01*
X30608201Y-156599000D01*
X30522747Y-156553324D01*
X30308799Y-156488423D01*
X30142052Y-156472000D01*
X30030548Y-156472000D01*
X29863801Y-156488423D01*
X29649853Y-156553324D01*
X29452677Y-156658716D01*
X29279851Y-156800551D01*
X29138016Y-156973377D01*
X29032624Y-157170553D01*
X28967723Y-157384501D01*
X28945809Y-157607000D01*
X24859157Y-157607000D01*
X28161645Y-154304512D01*
X35021483Y-154304512D01*
X35062913Y-154584130D01*
X35158097Y-154850292D01*
X35225029Y-154975514D01*
X35468998Y-155047097D01*
X36282095Y-154234000D01*
X36641305Y-154234000D01*
X37454402Y-155047097D01*
X37698371Y-154975514D01*
X37819271Y-154720004D01*
X37888000Y-154445816D01*
X37901917Y-154163488D01*
X37860487Y-153883870D01*
X37765303Y-153617708D01*
X37698371Y-153492486D01*
X37454402Y-153420903D01*
X36641305Y-154234000D01*
X36282095Y-154234000D01*
X35468998Y-153420903D01*
X35225029Y-153492486D01*
X35104129Y-153747996D01*
X35035400Y-154022184D01*
X35021483Y-154304512D01*
X28161645Y-154304512D01*
X29224859Y-153241298D01*
X35648603Y-153241298D01*
X36461700Y-154054395D01*
X37274797Y-153241298D01*
X37203214Y-152997329D01*
X36947704Y-152876429D01*
X36673516Y-152807700D01*
X36391188Y-152793783D01*
X36111570Y-152835213D01*
X35845408Y-152930397D01*
X35720186Y-152997329D01*
X35648603Y-153241298D01*
X29224859Y-153241298D01*
X29815512Y-152650645D01*
X29862744Y-152682205D01*
X30051102Y-152760226D01*
X30251061Y-152800000D01*
X30454939Y-152800000D01*
X30654898Y-152760226D01*
X30843256Y-152682205D01*
X31012774Y-152568937D01*
X31156937Y-152424774D01*
X31270205Y-152255256D01*
X31348226Y-152066898D01*
X31388000Y-151866939D01*
X31388000Y-151663061D01*
X31348226Y-151463102D01*
X31270205Y-151274744D01*
X31156937Y-151105226D01*
X31012774Y-150961063D01*
X30843256Y-150847795D01*
X30679277Y-150779872D01*
X49765000Y-150779872D01*
X49765000Y-151220128D01*
X49850890Y-151651925D01*
X50019369Y-152058669D01*
X50263962Y-152424729D01*
X50575271Y-152736038D01*
X50941331Y-152980631D01*
X51348075Y-153149110D01*
X51779872Y-153235000D01*
X52220128Y-153235000D01*
X52651925Y-153149110D01*
X53058669Y-152980631D01*
X53424729Y-152736038D01*
X53736038Y-152424729D01*
X53980631Y-152058669D01*
X54149110Y-151651925D01*
X54235000Y-151220128D01*
X54235000Y-150779872D01*
X54149110Y-150348075D01*
X53980631Y-149941331D01*
X53736038Y-149575271D01*
X53424729Y-149263962D01*
X53058669Y-149019369D01*
X52651925Y-148850890D01*
X52220128Y-148765000D01*
X51779872Y-148765000D01*
X51348075Y-148850890D01*
X50941331Y-149019369D01*
X50575271Y-149263962D01*
X50263962Y-149575271D01*
X50019369Y-149941331D01*
X49850890Y-150348075D01*
X49765000Y-150779872D01*
X30679277Y-150779872D01*
X30654898Y-150769774D01*
X30454939Y-150730000D01*
X30251061Y-150730000D01*
X30051102Y-150769774D01*
X29862744Y-150847795D01*
X29693226Y-150961063D01*
X29674289Y-150980000D01*
X29629556Y-150980000D01*
X29591000Y-150976203D01*
X29552444Y-150980000D01*
X29552439Y-150980000D01*
X29512026Y-150983980D01*
X29437113Y-150991358D01*
X29289140Y-151036246D01*
X29152767Y-151109138D01*
X29033236Y-151207236D01*
X29008653Y-151237190D01*
X18339843Y-161906000D01*
X18313061Y-161906000D01*
X18113102Y-161945774D01*
X17924744Y-162023795D01*
X17755226Y-162137063D01*
X17611063Y-162281226D01*
X17497795Y-162450744D01*
X17419774Y-162639102D01*
X17380000Y-162839061D01*
X8660000Y-162839061D01*
X8660000Y-161742702D01*
X10936903Y-161742702D01*
X11008486Y-161986671D01*
X11263996Y-162107571D01*
X11538184Y-162176300D01*
X11820512Y-162190217D01*
X12100130Y-162148787D01*
X12366292Y-162053603D01*
X12491514Y-161986671D01*
X12563097Y-161742702D01*
X11750000Y-160929605D01*
X10936903Y-161742702D01*
X8660000Y-161742702D01*
X8660000Y-160820512D01*
X10309783Y-160820512D01*
X10351213Y-161100130D01*
X10446397Y-161366292D01*
X10513329Y-161491514D01*
X10757298Y-161563097D01*
X11570395Y-160750000D01*
X11929605Y-160750000D01*
X12742702Y-161563097D01*
X12986671Y-161491514D01*
X13107571Y-161236004D01*
X13176300Y-160961816D01*
X13190217Y-160679488D01*
X13179724Y-160608665D01*
X13815000Y-160608665D01*
X13815000Y-160891335D01*
X13870147Y-161168574D01*
X13978320Y-161429727D01*
X14135363Y-161664759D01*
X14335241Y-161864637D01*
X14570273Y-162021680D01*
X14831426Y-162129853D01*
X15108665Y-162185000D01*
X15391335Y-162185000D01*
X15668574Y-162129853D01*
X15929727Y-162021680D01*
X16164759Y-161864637D01*
X16364637Y-161664759D01*
X16521680Y-161429727D01*
X16629853Y-161168574D01*
X16677850Y-160927281D01*
X27372132Y-150233000D01*
X28630752Y-150233000D01*
X28797499Y-150216577D01*
X29011447Y-150151676D01*
X29208623Y-150046284D01*
X29381449Y-149904449D01*
X29523284Y-149731623D01*
X29628676Y-149534447D01*
X29693577Y-149320499D01*
X29715491Y-149098000D01*
X29693577Y-148875501D01*
X29628676Y-148661553D01*
X29523284Y-148464377D01*
X29381449Y-148291551D01*
X29208623Y-148149716D01*
X29011447Y-148044324D01*
X28797499Y-147979423D01*
X28630752Y-147963000D01*
X26957741Y-147963000D01*
X26901999Y-147957510D01*
X26846257Y-147963000D01*
X26846248Y-147963000D01*
X26679501Y-147979423D01*
X26465553Y-148044324D01*
X26268377Y-148149716D01*
X26095551Y-148291551D01*
X26060009Y-148334859D01*
X15072719Y-159322150D01*
X14831426Y-159370147D01*
X14570273Y-159478320D01*
X14335241Y-159635363D01*
X14135363Y-159835241D01*
X13978320Y-160070273D01*
X13870147Y-160331426D01*
X13815000Y-160608665D01*
X13179724Y-160608665D01*
X13148787Y-160399870D01*
X13053603Y-160133708D01*
X12986671Y-160008486D01*
X12742702Y-159936903D01*
X11929605Y-160750000D01*
X11570395Y-160750000D01*
X10757298Y-159936903D01*
X10513329Y-160008486D01*
X10392429Y-160263996D01*
X10323700Y-160538184D01*
X10309783Y-160820512D01*
X8660000Y-160820512D01*
X8660000Y-159757298D01*
X10936903Y-159757298D01*
X11750000Y-160570395D01*
X12563097Y-159757298D01*
X12491514Y-159513329D01*
X12236004Y-159392429D01*
X11961816Y-159323700D01*
X11679488Y-159309783D01*
X11399870Y-159351213D01*
X11133708Y-159446397D01*
X11008486Y-159513329D01*
X10936903Y-159757298D01*
X8660000Y-159757298D01*
X8660000Y-150779872D01*
X9765000Y-150779872D01*
X9765000Y-151220128D01*
X9850890Y-151651925D01*
X10019369Y-152058669D01*
X10263962Y-152424729D01*
X10575271Y-152736038D01*
X10941331Y-152980631D01*
X11348075Y-153149110D01*
X11779872Y-153235000D01*
X12220128Y-153235000D01*
X12651925Y-153149110D01*
X13058669Y-152980631D01*
X13424729Y-152736038D01*
X13736038Y-152424729D01*
X13980631Y-152058669D01*
X14149110Y-151651925D01*
X14235000Y-151220128D01*
X14235000Y-150779872D01*
X14149110Y-150348075D01*
X13980631Y-149941331D01*
X13736038Y-149575271D01*
X13424729Y-149263962D01*
X13058669Y-149019369D01*
X12651925Y-148850890D01*
X12220128Y-148765000D01*
X11779872Y-148765000D01*
X11348075Y-148850890D01*
X10941331Y-149019369D01*
X10575271Y-149263962D01*
X10263962Y-149575271D01*
X10019369Y-149941331D01*
X9850890Y-150348075D01*
X9765000Y-150779872D01*
X8660000Y-150779872D01*
X8660000Y-147660000D01*
X55340000Y-147660000D01*
X55340001Y-189340000D01*
%TD*%
M02*
