%TF.GenerationSoftware,KiCad,Pcbnew,5.1.6-c6e7f7d~87~ubuntu18.04.1*%
%TF.CreationDate,2022-02-07T12:08:45+00:00*%
%TF.ProjectId,L6235-breakout,4c363233-352d-4627-9265-616b6f75742e,rev?*%
%TF.SameCoordinates,Original*%
%TF.FileFunction,Paste,Top*%
%TF.FilePolarity,Positive*%
%FSLAX46Y46*%
G04 Gerber Fmt 4.6, Leading zero omitted, Abs format (unit mm)*
G04 Created by KiCad (PCBNEW 5.1.6-c6e7f7d~87~ubuntu18.04.1) date 2022-02-07 12:08:45*
%MOMM*%
%LPD*%
G01*
G04 APERTURE LIST*
%ADD10C,0.100000*%
%ADD11R,2.200000X1.200000*%
%ADD12R,3.050000X2.750000*%
G04 APERTURE END LIST*
%TO.C,C1*%
G36*
G01*
X44224400Y-170985200D02*
X44224400Y-170035200D01*
G75*
G02*
X44474400Y-169785200I250000J0D01*
G01*
X44974400Y-169785200D01*
G75*
G02*
X45224400Y-170035200I0J-250000D01*
G01*
X45224400Y-170985200D01*
G75*
G02*
X44974400Y-171235200I-250000J0D01*
G01*
X44474400Y-171235200D01*
G75*
G02*
X44224400Y-170985200I0J250000D01*
G01*
G37*
G36*
G01*
X42324400Y-170985200D02*
X42324400Y-170035200D01*
G75*
G02*
X42574400Y-169785200I250000J0D01*
G01*
X43074400Y-169785200D01*
G75*
G02*
X43324400Y-170035200I0J-250000D01*
G01*
X43324400Y-170985200D01*
G75*
G02*
X43074400Y-171235200I-250000J0D01*
G01*
X42574400Y-171235200D01*
G75*
G02*
X42324400Y-170985200I0J250000D01*
G01*
G37*
%TD*%
%TO.C,C2*%
G36*
G01*
X20124000Y-159545000D02*
X20124000Y-160495000D01*
G75*
G02*
X19874000Y-160745000I-250000J0D01*
G01*
X19374000Y-160745000D01*
G75*
G02*
X19124000Y-160495000I0J250000D01*
G01*
X19124000Y-159545000D01*
G75*
G02*
X19374000Y-159295000I250000J0D01*
G01*
X19874000Y-159295000D01*
G75*
G02*
X20124000Y-159545000I0J-250000D01*
G01*
G37*
G36*
G01*
X22024000Y-159545000D02*
X22024000Y-160495000D01*
G75*
G02*
X21774000Y-160745000I-250000J0D01*
G01*
X21274000Y-160745000D01*
G75*
G02*
X21024000Y-160495000I0J250000D01*
G01*
X21024000Y-159545000D01*
G75*
G02*
X21274000Y-159295000I250000J0D01*
G01*
X21774000Y-159295000D01*
G75*
G02*
X22024000Y-159545000I0J-250000D01*
G01*
G37*
%TD*%
%TO.C,C5*%
G36*
G01*
X42311700Y-161574500D02*
X42311700Y-160624500D01*
G75*
G02*
X42561700Y-160374500I250000J0D01*
G01*
X43061700Y-160374500D01*
G75*
G02*
X43311700Y-160624500I0J-250000D01*
G01*
X43311700Y-161574500D01*
G75*
G02*
X43061700Y-161824500I-250000J0D01*
G01*
X42561700Y-161824500D01*
G75*
G02*
X42311700Y-161574500I0J250000D01*
G01*
G37*
G36*
G01*
X44211700Y-161574500D02*
X44211700Y-160624500D01*
G75*
G02*
X44461700Y-160374500I250000J0D01*
G01*
X44961700Y-160374500D01*
G75*
G02*
X45211700Y-160624500I0J-250000D01*
G01*
X45211700Y-161574500D01*
G75*
G02*
X44961700Y-161824500I-250000J0D01*
G01*
X44461700Y-161824500D01*
G75*
G02*
X44211700Y-161574500I0J250000D01*
G01*
G37*
%TD*%
%TO.C,C6*%
G36*
G01*
X24475900Y-180688000D02*
X24475900Y-179738000D01*
G75*
G02*
X24725900Y-179488000I250000J0D01*
G01*
X25225900Y-179488000D01*
G75*
G02*
X25475900Y-179738000I0J-250000D01*
G01*
X25475900Y-180688000D01*
G75*
G02*
X25225900Y-180938000I-250000J0D01*
G01*
X24725900Y-180938000D01*
G75*
G02*
X24475900Y-180688000I0J250000D01*
G01*
G37*
G36*
G01*
X22575900Y-180688000D02*
X22575900Y-179738000D01*
G75*
G02*
X22825900Y-179488000I250000J0D01*
G01*
X23325900Y-179488000D01*
G75*
G02*
X23575900Y-179738000I0J-250000D01*
G01*
X23575900Y-180688000D01*
G75*
G02*
X23325900Y-180938000I-250000J0D01*
G01*
X22825900Y-180938000D01*
G75*
G02*
X22575900Y-180688000I0J250000D01*
G01*
G37*
%TD*%
%TO.C,C7*%
G36*
G01*
X37158000Y-149573000D02*
X37158000Y-148623000D01*
G75*
G02*
X37408000Y-148373000I250000J0D01*
G01*
X37908000Y-148373000D01*
G75*
G02*
X38158000Y-148623000I0J-250000D01*
G01*
X38158000Y-149573000D01*
G75*
G02*
X37908000Y-149823000I-250000J0D01*
G01*
X37408000Y-149823000D01*
G75*
G02*
X37158000Y-149573000I0J250000D01*
G01*
G37*
G36*
G01*
X39058000Y-149573000D02*
X39058000Y-148623000D01*
G75*
G02*
X39308000Y-148373000I250000J0D01*
G01*
X39808000Y-148373000D01*
G75*
G02*
X40058000Y-148623000I0J-250000D01*
G01*
X40058000Y-149573000D01*
G75*
G02*
X39808000Y-149823000I-250000J0D01*
G01*
X39308000Y-149823000D01*
G75*
G02*
X39058000Y-149573000I0J250000D01*
G01*
G37*
%TD*%
%TO.C,C8*%
G36*
G01*
X17894600Y-168203900D02*
X17894600Y-167253900D01*
G75*
G02*
X18144600Y-167003900I250000J0D01*
G01*
X18644600Y-167003900D01*
G75*
G02*
X18894600Y-167253900I0J-250000D01*
G01*
X18894600Y-168203900D01*
G75*
G02*
X18644600Y-168453900I-250000J0D01*
G01*
X18144600Y-168453900D01*
G75*
G02*
X17894600Y-168203900I0J250000D01*
G01*
G37*
G36*
G01*
X19794600Y-168203900D02*
X19794600Y-167253900D01*
G75*
G02*
X20044600Y-167003900I250000J0D01*
G01*
X20544600Y-167003900D01*
G75*
G02*
X20794600Y-167253900I0J-250000D01*
G01*
X20794600Y-168203900D01*
G75*
G02*
X20544600Y-168453900I-250000J0D01*
G01*
X20044600Y-168453900D01*
G75*
G02*
X19794600Y-168203900I0J250000D01*
G01*
G37*
%TD*%
%TO.C,C10*%
G36*
G01*
X43413700Y-174147900D02*
X44363700Y-174147900D01*
G75*
G02*
X44613700Y-174397900I0J-250000D01*
G01*
X44613700Y-174897900D01*
G75*
G02*
X44363700Y-175147900I-250000J0D01*
G01*
X43413700Y-175147900D01*
G75*
G02*
X43163700Y-174897900I0J250000D01*
G01*
X43163700Y-174397900D01*
G75*
G02*
X43413700Y-174147900I250000J0D01*
G01*
G37*
G36*
G01*
X43413700Y-172247900D02*
X44363700Y-172247900D01*
G75*
G02*
X44613700Y-172497900I0J-250000D01*
G01*
X44613700Y-172997900D01*
G75*
G02*
X44363700Y-173247900I-250000J0D01*
G01*
X43413700Y-173247900D01*
G75*
G02*
X43163700Y-172997900I0J250000D01*
G01*
X43163700Y-172497900D01*
G75*
G02*
X43413700Y-172247900I250000J0D01*
G01*
G37*
%TD*%
%TO.C,D1*%
G36*
G01*
X46279750Y-152088000D02*
X47192250Y-152088000D01*
G75*
G02*
X47436000Y-152331750I0J-243750D01*
G01*
X47436000Y-152819250D01*
G75*
G02*
X47192250Y-153063000I-243750J0D01*
G01*
X46279750Y-153063000D01*
G75*
G02*
X46036000Y-152819250I0J243750D01*
G01*
X46036000Y-152331750D01*
G75*
G02*
X46279750Y-152088000I243750J0D01*
G01*
G37*
G36*
G01*
X46279750Y-150213000D02*
X47192250Y-150213000D01*
G75*
G02*
X47436000Y-150456750I0J-243750D01*
G01*
X47436000Y-150944250D01*
G75*
G02*
X47192250Y-151188000I-243750J0D01*
G01*
X46279750Y-151188000D01*
G75*
G02*
X46036000Y-150944250I0J243750D01*
G01*
X46036000Y-150456750D01*
G75*
G02*
X46279750Y-150213000I243750J0D01*
G01*
G37*
%TD*%
%TO.C,D2*%
G36*
G01*
X41628000Y-149554250D02*
X41628000Y-148641750D01*
G75*
G02*
X41871750Y-148398000I243750J0D01*
G01*
X42359250Y-148398000D01*
G75*
G02*
X42603000Y-148641750I0J-243750D01*
G01*
X42603000Y-149554250D01*
G75*
G02*
X42359250Y-149798000I-243750J0D01*
G01*
X41871750Y-149798000D01*
G75*
G02*
X41628000Y-149554250I0J243750D01*
G01*
G37*
G36*
G01*
X43503000Y-149554250D02*
X43503000Y-148641750D01*
G75*
G02*
X43746750Y-148398000I243750J0D01*
G01*
X44234250Y-148398000D01*
G75*
G02*
X44478000Y-148641750I0J-243750D01*
G01*
X44478000Y-149554250D01*
G75*
G02*
X44234250Y-149798000I-243750J0D01*
G01*
X43746750Y-149798000D01*
G75*
G02*
X43503000Y-149554250I0J243750D01*
G01*
G37*
%TD*%
%TO.C,R1*%
G36*
G01*
X42350000Y-168852002D02*
X42350000Y-167951998D01*
G75*
G02*
X42599998Y-167702000I249998J0D01*
G01*
X43125002Y-167702000D01*
G75*
G02*
X43375000Y-167951998I0J-249998D01*
G01*
X43375000Y-168852002D01*
G75*
G02*
X43125002Y-169102000I-249998J0D01*
G01*
X42599998Y-169102000D01*
G75*
G02*
X42350000Y-168852002I0J249998D01*
G01*
G37*
G36*
G01*
X44175000Y-168852002D02*
X44175000Y-167951998D01*
G75*
G02*
X44424998Y-167702000I249998J0D01*
G01*
X44950002Y-167702000D01*
G75*
G02*
X45200000Y-167951998I0J-249998D01*
G01*
X45200000Y-168852002D01*
G75*
G02*
X44950002Y-169102000I-249998J0D01*
G01*
X44424998Y-169102000D01*
G75*
G02*
X44175000Y-168852002I0J249998D01*
G01*
G37*
%TD*%
%TO.C,R2*%
G36*
G01*
X44162300Y-165613502D02*
X44162300Y-164713498D01*
G75*
G02*
X44412298Y-164463500I249998J0D01*
G01*
X44937302Y-164463500D01*
G75*
G02*
X45187300Y-164713498I0J-249998D01*
G01*
X45187300Y-165613502D01*
G75*
G02*
X44937302Y-165863500I-249998J0D01*
G01*
X44412298Y-165863500D01*
G75*
G02*
X44162300Y-165613502I0J249998D01*
G01*
G37*
G36*
G01*
X42337300Y-165613502D02*
X42337300Y-164713498D01*
G75*
G02*
X42587298Y-164463500I249998J0D01*
G01*
X43112302Y-164463500D01*
G75*
G02*
X43362300Y-164713498I0J-249998D01*
G01*
X43362300Y-165613502D01*
G75*
G02*
X43112302Y-165863500I-249998J0D01*
G01*
X42587298Y-165863500D01*
G75*
G02*
X42337300Y-165613502I0J249998D01*
G01*
G37*
%TD*%
%TO.C,R3*%
G36*
G01*
X45187300Y-162744998D02*
X45187300Y-163645002D01*
G75*
G02*
X44937302Y-163895000I-249998J0D01*
G01*
X44412298Y-163895000D01*
G75*
G02*
X44162300Y-163645002I0J249998D01*
G01*
X44162300Y-162744998D01*
G75*
G02*
X44412298Y-162495000I249998J0D01*
G01*
X44937302Y-162495000D01*
G75*
G02*
X45187300Y-162744998I0J-249998D01*
G01*
G37*
G36*
G01*
X43362300Y-162744998D02*
X43362300Y-163645002D01*
G75*
G02*
X43112302Y-163895000I-249998J0D01*
G01*
X42587298Y-163895000D01*
G75*
G02*
X42337300Y-163645002I0J249998D01*
G01*
X42337300Y-162744998D01*
G75*
G02*
X42587298Y-162495000I249998J0D01*
G01*
X43112302Y-162495000D01*
G75*
G02*
X43362300Y-162744998I0J-249998D01*
G01*
G37*
%TD*%
%TO.C,R4*%
G36*
G01*
X22614200Y-182758502D02*
X22614200Y-181858498D01*
G75*
G02*
X22864198Y-181608500I249998J0D01*
G01*
X23389202Y-181608500D01*
G75*
G02*
X23639200Y-181858498I0J-249998D01*
G01*
X23639200Y-182758502D01*
G75*
G02*
X23389202Y-183008500I-249998J0D01*
G01*
X22864198Y-183008500D01*
G75*
G02*
X22614200Y-182758502I0J249998D01*
G01*
G37*
G36*
G01*
X24439200Y-182758502D02*
X24439200Y-181858498D01*
G75*
G02*
X24689198Y-181608500I249998J0D01*
G01*
X25214202Y-181608500D01*
G75*
G02*
X25464200Y-181858498I0J-249998D01*
G01*
X25464200Y-182758502D01*
G75*
G02*
X25214202Y-183008500I-249998J0D01*
G01*
X24689198Y-183008500D01*
G75*
G02*
X24439200Y-182758502I0J249998D01*
G01*
G37*
%TD*%
%TO.C,R5*%
G36*
G01*
X18795300Y-180828102D02*
X18795300Y-179928098D01*
G75*
G02*
X19045298Y-179678100I249998J0D01*
G01*
X19570302Y-179678100D01*
G75*
G02*
X19820300Y-179928098I0J-249998D01*
G01*
X19820300Y-180828102D01*
G75*
G02*
X19570302Y-181078100I-249998J0D01*
G01*
X19045298Y-181078100D01*
G75*
G02*
X18795300Y-180828102I0J249998D01*
G01*
G37*
G36*
G01*
X20620300Y-180828102D02*
X20620300Y-179928098D01*
G75*
G02*
X20870298Y-179678100I249998J0D01*
G01*
X21395302Y-179678100D01*
G75*
G02*
X21645300Y-179928098I0J-249998D01*
G01*
X21645300Y-180828102D01*
G75*
G02*
X21395302Y-181078100I-249998J0D01*
G01*
X20870298Y-181078100D01*
G75*
G02*
X20620300Y-180828102I0J249998D01*
G01*
G37*
%TD*%
%TO.C,R6*%
G36*
G01*
X18982100Y-165157998D02*
X18982100Y-166058002D01*
G75*
G02*
X18732102Y-166308000I-249998J0D01*
G01*
X18207098Y-166308000D01*
G75*
G02*
X17957100Y-166058002I0J249998D01*
G01*
X17957100Y-165157998D01*
G75*
G02*
X18207098Y-164908000I249998J0D01*
G01*
X18732102Y-164908000D01*
G75*
G02*
X18982100Y-165157998I0J-249998D01*
G01*
G37*
G36*
G01*
X20807100Y-165157998D02*
X20807100Y-166058002D01*
G75*
G02*
X20557102Y-166308000I-249998J0D01*
G01*
X20032098Y-166308000D01*
G75*
G02*
X19782100Y-166058002I0J249998D01*
G01*
X19782100Y-165157998D01*
G75*
G02*
X20032098Y-164908000I249998J0D01*
G01*
X20557102Y-164908000D01*
G75*
G02*
X20807100Y-165157998I0J-249998D01*
G01*
G37*
%TD*%
%TO.C,R7*%
G36*
G01*
X18757200Y-178719902D02*
X18757200Y-177819898D01*
G75*
G02*
X19007198Y-177569900I249998J0D01*
G01*
X19532202Y-177569900D01*
G75*
G02*
X19782200Y-177819898I0J-249998D01*
G01*
X19782200Y-178719902D01*
G75*
G02*
X19532202Y-178969900I-249998J0D01*
G01*
X19007198Y-178969900D01*
G75*
G02*
X18757200Y-178719902I0J249998D01*
G01*
G37*
G36*
G01*
X20582200Y-178719902D02*
X20582200Y-177819898D01*
G75*
G02*
X20832198Y-177569900I249998J0D01*
G01*
X21357202Y-177569900D01*
G75*
G02*
X21607200Y-177819898I0J-249998D01*
G01*
X21607200Y-178719902D01*
G75*
G02*
X21357202Y-178969900I-249998J0D01*
G01*
X20832198Y-178969900D01*
G75*
G02*
X20582200Y-178719902I0J249998D01*
G01*
G37*
%TD*%
%TO.C,R8*%
G36*
G01*
X43198202Y-177298400D02*
X42298198Y-177298400D01*
G75*
G02*
X42048200Y-177048402I0J249998D01*
G01*
X42048200Y-176523398D01*
G75*
G02*
X42298198Y-176273400I249998J0D01*
G01*
X43198202Y-176273400D01*
G75*
G02*
X43448200Y-176523398I0J-249998D01*
G01*
X43448200Y-177048402D01*
G75*
G02*
X43198202Y-177298400I-249998J0D01*
G01*
G37*
G36*
G01*
X43198202Y-179123400D02*
X42298198Y-179123400D01*
G75*
G02*
X42048200Y-178873402I0J249998D01*
G01*
X42048200Y-178348398D01*
G75*
G02*
X42298198Y-178098400I249998J0D01*
G01*
X43198202Y-178098400D01*
G75*
G02*
X43448200Y-178348398I0J-249998D01*
G01*
X43448200Y-178873402D01*
G75*
G02*
X43198202Y-179123400I-249998J0D01*
G01*
G37*
%TD*%
%TO.C,R9*%
G36*
G01*
X41345698Y-172222100D02*
X42245702Y-172222100D01*
G75*
G02*
X42495700Y-172472098I0J-249998D01*
G01*
X42495700Y-172997102D01*
G75*
G02*
X42245702Y-173247100I-249998J0D01*
G01*
X41345698Y-173247100D01*
G75*
G02*
X41095700Y-172997102I0J249998D01*
G01*
X41095700Y-172472098D01*
G75*
G02*
X41345698Y-172222100I249998J0D01*
G01*
G37*
G36*
G01*
X41345698Y-174047100D02*
X42245702Y-174047100D01*
G75*
G02*
X42495700Y-174297098I0J-249998D01*
G01*
X42495700Y-174822102D01*
G75*
G02*
X42245702Y-175072100I-249998J0D01*
G01*
X41345698Y-175072100D01*
G75*
G02*
X41095700Y-174822102I0J249998D01*
G01*
X41095700Y-174297098D01*
G75*
G02*
X41345698Y-174047100I249998J0D01*
G01*
G37*
%TD*%
%TO.C,R10*%
G36*
G01*
X20645700Y-175837002D02*
X20645700Y-174936998D01*
G75*
G02*
X20895698Y-174687000I249998J0D01*
G01*
X21420702Y-174687000D01*
G75*
G02*
X21670700Y-174936998I0J-249998D01*
G01*
X21670700Y-175837002D01*
G75*
G02*
X21420702Y-176087000I-249998J0D01*
G01*
X20895698Y-176087000D01*
G75*
G02*
X20645700Y-175837002I0J249998D01*
G01*
G37*
G36*
G01*
X18820700Y-175837002D02*
X18820700Y-174936998D01*
G75*
G02*
X19070698Y-174687000I249998J0D01*
G01*
X19595702Y-174687000D01*
G75*
G02*
X19845700Y-174936998I0J-249998D01*
G01*
X19845700Y-175837002D01*
G75*
G02*
X19595702Y-176087000I-249998J0D01*
G01*
X19070698Y-176087000D01*
G75*
G02*
X18820700Y-175837002I0J249998D01*
G01*
G37*
%TD*%
%TO.C,R11*%
G36*
G01*
X9876100Y-171607902D02*
X9876100Y-170707898D01*
G75*
G02*
X10126098Y-170457900I249998J0D01*
G01*
X10651102Y-170457900D01*
G75*
G02*
X10901100Y-170707898I0J-249998D01*
G01*
X10901100Y-171607902D01*
G75*
G02*
X10651102Y-171857900I-249998J0D01*
G01*
X10126098Y-171857900D01*
G75*
G02*
X9876100Y-171607902I0J249998D01*
G01*
G37*
G36*
G01*
X11701100Y-171607902D02*
X11701100Y-170707898D01*
G75*
G02*
X11951098Y-170457900I249998J0D01*
G01*
X12476102Y-170457900D01*
G75*
G02*
X12726100Y-170707898I0J-249998D01*
G01*
X12726100Y-171607902D01*
G75*
G02*
X12476102Y-171857900I-249998J0D01*
G01*
X11951098Y-171857900D01*
G75*
G02*
X11701100Y-171607902I0J249998D01*
G01*
G37*
%TD*%
%TO.C,R12*%
G36*
G01*
X12056700Y-175100402D02*
X12056700Y-174200398D01*
G75*
G02*
X12306698Y-173950400I249998J0D01*
G01*
X12831702Y-173950400D01*
G75*
G02*
X13081700Y-174200398I0J-249998D01*
G01*
X13081700Y-175100402D01*
G75*
G02*
X12831702Y-175350400I-249998J0D01*
G01*
X12306698Y-175350400D01*
G75*
G02*
X12056700Y-175100402I0J249998D01*
G01*
G37*
G36*
G01*
X10231700Y-175100402D02*
X10231700Y-174200398D01*
G75*
G02*
X10481698Y-173950400I249998J0D01*
G01*
X11006702Y-173950400D01*
G75*
G02*
X11256700Y-174200398I0J-249998D01*
G01*
X11256700Y-175100402D01*
G75*
G02*
X11006702Y-175350400I-249998J0D01*
G01*
X10481698Y-175350400D01*
G75*
G02*
X10231700Y-175100402I0J249998D01*
G01*
G37*
%TD*%
%TO.C,R13*%
G36*
G01*
X20645700Y-182936302D02*
X20645700Y-182036298D01*
G75*
G02*
X20895698Y-181786300I249998J0D01*
G01*
X21420702Y-181786300D01*
G75*
G02*
X21670700Y-182036298I0J-249998D01*
G01*
X21670700Y-182936302D01*
G75*
G02*
X21420702Y-183186300I-249998J0D01*
G01*
X20895698Y-183186300D01*
G75*
G02*
X20645700Y-182936302I0J249998D01*
G01*
G37*
G36*
G01*
X18820700Y-182936302D02*
X18820700Y-182036298D01*
G75*
G02*
X19070698Y-181786300I249998J0D01*
G01*
X19595702Y-181786300D01*
G75*
G02*
X19845700Y-182036298I0J-249998D01*
G01*
X19845700Y-182936302D01*
G75*
G02*
X19595702Y-183186300I-249998J0D01*
G01*
X19070698Y-183186300D01*
G75*
G02*
X18820700Y-182936302I0J249998D01*
G01*
G37*
%TD*%
%TO.C,U1*%
G36*
G01*
X23657100Y-165225100D02*
X23657100Y-165035100D01*
G75*
G02*
X23752100Y-164940100I95000J0D01*
G01*
X26062100Y-164940100D01*
G75*
G02*
X26157100Y-165035100I0J-95000D01*
G01*
X26157100Y-165225100D01*
G75*
G02*
X26062100Y-165320100I-95000J0D01*
G01*
X23752100Y-165320100D01*
G75*
G02*
X23657100Y-165225100I0J95000D01*
G01*
G37*
G36*
G01*
X23657100Y-165875100D02*
X23657100Y-165685100D01*
G75*
G02*
X23752100Y-165590100I95000J0D01*
G01*
X26062100Y-165590100D01*
G75*
G02*
X26157100Y-165685100I0J-95000D01*
G01*
X26157100Y-165875100D01*
G75*
G02*
X26062100Y-165970100I-95000J0D01*
G01*
X23752100Y-165970100D01*
G75*
G02*
X23657100Y-165875100I0J95000D01*
G01*
G37*
G36*
G01*
X23657100Y-166525100D02*
X23657100Y-166335100D01*
G75*
G02*
X23752100Y-166240100I95000J0D01*
G01*
X26062100Y-166240100D01*
G75*
G02*
X26157100Y-166335100I0J-95000D01*
G01*
X26157100Y-166525100D01*
G75*
G02*
X26062100Y-166620100I-95000J0D01*
G01*
X23752100Y-166620100D01*
G75*
G02*
X23657100Y-166525100I0J95000D01*
G01*
G37*
G36*
G01*
X23657100Y-167175100D02*
X23657100Y-166985100D01*
G75*
G02*
X23752100Y-166890100I95000J0D01*
G01*
X26062100Y-166890100D01*
G75*
G02*
X26157100Y-166985100I0J-95000D01*
G01*
X26157100Y-167175100D01*
G75*
G02*
X26062100Y-167270100I-95000J0D01*
G01*
X23752100Y-167270100D01*
G75*
G02*
X23657100Y-167175100I0J95000D01*
G01*
G37*
G36*
G01*
X23657100Y-167825100D02*
X23657100Y-167635100D01*
G75*
G02*
X23752100Y-167540100I95000J0D01*
G01*
X26062100Y-167540100D01*
G75*
G02*
X26157100Y-167635100I0J-95000D01*
G01*
X26157100Y-167825100D01*
G75*
G02*
X26062100Y-167920100I-95000J0D01*
G01*
X23752100Y-167920100D01*
G75*
G02*
X23657100Y-167825100I0J95000D01*
G01*
G37*
G36*
G01*
X23657100Y-168475100D02*
X23657100Y-168285100D01*
G75*
G02*
X23752100Y-168190100I95000J0D01*
G01*
X26062100Y-168190100D01*
G75*
G02*
X26157100Y-168285100I0J-95000D01*
G01*
X26157100Y-168475100D01*
G75*
G02*
X26062100Y-168570100I-95000J0D01*
G01*
X23752100Y-168570100D01*
G75*
G02*
X23657100Y-168475100I0J95000D01*
G01*
G37*
G36*
G01*
X23657100Y-169125100D02*
X23657100Y-168935100D01*
G75*
G02*
X23752100Y-168840100I95000J0D01*
G01*
X26062100Y-168840100D01*
G75*
G02*
X26157100Y-168935100I0J-95000D01*
G01*
X26157100Y-169125100D01*
G75*
G02*
X26062100Y-169220100I-95000J0D01*
G01*
X23752100Y-169220100D01*
G75*
G02*
X23657100Y-169125100I0J95000D01*
G01*
G37*
G36*
G01*
X23657100Y-169775100D02*
X23657100Y-169585100D01*
G75*
G02*
X23752100Y-169490100I95000J0D01*
G01*
X26062100Y-169490100D01*
G75*
G02*
X26157100Y-169585100I0J-95000D01*
G01*
X26157100Y-169775100D01*
G75*
G02*
X26062100Y-169870100I-95000J0D01*
G01*
X23752100Y-169870100D01*
G75*
G02*
X23657100Y-169775100I0J95000D01*
G01*
G37*
G36*
G01*
X23657100Y-170425100D02*
X23657100Y-170235100D01*
G75*
G02*
X23752100Y-170140100I95000J0D01*
G01*
X26062100Y-170140100D01*
G75*
G02*
X26157100Y-170235100I0J-95000D01*
G01*
X26157100Y-170425100D01*
G75*
G02*
X26062100Y-170520100I-95000J0D01*
G01*
X23752100Y-170520100D01*
G75*
G02*
X23657100Y-170425100I0J95000D01*
G01*
G37*
G36*
G01*
X23657100Y-171075100D02*
X23657100Y-170885100D01*
G75*
G02*
X23752100Y-170790100I95000J0D01*
G01*
X26062100Y-170790100D01*
G75*
G02*
X26157100Y-170885100I0J-95000D01*
G01*
X26157100Y-171075100D01*
G75*
G02*
X26062100Y-171170100I-95000J0D01*
G01*
X23752100Y-171170100D01*
G75*
G02*
X23657100Y-171075100I0J95000D01*
G01*
G37*
G36*
G01*
X23657100Y-171725100D02*
X23657100Y-171535100D01*
G75*
G02*
X23752100Y-171440100I95000J0D01*
G01*
X26062100Y-171440100D01*
G75*
G02*
X26157100Y-171535100I0J-95000D01*
G01*
X26157100Y-171725100D01*
G75*
G02*
X26062100Y-171820100I-95000J0D01*
G01*
X23752100Y-171820100D01*
G75*
G02*
X23657100Y-171725100I0J95000D01*
G01*
G37*
G36*
G01*
X23657100Y-172375100D02*
X23657100Y-172185100D01*
G75*
G02*
X23752100Y-172090100I95000J0D01*
G01*
X26062100Y-172090100D01*
G75*
G02*
X26157100Y-172185100I0J-95000D01*
G01*
X26157100Y-172375100D01*
G75*
G02*
X26062100Y-172470100I-95000J0D01*
G01*
X23752100Y-172470100D01*
G75*
G02*
X23657100Y-172375100I0J95000D01*
G01*
G37*
G36*
G01*
X23657100Y-173025100D02*
X23657100Y-172835100D01*
G75*
G02*
X23752100Y-172740100I95000J0D01*
G01*
X26062100Y-172740100D01*
G75*
G02*
X26157100Y-172835100I0J-95000D01*
G01*
X26157100Y-173025100D01*
G75*
G02*
X26062100Y-173120100I-95000J0D01*
G01*
X23752100Y-173120100D01*
G75*
G02*
X23657100Y-173025100I0J95000D01*
G01*
G37*
G36*
G01*
X23657100Y-173675100D02*
X23657100Y-173485100D01*
G75*
G02*
X23752100Y-173390100I95000J0D01*
G01*
X26062100Y-173390100D01*
G75*
G02*
X26157100Y-173485100I0J-95000D01*
G01*
X26157100Y-173675100D01*
G75*
G02*
X26062100Y-173770100I-95000J0D01*
G01*
X23752100Y-173770100D01*
G75*
G02*
X23657100Y-173675100I0J95000D01*
G01*
G37*
G36*
G01*
X23657100Y-174325100D02*
X23657100Y-174135100D01*
G75*
G02*
X23752100Y-174040100I95000J0D01*
G01*
X26062100Y-174040100D01*
G75*
G02*
X26157100Y-174135100I0J-95000D01*
G01*
X26157100Y-174325100D01*
G75*
G02*
X26062100Y-174420100I-95000J0D01*
G01*
X23752100Y-174420100D01*
G75*
G02*
X23657100Y-174325100I0J95000D01*
G01*
G37*
G36*
G01*
X23657100Y-174975100D02*
X23657100Y-174785100D01*
G75*
G02*
X23752100Y-174690100I95000J0D01*
G01*
X26062100Y-174690100D01*
G75*
G02*
X26157100Y-174785100I0J-95000D01*
G01*
X26157100Y-174975100D01*
G75*
G02*
X26062100Y-175070100I-95000J0D01*
G01*
X23752100Y-175070100D01*
G75*
G02*
X23657100Y-174975100I0J95000D01*
G01*
G37*
G36*
G01*
X23657100Y-175625100D02*
X23657100Y-175435100D01*
G75*
G02*
X23752100Y-175340100I95000J0D01*
G01*
X26062100Y-175340100D01*
G75*
G02*
X26157100Y-175435100I0J-95000D01*
G01*
X26157100Y-175625100D01*
G75*
G02*
X26062100Y-175720100I-95000J0D01*
G01*
X23752100Y-175720100D01*
G75*
G02*
X23657100Y-175625100I0J95000D01*
G01*
G37*
G36*
G01*
X23657100Y-176275100D02*
X23657100Y-176085100D01*
G75*
G02*
X23752100Y-175990100I95000J0D01*
G01*
X26062100Y-175990100D01*
G75*
G02*
X26157100Y-176085100I0J-95000D01*
G01*
X26157100Y-176275100D01*
G75*
G02*
X26062100Y-176370100I-95000J0D01*
G01*
X23752100Y-176370100D01*
G75*
G02*
X23657100Y-176275100I0J95000D01*
G01*
G37*
G36*
G01*
X36657100Y-176275100D02*
X36657100Y-176085100D01*
G75*
G02*
X36752100Y-175990100I95000J0D01*
G01*
X39062100Y-175990100D01*
G75*
G02*
X39157100Y-176085100I0J-95000D01*
G01*
X39157100Y-176275100D01*
G75*
G02*
X39062100Y-176370100I-95000J0D01*
G01*
X36752100Y-176370100D01*
G75*
G02*
X36657100Y-176275100I0J95000D01*
G01*
G37*
G36*
G01*
X36657100Y-175625100D02*
X36657100Y-175435100D01*
G75*
G02*
X36752100Y-175340100I95000J0D01*
G01*
X39062100Y-175340100D01*
G75*
G02*
X39157100Y-175435100I0J-95000D01*
G01*
X39157100Y-175625100D01*
G75*
G02*
X39062100Y-175720100I-95000J0D01*
G01*
X36752100Y-175720100D01*
G75*
G02*
X36657100Y-175625100I0J95000D01*
G01*
G37*
G36*
G01*
X36657100Y-174975100D02*
X36657100Y-174785100D01*
G75*
G02*
X36752100Y-174690100I95000J0D01*
G01*
X39062100Y-174690100D01*
G75*
G02*
X39157100Y-174785100I0J-95000D01*
G01*
X39157100Y-174975100D01*
G75*
G02*
X39062100Y-175070100I-95000J0D01*
G01*
X36752100Y-175070100D01*
G75*
G02*
X36657100Y-174975100I0J95000D01*
G01*
G37*
G36*
G01*
X36657100Y-174325100D02*
X36657100Y-174135100D01*
G75*
G02*
X36752100Y-174040100I95000J0D01*
G01*
X39062100Y-174040100D01*
G75*
G02*
X39157100Y-174135100I0J-95000D01*
G01*
X39157100Y-174325100D01*
G75*
G02*
X39062100Y-174420100I-95000J0D01*
G01*
X36752100Y-174420100D01*
G75*
G02*
X36657100Y-174325100I0J95000D01*
G01*
G37*
G36*
G01*
X36657100Y-173675100D02*
X36657100Y-173485100D01*
G75*
G02*
X36752100Y-173390100I95000J0D01*
G01*
X39062100Y-173390100D01*
G75*
G02*
X39157100Y-173485100I0J-95000D01*
G01*
X39157100Y-173675100D01*
G75*
G02*
X39062100Y-173770100I-95000J0D01*
G01*
X36752100Y-173770100D01*
G75*
G02*
X36657100Y-173675100I0J95000D01*
G01*
G37*
G36*
G01*
X36657100Y-173025100D02*
X36657100Y-172835100D01*
G75*
G02*
X36752100Y-172740100I95000J0D01*
G01*
X39062100Y-172740100D01*
G75*
G02*
X39157100Y-172835100I0J-95000D01*
G01*
X39157100Y-173025100D01*
G75*
G02*
X39062100Y-173120100I-95000J0D01*
G01*
X36752100Y-173120100D01*
G75*
G02*
X36657100Y-173025100I0J95000D01*
G01*
G37*
G36*
G01*
X36657100Y-172375100D02*
X36657100Y-172185100D01*
G75*
G02*
X36752100Y-172090100I95000J0D01*
G01*
X39062100Y-172090100D01*
G75*
G02*
X39157100Y-172185100I0J-95000D01*
G01*
X39157100Y-172375100D01*
G75*
G02*
X39062100Y-172470100I-95000J0D01*
G01*
X36752100Y-172470100D01*
G75*
G02*
X36657100Y-172375100I0J95000D01*
G01*
G37*
G36*
G01*
X36657100Y-171725100D02*
X36657100Y-171535100D01*
G75*
G02*
X36752100Y-171440100I95000J0D01*
G01*
X39062100Y-171440100D01*
G75*
G02*
X39157100Y-171535100I0J-95000D01*
G01*
X39157100Y-171725100D01*
G75*
G02*
X39062100Y-171820100I-95000J0D01*
G01*
X36752100Y-171820100D01*
G75*
G02*
X36657100Y-171725100I0J95000D01*
G01*
G37*
G36*
G01*
X36657100Y-171075100D02*
X36657100Y-170885100D01*
G75*
G02*
X36752100Y-170790100I95000J0D01*
G01*
X39062100Y-170790100D01*
G75*
G02*
X39157100Y-170885100I0J-95000D01*
G01*
X39157100Y-171075100D01*
G75*
G02*
X39062100Y-171170100I-95000J0D01*
G01*
X36752100Y-171170100D01*
G75*
G02*
X36657100Y-171075100I0J95000D01*
G01*
G37*
G36*
G01*
X36657100Y-170425100D02*
X36657100Y-170235100D01*
G75*
G02*
X36752100Y-170140100I95000J0D01*
G01*
X39062100Y-170140100D01*
G75*
G02*
X39157100Y-170235100I0J-95000D01*
G01*
X39157100Y-170425100D01*
G75*
G02*
X39062100Y-170520100I-95000J0D01*
G01*
X36752100Y-170520100D01*
G75*
G02*
X36657100Y-170425100I0J95000D01*
G01*
G37*
G36*
G01*
X36657100Y-169775100D02*
X36657100Y-169585100D01*
G75*
G02*
X36752100Y-169490100I95000J0D01*
G01*
X39062100Y-169490100D01*
G75*
G02*
X39157100Y-169585100I0J-95000D01*
G01*
X39157100Y-169775100D01*
G75*
G02*
X39062100Y-169870100I-95000J0D01*
G01*
X36752100Y-169870100D01*
G75*
G02*
X36657100Y-169775100I0J95000D01*
G01*
G37*
G36*
G01*
X36657100Y-169125100D02*
X36657100Y-168935100D01*
G75*
G02*
X36752100Y-168840100I95000J0D01*
G01*
X39062100Y-168840100D01*
G75*
G02*
X39157100Y-168935100I0J-95000D01*
G01*
X39157100Y-169125100D01*
G75*
G02*
X39062100Y-169220100I-95000J0D01*
G01*
X36752100Y-169220100D01*
G75*
G02*
X36657100Y-169125100I0J95000D01*
G01*
G37*
G36*
G01*
X36657100Y-168475100D02*
X36657100Y-168285100D01*
G75*
G02*
X36752100Y-168190100I95000J0D01*
G01*
X39062100Y-168190100D01*
G75*
G02*
X39157100Y-168285100I0J-95000D01*
G01*
X39157100Y-168475100D01*
G75*
G02*
X39062100Y-168570100I-95000J0D01*
G01*
X36752100Y-168570100D01*
G75*
G02*
X36657100Y-168475100I0J95000D01*
G01*
G37*
G36*
G01*
X36657100Y-167825100D02*
X36657100Y-167635100D01*
G75*
G02*
X36752100Y-167540100I95000J0D01*
G01*
X39062100Y-167540100D01*
G75*
G02*
X39157100Y-167635100I0J-95000D01*
G01*
X39157100Y-167825100D01*
G75*
G02*
X39062100Y-167920100I-95000J0D01*
G01*
X36752100Y-167920100D01*
G75*
G02*
X36657100Y-167825100I0J95000D01*
G01*
G37*
G36*
G01*
X36657100Y-167175100D02*
X36657100Y-166985100D01*
G75*
G02*
X36752100Y-166890100I95000J0D01*
G01*
X39062100Y-166890100D01*
G75*
G02*
X39157100Y-166985100I0J-95000D01*
G01*
X39157100Y-167175100D01*
G75*
G02*
X39062100Y-167270100I-95000J0D01*
G01*
X36752100Y-167270100D01*
G75*
G02*
X36657100Y-167175100I0J95000D01*
G01*
G37*
G36*
G01*
X36657100Y-166525100D02*
X36657100Y-166335100D01*
G75*
G02*
X36752100Y-166240100I95000J0D01*
G01*
X39062100Y-166240100D01*
G75*
G02*
X39157100Y-166335100I0J-95000D01*
G01*
X39157100Y-166525100D01*
G75*
G02*
X39062100Y-166620100I-95000J0D01*
G01*
X36752100Y-166620100D01*
G75*
G02*
X36657100Y-166525100I0J95000D01*
G01*
G37*
G36*
G01*
X36657100Y-165875100D02*
X36657100Y-165685100D01*
G75*
G02*
X36752100Y-165590100I95000J0D01*
G01*
X39062100Y-165590100D01*
G75*
G02*
X39157100Y-165685100I0J-95000D01*
G01*
X39157100Y-165875100D01*
G75*
G02*
X39062100Y-165970100I-95000J0D01*
G01*
X36752100Y-165970100D01*
G75*
G02*
X36657100Y-165875100I0J95000D01*
G01*
G37*
G36*
G01*
X36657100Y-165225100D02*
X36657100Y-165035100D01*
G75*
G02*
X36752100Y-164940100I95000J0D01*
G01*
X39062100Y-164940100D01*
G75*
G02*
X39157100Y-165035100I0J-95000D01*
G01*
X39157100Y-165225100D01*
G75*
G02*
X39062100Y-165320100I-95000J0D01*
G01*
X36752100Y-165320100D01*
G75*
G02*
X36657100Y-165225100I0J95000D01*
G01*
G37*
D10*
G36*
X32666855Y-162931061D02*
G01*
X32676234Y-162933906D01*
X32684879Y-162938527D01*
X32692455Y-162944745D01*
X32698673Y-162952321D01*
X32703294Y-162960966D01*
X32706139Y-162970345D01*
X32707100Y-162980100D01*
X32707100Y-165930100D01*
X34407100Y-165930100D01*
X34416855Y-165931061D01*
X34426234Y-165933906D01*
X34434879Y-165938527D01*
X34442455Y-165944745D01*
X34448673Y-165952321D01*
X34453294Y-165960966D01*
X34456139Y-165970345D01*
X34457100Y-165980100D01*
X34457100Y-175980100D01*
X34456139Y-175989855D01*
X34453294Y-175999234D01*
X34448673Y-176007879D01*
X34442455Y-176015455D01*
X34434879Y-176021673D01*
X34426234Y-176026294D01*
X34416855Y-176029139D01*
X34407100Y-176030100D01*
X32707100Y-176030100D01*
X32707100Y-178980100D01*
X32706139Y-178989855D01*
X32703294Y-178999234D01*
X32698673Y-179007879D01*
X32692455Y-179015455D01*
X32684879Y-179021673D01*
X32676234Y-179026294D01*
X32666855Y-179029139D01*
X32657100Y-179030100D01*
X30157100Y-179030100D01*
X30147345Y-179029139D01*
X30137966Y-179026294D01*
X30129321Y-179021673D01*
X30121745Y-179015455D01*
X30115527Y-179007879D01*
X30110906Y-178999234D01*
X30108061Y-178989855D01*
X30107100Y-178980100D01*
X30107100Y-176030100D01*
X28407100Y-176030100D01*
X28397345Y-176029139D01*
X28387966Y-176026294D01*
X28379321Y-176021673D01*
X28371745Y-176015455D01*
X28365527Y-176007879D01*
X28360906Y-175999234D01*
X28358061Y-175989855D01*
X28357100Y-175980100D01*
X28357100Y-165980100D01*
X28358061Y-165970345D01*
X28360906Y-165960966D01*
X28365527Y-165952321D01*
X28371745Y-165944745D01*
X28379321Y-165938527D01*
X28387966Y-165933906D01*
X28397345Y-165931061D01*
X28407100Y-165930100D01*
X30107100Y-165930100D01*
X30107100Y-162980100D01*
X30108061Y-162970345D01*
X30110906Y-162960966D01*
X30115527Y-162952321D01*
X30121745Y-162944745D01*
X30129321Y-162938527D01*
X30137966Y-162933906D01*
X30147345Y-162931061D01*
X30157100Y-162930100D01*
X32657100Y-162930100D01*
X32666855Y-162931061D01*
G37*
%TD*%
%TO.C,C4*%
G36*
G01*
X26342000Y-147861000D02*
X26342000Y-148811000D01*
G75*
G02*
X26092000Y-149061000I-250000J0D01*
G01*
X25592000Y-149061000D01*
G75*
G02*
X25342000Y-148811000I0J250000D01*
G01*
X25342000Y-147861000D01*
G75*
G02*
X25592000Y-147611000I250000J0D01*
G01*
X26092000Y-147611000D01*
G75*
G02*
X26342000Y-147861000I0J-250000D01*
G01*
G37*
G36*
G01*
X24442000Y-147861000D02*
X24442000Y-148811000D01*
G75*
G02*
X24192000Y-149061000I-250000J0D01*
G01*
X23692000Y-149061000D01*
G75*
G02*
X23442000Y-148811000I0J250000D01*
G01*
X23442000Y-147861000D01*
G75*
G02*
X23692000Y-147611000I250000J0D01*
G01*
X24192000Y-147611000D01*
G75*
G02*
X24442000Y-147861000I0J-250000D01*
G01*
G37*
%TD*%
D11*
%TO.C,U2*%
X25917000Y-155442000D03*
X25917000Y-150882000D03*
D12*
X17942000Y-151637000D03*
X21292000Y-154687000D03*
X17942000Y-154687000D03*
X21292000Y-151637000D03*
%TD*%
M02*
