M48
; DRILL file {KiCad 5.1.6-c6e7f7d~87~ubuntu18.04.1} date Wed Oct 20 11:37:05 2021
; FORMAT={-:-/ absolute / metric / decimal}
; #@! TF.CreationDate,2021-10-20T11:37:05+01:00
; #@! TF.GenerationSoftware,Kicad,Pcbnew,5.1.6-c6e7f7d~87~ubuntu18.04.1
FMAT,2
METRIC
T1C0.400
T2C0.800
T3C1.000
T4C3.200
%
G90
G05
T1
X10.389Y-169.291
X17.22Y-154.53
X19.333Y-173.288
X24.976Y-177.424
X27.026Y-161.988
X29.0Y-167.0
X29.0Y-168.0
X29.0Y-169.0
X29.0Y-170.0
X29.0Y-171.0
X29.0Y-172.0
X29.0Y-173.0
X29.0Y-174.0
X29.0Y-175.0
X30.0Y-167.0
X30.0Y-168.0
X30.0Y-169.0
X30.0Y-170.0
X30.0Y-171.0
X30.0Y-172.0
X30.0Y-173.0
X30.0Y-174.0
X30.0Y-175.0
X31.0Y-167.0
X31.0Y-168.0
X31.0Y-169.0
X31.0Y-170.0
X31.0Y-171.0
X31.0Y-172.0
X31.0Y-173.0
X31.0Y-174.0
X31.0Y-175.0
X32.0Y-167.0
X32.0Y-168.0
X32.0Y-169.0
X32.0Y-170.0
X32.0Y-171.0
X32.0Y-172.0
X32.0Y-173.0
X32.0Y-174.0
X32.0Y-175.0
X32.829Y-161.607
X33.0Y-167.0
X33.0Y-168.0
X33.0Y-169.0
X33.0Y-170.0
X33.0Y-171.0
X33.0Y-172.0
X33.0Y-173.0
X33.0Y-174.0
X33.0Y-175.0
X34.0Y-167.0
X34.0Y-168.0
X34.0Y-169.0
X34.0Y-170.0
X34.0Y-171.0
X34.0Y-172.0
X34.0Y-173.0
X34.0Y-174.0
X34.0Y-175.0
X37.907Y-164.132
X37.907Y-177.874
X40.261Y-178.611
X45.57Y-174.648
X46.723Y-162.128
X46.8Y-169.4
T2
X11.75Y-160.75
X15.25Y-160.75
X36.462Y-154.234
X36.462Y-157.734
T3
X28.194Y-182.194
X30.734Y-182.194
X33.274Y-182.194
X48.793Y-165.71
X48.793Y-168.25
X48.793Y-170.79
X48.793Y-173.33
X48.793Y-175.87
X15.634Y-167.246
X15.634Y-169.786
X15.634Y-172.326
X15.634Y-174.866
X15.634Y-177.406
X30.086Y-155.067
X30.086Y-157.607
T4
X5.0Y-186.0
X52.0Y-186.0
X52.0Y-151.0
X5.0Y-163.0
T0
M30
