<?xml version="1.0" standalone="no"?>
<!DOCTYPE svg PUBLIC "-//W3C//DTD SVG 1.1//EN"
"http://www.w3.org/Graphics/SVG/1.1/DTD/svg11.dtd">
<svg width="216.136" height="149.176" viewBox="0 0 4502.83 3107.83" version="1.1"
xmlns="http://www.w3.org/2000/svg"
xmlns:xlink="http://www.w3.org/1999/xlink">
<circle cx="232.417" cy="2835.42" r="31.5" style=""/>
<circle cx="232.417" cy="2635.42" r="31.5" style=""/>
<circle cx="552.417" cy="2842.42" r="31.5" style=""/>
<circle cx="752.417" cy="2842.42" r="31.5" style=""/>
<circle cx="952.417" cy="2842.42" r="31.5" style=""/>
<circle cx="1152.42" cy="2842.42" r="31.5" style=""/>
<circle cx="1352.42" cy="2842.42" r="31.5" style=""/>
<circle cx="1451.42" cy="2644.42" r="31.5" style=""/>
<circle cx="1786.42" cy="2208.42" r="31.5" style=""/>
<circle cx="2161.42" cy="2219.42" r="31.5" style=""/>
<circle cx="2145.42" cy="2533.42" r="31.5" style=""/>
<circle cx="1945.42" cy="2851.42" r="31.5" style=""/>
<circle cx="2145.42" cy="2851.42" r="31.5" style=""/>
<circle cx="2345.42" cy="2851.42" r="31.5" style=""/>
<circle cx="2669.42" cy="2851.42" r="31.5" style=""/>
<circle cx="3013.42" cy="2151.42" r="31.5" style=""/>
<circle cx="3541.42" cy="1709.42" r="31.5" style=""/>
<circle cx="3186.42" cy="1185.42" r="31.5" style=""/>
<circle cx="3526.42" cy="1035.42" r="31.5" style=""/>
<circle cx="3884.42" cy="814.417" r="31.5" style=""/>
<circle cx="3204.42" cy="542.417" r="31.5" style=""/>
<circle cx="3004.42" cy="542.417" r="31.5" style=""/>
<circle cx="3043.42" cy="860.417" r="31.5" style=""/>
<circle cx="2804.42" cy="542.417" r="31.5" style=""/>
<circle cx="2604.42" cy="542.417" r="31.5" style=""/>
<circle cx="2404.42" cy="542.417" r="31.5" style=""/>
<circle cx="2013.42" cy="315.417" r="31.5" style=""/>
<circle cx="1884.42" cy="806.417" r="31.5" style=""/>
<circle cx="1585.42" cy="1096.42" r="31.5" style=""/>
<circle cx="739.417" cy="825.417" r="31.5" style=""/>
<circle cx="885.417" cy="551.017" r="31.5" style=""/>
<circle cx="885.417" cy="275.417" r="31.5" style=""/>
<circle cx="439.417" cy="221.417" r="31.5" style=""/>
<circle cx="239.417" cy="221.417" r="31.5" style=""/>
<circle cx="162.417" cy="470.417" r="31.5" style=""/>
<circle cx="1030.42" cy="2086.42" r="31.5" style=""/>
</svg>
