<?xml version="1.0" standalone="no"?>
<!DOCTYPE svg PUBLIC "-//W3C//DTD SVG 1.1//EN"
"http://www.w3.org/Graphics/SVG/1.1/DTD/svg11.dtd">
<svg width="216.136" height="149.176" viewBox="0 0 4502.83 3107.83" version="1.1"
xmlns="http://www.w3.org/2000/svg"
xmlns:xlink="http://www.w3.org/1999/xlink">
<g fill-rule="evenodd"><path d="M 1930.74,1067.08 L 1930.88,1050.66 L 1931.31,1049.26 L 1932.93,1046.83 L 1935.36,1045.21 L 1936.76,1044.78 L 2041.37,1044.64 L 2044.23,1045.21 L 2046.66,1046.83 L 2048.28,1049.26 L 2048.71,1050.66 L 2048.71,1068.54 L 2048.28,1069.94 L 2046.66,1072.37 L 2044.23,1073.99 L 2042.83,1074.42 L 1938.22,1074.56 L 1935.36,1073.99 L 1932.93,1072.37 L 1931.31,1069.94 L 1930.74,1067.08 z " style="fill-opacity:1.000000;fill:rgb(103,198,105);stroke:rgb(0,0,0);stroke-width:2"/></g>
<g fill-rule="evenodd"><path d="M 1930.74,1118.26 L 1930.88,1101.84 L 1931.31,1100.44 L 1932.93,1098.01 L 1934.06,1097.08 L 1936.76,1095.96 L 2041.37,1095.82 L 2042.83,1095.96 L 2045.53,1097.08 L 2047.59,1099.14 L 2048.71,1101.84 L 2048.71,1119.72 L 2048.28,1121.12 L 2046.66,1123.55 L 2044.23,1125.17 L 2042.83,1125.6 L 1938.22,1125.74 L 1935.36,1125.17 L 1932.93,1123.55 L 1931.31,1121.12 L 1930.74,1118.26 z " style="fill-opacity:1.000000;fill:rgb(115,81,255);stroke:rgb(0,0,0);stroke-width:2"/></g>
<g fill-rule="evenodd"><path d="M 1930.74,1271.8 L 1930.88,1255.38 L 1931.31,1253.98 L 1932.93,1251.55 L 1935.36,1249.93 L 1936.76,1249.51 L 2041.37,1249.36 L 2044.23,1249.93 L 2046.66,1251.55 L 2048.28,1253.98 L 2048.71,1255.38 L 2048.71,1273.26 L 2048.28,1274.67 L 2046.66,1277.09 L 2044.23,1278.71 L 2042.83,1279.14 L 1938.22,1279.28 L 1935.36,1278.71 L 1932.93,1277.09 L 1931.31,1274.67 L 1930.74,1271.8 z " style="fill-opacity:1.000000;fill:rgb(74,236,41);stroke:rgb(0,0,0);stroke-width:2"/></g>
<g fill-rule="evenodd"><path d="M 1930.74,1681.25 L 1930.88,1664.83 L 1931.31,1663.43 L 1932.93,1661 L 1934.06,1660.07 L 1936.76,1658.95 L 2041.37,1658.81 L 2042.83,1658.95 L 2045.53,1660.07 L 2047.59,1662.14 L 2048.71,1664.83 L 2048.71,1682.71 L 2048.28,1684.11 L 2046.66,1686.54 L 2044.23,1688.16 L 2042.83,1688.59 L 1938.22,1688.73 L 1935.36,1688.16 L 1932.93,1686.54 L 1931.31,1684.11 L 1930.74,1681.25 z " style="fill-opacity:1.000000;fill:rgb(205,186,171);stroke:rgb(0,0,0);stroke-width:2"/></g>
<g fill-rule="evenodd"><path d="M 1930.74,1783.61 L 1930.88,1767.19 L 1931.31,1765.79 L 1932.93,1763.36 L 1935.36,1761.74 L 1936.76,1761.32 L 2041.37,1761.17 L 2044.23,1761.74 L 2046.66,1763.36 L 2048.28,1765.79 L 2048.71,1767.19 L 2048.71,1785.07 L 2048.28,1786.48 L 2046.66,1788.9 L 2044.23,1790.53 L 2042.83,1790.95 L 1938.22,1791.09 L 1935.36,1790.53 L 1932.93,1788.9 L 1931.31,1786.48 L 1930.74,1783.61 z " style="fill-opacity:1.000000;fill:rgb(242,251,227);stroke:rgb(0,0,0);stroke-width:2"/></g>
<g fill-rule="evenodd"><path d="M 1930.74,1834.8 L 1930.88,1818.38 L 1931.31,1816.97 L 1932.93,1814.55 L 1935.36,1812.92 L 1936.76,1812.5 L 2041.37,1812.35 L 2044.23,1812.92 L 2046.66,1814.55 L 2048.28,1816.97 L 2048.71,1818.38 L 2048.71,1836.25 L 2048.28,1837.66 L 2046.66,1840.08 L 2044.23,1841.71 L 2042.83,1842.13 L 1938.22,1842.28 L 1935.36,1841.71 L 1932.93,1840.08 L 1931.31,1837.66 L 1930.74,1834.8 z " style="fill-opacity:1.000000;fill:rgb(70,124,194);stroke:rgb(0,0,0);stroke-width:2"/></g>
<g fill-rule="evenodd"><path d="M 2954.36,1834.8 L 2954.51,1818.38 L 2954.93,1816.97 L 2956.55,1814.55 L 2958.98,1812.92 L 2960.38,1812.5 L 3064.99,1812.35 L 3067.85,1812.92 L 3070.28,1814.55 L 3071.9,1816.97 L 3072.33,1818.38 L 3072.33,1836.25 L 3071.9,1837.66 L 3070.28,1840.08 L 3067.85,1841.71 L 3066.45,1842.13 L 2961.84,1842.28 L 2958.98,1841.71 L 2956.55,1840.08 L 2954.93,1837.66 L 2954.36,1834.8 z " style="fill-opacity:1.000000;fill:rgb(84,248,27);stroke:rgb(0,0,0);stroke-width:2"/></g>
<g fill-rule="evenodd"><path d="M 2954.36,1783.61 L 2954.51,1767.19 L 2954.93,1765.79 L 2956.55,1763.36 L 2958.98,1761.74 L 2960.38,1761.32 L 3064.99,1761.17 L 3067.85,1761.74 L 3070.28,1763.36 L 3071.9,1765.79 L 3072.33,1767.19 L 3072.33,1785.07 L 3071.9,1786.48 L 3070.28,1788.9 L 3067.85,1790.53 L 3066.45,1790.95 L 2961.84,1791.09 L 2958.98,1790.53 L 2956.55,1788.9 L 2954.93,1786.48 L 2954.36,1783.61 z " style="fill-opacity:1.000000;fill:rgb(232,231,141);stroke:rgb(0,0,0);stroke-width:2"/></g>
<g fill-rule="evenodd"><path d="M 2954.36,1681.25 L 2954.51,1664.83 L 2954.93,1663.43 L 2956.55,1661 L 2958.98,1659.38 L 2960.38,1658.95 L 3064.99,1658.81 L 3066.45,1658.95 L 3069.15,1660.07 L 3071.21,1662.14 L 3072.33,1664.83 L 3072.33,1682.71 L 3071.9,1684.11 L 3070.28,1686.54 L 3067.85,1688.16 L 3066.45,1688.59 L 2961.84,1688.73 L 2958.98,1688.16 L 2956.55,1686.54 L 2954.93,1684.11 L 2954.36,1681.25 z " style="fill-opacity:1.000000;fill:rgb(118,90,46);stroke:rgb(0,0,0);stroke-width:2"/></g>
<g fill-rule="evenodd"><path d="M 2954.36,1271.8 L 2954.51,1255.38 L 2954.93,1253.98 L 2956.55,1251.55 L 2958.98,1249.93 L 2960.38,1249.51 L 3064.99,1249.36 L 3067.85,1249.93 L 3070.28,1251.55 L 3071.9,1253.98 L 3072.33,1255.38 L 3072.33,1273.26 L 3071.9,1274.67 L 3070.28,1277.09 L 3067.85,1278.71 L 3066.45,1279.14 L 2961.84,1279.28 L 2958.98,1278.71 L 2956.55,1277.09 L 2954.93,1274.67 L 2954.36,1271.8 z " style="fill-opacity:1.000000;fill:rgb(99,51,159);stroke:rgb(0,0,0);stroke-width:2"/></g>
<g fill-rule="evenodd"><path d="M 2954.36,1118.26 L 2954.51,1101.84 L 2954.93,1100.44 L 2956.55,1098.01 L 2958.98,1096.39 L 2960.38,1095.96 L 3064.99,1095.82 L 3066.45,1095.96 L 3069.15,1097.08 L 3071.21,1099.14 L 3072.33,1101.84 L 3072.33,1119.72 L 3071.9,1121.12 L 3070.28,1123.55 L 3067.85,1125.17 L 3066.45,1125.6 L 2961.84,1125.74 L 2958.98,1125.17 L 2956.55,1123.55 L 2954.93,1121.12 L 2954.36,1118.26 z " style="fill-opacity:1.000000;fill:rgb(201,154,102);stroke:rgb(0,0,0);stroke-width:2"/></g>
<g fill-rule="evenodd"><path d="M 2954.36,1067.08 L 2954.51,1050.66 L 2954.93,1049.26 L 2956.55,1046.83 L 2958.98,1045.21 L 2960.38,1044.78 L 3064.99,1044.64 L 3067.85,1045.21 L 3070.28,1046.83 L 3071.9,1049.26 L 3072.33,1050.66 L 3072.33,1068.54 L 3071.9,1069.94 L 3070.28,1072.37 L 3067.85,1073.99 L 3066.45,1074.42 L 2961.84,1074.56 L 2958.98,1073.99 L 2956.55,1072.37 L 2954.93,1069.94 L 2954.36,1067.08 z " style="fill-opacity:1.000000;fill:rgb(50,13,183);stroke:rgb(0,0,0);stroke-width:2"/></g>
<g fill-rule="evenodd"><path d="M 3071.07,1201.33 L 3109.35,1201.33 L 3107.68,1185.42 L 3109.4,1169.05 L 3114.48,1153.39 L 3122.72,1139.14 L 3133.73,1126.9 L 3147.05,1117.23 L 3162.09,1110.53 L 3178.19,1107.11 L 3194.65,1107.11 L 3210.75,1110.53 L 3225.79,1117.23 L 3239.1,1126.9 L 3250.12,1139.14 L 3258.35,1153.39 L 3263.44,1169.05 L 3265.16,1185.42 L 3263.44,1201.79 L 3258.35,1217.44 L 3250.12,1231.7 L 3239.1,1243.93 L 3225.79,1253.61 L 3210.75,1260.3 L 3194.65,1263.73 L 3178.19,1263.73 L 3162.09,1260.3 L 3147.05,1253.61 L 3133.73,1243.93 L 3122.72,1231.7 L 3118.82,1224.95 L 3071.07,1224.95 L 3069.15,1226.84 L 3067.85,1227.53 L 3064.99,1228.1 L 2961.84,1228.1 L 2958.98,1227.53 L 2956.55,1225.91 L 2954.93,1223.48 L 2954.51,1222.08 L 2954.51,1204.2 L 2954.93,1202.8 L 2956.55,1200.37 L 2958.98,1198.75 L 2960.38,1198.32 L 3064.99,1198.18 L 3067.85,1198.75 L 3069.15,1199.44 L 3071.07,1201.33 z " style="fill-opacity:1.000000;fill:rgb(49,88,163);stroke:rgb(0,0,0);stroke-width:2"/></g>
<g fill-rule="evenodd"><path d="M 1149.05,2419.37 L 1149.05,2260.73 L 1050.52,2162.2 L 1038.65,2164.73 L 1022.19,2164.73 L 1006.09,2161.3 L 991.047,2154.61 L 977.73,2144.93 L 966.715,2132.7 L 958.485,2118.44 L 953.398,2102.79 L 951.677,2086.42 L 953.398,2070.05 L 958.485,2054.39 L 966.715,2040.14 L 977.73,2027.9 L 991.047,2018.23 L 1006.09,2011.53 L 1022.19,2008.11 L 1038.65,2008.11 L 1054.75,2011.53 L 1069.79,2018.23 L 1083.1,2027.9 L 1094.12,2040.14 L 1102.35,2054.39 L 1107.44,2070.05 L 1109.16,2086.42 L 1107.44,2102.79 L 1106.22,2106.54 L 1216.26,2216.58 L 1221.15,2222.54 L 1224.79,2229.35 L 1227.03,2236.74 L 1227.79,2244.42 L 1227.79,2419.37 L 1231.69,2420.49 L 1235.01,2422.27 L 1237.91,2424.65 L 1240.3,2427.56 L 1242.07,2430.88 L 1243.17,2434.48 L 1243.54,2438.22 L 1243.54,2476.61 L 1243.17,2480.35 L 1242.07,2483.96 L 1240.3,2487.27 L 1237.91,2490.18 L 1235.01,2492.57 L 1231.69,2494.34 L 1228.09,2495.43 L 1224.34,2495.8 L 1196.15,2495.8 L 1192.53,2496.57 L 1184.3,2496.57 L 1180.69,2495.8 L 1152.49,2495.8 L 1148.75,2495.43 L 1145.15,2494.34 L 1141.83,2492.57 L 1138.92,2490.18 L 1136.53,2487.27 L 1134.76,2483.96 L 1133.67,2480.35 L 1133.3,2476.61 L 1133.3,2438.22 L 1133.67,2434.48 L 1134.76,2430.88 L 1136.53,2427.56 L 1138.92,2424.65 L 1141.83,2422.27 L 1145.15,2420.49 L 1149.05,2419.37 z " style="fill-opacity:1.000000;fill:rgb(90,37,93);stroke:rgb(0,0,0);stroke-width:2"/></g>
<g fill-rule="evenodd"><path d="M 1931.94,1201.62 L 1934.06,1199.44 L 1936.76,1198.32 L 1938.22,1198.18 L 2042.83,1198.32 L 2045.53,1199.44 L 2046.66,1200.37 L 2047.59,1201.51 L 2048.71,1204.2 L 2048.71,1222.08 L 2048.28,1223.48 L 2046.66,1225.91 L 2044.23,1227.53 L 2041.37,1228.1 L 1938.22,1228.1 L 1935.36,1227.53 L 1934.06,1226.84 L 1932.38,1225.24 L 1702.43,1225.24 L 1700.13,1225.02 L 1697.91,1224.35 L 1695.87,1223.25 L 1694.08,1221.78 L 1631.81,1159.51 L 1624.79,1164.61 L 1609.75,1171.3 L 1593.65,1174.73 L 1577.19,1174.73 L 1561.09,1171.3 L 1546.05,1164.61 L 1532.73,1154.93 L 1521.72,1142.7 L 1513.48,1128.44 L 1508.4,1112.79 L 1506.68,1096.42 L 1508.4,1080.05 L 1513.48,1064.39 L 1521.72,1050.14 L 1532.73,1037.9 L 1546.05,1028.23 L 1561.09,1021.53 L 1577.19,1018.11 L 1593.65,1018.11 L 1609.75,1021.53 L 1624.79,1028.23 L 1638.1,1037.9 L 1649.12,1050.14 L 1657.35,1064.39 L 1662.44,1080.05 L 1664.16,1096.42 L 1662.44,1112.79 L 1657.35,1128.44 L 1648.78,1143.08 L 1707.33,1201.62 L 1931.94,1201.62 z " style="fill-opacity:1.000000;fill:rgb(5,23,88);stroke:rgb(0,0,0);stroke-width:2"/></g>
<g fill-rule="evenodd"><path d="M 2009.79,993.457 L 2041.37,993.457 L 2042.83,993.6 L 2045.53,994.717 L 2047.59,996.781 L 2048.28,998.074 L 2048.85,1000.94 L 2048.85,1015.9 L 2048.71,1017.36 L 2047.59,1020.05 L 2045.53,1022.12 L 2044.23,1022.81 L 2041.37,1023.38 L 1938.22,1023.38 L 1935.36,1022.81 L 1934.06,1022.12 L 1932,1020.05 L 1930.88,1017.36 L 1930.74,1015.9 L 1930.88,999.478 L 1932,996.781 L 1934.06,994.717 L 1936.76,993.6 L 1938.22,993.457 L 1969.79,993.457 L 1969.79,960.098 L 1963.12,953.428 L 1931.87,953.222 L 1923.48,953.923 L 1915.91,956.097 L 1908.91,959.709 L 1904.7,962.781 L 1902.75,963.513 L 1900.7,963.826 L 1898.62,963.708 L 1896.62,963.164 L 1894.77,962.217 L 1893.15,960.908 L 1678.64,746.398 L 1675.81,743.023 L 1663.72,733.102 L 1649.94,725.733 L 1634.97,721.195 L 1619.42,719.662 L 1615.03,720.045 L 1469.13,720.045 L 1467.05,719.827 L 1465.06,719.181 L 1463.25,718.135 L 1461.69,716.737 L 1460.47,715.045 L 1459.64,713.198 L 1459.18,711.091 L 1460.17,698.936 L 1459.79,694.547 L 1459.79,279.805 L 1460.19,273.489 L 1460.61,271.491 L 1461.43,269.621 L 1462.61,267.956 L 1464.11,266.566 L 1465.86,265.508 L 1467.78,264.828 L 1469.8,264.553 L 1471.84,264.694 L 1473.81,265.247 L 1475.62,266.187 L 1477.2,267.476 L 1963.63,753.904 L 1965.6,756.231 L 1973.49,762.704 L 1982.49,767.516 L 1992.26,770.478 L 2002.42,771.479 L 2005.45,771.227 L 3231.61,771.227 L 3233.56,771.419 L 3237.16,772.913 L 3239.92,775.672 L 3241.41,779.276 L 3241.61,1064.79 L 3241.41,1066.74 L 3239.92,1070.34 L 3237.16,1073.1 L 3233.56,1074.6 L 3229.65,1074.59 L 3221.05,1071.24 L 3198.11,1066.68 L 3174.72,1066.68 L 3151.78,1071.24 L 3130.17,1080.19 L 3125.82,1082.85 L 3123.85,1083.42 L 3121.81,1083.57 L 3119.78,1083.31 L 3117.84,1082.63 L 3116.08,1081.58 L 3114.58,1080.19 L 3113.38,1078.52 L 3112.56,1076.65 L 3112.13,1074.64 L 3112.71,1066.59 L 3112.71,1052.61 L 3111.75,1042.81 L 3110.56,1038.21 L 3110.58,1036.2 L 3111.77,1031.82 L 3112.01,1029.56 L 3105.64,1023.19 L 3102.45,1022 L 3101.01,1020.98 L 3098.7,1018.41 L 3091.48,1012.48 L 3089.41,1011.13 L 3087.98,1009.68 L 3086.89,1007.96 L 3086.16,1006.06 L 3085.83,1004.06 L 3085.91,1002.02 L 3086.41,1000.05 L 3087.29,998.216 L 3088.53,996.6 L 3090.07,995.268 L 3091.85,994.275 L 3093.79,993.662 L 3105.83,993.455 L 3112.01,987.273 L 3111.77,985.008 L 3109.37,977.524 L 3105.56,970.632 L 3100.47,964.616 L 3094.3,959.709 L 3087.3,956.097 L 3079.73,953.923 L 3071.34,953.222 L 3040.09,953.428 L 3033.42,960.097 L 3033.42,993.457 L 3064.99,993.457 L 3066.45,993.6 L 3069.15,994.717 L 3071.21,996.781 L 3071.9,998.074 L 3072.47,1000.94 L 3072.33,1017.36 L 3071.21,1020.05 L 3069.15,1022.12 L 3067.85,1022.81 L 3064.99,1023.38 L 2961.84,1023.38 L 2958.98,1022.81 L 2957.69,1022.12 L 2955.62,1020.05 L 2954.93,1018.76 L 2954.36,1015.9 L 2954.51,999.478 L 2954.93,998.074 L 2956.55,995.648 L 2958.98,994.026 L 2961.84,993.457 L 2993.42,993.457 L 2993.42,960.097 L 2986.75,953.428 L 2955.49,953.222 L 2947.11,953.923 L 2939.53,956.097 L 2932.53,959.708 L 2926.37,964.616 L 2921.28,970.631 L 2917.46,977.524 L 2915.07,985.008 L 2914.82,987.273 L 2921,993.455 L 2933.05,993.662 L 2934.99,994.275 L 2936.76,995.268 L 2938.3,996.6 L 2939.54,998.216 L 2940.42,1000.05 L 2940.92,1002.02 L 2941,1004.06 L 2940.68,1006.06 L 2939.95,1007.96 L 2938.85,1009.68 L 2937.43,1011.13 L 2935.36,1012.48 L 2928.13,1018.41 L 2925.82,1020.98 L 2924.38,1022 L 2921.19,1023.19 L 2914.82,1029.56 L 2915.07,1031.82 L 2916.25,1036.2 L 2916.27,1038.21 L 2915.08,1042.82 L 2914.12,1052.61 L 2914.12,1066.59 L 2915.08,1076.38 L 2916.88,1082.29 L 2917.26,1086.17 L 2915.08,1094 L 2914.38,1101.13 L 2913.36,1104.65 L 2912.39,1106.21 L 2909.67,1108.66 L 2906.26,1109.98 L 2098.78,1110.15 L 2096.95,1109.98 L 2093.54,1108.66 L 2092.07,1107.56 L 2089.85,1104.65 L 2088.83,1101.13 L 2088.12,1094 L 2085.95,1086.17 L 2086.33,1082.29 L 2088.12,1076.38 L 2089.09,1066.58 L 2089.09,1052.61 L 2088.12,1042.81 L 2086.94,1038.2 L 2086.96,1036.2 L 2088.14,1031.82 L 2088.39,1029.56 L 2082.02,1023.19 L 2078.82,1022 L 2077.38,1020.98 L 2075.08,1018.4 L 2067.86,1012.48 L 2065.79,1011.14 L 2064.36,1009.68 L 2063.26,1007.97 L 2062.53,1006.07 L 2062.21,1004.06 L 2062.29,1002.03 L 2062.78,1000.05 L 2063.67,998.218 L 2064.91,996.601 L 2066.44,995.269 L 2068.22,994.275 L 2070.16,993.662 L 2082.21,993.455 L 2088.39,987.273 L 2088.14,985.009 L 2085.75,977.524 L 2081.93,970.631 L 2076.84,964.616 L 2070.68,959.708 L 2063.68,956.097 L 2056.1,953.923 L 2047.72,953.222 L 2016.46,953.428 L 2009.79,960.097 L 2009.79,993.457 z " style="fill-opacity:1.000000;fill:rgb(233,94,212);stroke:rgb(0,0,0);stroke-width:2"/></g>
<g fill-rule="evenodd"><path d="M 3033.42,1893.46 L 3033.42,1926.81 L 3040.09,1933.48 L 3072.15,1933.88 L 3075.73,1935.39 L 3077.24,1936.63 L 3079.39,1939.87 L 3080.14,1943.68 L 3080.14,1985.92 L 3079.89,1988.95 L 3080.89,1999.11 L 3083.85,2008.87 L 3088.66,2017.87 L 3095.14,2025.76 L 3103.03,2032.24 L 3112.03,2037.05 L 3121.8,2040.01 L 3131.95,2041.01 L 3134.99,2040.76 L 3165.94,2040.97 L 3167.89,2041.59 L 3169.68,2042.6 L 3171.22,2043.95 L 3172.45,2045.58 L 3173.33,2047.44 L 3173.81,2049.43 L 3173.87,2051.48 L 3173.52,2053.49 L 3172.76,2055.4 L 3168.03,2061.5 L 3162.54,2071.76 L 3159.16,2082.91 L 3157.97,2094.98 L 3157.97,2118.49 L 3157.23,2126.52 L 3157.23,2281.21 L 3156.84,2285.6 L 3158.79,2304 L 3158.79,2321.85 L 3160.05,2335.11 L 3160.05,2383.61 L 3159.28,2387.43 L 3158.36,2389.16 L 3155.6,2391.92 L 3152,2393.41 L 3150.05,2393.61 L 2852.02,2393.61 L 2848.19,2392.84 L 2844.95,2390.68 L 2818.16,2363.88 L 2816.09,2360.88 L 2815.45,2358.89 L 2815.23,2356.81 L 2815.23,1633.22 L 2815.42,1631.27 L 2816.91,1627.66 L 2819.67,1624.9 L 2823.28,1623.41 L 2825.23,1623.22 L 2904.43,1623.22 L 2906.26,1623.39 L 2909.67,1624.71 L 2912.39,1627.16 L 2914.03,1630.43 L 2915.08,1639.37 L 2917.26,1647.2 L 2916.88,1651.08 L 2915.08,1656.99 L 2914.12,1666.78 L 2914.12,1680.76 L 2915.08,1690.55 L 2917.26,1698.38 L 2916.88,1702.26 L 2915.08,1708.17 L 2914.12,1717.96 L 2914.12,1731.94 L 2915.08,1741.73 L 2917.26,1749.56 L 2916.88,1753.44 L 2915.08,1759.35 L 2914.12,1769.14 L 2914.12,1783.12 L 2915.08,1792.91 L 2917.26,1800.74 L 2916.88,1804.62 L 2915.08,1810.53 L 2914.12,1820.33 L 2914.12,1834.3 L 2915.08,1844.1 L 2916.27,1848.7 L 2916.25,1850.71 L 2915.07,1855.09 L 2914.82,1857.35 L 2921.19,1863.72 L 2924.38,1864.91 L 2925.82,1865.93 L 2928.13,1868.5 L 2935.35,1874.43 L 2937.42,1875.77 L 2938.84,1877.22 L 2939.94,1878.94 L 2940.67,1880.84 L 2941,1882.85 L 2940.92,1884.88 L 2940.43,1886.86 L 2939.54,1888.69 L 2938.3,1890.31 L 2936.77,1891.64 L 2934.99,1892.63 L 2933.05,1893.25 L 2921,1893.46 L 2914.82,1899.64 L 2915.07,1901.9 L 2917.46,1909.39 L 2921.28,1916.28 L 2926.37,1922.3 L 2932.53,1927.2 L 2939.53,1930.81 L 2947.11,1932.99 L 2955.49,1933.69 L 2986.75,1933.48 L 2993.42,1926.81 L 2993.42,1893.46 L 2961.84,1893.46 L 2958.98,1892.89 L 2956.55,1891.27 L 2954.93,1888.84 L 2954.51,1887.44 L 2954.36,1871.02 L 2954.93,1868.15 L 2955.62,1866.86 L 2956.55,1865.73 L 2958.98,1864.1 L 2961.84,1863.54 L 3064.99,1863.54 L 3067.85,1864.1 L 3070.28,1865.73 L 3071.21,1866.86 L 3071.9,1868.15 L 3072.47,1871.02 L 3072.47,1885.98 L 3071.9,1888.84 L 3071.21,1890.13 L 3069.15,1892.2 L 3067.85,1892.89 L 3064.99,1893.46 L 3033.42,1893.46 z " style="fill-opacity:1.000000;fill:rgb(171,178,205);stroke:rgb(0,0,0);stroke-width:2"/></g>
<g fill-rule="evenodd"><path d="M 2199.1,469.047 L 2370.42,469.047 L 2378.1,469.804 L 2380.61,470.565 L 2380.61,146.417 L 2380.83,144.113 L 2381.51,141.897 L 2382.6,139.855 L 2384.07,138.066 L 2428.07,94.0657 L 2429.86,92.5968 L 2431.9,91.5054 L 2434.11,90.8332 L 2436.42,90.6063 L 4093.42,90.6063 L 4095.72,90.8332 L 4097.94,91.5054 L 4099.98,92.5968 L 4101.77,94.0657 L 4194.77,187.066 L 4196.24,188.855 L 4197.33,190.897 L 4198,193.113 L 4198.23,195.417 L 4198.23,632.971 L 4200.33,636.243 L 4201,638.459 L 4201.23,640.763 L 4201.23,1922.42 L 4201,1924.72 L 4200.33,1926.94 L 4199.24,1928.98 L 4197.77,1930.77 L 4131.23,1997.3 L 4129.44,1998.77 L 4127.4,1999.86 L 4125.19,2000.54 L 4122.88,2000.76 L 3131.95,2000.76 L 3129.65,2000.54 L 3127.43,1999.86 L 3125.39,1998.77 L 3123.6,1997.3 L 3122.13,1995.51 L 3121.04,1993.47 L 3120.37,1991.26 L 3120.14,1988.95 L 3120.14,1736.76 L 3071.07,1736.76 L 3069.15,1738.65 L 3067.85,1739.34 L 3064.99,1739.91 L 2961.84,1739.91 L 2958.98,1739.34 L 2956.55,1737.72 L 2954.93,1735.3 L 2954.36,1732.43 L 2954.36,1717.47 L 2954.93,1714.61 L 2955.62,1713.32 L 2957.69,1711.25 L 2958.98,1710.56 L 2961.84,1709.99 L 3064.99,1709.99 L 3067.85,1710.56 L 3069.15,1711.25 L 3071.07,1713.14 L 3131.95,1713.14 L 3134.26,1713.37 L 3136.47,1714.04 L 3138.51,1715.13 L 3140.3,1716.6 L 3141.77,1718.39 L 3142.86,1720.43 L 3143.54,1722.65 L 3143.76,1724.95 L 3143.76,1977.14 L 4117.99,1977.14 L 4177.61,1917.52 L 4177.61,645.555 L 4175.51,642.283 L 4174.83,640.068 L 4174.61,637.763 L 4174.61,200.31 L 4088.52,114.228 L 2441.31,114.228 L 2404.23,151.309 L 2404.23,475.855 L 2411.41,475.855 L 2425.1,478.764 L 2437.88,484.455 L 2449.2,492.679 L 2458.56,503.077 L 2465.56,515.195 L 2469.88,528.502 L 2471.35,542.417 L 2469.88,556.333 L 2465.56,569.64 L 2458.56,581.757 L 2449.2,592.155 L 2437.88,600.38 L 2425.1,606.071 L 2411.41,608.98 L 2397.42,608.98 L 2383.74,606.071 L 2370.95,600.38 L 2359.63,592.155 L 2350.27,581.757 L 2343.27,569.64 L 2338.95,556.333 L 2338.05,547.787 L 2199.1,547.788 L 2197.98,551.687 L 2196.21,555.006 L 2193.82,557.914 L 2190.91,560.301 L 2187.59,562.074 L 2183.99,563.167 L 2180.25,563.535 L 2141.86,563.535 L 2138.12,563.167 L 2134.52,562.074 L 2131.2,560.301 L 2128.29,557.914 L 2125.9,555.006 L 2124.13,551.687 L 2123.04,548.087 L 2122.67,544.343 L 2122.67,516.157 L 2121.9,512.533 L 2121.9,504.302 L 2122.67,500.678 L 2122.67,472.492 L 2123.04,468.748 L 2124.13,465.147 L 2125.9,461.829 L 2128.29,458.921 L 2131.2,456.534 L 2134.52,454.76 L 2138.12,453.668 L 2141.86,453.299 L 2180.25,453.299 L 2183.99,453.668 L 2187.59,454.76 L 2190.91,456.534 L 2193.82,458.921 L 2196.21,461.829 L 2197.98,465.147 L 2199.1,469.047 z " style="fill-opacity:1.000000;fill:rgb(198,155,180);stroke:rgb(0,0,0);stroke-width:2"/></g>
<g fill-rule="evenodd"><path d="M 1113.05,2788.75 L 1113.05,2641.05 L 1113.8,2633.37 L 1116.04,2625.99 L 1119.68,2619.18 L 1124.58,2613.21 L 1133.3,2604.49 L 1133.3,2585.86 L 1133.67,2582.12 L 1134.76,2578.52 L 1136.53,2575.2 L 1138.92,2572.29 L 1141.83,2569.9 L 1145.15,2568.13 L 1148.75,2567.04 L 1152.49,2566.67 L 1179.98,2566.67 L 1188.42,2565.68 L 1227.23,2565.68 L 1256.42,2536.49 L 1256.42,2510.25 L 1257.18,2502.57 L 1259.28,2495.64 L 1259.28,2354.68 L 1258.8,2353.1 L 1258.05,2345.42 L 1258.05,1765.42 L 1258.8,1757.74 L 1261.04,1750.35 L 1264.68,1743.54 L 1269.58,1737.58 L 1543.58,1463.58 L 1549.54,1458.68 L 1556.35,1455.04 L 1563.74,1452.8 L 1571.42,1452.05 L 1798.42,1452.05 L 1806.6,1452.91 L 1814.43,1455.45 L 1820.29,1458.84 L 1869.62,1409.51 L 1871.41,1408.04 L 1873.45,1406.95 L 1875.66,1406.28 L 1877.97,1406.05 L 1932.15,1406.05 L 1934.06,1404.17 L 1935.36,1403.47 L 1938.22,1402.91 L 2041.37,1402.91 L 2044.23,1403.47 L 2045.53,1404.17 L 2047.59,1406.23 L 2048.71,1408.93 L 2048.85,1425.35 L 2048.28,1428.21 L 2046.66,1430.64 L 2044.23,1432.26 L 2042.83,1432.68 L 1938.22,1432.83 L 1935.36,1432.26 L 1934.06,1431.57 L 1932.14,1429.68 L 1882.86,1429.68 L 1835.07,1477.47 L 1835.86,1479.25 L 1837.57,1487.3 L 1837.57,1495.53 L 1835.86,1503.58 L 1832.51,1511.1 L 1827.67,1517.76 L 1821.56,1523.27 L 1814.43,1527.38 L 1806.6,1529.93 L 1798.42,1530.79 L 1587.72,1530.79 L 1336.79,1781.72 L 1336.79,2337.39 L 1337.27,2338.97 L 1338.02,2346.65 L 1338.02,2507.39 L 1337.27,2515.08 L 1335.16,2522 L 1335.16,2552.79 L 1334.41,2560.47 L 1332.17,2567.86 L 1328.53,2574.67 L 1323.63,2580.63 L 1271.37,2632.89 L 1265.41,2637.79 L 1258.6,2641.43 L 1251.22,2643.67 L 1243.54,2644.42 L 1204.73,2644.42 L 1191.79,2657.36 L 1191.79,2788.75 L 1197.2,2792.68 L 1206.56,2803.08 L 1213.56,2815.19 L 1217.88,2828.5 L 1219.35,2842.42 L 1217.88,2856.33 L 1213.56,2869.64 L 1206.56,2881.76 L 1197.2,2892.16 L 1185.88,2900.38 L 1173.1,2906.07 L 1159.41,2908.98 L 1145.42,2908.98 L 1131.74,2906.07 L 1118.95,2900.38 L 1107.63,2892.16 L 1098.27,2881.76 L 1091.27,2869.64 L 1086.95,2856.33 L 1085.49,2842.42 L 1086.95,2828.5 L 1091.27,2815.19 L 1098.27,2803.08 L 1107.63,2792.68 L 1113.05,2788.75 z " style="fill-opacity:1.000000;fill:rgb(84,17,14);stroke:rgb(0,0,0);stroke-width:2"/></g>
<g fill-rule="evenodd"><path d="M 513.047,2775.49 L 513.047,2652.8 L 499.492,2652.8 L 495.748,2652.43 L 492.147,2651.34 L 488.829,2649.57 L 485.921,2647.18 L 483.534,2644.27 L 481.76,2640.96 L 480.668,2637.35 L 480.299,2633.61 L 480.299,2595.22 L 480.668,2591.48 L 481.76,2587.88 L 483.534,2584.56 L 485.921,2581.65 L 488.829,2579.27 L 492.147,2577.49 L 495.748,2576.4 L 499.492,2576.03 L 526.986,2576.03 L 535.417,2575.05 L 572.898,2575.05 L 689.299,2458.65 L 689.299,2452.59 L 689.668,2448.84 L 690.76,2445.24 L 692.534,2441.92 L 694.921,2439.02 L 697.829,2436.63 L 701.147,2434.85 L 704.748,2433.76 L 708.492,2433.39 L 723.411,2433.39 L 731.843,2432.41 L 939.417,2432.41 L 947.098,2433.17 L 951.146,2434.39 L 976.343,2434.39 L 980.087,2434.76 L 983.687,2435.85 L 987.006,2437.63 L 989.914,2440.02 L 992.301,2442.92 L 994.074,2446.24 L 995.167,2449.84 L 995.535,2453.59 L 995.535,2491.97 L 995.167,2495.72 L 994.074,2499.32 L 992.301,2502.64 L 989.914,2505.54 L 987.006,2507.93 L 983.687,2509.7 L 980.087,2510.8 L 976.343,2511.17 L 948.349,2511.17 L 942.478,2512.1 L 934.258,2511.66 L 932.396,2511.17 L 748.151,2511.15 L 617.044,2642.26 L 611.078,2647.15 L 604.272,2650.79 L 596.886,2653.03 L 591.787,2653.53 L 591.787,2775.49 L 619.346,2775.49 L 619.346,2909.35 L 485.488,2909.35 L 485.488,2874.79 L 299.346,2874.79 L 299.346,2902.35 L 165.488,2902.35 L 165.488,2768.49 L 299.346,2768.49 L 299.346,2796.05 L 485.488,2796.05 L 485.488,2775.49 L 513.047,2775.49 z " style="fill-opacity:1.000000;fill:rgb(130,116,65);stroke:rgb(0,0,0);stroke-width:2"/></g>
<g fill-rule="evenodd"><path d="M 295.907,2655.42 L 293.56,2662.64 L 286.564,2674.76 L 277.202,2685.16 L 265.882,2693.38 L 253.1,2699.07 L 239.413,2701.98 L 225.421,2701.98 L 211.735,2699.07 L 198.953,2693.38 L 187.633,2685.16 L 178.271,2674.76 L 171.275,2662.64 L 168.928,2655.42 L 134.496,2655.42 L 129.676,2664.55 L 131.781,2671.49 L 140.892,2690.61 L 153.418,2707.41 L 160.601,2714.13 L 162.273,2717.56 L 162.588,2719.46 L 162.535,2721.37 L 161.35,2725.01 L 158.89,2727.93 L 155.514,2729.71 L 150.107,2731.35 L 143.157,2735.07 L 137.066,2740.07 L 132.068,2746.16 L 128.353,2753.11 L 126.066,2760.65 L 125.245,2768.98 L 125.245,2901.85 L 126.066,2910.19 L 128.353,2917.73 L 132.068,2924.68 L 137.067,2930.77 L 143.156,2935.76 L 150.106,2939.48 L 157.645,2941.77 L 165.979,2942.59 L 298.854,2942.59 L 307.188,2941.77 L 314.726,2939.48 L 321.677,2935.76 L 327.766,2930.77 L 332.765,2924.68 L 335.227,2920.07 L 337.453,2917.27 L 338.905,2916.21 L 342.255,2914.95 L 437.921,2914.79 L 439.734,2914.95 L 443.122,2916.25 L 445.826,2918.66 L 446.806,2920.2 L 448.353,2924.73 L 452.068,2931.68 L 457.067,2937.77 L 463.157,2942.76 L 470.107,2946.48 L 477.646,2948.77 L 485.981,2949.59 L 618.852,2949.59 L 627.187,2948.77 L 634.726,2946.48 L 641.676,2942.76 L 647.766,2937.77 L 652.766,2931.67 L 655.367,2927.25 L 656.823,2925.83 L 658.537,2924.73 L 660.437,2924 L 662.446,2923.67 L 664.479,2923.76 L 666.453,2924.25 L 668.286,2925.14 L 669.902,2926.37 L 671.234,2927.91 L 672.227,2929.69 L 672.84,2931.63 L 673.047,2933.66 L 673.047,3008.03 L 672.662,3012.42 L 674.194,3027.97 L 678.703,3043.58 L 678.669,3045.64 L 678.211,3047.66 L 677.346,3049.54 L 676.114,3051.2 L 674.566,3052.58 L 672.769,3053.6 L 670.799,3054.23 L 668.741,3054.45 L 73.2173,3054.45 L 69.398,3053.69 L 67.6717,3052.77 L 64.9139,3050.02 L 63.4151,3046.43 L 56.4774,967.458 L 56.6855,965.396 L 57.3142,963.421 L 58.3366,961.618 L 59.7087,960.064 L 61.3716,958.827 L 63.2538,957.959 L 65.2745,957.498 L 67.3468,957.463 L 72.6226,958.84 L 82.7779,959.841 L 85.8133,959.589 L 242.833,959.745 L 244.536,960.207 L 247.57,961.985 L 253.499,968.964 L 260.859,975.253 L 262.699,978.694 L 263.081,982.578 L 261.949,986.311 L 259.473,989.327 L 253.499,994.231 L 246.112,1003.23 L 240.625,1013.5 L 237.247,1024.64 L 236.057,1036.72 L 236.057,1074.12 L 237.247,1086.2 L 240.625,1097.34 L 246.111,1107.6 L 248.108,1110.26 L 249.262,1113.48 L 249.409,1115.2 L 249.409,1218.31 L 250.151,1226.34 L 250.151,1249.85 L 251.341,1261.93 L 254.719,1273.07 L 260.208,1283.33 L 267.793,1292.88 L 268.925,1296.61 L 268.543,1300.5 L 266.704,1303.94 L 260.231,1309.5 L 252.847,1318.5 L 247.357,1328.76 L 243.979,1339.9 L 242.789,1351.98 L 242.789,1375.49 L 242.045,1383.52 L 242.045,1438.15 L 241.662,1442.54 L 243.195,1458.09 L 247.733,1473.06 L 255.104,1486.84 L 265.023,1498.93 L 268.398,1501.76 L 460.07,1693.43 L 462.903,1696.81 L 474.99,1706.73 L 488.777,1714.1 L 503.74,1718.64 L 519.297,1720.17 L 523.687,1719.79 L 696.457,1719.79 L 698.496,1720 L 700.448,1720.62 L 702.233,1721.62 L 703.776,1722.97 L 705.011,1724.61 L 705.888,1726.46 L 706.368,1728.45 L 706.432,1730.5 L 706.077,1732.52 L 705.319,1734.42 L 700.104,1741.11 L 692.733,1754.9 L 688.195,1769.86 L 686.662,1785.42 L 687.047,1789.81 L 687.045,2290.03 L 686.662,2294.42 L 688.195,2309.98 L 692.733,2324.94 L 700.102,2338.72 L 710.023,2350.81 L 713.398,2353.64 L 736.333,2376.88 L 737.275,2378.7 L 737.826,2380.67 L 737.963,2382.71 L 737.68,2384.74 L 736.99,2386.67 L 735.921,2388.42 L 734.518,2389.91 L 732.841,2391.09 L 730.958,2391.9 L 720.896,2393.1 L 708.981,2393.15 L 696.906,2394.34 L 685.765,2397.72 L 675.498,2403.21 L 666.498,2410.59 L 659.112,2419.59 L 653.625,2429.86 L 650.917,2438.79 L 649.476,2441.71 L 646.196,2444.9 L 642.564,2446.4 L 640.6,2446.58 L 636.754,2445.79 L 633.508,2443.58 L 632.273,2442.04 L 630.817,2438.39 L 630.77,2428.81 L 629.956,2420.55 L 627.668,2413.01 L 623.955,2406.06 L 618.956,2399.97 L 612.865,2394.97 L 605.916,2391.26 L 598.375,2388.97 L 590.082,2388.16 L 562.09,2388.36 L 555.417,2395.04 L 555.417,2428.39 L 571.343,2428.39 L 575.087,2428.76 L 578.687,2429.85 L 582.006,2431.63 L 584.914,2434.02 L 587.301,2436.92 L 589.074,2440.24 L 590.167,2443.84 L 590.535,2447.59 L 590.535,2485.97 L 590.167,2489.72 L 589.074,2493.32 L 587.301,2496.64 L 584.914,2499.54 L 582.006,2501.93 L 578.687,2503.7 L 575.087,2504.8 L 571.343,2505.17 L 499.492,2505.17 L 495.748,2504.8 L 492.147,2503.7 L 488.829,2501.93 L 485.921,2499.54 L 483.534,2496.64 L 481.76,2493.32 L 480.668,2489.72 L 480.379,2486.78 L 446.94,2486.78 L 440.235,2493.48 L 440.065,2504.75 L 440.877,2513 L 443.165,2520.55 L 446.879,2527.5 L 451.877,2533.59 L 458.624,2539.37 L 460.463,2542.81 L 460.845,2544.74 L 460.462,2548.62 L 459.711,2550.43 L 450.112,2562.23 L 444.625,2572.5 L 441.247,2583.64 L 440.057,2595.72 L 440.057,2633.12 L 441.247,2645.2 L 444.625,2656.34 L 450.112,2666.6 L 457.498,2675.6 L 466.498,2682.99 L 469.265,2684.65 L 470.566,2685.89 L 472.407,2688.96 L 473.047,2692.48 L 473.047,2730.79 L 472.406,2734.31 L 471.625,2735.93 L 469.264,2738.62 L 463.156,2742.07 L 457.067,2747.07 L 452.697,2752.39 L 450.023,2754.67 L 448.428,2755.43 L 444.967,2756.05 L 344.045,2756.05 L 340.523,2755.4 L 338.905,2754.62 L 336.213,2752.26 L 332.765,2746.16 L 327.766,2740.07 L 321.676,2735.07 L 314.726,2731.35 L 309.319,2729.71 L 305.943,2727.93 L 303.483,2725.01 L 302.297,2721.37 L 302.56,2717.56 L 304.231,2714.13 L 311.415,2707.41 L 323.941,2690.61 L 333.052,2671.49 L 335.156,2664.55 L 330.336,2655.42 L 295.907,2655.42M 480.379,2446.78 L 480.668,2443.84 L 481.76,2440.24 L 483.534,2436.92 L 485.921,2434.02 L 488.829,2431.63 L 492.147,2429.85 L 495.748,2428.76 L 499.492,2428.39 L 515.417,2428.39 L 515.417,2395.04 L 508.745,2388.36 L 480.75,2388.16 L 472.457,2388.97 L 464.917,2391.26 L 457.967,2394.97 L 451.877,2399.97 L 446.879,2406.06 L 443.165,2413.01 L 440.877,2420.55 L 440.065,2428.81 L 440.235,2440.07 L 446.94,2446.78 L 480.379,2446.78M 168.928,2615.42 L 171.275,2608.19 L 178.271,2596.08 L 187.633,2585.68 L 198.953,2577.45 L 212.418,2571.62 L 212.417,2537.46 L 203.538,2532.8 L 186.983,2538.67 L 168.981,2549.39 L 153.418,2563.42 L 140.892,2580.22 L 131.781,2599.35 L 129.676,2606.28 L 134.497,2615.42 L 168.928,2615.42M 295.907,2615.42 L 330.336,2615.42 L 335.157,2606.28 L 333.052,2599.35 L 323.941,2580.22 L 311.414,2563.42 L 295.852,2549.39 L 277.85,2538.67 L 261.294,2532.8 L 252.417,2537.46 L 252.417,2571.62 L 265.882,2577.45 L 277.202,2585.68 L 286.564,2596.08 L 293.56,2608.19 L 295.907,2615.42 z " style="fill-opacity:1.000000;fill:rgb(33,61,220);stroke:rgb(0,0,0);stroke-width:2"/></g>
<g fill-rule="evenodd"><path d="M 913.047,2788.75 L 913.047,2658.8 L 904.492,2658.8 L 900.748,2658.43 L 897.147,2657.34 L 893.829,2655.57 L 890.921,2653.18 L 888.534,2650.27 L 886.76,2646.96 L 885.668,2643.35 L 885.299,2639.61 L 885.299,2601.22 L 885.668,2597.48 L 886.76,2593.88 L 888.534,2590.56 L 890.921,2587.65 L 893.829,2585.27 L 897.147,2583.49 L 900.748,2582.4 L 904.492,2582.03 L 931.985,2582.03 L 940.417,2581.05 L 979.227,2581.05 L 1011.28,2548.99 L 1011.28,2370.55 L 803.179,2370.55 L 795.499,2369.79 L 788.113,2367.55 L 781.306,2363.91 L 775.34,2359.02 L 738.578,2322.26 L 733.682,2316.29 L 730.044,2309.48 L 727.804,2302.1 L 727.047,2294.42 L 727.047,1785.42 L 727.804,1777.74 L 730.044,1770.35 L 733.682,1763.54 L 738.578,1757.58 L 765.578,1730.58 L 771.544,1725.68 L 778.351,1722.04 L 785.737,1719.8 L 793.417,1719.05 L 1152.48,1719.05 L 1163.76,1707.76 L 1169.73,1702.87 L 1171.73,1701.8 L 1534.68,1338.84 L 1540.65,1333.95 L 1547.45,1330.31 L 1554.84,1328.07 L 1562.52,1327.31 L 1714.56,1327.31 L 1722.74,1328.17 L 1730.57,1330.72 L 1737.7,1334.83 L 1743.82,1340.34 L 1748.65,1347 L 1752.08,1354.87 L 1932.15,1354.87 L 1934.06,1352.99 L 1935.36,1352.29 L 1938.22,1351.72 L 2041.37,1351.72 L 2042.83,1351.87 L 2045.53,1352.99 L 2047.59,1355.05 L 2048.71,1357.75 L 2048.85,1374.17 L 2048.28,1377.03 L 2046.66,1379.45 L 2044.23,1381.08 L 2042.83,1381.5 L 1938.22,1381.65 L 1935.36,1381.08 L 1934.06,1380.39 L 1932.14,1378.49 L 1752.08,1378.49 L 1748.65,1386.37 L 1743.82,1393.03 L 1737.7,1398.53 L 1730.57,1402.65 L 1722.74,1405.19 L 1714.56,1406.05 L 1578.83,1406.05 L 1221.44,1763.44 L 1215.48,1768.34 L 1213.48,1769.41 L 1196.63,1786.26 L 1190.66,1791.15 L 1183.86,1794.79 L 1176.47,1797.03 L 1168.79,1797.79 L 809.725,1797.79 L 805.787,1801.72 L 805.787,2278.11 L 819.487,2291.81 L 1050.65,2291.81 L 1058.33,2292.57 L 1065.72,2294.81 L 1072.53,2298.44 L 1078.49,2303.34 L 1083.39,2309.31 L 1087.03,2316.11 L 1089.27,2323.5 L 1090.02,2331.18 L 1090.02,2565.3 L 1089.27,2572.98 L 1087.03,2580.36 L 1083.39,2587.17 L 1078.49,2593.14 L 1023.37,2648.26 L 1017.41,2653.15 L 1010.6,2656.79 L 1003.22,2659.03 L 995.535,2659.79 L 991.787,2659.79 L 991.787,2788.75 L 997.202,2792.68 L 1006.56,2803.08 L 1013.56,2815.19 L 1017.88,2828.5 L 1019.35,2842.42 L 1017.88,2856.33 L 1013.56,2869.64 L 1006.56,2881.76 L 997.202,2892.16 L 985.882,2900.38 L 973.1,2906.07 L 959.413,2908.98 L 945.421,2908.98 L 931.735,2906.07 L 918.953,2900.38 L 907.633,2892.16 L 898.271,2881.76 L 891.275,2869.64 L 886.951,2856.33 L 885.488,2842.42 L 886.951,2828.5 L 891.275,2815.19 L 898.271,2803.08 L 907.633,2792.68 L 913.047,2788.75 z " style="fill-opacity:1.000000;fill:rgb(135,112,233);stroke:rgb(0,0,0);stroke-width:2"/></g>
<g fill-rule="evenodd"><path d="M 791.788,2896.09 L 791.787,2996.11 L 795.637,2999.96 L 1524.2,2999.96 L 1545.91,2978.25 L 1545.91,2169.79 L 1433.42,2169.79 L 1425.74,2169.03 L 1418.35,2166.79 L 1411.54,2163.15 L 1405.58,2158.26 L 1400.68,2152.29 L 1397.04,2145.48 L 1394.8,2138.1 L 1394.05,2130.42 L 1394.05,1783.42 L 1394.8,1775.74 L 1397.04,1768.35 L 1400.68,1761.54 L 1405.58,1755.58 L 1588.58,1572.58 L 1594.54,1567.68 L 1601.35,1564.04 L 1608.74,1561.8 L 1616.42,1561.05 L 1756.35,1561.05 L 1763.74,1558.8 L 1771.42,1558.05 L 1798.11,1558.05 L 1804.48,1552.89 L 1811.82,1549.15 L 1819.77,1547.02 L 1827.98,1546.59 L 1835.33,1547.75 L 1855.33,1527.75 L 1856.56,1524.46 L 1857.61,1523.02 L 1857.61,1493.68 L 1857.83,1491.37 L 1858.51,1489.16 L 1859.6,1487.11 L 1861.07,1485.32 L 1885.69,1460.69 L 1887.48,1459.23 L 1889.53,1458.13 L 1891.74,1457.46 L 1894.05,1457.23 L 1932.15,1457.23 L 1934.06,1455.35 L 1935.36,1454.66 L 1938.22,1454.09 L 2041.37,1454.09 L 2044.23,1454.66 L 2046.66,1456.28 L 2048.28,1458.7 L 2048.85,1461.57 L 2048.71,1477.99 L 2048.28,1479.39 L 2046.66,1481.82 L 2044.23,1483.44 L 2042.83,1483.86 L 1938.22,1484.01 L 1935.36,1483.44 L 1934.06,1482.75 L 1932.14,1480.86 L 1898.94,1480.86 L 1881.23,1498.57 L 1881.23,1530.37 L 1880.97,1532.82 L 1880.21,1535.17 L 1877.77,1538.72 L 1855.94,1560.55 L 1861,1568.03 L 1863.96,1575.71 L 1865.24,1583.84 L 1864.81,1592.06 L 1862.68,1600.01 L 1858.95,1607.34 L 1853.77,1613.74 L 1842.26,1625.25 L 1836.29,1630.15 L 1829.49,1633.79 L 1822.1,1636.03 L 1814.42,1636.79 L 1783.49,1636.79 L 1776.1,1639.03 L 1768.42,1639.79 L 1632.72,1639.79 L 1472.79,1799.72 L 1472.79,2091.05 L 1585.42,2091.05 L 1593.12,2091.81 L 1600.53,2094.06 L 1607.35,2097.72 L 1613.32,2102.64 L 1618.22,2108.64 L 1621.84,2115.48 L 1624.06,2122.9 L 1624.79,2130.6 L 1624.65,2994.56 L 1623.89,3002.24 L 1621.65,3009.62 L 1618.01,3016.43 L 1613.11,3022.4 L 1568.34,3067.17 L 1562.38,3072.06 L 1555.57,3075.7 L 1548.18,3077.94 L 1540.5,3078.7 L 779.329,3078.7 L 771.649,3077.94 L 764.263,3075.7 L 757.456,3072.06 L 751.49,3067.17 L 724.578,3040.26 L 719.682,3034.29 L 716.044,3027.48 L 713.804,3020.1 L 713.047,3012.42 L 713.047,2896.09 L 707.633,2892.16 L 698.271,2881.76 L 691.275,2869.64 L 686.951,2856.33 L 685.488,2842.42 L 686.951,2828.5 L 691.275,2815.19 L 698.271,2803.08 L 707.633,2792.68 L 713.047,2788.75 L 713.047,2657.8 L 708.492,2657.8 L 704.748,2657.43 L 701.147,2656.34 L 697.829,2654.57 L 694.921,2652.18 L 692.534,2649.27 L 690.76,2645.96 L 689.668,2642.35 L 689.299,2638.61 L 689.299,2600.22 L 689.668,2596.48 L 690.76,2592.88 L 692.534,2589.56 L 694.921,2586.65 L 697.829,2584.27 L 701.147,2582.49 L 704.748,2581.4 L 708.492,2581.03 L 736.482,2581.03 L 742.357,2580.1 L 750.576,2580.53 L 752.44,2581.03 L 780.343,2581.03 L 784.087,2581.4 L 787.687,2582.49 L 791.006,2584.27 L 793.914,2586.65 L 796.301,2589.56 L 798.074,2592.88 L 799.167,2596.48 L 799.535,2600.22 L 799.535,2638.61 L 799.167,2642.35 L 798.074,2645.96 L 796.301,2649.27 L 793.914,2652.18 L 791.787,2653.93 L 791.788,2788.75 L 797.202,2792.68 L 806.564,2803.08 L 813.56,2815.19 L 817.884,2828.5 L 819.346,2842.42 L 817.884,2856.33 L 813.56,2869.64 L 806.564,2881.76 L 797.202,2892.16 L 791.788,2896.09 z " style="fill-opacity:1.000000;fill:rgb(62,161,65);stroke:rgb(0,0,0);stroke-width:2"/></g>
<g fill-rule="evenodd"><path d="M 1984.79,2784.49 L 2012.35,2784.49 L 2012.35,2918.35 L 1878.49,2918.35 L 1878.49,2801.19 L 1873.51,2795.85 L 1872.39,2793.65 L 1871.75,2791.26 L 1871.62,2788.8 L 1872.01,2786.36 L 1872.89,2784.06 L 1874.24,2781.98 L 1875.98,2780.24 L 1878.06,2778.89 L 1880.36,2778.01 L 1882.8,2777.62 L 1885.26,2777.75 L 1887.65,2778.39 L 1889.85,2779.51 L 1895.19,2784.49 L 1906.05,2784.49 L 1906.05,2006.49 L 1868.82,1969.26 L 1863.64,1962.86 L 1859.9,1955.53 L 1857.77,1947.58 L 1857.34,1939.36 L 1858.62,1931.23 L 1861.57,1923.54 L 1866.06,1916.64 L 1871.61,1911.09 L 1871.61,1726.42 L 1871.83,1724.11 L 1872.51,1721.9 L 1873.6,1719.86 L 1875.07,1718.07 L 1876.86,1716.6 L 1878.9,1715.51 L 1881.11,1714.83 L 1883.42,1714.61 L 1926.79,1714.61 L 1930.06,1713.37 L 1932.13,1713.16 L 1934.06,1711.25 L 1935.36,1710.56 L 1938.22,1709.99 L 2041.37,1709.99 L 2044.23,1710.56 L 2046.66,1712.18 L 2048.28,1714.61 L 2048.85,1717.47 L 2048.71,1733.89 L 2048.28,1735.3 L 2046.66,1737.72 L 2044.23,1739.34 L 2042.83,1739.77 L 1938.22,1739.91 L 1935.36,1739.34 L 1933.25,1737.99 L 1930.9,1738.23 L 1895.23,1738.23 L 1895.23,1902.13 L 1902.81,1902.53 L 1910.76,1904.66 L 1918.1,1908.4 L 1924.49,1913.58 L 1973.26,1962.34 L 1978.15,1968.31 L 1981.79,1975.11 L 1984.03,1982.5 L 1984.79,1990.18 L 1984.79,2784.49 z " style="fill-opacity:1.000000;fill:rgb(225,252,103);stroke:rgb(0,0,0);stroke-width:2"/></g>
<g fill-rule="evenodd"><path d="M 1415.91,2862.42 L 1413.56,2869.64 L 1406.56,2881.76 L 1397.2,2892.16 L 1385.88,2900.38 L 1373.1,2906.07 L 1359.41,2908.98 L 1345.42,2908.98 L 1331.74,2906.07 L 1318.95,2900.38 L 1307.63,2892.16 L 1298.27,2881.76 L 1291.27,2869.64 L 1286.95,2856.33 L 1285.49,2842.42 L 1286.95,2828.5 L 1291.27,2815.19 L 1298.27,2803.08 L 1307.63,2792.68 L 1313.05,2788.75 L 1313.05,2743.35 L 1297.22,2750.89 L 1280.42,2763.42 L 1266.39,2778.98 L 1260.22,2788.95 L 1258.72,2790.3 L 1256.99,2791.32 L 1255.08,2791.96 L 1253.08,2792.22 L 1251.08,2792.07 L 1249.14,2791.52 L 1247.36,2790.59 L 1245.79,2789.33 L 1235.47,2774.25 L 1233.47,2771.97 L 1232.55,2770.25 L 1231.79,2766.42 L 1231.79,2694.69 L 1232,2692.61 L 1232.65,2690.63 L 1233.68,2688.83 L 1235.07,2687.28 L 1236.75,2686.05 L 1238.65,2685.19 L 1240.68,2684.75 L 1243.53,2684.81 L 1259.09,2683.28 L 1274.06,2678.74 L 1287.84,2671.37 L 1299.93,2661.45 L 1302.76,2658.07 L 1348.81,2612.02 L 1352.19,2609.19 L 1362.11,2597.1 L 1369.48,2583.31 L 1374.02,2568.35 L 1375.55,2552.79 L 1375.17,2548.41 L 1375.17,2530.07 L 1375.59,2527.17 L 1376.87,2522.95 L 1378.41,2507.39 L 1378.02,2503 L 1378.02,2351.04 L 1378.41,2346.65 L 1376.79,2329.7 L 1376.79,2206.83 L 1377,2204.78 L 1377.63,2202.82 L 1378.64,2201.03 L 1380,2199.48 L 1381.65,2198.25 L 1383.51,2197.38 L 1385.51,2196.91 L 1387.57,2196.86 L 1389.6,2197.23 L 1402.9,2204.1 L 1417.86,2208.64 L 1433.42,2210.17 L 1437.81,2209.79 L 1497.86,2209.98 L 1501.46,2211.47 L 1502.98,2212.72 L 1504.22,2214.23 L 1505.71,2217.84 L 1505.91,2587.9 L 1515.12,2598.14 L 1523.35,2612.39 L 1528.44,2628.05 L 1530.16,2644.42 L 1528.44,2660.79 L 1523.35,2676.44 L 1515.12,2690.7 L 1505.91,2700.93 L 1505.91,2949.96 L 1505.14,2953.79 L 1502.98,2957.03 L 1499.73,2959.2 L 1495.91,2959.96 L 1397.24,2959.96 L 1395.18,2959.74 L 1393.21,2959.11 L 1391.41,2958.08 L 1389.86,2956.71 L 1388.63,2955.04 L 1387.77,2953.16 L 1387.31,2951.14 L 1387.28,2949.07 L 1387.68,2947.04 L 1388.48,2945.13 L 1389.66,2943.43 L 1391.17,2942.01 L 1392.94,2940.93 L 1407.61,2933.94 L 1424.41,2921.41 L 1438.44,2905.85 L 1449.16,2887.85 L 1455.03,2871.29 L 1450.37,2862.42 L 1415.91,2862.42M 1391.79,2788.75 L 1397.2,2792.68 L 1406.56,2803.08 L 1413.56,2815.19 L 1415.91,2822.42 L 1450.37,2822.42 L 1455.03,2813.54 L 1449.16,2796.98 L 1438.44,2778.98 L 1424.41,2763.42 L 1407.61,2750.89 L 1402.88,2748.64 L 1391.79,2759.72 L 1391.79,2788.75 z " style="fill-opacity:1.000000;fill:rgb(62,1,126);stroke:rgb(0,0,0);stroke-width:2"/></g>
<g fill-rule="evenodd"><path d="M 2106.05,2797.75 L 2106.05,2601.61 L 2092.73,2591.93 L 2081.72,2579.7 L 2073.48,2565.44 L 2068.4,2549.79 L 2066.68,2533.42 L 2068.4,2517.05 L 2073.48,2501.39 L 2081.72,2487.14 L 2092.73,2474.9 L 2106.05,2465.23 L 2121.09,2458.53 L 2137.19,2455.11 L 2153.65,2455.11 L 2169.75,2458.53 L 2184.79,2465.23 L 2198.1,2474.9 L 2209.12,2487.14 L 2217.35,2501.39 L 2222.44,2517.05 L 2224.16,2533.42 L 2222.44,2549.79 L 2217.35,2565.44 L 2209.12,2579.7 L 2198.1,2591.93 L 2184.79,2601.61 L 2184.79,2797.75 L 2190.2,2801.68 L 2199.56,2812.08 L 2206.56,2824.19 L 2210.88,2837.5 L 2212.35,2851.42 L 2210.88,2865.33 L 2206.56,2878.64 L 2199.56,2890.76 L 2190.2,2901.16 L 2178.88,2909.38 L 2166.1,2915.07 L 2152.41,2917.98 L 2138.42,2917.98 L 2124.74,2915.07 L 2111.95,2909.38 L 2100.63,2901.16 L 2091.27,2890.76 L 2084.27,2878.64 L 2079.95,2865.33 L 2078.49,2851.42 L 2079.95,2837.5 L 2084.27,2824.19 L 2091.27,2812.08 L 2100.63,2801.68 L 2106.05,2797.75 z " style="fill-opacity:1.000000;fill:rgb(151,234,220);stroke:rgb(0,0,0);stroke-width:2"/></g>
<g fill-rule="evenodd"><path d="M 1665.68,1944.87 L 1786.42,1944.87 L 1794.85,1945.85 L 1822.34,1945.85 L 1826.09,1946.22 L 1829.69,1947.31 L 1833.01,1949.08 L 1835.91,1951.47 L 1838.3,1954.38 L 1840.07,1957.7 L 1841.17,1961.3 L 1841.54,1965.04 L 1841.54,2003.43 L 1841.17,2007.17 L 1840.07,2010.77 L 1838.3,2014.09 L 1835.91,2017 L 1833.01,2019.39 L 1829.69,2021.16 L 1825.79,2022.28 L 1825.79,2062.75 L 1841.08,2062.86 L 1849.38,2062.04 L 1855.18,2060.51 L 1857.25,2060.54 L 1859.26,2061 L 1861.14,2061.86 L 1862.8,2063.1 L 1864.18,2064.65 L 1865.2,2066.44 L 1865.83,2068.41 L 1866.05,2070.47 L 1866.05,2733.96 L 1865.4,2737.48 L 1863.56,2740.55 L 1860.76,2742.78 L 1854.49,2746.13 L 1846.6,2752.6 L 1840.13,2760.49 L 1835.32,2769.49 L 1832.35,2779.26 L 1831.36,2789.42 L 1832.35,2799.57 L 1835.32,2809.34 L 1837.71,2814.11 L 1838.25,2817.32 L 1838.25,2917.85 L 1839.07,2926.19 L 1841.35,2933.73 L 1845.07,2940.68 L 1850.07,2946.77 L 1856.16,2951.76 L 1863.11,2955.48 L 1870.65,2957.77 L 1878.98,2958.59 L 2011.85,2958.59 L 2020.19,2957.77 L 2027.73,2955.48 L 2034.67,2951.76 L 2040.77,2946.77 L 2045.76,2940.68 L 2049.48,2933.73 L 2050.93,2928.96 L 2051.72,2927.06 L 2052.89,2925.37 L 2054.38,2923.95 L 2056.13,2922.86 L 2058.06,2922.16 L 2060.1,2921.87 L 2062.16,2922 L 2064.14,2922.55 L 2065.97,2923.49 L 2077.25,2934.47 L 2094.77,2946.18 L 2114.23,2954.24 L 2134.88,2958.35 L 2155.95,2958.35 L 2176.61,2954.24 L 2196.07,2946.18 L 2213.58,2934.47 L 2228.47,2919.58 L 2238.35,2905.15 L 2241.59,2902.98 L 2245.42,2902.22 L 2249.24,2902.98 L 2252.49,2905.15 L 2262.36,2919.58 L 2277.25,2934.47 L 2294.77,2946.18 L 2314.23,2954.24 L 2334.88,2958.35 L 2355.95,2958.35 L 2376.61,2954.24 L 2396.07,2946.18 L 2413.58,2934.47 L 2415.86,2932.47 L 2419.46,2930.98 L 2576.72,2930.79 L 2578.67,2930.98 L 2582.28,2932.47 L 2593.72,2943.65 L 2613.17,2956.64 L 2634.78,2965.59 L 2657.72,2970.16 L 2681.11,2970.16 L 2704.05,2965.59 L 2725.66,2956.64 L 2745.11,2943.65 L 2761.65,2927.11 L 2774.64,2907.66 L 2783.59,2886.05 L 2788.16,2863.11 L 2788.16,2839.72 L 2783.59,2816.78 L 2774.64,2795.17 L 2761.65,2775.72 L 2745.11,2759.19 L 2725.66,2746.19 L 2704.05,2737.24 L 2681.11,2732.68 L 2657.72,2732.68 L 2634.78,2737.24 L 2613.17,2746.19 L 2593.72,2759.19 L 2582.28,2770.36 L 2578.67,2771.85 L 2576.72,2772.05 L 2419.46,2771.85 L 2415.86,2770.36 L 2413.58,2768.36 L 2396.07,2756.66 L 2376.61,2748.6 L 2355.95,2744.49 L 2334.88,2744.49 L 2314.23,2748.6 L 2294.77,2756.66 L 2277.25,2768.36 L 2262.36,2783.25 L 2253.73,2796.16 L 2250.97,2798.92 L 2249.24,2799.85 L 2245.42,2800.61 L 2241.59,2799.85 L 2238.35,2797.68 L 2237.1,2796.17 L 2228.47,2783.25 L 2226.47,2780.97 L 2225.55,2779.25 L 2224.79,2775.42 L 2224.79,2626.11 L 2224.98,2624.16 L 2226.47,2620.56 L 2237.65,2609.11 L 2250.64,2589.66 L 2259.59,2568.05 L 2264.16,2545.11 L 2264.16,2521.72 L 2259.59,2498.78 L 2250.64,2477.17 L 2237.65,2457.72 L 2221.11,2441.19 L 2201.66,2428.19 L 2180.05,2419.24 L 2157.11,2414.68 L 2133.72,2414.68 L 2110.78,2419.24 L 2089.17,2428.19 L 2069.72,2441.19 L 2053.18,2457.72 L 2043.1,2472.81 L 2040.34,2475.57 L 2036.74,2477.07 L 2032.84,2477.07 L 2029.23,2475.57 L 2026.47,2472.82 L 2025.55,2471.09 L 2024.79,2467.26 L 2024.79,1994.57 L 2025.17,1990.18 L 2023.64,1974.62 L 2019.1,1959.66 L 2012.21,1946.32 L 2011.84,1944.29 L 2011.9,1942.23 L 2012.37,1940.22 L 2013.25,1938.35 L 2014.5,1936.7 L 2016.05,1935.35 L 2017.85,1934.34 L 2019.82,1933.72 L 2047.72,1933.69 L 2056.1,1932.99 L 2063.68,1930.81 L 2070.68,1927.2 L 2076.84,1922.3 L 2081.93,1916.28 L 2085.75,1909.39 L 2088.14,1901.9 L 2088.39,1899.64 L 2082.21,1893.46 L 2070.16,1893.25 L 2068.22,1892.63 L 2066.44,1891.64 L 2064.9,1890.31 L 2047.45,1890.31 L 2045.53,1892.2 L 2044.23,1892.89 L 2041.37,1893.46 L 1936.76,1893.31 L 1935.36,1892.89 L 1932.93,1891.27 L 1931.31,1888.84 L 1930.88,1887.44 L 1930.74,1871.02 L 1931.31,1868.15 L 1932.93,1865.73 L 1935.36,1864.1 L 1938.22,1863.54 L 2041.37,1863.54 L 2044.23,1864.1 L 2045.53,1864.8 L 2047.45,1866.68 L 2076.65,1866.68 L 2078.83,1864.91 L 2082.02,1863.72 L 2088.39,1857.35 L 2088.14,1855.09 L 2086.96,1850.71 L 2086.94,1848.71 L 2088.12,1844.1 L 2089.09,1834.3 L 2089.09,1820.33 L 2088.12,1810.53 L 2086.33,1804.62 L 2085.95,1800.74 L 2088.12,1792.91 L 2089.09,1783.12 L 2089.09,1769.15 L 2088.12,1759.35 L 2086.33,1753.44 L 2085.95,1749.56 L 2088.12,1741.73 L 2089.09,1731.94 L 2089.09,1717.96 L 2088.12,1708.17 L 2086.33,1702.26 L 2085.95,1698.38 L 2088.12,1690.55 L 2089.09,1680.76 L 2089.09,1666.78 L 2088.12,1656.99 L 2086.33,1651.08 L 2085.95,1647.2 L 2088.12,1639.37 L 2088.83,1632.24 L 2089.85,1628.72 L 2092.07,1625.81 L 2095.18,1623.89 L 2098.78,1623.22 L 2701.61,1623.22 L 2705.43,1623.98 L 2708.68,1626.15 L 2710.84,1629.39 L 2711.61,1633.22 L 2711.61,2379.38 L 2711.36,2382.42 L 2712.35,2392.57 L 2715.32,2402.34 L 2720.13,2411.34 L 2726.6,2419.23 L 2728.93,2421.2 L 2787.63,2479.91 L 2789.6,2482.23 L 2797.49,2488.7 L 2806.49,2493.52 L 2816.26,2496.48 L 2826.41,2497.48 L 2829.45,2497.23 L 3155.87,2497.23 L 3159.43,2497.88 L 3162.53,2499.77 L 3164.75,2502.64 L 3170.85,2514.33 L 3178.23,2523.33 L 3187.23,2530.72 L 3197.5,2536.21 L 3208.64,2539.59 L 3220.71,2540.78 L 3258.12,2540.78 L 3270.19,2539.59 L 3281.34,2536.21 L 3291.6,2530.72 L 3303.4,2521.12 L 3305.21,2520.37 L 3309.1,2519.99 L 3312.83,2521.12 L 3314.46,2522.21 L 3320.25,2528.96 L 3326.34,2533.95 L 3333.29,2537.67 L 3340.83,2539.96 L 3349.08,2540.77 L 3360.35,2540.6 L 3367.05,2533.89 L 3367.05,2500.46 L 3364.12,2500.17 L 3360.52,2499.07 L 3357.2,2497.3 L 3354.29,2494.91 L 3351.9,2492.01 L 3350.13,2488.69 L 3349.04,2485.09 L 3348.67,2481.34 L 3348.67,2409.49 L 3349.04,2405.75 L 3350.13,2402.15 L 3351.9,2398.83 L 3354.29,2395.92 L 3357.2,2393.53 L 3360.52,2391.76 L 3364.12,2390.67 L 3367.05,2390.38 L 3367.05,2356.74 L 3365.81,2354.62 L 3365.25,2352.75 L 3365.05,2341.46 L 3362.12,2341.17 L 3358.52,2340.07 L 3355.2,2338.3 L 3352.29,2335.91 L 3349.9,2333.01 L 3348.13,2329.69 L 3347.04,2326.09 L 3346.67,2322.34 L 3346.67,2250.49 L 3347.04,2246.75 L 3348.13,2243.15 L 3349.9,2239.83 L 3352.29,2236.92 L 3355.2,2234.53 L 3358.52,2232.76 L 3362.12,2231.67 L 3365.05,2231.38 L 3365.05,2196.91 L 3364.43,2194.93 L 3364.24,2192.98 L 3364.24,2185.46 L 3361.3,2185.17 L 3357.7,2184.07 L 3354.38,2182.3 L 3351.47,2179.91 L 3349.08,2177.01 L 3347.31,2173.69 L 3346.22,2170.09 L 3345.85,2166.34 L 3345.85,2094.49 L 3346.22,2090.75 L 3347.31,2087.15 L 3349.08,2083.83 L 3351.47,2080.92 L 3354.38,2078.53 L 3357.7,2076.76 L 3361.3,2075.67 L 3365.04,2075.3 L 3403.43,2075.3 L 3407.17,2075.67 L 3410.77,2076.76 L 3414.09,2078.53 L 3417,2080.92 L 3419.39,2083.83 L 3421.16,2087.15 L 3422.25,2090.75 L 3422.62,2094.49 L 3422.62,2110.42 L 3455.98,2110.42 L 3462.65,2103.74 L 3462.86,2075.75 L 3462.04,2067.46 L 3459.76,2059.92 L 3456.6,2053.57 L 3456.23,2051.55 L 3456.28,2049.49 L 3456.75,2047.49 L 3457.62,2045.62 L 3458.86,2043.98 L 3460.4,2042.62 L 3462.19,2041.6 L 3464.15,2040.98 L 3466.2,2040.76 L 4119.85,2040.76 L 4122.88,2041.01 L 4133.04,2040.01 L 4142.8,2037.05 L 4151.8,2032.24 L 4159.69,2025.76 L 4161.66,2023.44 L 4223.91,1961.2 L 4226.23,1959.23 L 4232.7,1951.34 L 4237.52,1942.34 L 4240.48,1932.57 L 4241.48,1922.42 L 4241.23,1919.38 L 4241.23,643.799 L 4241.48,640.762 L 4240.48,630.607 L 4238.66,624.609 L 4238.23,621.705 L 4238.23,198.451 L 4238.48,195.416 L 4237.48,185.259 L 4234.52,175.492 L 4229.7,166.492 L 4223.23,158.603 L 4220.9,156.632 L 4135.04,70.7684 L 4133.8,69.2536 L 4132.3,65.6504 L 4132.3,61.7501 L 4132.87,59.8746 L 4135.04,56.6305 L 4138.28,54.4614 L 4142.1,53.6973 L 4439.37,53.4313 L 4443.2,54.1912 L 4444.94,55.1162 L 4447.7,57.8796 L 4448.62,59.6114 L 4449.38,63.4443 L 4445.52,3044.46 L 4444.75,3048.28 L 4443.83,3050.01 L 4441.07,3052.76 L 4439.34,3053.69 L 4435.52,3054.45 L 1659.94,3054.45 L 1657.9,3054.24 L 1655.94,3053.61 L 1654.15,3052.59 L 1652.6,3051.24 L 1651.37,3049.59 L 1650.5,3047.72 L 1650.02,3045.72 L 1649.97,3043.66 L 1650.35,3041.64 L 1651.12,3039.73 L 1658.96,3025.08 L 1663.5,3010.12 L 1665.03,2994.56 L 1664.65,2990.17 L 1664.65,2136.25 L 1665.17,2130.42 L 1663.64,2114.86 L 1659.1,2099.9 L 1651.73,2086.11 L 1643.92,2076.25 L 1643.16,2074.34 L 1642.81,2072.32 L 1642.87,2070.26 L 1643.36,2068.27 L 1644.25,2066.41 L 1645.49,2064.78 L 1647.05,2063.43 L 1648.85,2062.43 L 1650.81,2061.82 L 1684.26,2061.86 L 1692.56,2061.04 L 1700.1,2058.76 L 1704.17,2056.8 L 1706.09,2056.41 L 1709.98,2056.8 L 1715.92,2059.76 L 1723.46,2062.04 L 1731.75,2062.86 L 1747.05,2062.75 L 1747.05,2023.61 L 1630.6,2023.61 L 1622.92,2022.85 L 1618.87,2021.62 L 1593.67,2021.62 L 1589.93,2021.25 L 1586.33,2020.16 L 1583.01,2018.39 L 1580.1,2016 L 1577.71,2013.09 L 1575.94,2009.77 L 1574.85,2006.17 L 1574.56,2003.24 L 1541.12,2003.24 L 1534.42,2009.94 L 1534.24,2021.21 L 1535.06,2029.46 L 1538.14,2040.26 L 1538.09,2042.31 L 1537.62,2044.32 L 1536.75,2046.18 L 1535.51,2047.83 L 1533.97,2049.19 L 1532.18,2050.21 L 1530.22,2050.83 L 1528.17,2051.05 L 1520.84,2050.85 L 1517.23,2049.36 L 1515.72,2048.12 L 1513.55,2044.87 L 1512.79,2041.05 L 1512.79,1820.44 L 1513.55,1816.61 L 1515.71,1813.37 L 1518.68,1810.67 L 1520.41,1809.75 L 1522.28,1809.18 L 1526.18,1809.17 L 1528.06,1809.74 L 1531.31,1811.91 L 1533.48,1815.16 L 1534.24,1818.98 L 1534.24,1854.3 L 1535.43,1866.38 L 1538.81,1877.52 L 1544.29,1887.78 L 1553.9,1899.6 L 1555.03,1903.33 L 1554.64,1907.21 L 1552.8,1910.65 L 1546.06,1916.43 L 1541.06,1922.52 L 1537.34,1929.47 L 1535.06,1937.01 L 1534.24,1945.26 L 1534.42,1956.53 L 1541.12,1963.24 L 1574.56,1963.24 L 1574.85,1960.3 L 1575.94,1956.7 L 1577.71,1953.38 L 1580.1,1950.47 L 1583.01,1948.08 L 1586.33,1946.31 L 1589.93,1945.22 L 1593.67,1944.85 L 1621.66,1944.85 L 1627.54,1943.92 L 1635.76,1944.35 L 1637.62,1944.85 L 1665.68,1944.87M 3423.44,2306.42 L 3423.44,2322.34 L 3423.07,2326.09 L 3421.98,2329.69 L 3420.21,2333.01 L 3417.82,2335.91 L 3414.91,2338.3 L 3411.59,2340.07 L 3407.99,2341.17 L 3405.05,2341.46 L 3405.05,2375.1 L 3406.29,2377.21 L 3406.86,2379.08 L 3407.05,2390.38 L 3409.99,2390.67 L 3413.59,2391.76 L 3416.91,2393.53 L 3419.82,2395.92 L 3422.21,2398.83 L 3423.98,2402.15 L 3425.07,2405.75 L 3425.44,2409.49 L 3425.44,2425.42 L 3458.8,2425.42 L 3465.47,2418.74 L 3465.68,2390.75 L 3464.86,2382.46 L 3462.57,2374.92 L 3459.28,2368.76 L 3458.15,2365.03 L 3458.53,2361.14 L 3460.57,2356.91 L 3462.86,2349.38 L 3463.68,2341.08 L 3463.47,2313.09 L 3456.8,2306.42 L 3423.44,2306.42M 3425.44,2465.42 L 3425.44,2481.34 L 3425.07,2485.09 L 3423.98,2488.69 L 3422.21,2492.01 L 3419.82,2494.91 L 3416.91,2497.3 L 3413.59,2499.07 L 3409.99,2500.17 L 3407.05,2500.46 L 3407.05,2533.89 L 3413.76,2540.6 L 3425.02,2540.77 L 3433.28,2539.96 L 3440.82,2537.67 L 3447.77,2533.95 L 3453.86,2528.96 L 3458.86,2522.87 L 3462.57,2515.92 L 3464.86,2508.38 L 3465.68,2500.08 L 3465.47,2472.09 L 3458.8,2465.42 L 3425.44,2465.42M 3422.62,2150.42 L 3422.62,2166.34 L 3422.25,2170.09 L 3421.16,2173.69 L 3419.39,2177.01 L 3417,2179.91 L 3414.09,2182.3 L 3410.77,2184.07 L 3407.17,2185.17 L 3404.24,2185.46 L 3404.24,2219.92 L 3404.86,2221.9 L 3405.05,2223.85 L 3405.05,2231.38 L 3407.99,2231.67 L 3411.59,2232.76 L 3414.91,2234.53 L 3417.82,2236.92 L 3420.21,2239.83 L 3421.98,2243.15 L 3423.07,2246.75 L 3423.44,2250.49 L 3423.44,2266.42 L 3456.8,2266.42 L 3463.47,2259.74 L 3463.68,2231.75 L 3462.86,2223.46 L 3460.57,2215.92 L 3458.68,2212.37 L 3457.54,2208.63 L 3457.92,2204.75 L 3459.76,2200.92 L 3462.04,2193.38 L 3462.86,2185.08 L 3462.65,2157.09 L 3455.98,2150.42 L 3422.62,2150.42 z " style="fill-opacity:1.000000;fill:rgb(107,150,143);stroke:rgb(0,0,0);stroke-width:2"/></g>
<g fill-rule="evenodd"><path d="M 1750.32,1874.97 L 1629.6,1874.97 L 1621.03,1873.98 L 1593.67,1873.98 L 1589.93,1873.62 L 1586.33,1872.52 L 1583.01,1870.75 L 1580.1,1868.36 L 1577.71,1865.45 L 1575.94,1862.14 L 1574.85,1858.54 L 1574.48,1854.79 L 1574.48,1816.41 L 1574.85,1812.66 L 1575.94,1809.06 L 1577.71,1805.74 L 1580.1,1802.83 L 1583.01,1800.45 L 1586.33,1798.67 L 1589.93,1797.58 L 1593.67,1797.21 L 1621.03,1797.21 L 1629.6,1796.23 L 1774.61,1796.23 L 1774.61,1725.42 L 1774.83,1723.11 L 1775.51,1720.9 L 1776.6,1718.86 L 1778.07,1717.07 L 1880.89,1614.24 L 1882.68,1612.77 L 1884.72,1611.68 L 1886.94,1611.01 L 1889.24,1610.78 L 1932.15,1610.78 L 1934.06,1608.89 L 1935.36,1608.2 L 1938.22,1607.63 L 2041.37,1607.63 L 2044.23,1608.2 L 2046.66,1609.82 L 2048.28,1612.25 L 2048.85,1615.11 L 2048.71,1631.53 L 2048.28,1632.93 L 2046.66,1635.36 L 2044.23,1636.98 L 2042.83,1637.41 L 1938.22,1637.55 L 1935.36,1636.98 L 1934.06,1636.29 L 1932.14,1634.4 L 1894.14,1634.4 L 1798.23,1730.31 L 1798.23,1798.21 L 1822.34,1798.21 L 1826.09,1798.58 L 1829.69,1799.67 L 1833.01,1801.45 L 1835.91,1803.83 L 1838.3,1806.74 L 1840.07,1810.06 L 1841.17,1813.66 L 1841.54,1817.41 L 1841.54,1855.79 L 1841.17,1859.54 L 1840.07,1863.14 L 1838.3,1866.45 L 1835.91,1869.36 L 1833.01,1871.75 L 1829.69,1873.52 L 1826.09,1874.62 L 1822.34,1874.98 L 1794.35,1874.98 L 1788.48,1875.91 L 1780.26,1875.48 L 1778.4,1874.98 L 1750.32,1874.97 z " style="fill-opacity:1.000000;fill:rgb(56,92,42);stroke:rgb(0,0,0);stroke-width:2"/></g>
<g fill-rule="evenodd"><path d="M 934.268,314.788 L 927.567,322.23 L 916.913,329.97 L 904.883,335.326 L 892.002,338.064 L 878.833,338.064 L 865.952,335.326 L 853.921,329.97 L 843.267,322.23 L 834.456,312.443 L 827.871,301.039 L 823.802,288.514 L 822.425,275.417 L 823.121,268.799 L 815.11,260.787 L 506.346,260.787 L 506.346,288.346 L 428.166,288.347 L 366.787,349.725 L 366.787,565.733 L 370.687,566.855 L 374.006,568.628 L 376.914,571.015 L 379.301,573.924 L 381.074,577.242 L 382.167,580.842 L 382.535,584.587 L 382.535,622.972 L 382.167,626.717 L 381.074,630.317 L 379.301,633.635 L 376.914,636.544 L 374.006,638.931 L 370.687,640.704 L 367.087,641.797 L 363.343,642.165 L 335.147,642.165 L 331.533,642.934 L 323.302,642.934 L 319.687,642.165 L 291.492,642.165 L 287.748,641.797 L 284.147,640.704 L 280.829,638.931 L 277.921,636.544 L 275.534,633.635 L 273.76,630.317 L 272.668,626.717 L 272.299,622.972 L 272.299,584.587 L 272.668,580.842 L 273.76,577.242 L 275.534,573.924 L 277.921,571.015 L 280.829,568.628 L 284.147,566.855 L 288.047,565.733 L 288.047,333.417 L 288.804,325.737 L 291.044,318.351 L 294.682,311.544 L 299.578,305.578 L 372.488,232.668 L 372.488,154.488 L 506.346,154.488 L 506.346,182.047 L 831.417,182.047 L 839.098,182.804 L 846.484,185.044 L 853.29,188.682 L 859.256,193.578 L 878.516,212.838 L 892.002,212.77 L 904.883,215.508 L 916.913,220.865 L 927.567,228.605 L 934.268,236.047 L 1380.42,236.047 L 1388.1,236.804 L 1395.48,239.044 L 1402.29,242.682 L 1408.26,247.578 L 1413.15,253.544 L 1416.79,260.351 L 1419.03,267.737 L 1419.79,275.417 L 1419.79,698.935 L 1419.03,706.616 L 1416.79,714.002 L 1413.15,720.809 L 1408.26,726.775 L 1374.98,760.047 L 1619.42,760.047 L 1627.1,760.804 L 1634.48,763.044 L 1641.29,766.682 L 1647.26,771.578 L 1873.26,997.578 L 1878.15,1003.54 L 1881.79,1010.35 L 1884.03,1017.74 L 1884.79,1025.42 L 1884.79,1146.5 L 1884.4,1150.15 L 1932.15,1150.15 L 1934.06,1148.26 L 1935.36,1147.57 L 1938.22,1147 L 2041.37,1147 L 2044.23,1147.57 L 2045.53,1148.26 L 2047.45,1150.15 L 2955.77,1150.15 L 2957.69,1148.26 L 2958.98,1147.57 L 2961.84,1147 L 3064.99,1147 L 3067.85,1147.57 L 3070.28,1149.19 L 3071.9,1151.62 L 3072.33,1153.02 L 3072.47,1169.44 L 3071.9,1172.3 L 3071.21,1173.6 L 3069.15,1175.66 L 3067.85,1176.35 L 3064.99,1176.92 L 2961.84,1176.92 L 2958.98,1176.35 L 2957.69,1175.66 L 2955.77,1173.77 L 2047.45,1173.77 L 2045.53,1175.66 L 2044.23,1176.35 L 2041.37,1176.92 L 1938.22,1176.92 L 1935.36,1176.35 L 1934.06,1175.66 L 1932.14,1173.77 L 1873.55,1173.77 L 1871.76,1175.76 L 1865.1,1180.6 L 1857.58,1183.95 L 1849.53,1185.66 L 1841.3,1185.66 L 1833.25,1183.95 L 1825.73,1180.6 L 1819.07,1175.76 L 1813.57,1169.64 L 1809.45,1162.52 L 1806.91,1154.69 L 1806.05,1146.5 L 1806.05,1041.72 L 1603.11,838.787 L 1374.42,838.787 L 1374.42,878.417 L 1373.67,886.098 L 1371.43,893.484 L 1367.79,900.29 L 1362.89,906.256 L 1220.44,1048.71 L 1220.44,1067.34 L 1220.07,1071.09 L 1218.98,1074.69 L 1217.21,1078.01 L 1214.82,1080.91 L 1211.91,1083.3 L 1208.59,1085.07 L 1204.99,1086.17 L 1201.25,1086.54 L 1162.86,1086.54 L 1159.12,1086.17 L 1155.52,1085.07 L 1152.2,1083.3 L 1149.29,1080.91 L 1146.9,1078.01 L 1145.13,1074.69 L 1144.04,1071.09 L 1143.67,1067.34 L 1143.67,1039.36 L 1142.74,1033.48 L 1143.17,1025.26 L 1143.67,1023.39 L 1143.67,995.492 L 1144.04,991.748 L 1145.13,988.147 L 1146.9,984.829 L 1149.29,981.921 L 1152.2,979.534 L 1155.52,977.76 L 1159.12,976.668 L 1162.86,976.299 L 1181.49,976.299 L 1295.68,862.11 L 1295.68,744.297 L 1296.44,736.616 L 1298.68,729.231 L 1302.32,722.424 L 1307.22,716.458 L 1341.05,682.627 L 1341.05,314.787 L 934.268,314.788 z " style="fill-opacity:1.000000;fill:rgb(236,176,59);stroke:rgb(0,0,0);stroke-width:2"/></g>
<g fill-rule="evenodd"><path d="M 1149.37,838.787 L 1108.91,838.787 L 1108.79,854.081 L 1109.61,862.375 L 1111.9,869.916 L 1115.61,876.865 L 1120.61,882.956 L 1126.7,887.954 L 1133.65,891.668 L 1141.19,893.956 L 1149.45,894.77 L 1160.71,894.598 L 1171.86,883.721 L 1175.46,882.228 L 1179.37,882.227 L 1181.24,882.796 L 1184.49,884.964 L 1186.65,888.208 L 1187.22,890.084 L 1187.42,895.853 L 1189.62,897.464 L 1190.86,898.98 L 1192.36,902.584 L 1192.55,904.535 L 1191.79,908.362 L 1189.62,911.606 L 1166.58,934.433 L 1165.1,935.297 L 1161.81,936.209 L 1151.28,937.247 L 1140.13,940.625 L 1129.87,946.112 L 1120.87,953.499 L 1114.58,960.859 L 1112.95,961.949 L 1109.22,963.081 L 1105.33,962.699 L 1101.89,960.859 L 1095.6,953.499 L 1086.6,946.112 L 1076.34,940.625 L 1065.2,937.247 L 1053.12,936.057 L 1015.71,936.057 L 1003.64,937.247 L 992.496,940.625 L 982.23,946.112 L 973.231,953.498 L 965.846,962.498 L 961.428,970.761 L 959.202,973.564 L 956.131,975.405 L 952.609,976.045 L 424.665,976.045 L 422.626,975.835 L 420.672,975.213 L 418.886,974.206 L 417.343,972.855 L 416.107,971.219 L 415.232,969.364 L 414.753,967.37 L 414.692,965.321 L 415.049,963.301 L 415.811,961.398 L 422.208,949.698 L 425.586,938.557 L 426.777,926.479 L 426.777,889.078 L 425.586,877 L 422.208,865.858 L 416.72,855.592 L 412.087,849.715 L 410.935,846.495 L 410.787,809.535 L 411.374,806.16 L 418.208,793.336 L 421.586,782.195 L 422.777,770.117 L 422.777,732.716 L 421.586,720.638 L 418.208,709.496 L 412.721,699.23 L 405.334,690.231 L 397.973,683.941 L 396.884,682.311 L 395.751,678.578 L 396.134,674.694 L 397.973,671.253 L 405.334,664.964 L 412.721,655.965 L 418.208,645.698 L 421.586,634.557 L 422.777,622.479 L 422.777,585.078 L 421.586,573 L 418.208,561.858 L 412.72,551.592 L 408.087,545.715 L 406.935,542.495 L 406.787,540.785 L 406.787,370.435 L 406.979,368.484 L 408.472,364.88 L 441.562,331.516 L 444.806,329.349 L 448.633,328.587 L 505.854,328.587 L 514.187,327.766 L 521.727,325.48 L 528.676,321.765 L 534.766,316.766 L 539.765,310.676 L 542.227,306.072 L 544.453,303.268 L 547.523,301.428 L 551.045,300.787 L 779.716,300.979 L 783.321,302.473 L 786.08,305.232 L 794.145,324.201 L 805.417,341.071 L 819.762,355.416 L 836.632,366.687 L 855.374,374.45 L 875.273,378.409 L 895.56,378.409 L 915.458,374.45 L 934.201,366.687 L 949.49,356.472 L 953.095,354.979 L 955.045,354.787 L 1291.05,354.787 L 1293,354.979 L 1296.6,356.473 L 1299.36,359.232 L 1300.28,360.96 L 1301.05,364.787 L 1301.05,661.917 L 1300.29,665.744 L 1298.12,668.988 L 1282.04,685.07 L 1278.66,687.904 L 1268.74,699.989 L 1263.07,710.196 L 1260.05,712.672 L 1256.32,713.805 L 1252.44,713.424 L 1250.63,712.674 L 1248.13,710.88 L 1241.18,707.165 L 1233.64,704.877 L 1225.39,704.065 L 1214.12,704.235 L 1207.42,710.94 L 1207.42,744.379 L 1210.35,744.668 L 1213.96,745.76 L 1217.27,747.534 L 1220.18,749.921 L 1222.57,752.829 L 1224.34,756.147 L 1225.43,759.748 L 1225.8,763.492 L 1225.8,791.687 L 1226.57,795.302 L 1226.57,803.533 L 1225.8,807.147 L 1225.8,835.343 L 1225.43,839.087 L 1224.34,842.687 L 1222.57,846.006 L 1220.18,848.914 L 1217.27,851.301 L 1213.96,853.074 L 1210.35,854.167 L 1206.61,854.535 L 1168.22,854.535 L 1164.48,854.167 L 1160.88,853.074 L 1157.56,851.301 L 1154.65,848.914 L 1152.27,846.006 L 1150.49,842.687 L 1149.37,838.787M 846.047,618.661 L 832.659,632.05 L 835.362,641.263 L 846.047,646.318 L 846.047,618.661M 924.788,646.307 L 929.881,644.486 L 935.389,641.542 L 938.174,632.05 L 924.788,618.663 L 924.788,646.307M 1149.37,760.047 L 1150.49,756.147 L 1152.27,752.829 L 1154.65,749.921 L 1157.56,747.534 L 1160.88,745.76 L 1164.48,744.668 L 1167.42,744.379 L 1167.42,710.939 L 1160.71,704.235 L 1149.45,704.065 L 1141.19,704.877 L 1133.65,707.165 L 1126.7,710.879 L 1120.61,715.877 L 1115.61,721.967 L 1111.9,728.917 L 1109.61,736.458 L 1108.79,744.751 L 1108.91,760.047 L 1149.37,760.047M 941.631,578.937 L 966.458,603.764 L 975.671,601.061 L 982.851,585.888 L 987.784,566.209 L 988.783,545.947 L 985.81,525.877 L 978.894,506.542 L 975.95,501.034 L 966.458,498.249 L 941.63,523.077 L 942.963,525.387 L 947.033,537.911 L 948.409,551.008 L 947.033,564.105 L 942.963,576.629 L 941.631,578.937M 829.203,578.936 L 827.871,576.629 L 823.802,564.105 L 822.425,551.008 L 823.802,537.911 L 827.871,525.387 L 829.204,523.078 L 804.375,498.249 L 795.162,500.952 L 787.982,516.126 L 783.049,535.805 L 782.05,556.068 L 785.023,576.135 L 791.938,595.47 L 794.883,600.979 L 804.375,603.764 L 829.203,578.936M 857.539,494.845 L 865.952,491.099 L 878.833,488.361 L 892.002,488.361 L 904.883,491.099 L 913.295,494.844 L 938.174,469.965 L 935.471,460.751 L 920.298,453.572 L 900.619,448.639 L 880.355,447.64 L 860.288,450.613 L 840.952,457.529 L 835.444,460.473 L 832.659,469.965 L 857.539,494.845 z " style="fill-opacity:1.000000;fill:rgb(251,50,175);stroke:rgb(0,0,0);stroke-width:2"/></g>
<g fill-rule="evenodd"><path d="M 370.788,869.733 L 374.687,870.855 L 378.006,872.628 L 380.914,875.015 L 383.301,877.924 L 385.074,881.242 L 386.167,884.842 L 386.535,888.587 L 386.535,926.972 L 386.167,930.717 L 385.074,934.317 L 383.301,937.635 L 380.914,940.544 L 378.006,942.931 L 374.687,944.704 L 371.087,945.797 L 367.343,946.165 L 339.147,946.165 L 335.533,946.934 L 327.302,946.934 L 323.687,946.165 L 295.492,946.165 L 291.748,945.797 L 288.147,944.704 L 284.829,942.931 L 281.921,940.544 L 279.534,937.635 L 277.76,934.317 L 276.668,930.717 L 276.299,926.972 L 276.299,919.591 L 82.7793,919.59 L 80.4751,919.363 L 78.2594,918.691 L 76.2175,917.6 L 74.4277,916.131 L 35.3657,877.069 L 33.9021,875.287 L 32.8127,873.255 L 32.1389,871.05 L 31.9064,868.756 L 29.2804,59.7797 L 29.5017,57.465 L 30.1723,55.2386 L 31.266,53.1867 L 42.0666,42.0648 L 43.8563,40.5963 L 45.898,39.5051 L 48.1134,38.8332 L 50.4173,38.6063 L 1333.42,38.6063 L 1335.72,38.8332 L 1337.94,39.5054 L 1339.98,40.5968 L 1341.77,42.0657 L 2007.31,707.606 L 3288.42,707.606 L 3290.72,707.833 L 3292.94,708.505 L 3294.98,709.597 L 3296.77,711.066 L 3303.24,717.855 L 3304.33,719.897 L 3305,722.113 L 3305.23,724.417 L 3305.23,1312.42 L 3305,1314.72 L 3304.33,1316.94 L 3303.24,1318.98 L 3298.68,1323.86 L 3296.89,1325.33 L 3294.85,1326.42 L 3292.63,1327.09 L 3290.33,1327.31 L 3071.07,1327.31 L 3069.15,1329.2 L 3067.85,1329.9 L 3064.99,1330.46 L 2961.84,1330.46 L 2958.98,1329.9 L 2956.55,1328.27 L 2954.93,1325.85 L 2954.36,1322.98 L 2954.36,1308.02 L 2954.93,1305.16 L 2955.62,1303.87 L 2957.69,1301.8 L 2958.98,1301.11 L 2961.84,1300.54 L 3064.99,1300.54 L 3067.85,1301.11 L 3069.15,1301.8 L 3071.07,1303.69 L 3281.61,1303.69 L 3281.61,731.228 L 2002.42,731.228 L 2000.11,731.001 L 1997.9,730.329 L 1995.86,729.238 L 1994.07,727.769 L 1328.53,62.2284 L 55.3089,62.2283 L 52.9182,64.6187 L 55.5125,863.809 L 87.6716,895.968 L 276.299,895.968 L 276.299,888.587 L 276.668,884.842 L 277.76,881.242 L 279.534,877.924 L 281.921,875.015 L 284.829,872.628 L 288.147,870.855 L 292.047,869.733 L 292.047,789.803 L 287.748,789.434 L 284.147,788.342 L 280.829,786.569 L 277.921,784.182 L 275.534,781.273 L 273.76,777.955 L 272.668,774.355 L 272.299,770.61 L 272.299,732.224 L 272.668,728.48 L 273.76,724.88 L 275.534,721.561 L 277.921,718.653 L 280.829,716.266 L 284.147,714.492 L 287.748,713.4 L 291.492,713.031 L 319.482,713.032 L 325.357,712.101 L 333.576,712.532 L 335.44,713.031 L 363.343,713.031 L 367.087,713.4 L 370.687,714.492 L 374.006,716.266 L 376.914,718.653 L 379.301,721.561 L 381.074,724.88 L 382.167,728.48 L 382.535,732.224 L 382.535,770.61 L 382.167,774.355 L 381.074,777.955 L 379.301,781.273 L 376.914,784.182 L 374.006,786.569 L 370.788,788.289 L 370.788,869.733 z " style="fill-opacity:1.000000;fill:rgb(60,84,236);stroke:rgb(0,0,0);stroke-width:2"/></g>
<g fill-rule="evenodd"><path d="M 514.803,1205.85 L 515.787,1214.42 L 515.787,1380.05 L 515.031,1387.73 L 512.791,1395.12 L 509.152,1401.93 L 507.441,1404.01 L 507.441,1423.34 L 507.072,1427.09 L 505.98,1430.69 L 504.206,1434.01 L 501.819,1436.91 L 498.911,1439.3 L 495.593,1441.07 L 491.992,1442.17 L 488.248,1442.54 L 449.862,1442.54 L 446.118,1442.17 L 442.517,1441.07 L 439.199,1439.3 L 436.291,1436.91 L 433.904,1434.01 L 432.13,1430.69 L 431.038,1427.09 L 430.669,1423.34 L 430.669,1395.36 L 429.737,1389.48 L 430.168,1381.26 L 430.669,1379.39 L 430.669,1351.49 L 431.038,1347.75 L 432.13,1344.15 L 433.904,1340.83 L 437.047,1337.3 L 437.047,1214.42 L 438.031,1205.85 L 438.031,1178.49 L 438.4,1174.75 L 439.492,1171.15 L 441.266,1167.83 L 443.653,1164.92 L 446.561,1162.53 L 449.88,1160.76 L 453.48,1159.67 L 457.224,1159.3 L 495.61,1159.3 L 499.355,1159.67 L 502.955,1160.76 L 506.273,1162.53 L 509.182,1164.92 L 511.569,1167.83 L 513.342,1171.15 L 514.434,1174.75 L 514.803,1178.49 L 514.803,1205.85 z " style="fill-opacity:1.000000;fill:rgb(24,219,92);stroke:rgb(0,0,0);stroke-width:2"/></g>
<g fill-rule="evenodd"><path d="M 367.165,1222.98 L 367.165,1250.34 L 366.797,1254.09 L 365.704,1257.69 L 363.931,1261.01 L 361.544,1263.91 L 358.635,1266.3 L 355.317,1268.07 L 351.717,1269.17 L 347.972,1269.54 L 309.587,1269.54 L 305.842,1269.17 L 302.242,1268.07 L 298.924,1266.3 L 296.015,1263.91 L 293.628,1261.01 L 291.855,1257.69 L 290.762,1254.09 L 290.394,1250.34 L 290.394,1222.99 L 289.409,1214.42 L 289.409,1092.73 L 284.829,1090.57 L 281.921,1088.18 L 279.534,1085.27 L 277.76,1081.96 L 276.668,1078.35 L 276.299,1074.61 L 276.299,1036.22 L 276.668,1032.48 L 277.76,1028.88 L 279.534,1025.56 L 281.921,1022.65 L 284.829,1020.27 L 288.147,1018.49 L 291.748,1017.4 L 295.492,1017.03 L 322.987,1017.03 L 331.417,1016.05 L 994.109,1016.05 L 996.032,1014.12 L 996.031,995.492 L 996.4,991.748 L 997.492,988.147 L 999.266,984.829 L 1001.65,981.921 L 1004.56,979.534 L 1007.88,977.76 L 1011.48,976.668 L 1015.22,976.299 L 1053.61,976.299 L 1057.35,976.668 L 1060.96,977.76 L 1064.27,979.534 L 1067.18,981.921 L 1069.57,984.829 L 1071.34,988.147 L 1072.43,991.748 L 1072.8,995.492 L 1072.8,1023.5 L 1073.73,1029.36 L 1073.3,1037.57 L 1072.8,1039.43 L 1072.8,1067.34 L 1072.43,1071.09 L 1071.34,1074.69 L 1069.57,1078.01 L 1067.18,1080.91 L 1064.27,1083.3 L 1060.96,1085.07 L 1057.35,1086.17 L 1053.61,1086.54 L 1034.26,1086.54 L 1032.29,1088.15 L 1025.48,1091.79 L 1018.1,1094.03 L 1010.42,1094.79 L 368.149,1094.79 L 368.149,1214.42 L 367.165,1222.98 z " style="fill-opacity:1.000000;fill:rgb(2,26,254);stroke:rgb(0,0,0);stroke-width:2"/></g>
<g fill-rule="evenodd"><path d="M 283.032,1378.85 L 283.031,1351.49 L 283.4,1347.75 L 284.492,1344.15 L 286.266,1340.83 L 288.653,1337.92 L 291.561,1335.53 L 294.88,1333.76 L 298.48,1332.67 L 302.224,1332.3 L 340.61,1332.3 L 344.355,1332.67 L 347.955,1333.76 L 351.273,1335.53 L 354.182,1337.92 L 356.569,1340.83 L 358.342,1344.15 L 359.434,1347.75 L 359.803,1351.49 L 359.803,1378.85 L 360.787,1387.42 L 360.787,1426.23 L 535.605,1601.05 L 1137.11,1601.05 L 1466.24,1271.91 L 1472.64,1266.73 L 1479.97,1263 L 1487.92,1260.87 L 1496.14,1260.44 L 1504.27,1261.72 L 1511.95,1264.67 L 1518.86,1269.16 L 1524.68,1274.98 L 1529.16,1281.88 L 1531.49,1287.94 L 1742.28,1287.94 L 1744.59,1288.17 L 1746.8,1288.84 L 1748.84,1289.93 L 1750.63,1291.4 L 1762.92,1303.69 L 1932.14,1303.69 L 1934.06,1301.8 L 1935.36,1301.11 L 1938.22,1300.54 L 2041.37,1300.54 L 2044.23,1301.11 L 2046.66,1302.73 L 2048.28,1305.16 L 2048.85,1308.02 L 2048.85,1322.98 L 2048.28,1325.85 L 2047.59,1327.14 L 2045.53,1329.2 L 2044.23,1329.9 L 2041.37,1330.46 L 1938.22,1330.46 L 1935.36,1329.9 L 1934.06,1329.2 L 1932.14,1327.31 L 1758.03,1327.31 L 1755.73,1327.09 L 1753.51,1326.42 L 1751.47,1325.32 L 1749.68,1323.85 L 1737.39,1311.56 L 1531.45,1311.56 L 1530.83,1313.86 L 1527.1,1321.2 L 1521.92,1327.59 L 1181.26,1668.26 L 1175.29,1673.15 L 1168.48,1676.79 L 1161.1,1679.03 L 1153.42,1679.79 L 519.297,1679.79 L 511.617,1679.03 L 504.231,1676.79 L 497.424,1673.15 L 491.458,1668.26 L 293.578,1470.37 L 288.682,1464.41 L 285.044,1457.6 L 282.804,1450.22 L 282.047,1442.54 L 282.047,1387.42 L 283.032,1378.85 z " style="fill-opacity:1.000000;fill:rgb(67,251,250);stroke:rgb(0,0,0);stroke-width:2"/></g>
<g fill-rule="evenodd"><path d="M 229.214,287.298 L 201.787,314.725 L 201.788,321.31 L 203.345,322.052 L 210.283,324.156 L 226.651,315.755 L 228.672,315.393 L 230.724,315.451 L 232.721,315.928 L 234.579,316.801 L 236.219,318.036 L 237.572,319.58 L 238.581,321.367 L 239.205,323.323 L 239.415,328.48 L 241.874,329.107 L 245.118,331.274 L 247.286,334.519 L 248.047,338.345 L 248.045,540.785 L 247.898,542.495 L 246.746,545.715 L 242.112,551.592 L 236.625,561.858 L 233.247,572.999 L 232.057,585.076 L 232.057,622.48 L 233.247,634.558 L 236.625,645.699 L 242.112,655.964 L 249.498,664.964 L 256.859,671.253 L 258.699,674.694 L 259.081,678.578 L 257.949,682.311 L 256.859,683.941 L 249.498,690.231 L 242.112,699.23 L 236.625,709.496 L 233.247,720.637 L 232.057,732.714 L 232.057,770.118 L 233.247,782.196 L 236.625,793.337 L 242.112,803.602 L 249.776,812.938 L 250.748,814.353 L 251.9,817.574 L 251.898,846.495 L 250.746,849.714 L 247.57,853.571 L 244.537,855.349 L 241.075,855.967 L 106.43,855.775 L 102.826,854.282 L 98.3743,850.102 L 96.2128,846.873 L 95.4454,843.064 L 94.3616,509.159 L 90.4846,502.444 L 85.3978,486.788 L 83.6772,470.417 L 85.3978,454.046 L 90.4846,438.391 L 94.1115,432.109 L 93.0734,112.26 L 93.5628,109.137 L 94.4131,107.227 L 95.6419,105.536 L 97.1955,104.137 L 99.9523,102.727 L 103.073,102.227 L 198.049,102.227 L 200.109,102.442 L 202.081,103.076 L 203.879,104.102 L 205.428,105.478 L 206.66,107.142 L 207.523,109.025 L 207.979,111.045 L 208.01,113.115 L 207.613,115.148 L 206.807,117.055 L 205.624,118.756 L 204.117,120.176 L 184.219,129.892 L 167.423,142.419 L 153.395,157.981 L 142.673,175.983 L 136.8,192.539 L 141.46,201.417 L 175.928,201.417 L 178.275,194.195 L 185.271,182.077 L 194.633,171.679 L 205.953,163.455 L 218.735,157.764 L 232.421,154.855 L 246.413,154.855 L 260.1,157.764 L 272.882,163.455 L 284.202,171.679 L 293.564,182.077 L 300.56,194.195 L 304.884,207.502 L 306.346,221.417 L 304.884,235.333 L 300.56,248.64 L 293.564,260.757 L 284.202,271.155 L 272.882,279.38 L 260.1,285.071 L 246.413,287.98 L 232.421,287.98 L 229.214,287.298M 163.74,241.417 L 141.46,241.417 L 136.8,250.294 L 141.53,263.628 L 163.74,241.417 z " style="fill-opacity:1.000000;fill:rgb(170,58,251);stroke:rgb(0,0,0);stroke-width:2"/></g>
<g fill-rule="evenodd"><path d="M 1975.03,516.985 L 1974.05,508.417 L 1974.05,383.608 L 1960.73,373.933 L 1949.72,361.7 L 1941.48,347.444 L 1936.4,331.788 L 1934.68,315.417 L 1936.4,299.046 L 1941.48,283.391 L 1949.72,269.135 L 1960.73,256.902 L 1974.05,247.226 L 1989.09,240.531 L 2005.19,237.109 L 2021.65,237.109 L 2037.75,240.531 L 2052.79,247.226 L 2066.1,256.902 L 2077.12,269.135 L 2085.35,283.391 L 2090.44,299.046 L 2092.16,315.417 L 2090.44,331.788 L 2085.35,347.444 L 2077.12,361.7 L 2066.1,373.933 L 2052.79,383.608 L 2052.79,508.417 L 2051.8,516.985 L 2051.8,544.343 L 2051.43,548.087 L 2050.34,551.687 L 2048.57,555.006 L 2046.18,557.914 L 2043.27,560.301 L 2039.96,562.074 L 2036.35,563.167 L 2032.61,563.535 L 1994.22,563.535 L 1990.48,563.167 L 1986.88,562.074 L 1983.56,560.301 L 1980.65,557.914 L 1978.27,555.006 L 1976.49,551.687 L 1975.4,548.087 L 1975.03,544.343 L 1975.03,516.985 z " style="fill-opacity:1.000000;fill:rgb(41,209,230);stroke:rgb(0,0,0);stroke-width:2"/></g>
<g fill-rule="evenodd"><path d="M 3345.05,1689.46 L 3342.12,1689.17 L 3338.52,1688.07 L 3335.2,1686.3 L 3332.29,1683.91 L 3329.9,1681.01 L 3328.13,1677.69 L 3327.04,1674.09 L 3326.67,1670.34 L 3326.67,1598.49 L 3327.04,1594.75 L 3328.13,1591.15 L 3329.9,1587.83 L 3332.29,1584.92 L 3335.2,1582.53 L 3338.52,1580.76 L 3342.12,1579.67 L 3345.86,1579.3 L 3384.25,1579.3 L 3387.99,1579.67 L 3391.59,1580.76 L 3394.91,1582.53 L 3397.82,1584.92 L 3400.21,1587.83 L 3401.98,1591.15 L 3403.07,1594.75 L 3403.44,1598.49 L 3403.44,1614.42 L 3436.8,1614.42 L 3443.47,1607.74 L 3443.66,1581.97 L 3444.44,1578.16 L 3445.37,1576.45 L 3448.13,1573.71 L 3449.85,1572.79 L 3453.66,1572.04 L 4058.33,1572.04 L 4071.42,1573.48 L 4074.45,1573.23 L 4129.56,1573.42 L 4133.16,1574.91 L 4134.68,1576.16 L 4136.84,1579.4 L 4137.61,1583.23 L 4137.41,1898.76 L 4135.92,1902.37 L 4134.68,1903.88 L 4104.35,1934.21 L 4101.1,1936.38 L 4097.28,1937.14 L 3193.76,1937.14 L 3191.81,1936.95 L 3188.21,1935.46 L 3185.45,1932.7 L 3183.96,1929.09 L 3183.76,1927.14 L 3183.76,1889.24 L 3183.98,1887.17 L 3184.62,1885.19 L 3185.66,1883.38 L 3187.05,1881.83 L 3188.73,1880.6 L 3190.63,1879.74 L 3192.66,1879.3 L 3194.74,1879.29 L 3199.72,1879.78 L 3237.12,1879.78 L 3249.19,1878.59 L 3260.34,1875.21 L 3270.6,1869.72 L 3282.4,1860.12 L 3286.13,1858.99 L 3290.02,1859.37 L 3293.46,1861.21 L 3299.25,1867.96 L 3305.34,1872.95 L 3312.29,1876.67 L 3319.83,1878.96 L 3328.08,1879.77 L 3339.35,1879.6 L 3346.05,1872.89 L 3346.05,1839.46 L 3343.12,1839.17 L 3339.52,1838.07 L 3336.2,1836.3 L 3333.29,1833.91 L 3330.9,1831.01 L 3329.13,1827.69 L 3328.04,1824.09 L 3327.67,1820.34 L 3327.67,1792.16 L 3326.9,1788.53 L 3326.9,1780.3 L 3327.67,1776.68 L 3327.67,1748.49 L 3328.04,1744.75 L 3329.13,1741.15 L 3330.9,1737.83 L 3333.29,1734.92 L 3336.2,1732.53 L 3339.52,1730.76 L 3343.12,1729.67 L 3346.05,1729.38 L 3346.05,1695.07 L 3345.25,1692.75 L 3345.05,1689.46M 3403.44,1654.42 L 3403.44,1670.34 L 3403.07,1674.09 L 3401.98,1677.69 L 3400.21,1681.01 L 3397.82,1683.91 L 3394.91,1686.3 L 3391.59,1688.07 L 3387.99,1689.17 L 3385.05,1689.46 L 3385.05,1723.76 L 3385.86,1726.08 L 3386.05,1729.38 L 3388.99,1729.67 L 3392.59,1730.76 L 3395.91,1732.53 L 3398.82,1734.92 L 3401.21,1737.83 L 3402.98,1741.15 L 3404.1,1745.05 L 3444.56,1745.05 L 3444.68,1729.75 L 3443.86,1721.46 L 3441.57,1713.92 L 3440.4,1711.31 L 3440.01,1709.38 L 3440.4,1705.5 L 3442.86,1697.37 L 3443.68,1689.08 L 3443.47,1661.09 L 3436.8,1654.42 L 3403.44,1654.42M 3404.1,1823.79 L 3402.98,1827.69 L 3401.21,1831.01 L 3398.82,1833.91 L 3395.91,1836.3 L 3392.59,1838.07 L 3388.99,1839.17 L 3386.05,1839.46 L 3386.05,1872.89 L 3392.76,1879.6 L 3404.02,1879.77 L 3412.28,1878.96 L 3419.82,1876.67 L 3426.77,1872.95 L 3432.86,1867.96 L 3437.86,1861.87 L 3441.57,1854.92 L 3443.86,1847.38 L 3444.68,1839.08 L 3444.56,1823.79 L 3404.1,1823.79 z " style="fill-opacity:1.000000;fill:rgb(5,60,124);stroke:rgb(0,0,0);stroke-width:2"/></g>
<g fill-rule="evenodd"><path d="M 2399.54,2890.79 L 2390.2,2901.16 L 2378.88,2909.38 L 2366.1,2915.07 L 2352.41,2917.98 L 2338.42,2917.98 L 2324.74,2915.07 L 2311.95,2909.38 L 2300.63,2901.16 L 2291.27,2890.76 L 2284.27,2878.64 L 2279.95,2865.33 L 2278.49,2851.42 L 2279.95,2837.5 L 2284.27,2824.19 L 2291.27,2812.08 L 2300.63,2801.68 L 2311.95,2793.45 L 2324.74,2787.76 L 2338.42,2784.85 L 2352.41,2784.85 L 2366.1,2787.76 L 2378.88,2793.45 L 2390.2,2801.68 L 2399.54,2812.05 L 2601.72,2812.05 L 2605.72,2805.14 L 2616.73,2792.9 L 2630.05,2783.23 L 2645.09,2776.53 L 2661.19,2773.11 L 2677.65,2773.11 L 2693.75,2776.53 L 2708.79,2783.23 L 2722.1,2792.9 L 2733.12,2805.14 L 2741.35,2819.39 L 2746.44,2835.05 L 2748.16,2851.42 L 2746.44,2867.79 L 2741.35,2883.44 L 2733.12,2897.7 L 2722.1,2909.93 L 2708.79,2919.61 L 2693.75,2926.3 L 2677.65,2929.73 L 2661.19,2929.73 L 2645.09,2926.3 L 2630.05,2919.61 L 2616.73,2909.93 L 2605.72,2897.7 L 2601.72,2890.79 L 2399.54,2890.79 z " style="fill-opacity:1.000000;fill:rgb(148,117,216);stroke:rgb(0,0,0);stroke-width:2"/></g>
<g fill-rule="evenodd"><path d="M 3274.98,2121.85 L 3275.97,2130.42 L 3275.97,2273.93 L 3278.03,2280.74 L 3278.79,2288.42 L 3278.79,2445.42 L 3277.8,2453.98 L 3277.8,2481.34 L 3277.43,2485.09 L 3276.34,2488.69 L 3274.57,2492.01 L 3272.18,2494.91 L 3269.27,2497.3 L 3265.96,2499.07 L 3262.35,2500.17 L 3258.61,2500.54 L 3220.22,2500.54 L 3216.48,2500.17 L 3212.88,2499.07 L 3209.56,2497.3 L 3206.65,2494.91 L 3204.27,2492.01 L 3202.49,2488.69 L 3201.4,2485.09 L 3201.03,2481.34 L 3201.03,2457.23 L 2826.42,2457.23 L 2824.11,2457 L 2821.9,2456.33 L 2819.86,2455.24 L 2818.07,2453.77 L 2755.07,2390.77 L 2753.6,2388.98 L 2752.51,2386.94 L 2751.83,2384.72 L 2751.61,2382.42 L 2751.61,1583.22 L 2047.45,1583.22 L 2045.53,1585.11 L 2044.23,1585.8 L 2041.37,1586.37 L 1938.22,1586.37 L 1935.36,1585.8 L 1934.06,1585.11 L 1932,1583.05 L 1930.88,1580.35 L 1930.74,1563.93 L 1931.31,1561.07 L 1932,1559.77 L 1934.06,1557.71 L 1936.76,1556.59 L 1938.22,1556.45 L 2041.37,1556.45 L 2044.23,1557.02 L 2045.53,1557.71 L 2047.45,1559.6 L 2955.77,1559.6 L 2957.69,1557.71 L 2958.98,1557.02 L 2961.84,1556.45 L 3064.99,1556.45 L 3067.85,1557.02 L 3070.28,1558.64 L 3071.9,1561.07 L 3072.47,1563.93 L 3072.33,1580.35 L 3071.9,1581.75 L 3070.28,1584.18 L 3067.85,1585.8 L 3064.99,1586.37 L 2961.84,1586.37 L 2958.98,1585.8 L 2957.69,1585.11 L 2955.77,1583.22 L 2779.32,1583.22 L 2775.23,1587.31 L 2775.23,2377.53 L 2831.31,2433.61 L 3200.05,2433.61 L 3200.05,2328.22 L 3199.4,2326.09 L 3199.03,2322.34 L 3199.03,2296.73 L 3197.98,2293.28 L 3197.23,2285.6 L 3197.23,2130.42 L 3198.21,2121.85 L 3198.21,2094.49 L 3198.58,2090.75 L 3199.67,2087.15 L 3201.45,2083.83 L 3203.83,2080.92 L 3206.74,2078.53 L 3210.06,2076.76 L 3213.66,2075.67 L 3217.41,2075.3 L 3255.79,2075.3 L 3259.54,2075.67 L 3263.14,2076.76 L 3266.45,2078.53 L 3269.36,2080.92 L 3271.75,2083.83 L 3273.52,2087.15 L 3274.62,2090.75 L 3274.98,2094.49 L 3274.98,2121.85 z " style="fill-opacity:1.000000;fill:rgb(190,97,137);stroke:rgb(0,0,0);stroke-width:2"/></g>
<g fill-rule="evenodd"><path d="M 3180.03,1795.15 L 3178.8,1791.1 L 3178.05,1783.42 L 3178.05,1634.4 L 3071.07,1634.4 L 3069.15,1636.29 L 3067.85,1636.98 L 3064.99,1637.55 L 2960.38,1637.41 L 2958.98,1636.98 L 2956.55,1635.36 L 2954.93,1632.93 L 2954.51,1631.53 L 2954.36,1615.11 L 2954.93,1612.25 L 2956.55,1609.82 L 2958.98,1608.2 L 2961.84,1607.63 L 3064.99,1607.63 L 3067.85,1608.2 L 3069.15,1608.89 L 3071.07,1610.78 L 3179.03,1610.78 L 3179.03,1598.49 L 3179.4,1594.75 L 3180.49,1591.15 L 3182.27,1587.83 L 3184.65,1584.92 L 3187.56,1582.53 L 3190.88,1580.76 L 3194.48,1579.67 L 3198.22,1579.3 L 3236.61,1579.3 L 3240.35,1579.67 L 3243.96,1580.76 L 3247.27,1582.53 L 3250.18,1584.92 L 3252.57,1587.83 L 3254.34,1591.15 L 3255.43,1594.75 L 3255.8,1598.49 L 3255.8,1625.85 L 3256.79,1634.42 L 3256.8,1776.39 L 3257.3,1778.26 L 3257.73,1786.48 L 3256.8,1792.35 L 3256.8,1820.34 L 3256.43,1824.09 L 3255.34,1827.69 L 3253.57,1831.01 L 3251.18,1833.91 L 3248.27,1836.3 L 3244.96,1838.07 L 3241.35,1839.17 L 3237.61,1839.54 L 3199.22,1839.54 L 3195.48,1839.17 L 3191.88,1838.07 L 3188.56,1836.3 L 3185.65,1833.91 L 3183.27,1831.01 L 3181.49,1827.69 L 3180.4,1824.09 L 3180.03,1820.34 L 3180.03,1795.15 z " style="fill-opacity:1.000000;fill:rgb(249,92,187);stroke:rgb(0,0,0);stroke-width:2"/></g>
<g fill-rule="evenodd"><path d="M 2792.61,476.878 L 2792.61,335.417 L 2792.83,333.113 L 2793.51,330.897 L 2794.6,328.855 L 2796.07,327.066 L 2973.07,150.066 L 2974.86,148.597 L 2976.9,147.505 L 2979.11,146.833 L 2981.42,146.606 L 4028.42,146.606 L 4030.72,146.833 L 4032.94,147.505 L 4034.98,148.597 L 4036.77,150.066 L 4151.77,265.066 L 4153.24,266.855 L 4154.33,268.897 L 4155,271.113 L 4155.23,273.417 L 4155.23,1510.42 L 4155,1512.72 L 4154.33,1514.94 L 4153.24,1516.98 L 4151.77,1518.77 L 4138.98,1531.24 L 4136.94,1532.33 L 4134.72,1533 L 4132.42,1533.23 L 4071.42,1533.23 L 4069.12,1533 L 4066.35,1532.04 L 3071.07,1532.04 L 3069.15,1533.93 L 3067.85,1534.62 L 3064.99,1535.19 L 2961.84,1535.19 L 2958.98,1534.62 L 2956.55,1533 L 2954.93,1530.57 L 2954.36,1527.71 L 2954.36,1512.75 L 2954.93,1509.89 L 2955.62,1508.59 L 2957.69,1506.53 L 2958.98,1505.84 L 2961.84,1505.27 L 3064.99,1505.27 L 3067.85,1505.84 L 3069.15,1506.53 L 3071.07,1508.42 L 4070.23,1508.42 L 4072.53,1508.64 L 4075.29,1509.61 L 4127.53,1509.61 L 4131.61,1505.52 L 4131.61,278.31 L 4023.52,170.228 L 2986.31,170.228 L 2816.23,340.31 L 2816.23,476.878 L 2825.1,478.764 L 2837.88,484.455 L 2849.2,492.679 L 2858.56,503.077 L 2865.56,515.195 L 2869.88,528.502 L 2871.35,542.417 L 2869.88,556.333 L 2865.56,569.64 L 2858.56,581.757 L 2849.2,592.155 L 2837.88,600.38 L 2825.1,606.071 L 2811.41,608.98 L 2797.42,608.98 L 2783.74,606.071 L 2770.95,600.38 L 2759.63,592.155 L 2750.27,581.757 L 2743.27,569.64 L 2738.95,556.333 L 2737.49,542.417 L 2738.95,528.502 L 2743.27,515.195 L 2750.27,503.077 L 2759.63,492.679 L 2770.95,484.455 L 2783.74,478.764 L 2792.61,476.878 z " style="fill-opacity:1.000000;fill:rgb(168,153,15);stroke:rgb(0,0,0);stroke-width:2"/></g>
<g fill-rule="evenodd"><path d="M 2642.4,597.1 L 2637.88,600.38 L 2625.1,606.071 L 2611.41,608.98 L 2597.42,608.98 L 2583.74,606.071 L 2570.95,600.38 L 2559.63,592.155 L 2550.27,581.757 L 2543.27,569.64 L 2538.95,556.333 L 2537.49,542.417 L 2538.95,528.502 L 2543.27,515.195 L 2550.27,503.077 L 2559.63,492.679 L 2570.95,484.455 L 2583.74,478.764 L 2597.42,475.855 L 2611.41,475.855 L 2625.1,478.764 L 2637.88,484.455 L 2649.2,492.679 L 2658.56,503.077 L 2665.56,515.195 L 2669.88,528.502 L 2671.35,542.417 L 2669.88,556.333 L 2665.56,569.64 L 2659.26,580.555 L 2744.31,665.606 L 3314.42,665.606 L 3316.72,665.833 L 3318.94,666.505 L 3320.98,667.597 L 3322.77,669.066 L 3352.77,699.066 L 3354.24,700.855 L 3355.33,702.897 L 3356,705.113 L 3356.23,707.417 L 3356.23,1361.42 L 3356,1363.72 L 3355.33,1365.94 L 3354.24,1367.98 L 3347.5,1375.04 L 3345.71,1376.5 L 3343.67,1377.6 L 3341.45,1378.27 L 3339.15,1378.49 L 3071.07,1378.49 L 3069.15,1380.39 L 3067.85,1381.08 L 3064.99,1381.65 L 2961.84,1381.65 L 2958.98,1381.08 L 2956.55,1379.45 L 2954.93,1377.03 L 2954.36,1374.17 L 2954.36,1359.2 L 2954.93,1356.34 L 2956.55,1353.92 L 2957.69,1352.99 L 2958.98,1352.29 L 2961.84,1351.72 L 3064.99,1351.72 L 3067.85,1352.29 L 3069.15,1352.99 L 3071.07,1354.87 L 3332.61,1354.87 L 3332.61,712.31 L 3309.53,689.228 L 2739.42,689.228 L 2737.11,689.001 L 2734.9,688.329 L 2732.86,687.238 L 2731.07,685.769 L 2642.4,597.1 z " style="fill-opacity:1.000000;fill:rgb(149,177,235);stroke:rgb(0,0,0);stroke-width:2"/></g>
<g fill-rule="evenodd"><path d="M 3215.67,475.488 L 3262.4,428.759 L 3268.36,423.862 L 3275.17,420.224 L 3282.55,417.984 L 3290.24,417.227 L 3444.42,417.227 L 3452.99,418.213 L 3480.34,418.213 L 3484.09,418.581 L 3487.69,419.674 L 3491.01,421.447 L 3493.91,423.834 L 3496.3,426.743 L 3498.07,430.061 L 3499.17,433.661 L 3499.54,437.406 L 3499.54,475.791 L 3499.17,479.536 L 3498.07,483.136 L 3496.3,486.454 L 3493.91,489.363 L 3491.01,491.75 L 3487.69,493.523 L 3484.09,494.615 L 3480.34,494.984 L 3452.98,494.985 L 3444.42,495.967 L 3306.54,495.967 L 3271.35,531.165 L 3271.35,609.346 L 3137.49,609.346 L 3137.49,475.488 L 3215.67,475.488 z " style="fill-opacity:1.000000;fill:rgb(241,179,5);stroke:rgb(0,0,0);stroke-width:2"/></g>
<g fill-rule="evenodd"><path d="M 2965.05,488.745 L 2965.05,447.763 L 2965.8,440.083 L 2968.04,432.697 L 2971.68,425.89 L 2976.58,419.924 L 3084.92,311.578 L 3090.89,306.682 L 3097.7,303.044 L 3105.08,300.804 L 3112.76,300.047 L 4057.42,300.047 L 4065.1,300.804 L 4072.48,303.044 L 4079.29,306.682 L 4085.25,311.578 L 4104.32,330.648 L 4109.22,336.614 L 4112.86,343.421 L 4115.1,350.807 L 4115.86,358.487 L 4115.86,1254.42 L 4115.1,1262.1 L 4112.86,1269.48 L 4109.22,1276.29 L 4104.33,1282.25 L 4099.33,1287.25 L 4093.37,1292.15 L 4086.56,1295.79 L 4079.17,1298.03 L 4071.49,1298.79 L 4017.46,1298.79 L 4016.34,1302.69 L 4014.57,1306.01 L 4012.18,1308.91 L 4009.27,1311.3 L 4005.96,1313.07 L 4002.35,1314.17 L 3998.61,1314.54 L 3960.22,1314.54 L 3956.48,1314.17 L 3952.88,1313.07 L 3949.56,1311.3 L 3946.65,1308.91 L 3944.27,1306.01 L 3942.49,1302.69 L 3941.4,1299.09 L 3941.03,1295.34 L 3941.03,1267.15 L 3940.26,1263.53 L 3940.26,1255.3 L 3941.03,1251.69 L 3941.03,1223.49 L 3941.4,1219.75 L 3942.49,1216.15 L 3944.27,1212.83 L 3946.65,1209.92 L 3949.56,1207.53 L 3952.88,1205.76 L 3956.48,1204.67 L 3960.22,1204.3 L 3998.61,1204.3 L 4002.35,1204.67 L 4005.96,1205.76 L 4009.27,1207.53 L 4012.18,1209.92 L 4014.57,1212.83 L 4016.34,1216.15 L 4017.46,1220.05 L 4037.12,1220.05 L 4037.12,378.787 L 3129.07,378.787 L 3043.79,464.071 L 3043.79,488.746 L 3049.2,492.679 L 3058.56,503.077 L 3065.56,515.195 L 3069.88,528.502 L 3071.35,542.417 L 3069.88,556.333 L 3065.56,569.64 L 3058.56,581.757 L 3049.2,592.155 L 3037.88,600.38 L 3025.1,606.071 L 3011.41,608.98 L 2997.42,608.98 L 2983.74,606.071 L 2970.95,600.38 L 2959.63,592.155 L 2950.27,581.757 L 2943.27,569.64 L 2938.95,556.333 L 2937.49,542.417 L 2938.95,528.502 L 2943.27,515.195 L 2950.27,503.077 L 2959.63,492.679 L 2965.05,488.745 z " style="fill-opacity:1.000000;fill:rgb(239,247,0);stroke:rgb(0,0,0);stroke-width:2"/></g>
<g fill-rule="evenodd"><path d="M 3634.1,772.984 L 3620.98,772.984 L 3612.42,773.967 L 3451.6,773.967 L 3443.92,773.211 L 3436.53,770.971 L 3434.35,769.803 L 3412.49,769.803 L 3408.75,769.434 L 3405.15,768.342 L 3401.83,766.569 L 3398.92,764.182 L 3396.53,761.273 L 3394.76,757.955 L 3393.67,754.355 L 3393.3,750.61 L 3393.3,712.224 L 3393.67,708.48 L 3394.76,704.88 L 3396.53,701.561 L 3398.92,698.653 L 3401.83,696.266 L 3405.05,694.546 L 3405.05,642.283 L 3401.15,641.161 L 3397.83,639.387 L 3394.92,637.001 L 3392.53,634.092 L 3390.76,630.774 L 3389.67,627.173 L 3389.3,623.429 L 3389.3,585.043 L 3389.67,581.299 L 3390.76,577.698 L 3392.53,574.38 L 3394.92,571.472 L 3397.83,569.085 L 3401.15,567.311 L 3404.75,566.219 L 3408.49,565.85 L 3436.68,565.851 L 3440.3,565.081 L 3448.53,565.081 L 3452.15,565.851 L 3480.34,565.85 L 3484.09,566.219 L 3487.69,567.311 L 3491.01,569.085 L 3493.91,571.472 L 3496.3,574.38 L 3498.07,577.698 L 3499.17,581.299 L 3499.54,585.043 L 3499.54,623.429 L 3499.17,627.173 L 3498.07,630.774 L 3496.3,634.092 L 3493.91,637.001 L 3491.01,639.387 L 3487.69,641.161 L 3483.79,642.283 L 3483.79,693.031 L 3488.09,693.4 L 3491.69,694.492 L 3493.06,695.227 L 3612.42,695.227 L 3620.99,696.213 L 3648.34,696.213 L 3652.09,696.581 L 3655.69,697.674 L 3659.01,699.447 L 3661.91,701.834 L 3664.3,704.743 L 3666.07,708.061 L 3667.17,711.661 L 3667.54,715.406 L 3667.54,753.791 L 3667.17,757.536 L 3666.07,761.136 L 3664.3,764.454 L 3661.9,767.375 L 3710.77,816.246 L 3712.24,818.035 L 3713.33,820.077 L 3714,822.293 L 3714.23,824.597 L 3714.23,1371.42 L 3714,1373.72 L 3713.33,1375.94 L 3712.24,1377.98 L 3710.77,1379.77 L 3664.32,1426.22 L 3662.53,1427.69 L 3660.49,1428.78 L 3658.27,1429.45 L 3655.97,1429.68 L 3071.07,1429.68 L 3069.15,1431.57 L 3067.85,1432.26 L 3064.99,1432.83 L 2961.84,1432.83 L 2958.98,1432.26 L 2956.55,1430.64 L 2954.93,1428.21 L 2954.36,1425.35 L 2954.51,1408.93 L 2954.93,1407.52 L 2956.55,1405.1 L 2958.98,1403.47 L 2961.84,1402.91 L 3064.99,1402.91 L 3067.85,1403.47 L 3069.15,1404.17 L 3071.07,1406.05 L 3651.08,1406.05 L 3690.61,1366.52 L 3690.61,829.49 L 3634.1,772.984 z " style="fill-opacity:1.000000;fill:rgb(233,161,58);stroke:rgb(0,0,0);stroke-width:2"/></g>
<g fill-rule="evenodd"><path d="M 3793.39,1267.99 L 3792.41,1259.42 L 3792.41,1090.42 L 3793.39,1081.85 L 3793.39,1054.49 L 3793.76,1050.75 L 3794.85,1047.15 L 3796.63,1043.83 L 3799.02,1040.92 L 3801.92,1038.53 L 3805.24,1036.76 L 3808.84,1035.67 L 3812.59,1035.3 L 3850.97,1035.3 L 3854.72,1035.67 L 3858.32,1036.76 L 3861.64,1038.53 L 3864.54,1040.92 L 3866.93,1043.83 L 3868.7,1047.15 L 3869.8,1050.75 L 3870.17,1054.49 L 3870.17,1081.85 L 3871.15,1090.42 L 3871.15,1259.42 L 3870.17,1267.98 L 3870.17,1295.34 L 3869.8,1299.09 L 3868.7,1302.69 L 3866.93,1306.01 L 3864.54,1308.91 L 3861.64,1311.3 L 3858.32,1313.07 L 3854.72,1314.17 L 3850.97,1314.54 L 3843.59,1314.54 L 3843.59,1427.05 L 3843.36,1429.36 L 3842.69,1431.57 L 3841.6,1433.62 L 3840.13,1435.4 L 3798.14,1477.4 L 3796.35,1478.87 L 3794.31,1479.96 L 3792.09,1480.63 L 3789.79,1480.86 L 3071.07,1480.86 L 3069.15,1482.75 L 3067.85,1483.44 L 3064.99,1484.01 L 2961.84,1484.01 L 2958.98,1483.44 L 2957.69,1482.75 L 2955.77,1480.86 L 2186.86,1480.86 L 2186.86,1503.79 L 2186.63,1506.09 L 2185.96,1508.31 L 2184.87,1510.35 L 2183.4,1512.14 L 2166.96,1528.58 L 2165.17,1530.05 L 2163.13,1531.14 L 2160.91,1531.81 L 2158.61,1532.04 L 2047.45,1532.04 L 2045.53,1533.93 L 2044.23,1534.62 L 2041.37,1535.19 L 1938.22,1535.19 L 1935.36,1534.62 L 1932.93,1533 L 1931.31,1530.57 L 1930.88,1529.17 L 1930.74,1512.75 L 1931.31,1509.89 L 1932.93,1507.46 L 1934.06,1506.53 L 1935.36,1505.84 L 1938.22,1505.27 L 2041.37,1505.27 L 2044.23,1505.84 L 2045.53,1506.53 L 2047.45,1508.42 L 2153.71,1508.42 L 2163.23,1498.89 L 2163.23,1469.05 L 2163.46,1466.74 L 2164.13,1464.53 L 2165.22,1462.48 L 2166.69,1460.69 L 2168.48,1459.22 L 2170.53,1458.13 L 2172.74,1457.46 L 2175.05,1457.23 L 2955.77,1457.23 L 2957.69,1455.35 L 2958.98,1454.66 L 2961.84,1454.09 L 3064.99,1454.09 L 3067.85,1454.66 L 3069.15,1455.35 L 3071.07,1457.23 L 3784.89,1457.23 L 3819.97,1422.16 L 3819.97,1314.54 L 3812.59,1314.54 L 3808.84,1314.17 L 3805.24,1313.07 L 3801.92,1311.3 L 3799.02,1308.91 L 3796.63,1306.01 L 3794.85,1302.69 L 3793.76,1299.09 L 3793.39,1295.34 L 3793.39,1267.99 z " style="fill-opacity:1.000000;fill:rgb(229,202,11);stroke:rgb(0,0,0);stroke-width:2"/></g>
<g fill-rule="evenodd"><path d="M 3620.15,843.85 L 3648.34,843.85 L 3652.09,844.219 L 3655.69,845.311 L 3659.01,847.085 L 3661.91,849.472 L 3664.3,852.38 L 3666.07,855.698 L 3667.17,859.299 L 3667.54,863.043 L 3667.54,901.429 L 3667.17,905.173 L 3666.07,908.774 L 3664.3,912.092 L 3661.91,915.001 L 3659.01,917.387 L 3655.69,919.161 L 3651.79,920.283 L 3651.79,949.417 L 3651.03,957.098 L 3648.64,964.767 L 3649.85,966.854 L 3650.61,970.663 L 3650.61,1345.81 L 3649.84,1349.64 L 3647.68,1352.88 L 3637.44,1363.12 L 3634.19,1365.29 L 3630.37,1366.05 L 3406.23,1366.05 L 3402.4,1365.29 L 3400.67,1364.37 L 3397.91,1361.61 L 3396.42,1358 L 3396.23,1356.05 L 3396.23,967.585 L 3396.98,963.776 L 3397.9,962.053 L 3400.63,959.296 L 3404.21,957.79 L 3409.06,957.564 L 3409.05,917.102 L 3405.15,915.98 L 3401.83,914.206 L 3398.92,911.819 L 3396.53,908.911 L 3394.76,905.593 L 3393.67,901.992 L 3393.3,898.248 L 3393.3,859.862 L 3393.67,856.118 L 3394.76,852.517 L 3396.53,849.199 L 3398.92,846.291 L 3401.83,843.904 L 3405.15,842.13 L 3408.75,841.038 L 3412.49,840.669 L 3440.68,840.669 L 3444.3,839.899 L 3452.53,839.899 L 3456.16,840.669 L 3484.34,840.669 L 3488.09,841.038 L 3491.69,842.13 L 3495.01,843.904 L 3497.91,846.291 L 3500.3,849.199 L 3502.07,852.517 L 3503.17,856.118 L 3503.46,859.053 L 3518.57,859.246 L 3522.17,860.74 L 3523.94,862.235 L 3557.38,862.235 L 3557.67,859.299 L 3558.76,855.698 L 3560.53,852.38 L 3562.92,849.472 L 3565.83,847.085 L 3569.15,845.311 L 3572.75,844.219 L 3576.49,843.85 L 3604.68,843.85 L 3608.3,843.081 L 3616.53,843.081 L 3620.15,843.85M 3503.46,899.053 L 3503.17,901.992 L 3502.07,905.593 L 3500.3,908.911 L 3497.91,911.819 L 3495.01,914.206 L 3491.69,915.98 L 3487.79,917.102 L 3487.79,941.11 L 3504.24,957.564 L 3511.38,956.862 L 3518.92,954.574 L 3524.95,951.568 L 3528.83,951.185 L 3532.56,952.317 L 3534.97,954.04 L 3541.92,957.756 L 3546.89,959.264 L 3573.05,933.11 L 3573.05,920.283 L 3569.15,919.161 L 3565.83,917.387 L 3562.92,915.001 L 3560.53,912.092 L 3558.76,908.774 L 3557.67,905.173 L 3557.38,902.235 L 3542.26,902.043 L 3538.66,900.549 L 3536.89,899.053 L 3503.46,899.053 z " style="fill-opacity:1.000000;fill:rgb(203,208,72);stroke:rgb(0,0,0);stroke-width:2"/></g>
<g fill-rule="evenodd"><path d="M 3941.03,1098.98 L 3940.05,1090.42 L 3940.05,995.202 L 3933.19,995.877 L 3925.65,998.165 L 3918.7,1001.88 L 3912.61,1006.88 L 3906.82,1013.62 L 3905.19,1014.71 L 3901.46,1015.85 L 3899.5,1015.84 L 3895.76,1014.71 L 3883.96,1005.11 L 3873.7,999.625 L 3862.56,996.247 L 3850.48,995.057 L 3813.08,995.057 L 3801,996.247 L 3789.86,999.625 L 3779.59,1005.11 L 3770.57,1012.52 L 3768.86,1013.65 L 3766.96,1014.41 L 3764.94,1014.76 L 3762.89,1014.7 L 3760.9,1014.22 L 3759.05,1013.34 L 3757.41,1012.11 L 3756.06,1010.56 L 3755.06,1008.78 L 3754.44,1006.83 L 3754.23,1004.79 L 3754.23,827.633 L 3754.48,824.596 L 3753.48,814.442 L 3750.52,804.675 L 3745.7,795.674 L 3739.23,787.784 L 3736.91,785.814 L 3710.71,759.614 L 3708.54,756.37 L 3707.78,752.543 L 3707.78,715.897 L 3706.59,703.82 L 3703.21,692.678 L 3697.72,682.412 L 3690.33,673.413 L 3681.33,666.026 L 3671.07,660.539 L 3659.93,657.159 L 3647.85,655.969 L 3624.34,655.969 L 3616.31,655.227 L 3545.94,655.227 L 3543.88,655.013 L 3541.91,654.381 L 3540.12,653.356 L 3538.57,651.984 L 3537.33,650.322 L 3536.47,648.443 L 3536.01,646.426 L 3535.98,644.358 L 3538.59,635.013 L 3539.78,622.936 L 3539.78,585.533 L 3538.59,573.456 L 3535.21,562.316 L 3529.72,552.05 L 3522.33,543.051 L 3514.89,536.66 L 3513.76,534.899 L 3513.03,532.942 L 3512.71,529.961 L 3513.39,526.773 L 3514.89,524.176 L 3522.33,517.783 L 3529.72,508.783 L 3535.21,498.516 L 3538.59,487.377 L 3539.78,475.3 L 3539.78,437.897 L 3538.99,427.686 L 3539.43,425.651 L 3540.29,423.753 L 3541.52,422.072 L 3543.07,420.683 L 3544.87,419.645 L 3546.86,419.004 L 3548.93,418.787 L 3987.12,418.787 L 3989.07,418.979 L 3992.67,420.473 L 3995.43,423.232 L 3996.93,426.836 L 3997.12,428.787 L 3997.12,871.44 L 4007.26,881.578 L 4012.15,887.544 L 4015.79,894.351 L 4018.03,901.737 L 4018.79,909.417 L 4018.79,1090.42 L 4017.8,1098.98 L 4017.8,1126.34 L 4017.43,1130.09 L 4016.34,1133.69 L 4014.57,1137.01 L 4012.18,1139.91 L 4009.27,1142.3 L 4005.96,1144.07 L 4002.35,1145.17 L 3998.61,1145.54 L 3960.22,1145.54 L 3956.48,1145.17 L 3952.88,1144.07 L 3949.56,1142.3 L 3946.65,1139.91 L 3944.27,1137.01 L 3942.49,1133.69 L 3941.4,1130.09 L 3941.03,1126.34 L 3941.03,1098.98 z " style="fill-opacity:1.000000;fill:rgb(71,100,189);stroke:rgb(0,0,0);stroke-width:2"/></g>
</svg>
