<?xml version="1.0" standalone="no"?>
<!DOCTYPE svg PUBLIC "-//W3C//DTD SVG 1.1//EN"
"http://www.w3.org/Graphics/SVG/1.1/DTD/svg11.dtd">
<svg width="216.136" height="149.176" viewBox="0 0 4502.83 3107.83" version="1.1"
xmlns="http://www.w3.org/2000/svg"
xmlns:xlink="http://www.w3.org/1999/xlink">
<polyline points="6.69332,14.4313 6.78132,13.5073 7.04932,12.6193 7.48532,11.7993 8.07332,11.0793 8.78932,10.4913 9.60932,10.0513 10.4973,9.78332 11.4213,9.69132 12.3453,9.78332 16.8813,10.6913 4491.41,6.69132 4492.34,6.78132 4493.22,7.05132 4494.04,7.48732 4494.76,8.07732 4495.35,8.79332 4495.78,9.61132 4496.05,10.4993 4496.14,11.4233 4492.14,3096.42 4492.05,3097.34 4491.78,3098.23 4491.34,3099.04 4490.76,3099.76 4490.04,3100.35 4489.22,3100.78 4488.34,3101.05 4487.42,3101.14 21.4173,3101.14 20.4973,3101.05 19.6113,3100.78 18.7973,3100.35 18.0813,3099.76 17.4933,3099.05 17.0553,3098.24 16.7853,3097.35 16.6913,3096.43 6.69332,14.4313" style="stroke:rgb(103,198,105);stroke-width:9.448819;fill:none;stroke-opacity:0.5;stroke-linecap:round;stroke-linejoin:round;;fill:none"/>
<polyline points="6.69332,14.4313 6.78132,13.5073 7.04932,12.6193 7.48532,11.7993 8.07332,11.0793 8.78932,10.4913 9.60932,10.0513 10.4973,9.78332 11.4213,9.69132 12.3453,9.78332 16.8813,10.6913 4491.41,6.69132 4492.34,6.78132 4493.22,7.05132 4494.04,7.48732 4494.76,8.07732 4495.35,8.79332 4495.78,9.61132 4496.05,10.4993 4496.14,11.4233 4492.14,3096.42 4492.05,3097.34 4491.78,3098.23 4491.34,3099.04 4490.76,3099.76 4490.04,3100.35 4489.22,3100.78 4488.34,3101.05 4487.42,3101.14 21.4173,3101.14 20.4973,3101.05 19.6113,3100.78 18.7973,3100.35 18.0813,3099.76 17.4933,3099.05 17.0553,3098.24 16.7853,3097.35 16.6913,3096.43 6.69332,14.4313" style="stroke:rgb(0,0,0);stroke-width:1px;fill:none;stroke-opacity:1;stroke-linecap:round;stroke-linejoin:round;;fill:none"/>
</svg>
